<?xml version="1.0" encoding="UTF-8" standalone="no"?>
<!DOCTYPE svg PUBLIC "-//W3C//DTD SVG 1.1//EN" "http://www.w3.org/Graphics/SVG/1.1/DTD/svg11.dtd">
<svg width="100%" height="100%" viewBox="0 0 2530 771" version="1.1" xmlns="http://www.w3.org/2000/svg" xmlns:xlink="http://www.w3.org/1999/xlink" xml:space="preserve" xmlns:serif="http://www.serif.com/" style="fill-rule:evenodd;clip-rule:evenodd;stroke-miterlimit:2.613;">
    <g transform="matrix(1,0,0,1,-62.111922,-952.945255)">
        <g transform="matrix(4.166667,0,0,4.166667,0,0)">
            <g id="layer">
                <g>
                    <g transform="matrix(1,0,0,1,113.6,328.5)">
                        <path d="M0,-23.4C1.7,-25 3.4,-26.1 5.4,-27.3C9.3,-29.2 15.2,-29.6 19.1,-27.6L19.3,-27.4L19.3,-27.2C17.9,-25.7 17.4,-25.6 17.9,-24C19.6,-23 19.9,-25 20.4,-26.3L20.7,-26.5C21,-26.5 21.6,-26 21.9,-25.9L21.9,-25.7C21.9,-24.4 18.5,-22.9 20.4,-21.2C22.6,-21.2 22.6,-24.1 24,-24.1L24.2,-23.8L24.7,-23.3L25,-23.1C23.8,-23.1 22.1,-20.5 22.1,-19.2C21.3,-19.2 20.2,-19.5 19.4,-19.7C18.9,-19.7 18.7,-20 18.4,-20.4C17.2,-23.3 14.7,-25.1 11.8,-25.7C10.1,-26 8.7,-26 7,-25.5C3.8,-25 2.4,-22.9 -0.1,-21.6C-0.5,-22.2 -0.3,-23 0,-23.4M-5.1,-9C-5.3,-4.8 -6.1,0.2 -6.1,4.3L-6.3,4.3L-6.5,4.1C-9.9,-1.6 -13.1,-9.2 -16.7,-15C-17,-15.2 -17,-15.2 -17.4,-15C-21.3,-11.9 -31.1,-2.9 -32,-3.8L-32,-4C-31.5,-11.9 -29.8,-23.7 -28.3,-31.5C-27.8,-32 -15.1,-19.8 -5.4,-10.1C-5.1,-9.9 -5.1,-9.5 -5.1,-9M24.6,5.7C19,10.1 9.7,20.1 3.4,22.2C3.4,22.4 2.9,22.2 2.9,21.9C1.5,9 0,-5.3 0,-18.4L0,-19.2C4.1,-21.1 6.6,-26 12.4,-24.1L12.9,-23.8C14.8,-23 16,-21.9 17,-20.1L17,-19.6C15.6,-19.6 13.4,-18 13.9,-16.5L13.9,-16.2C15.4,-14.7 16.1,-17.5 17.5,-17.5L17.7,-17.5C17.7,-17 17.9,-16.5 17.9,-16.1L18.1,-15.8L15.7,-14.8C14.2,-14 14.3,-13.8 14.3,-12.2C14.8,-11.2 17.2,-13 18.4,-13L18.4,-11.4C16.9,-9.9 14.3,-10.8 14.3,-8C15.3,-7 17.2,-8 17.9,-9L18.4,-9C18.4,-8.2 18.7,-7.5 18.4,-6.9L18.4,-6.7C17.4,-6.7 16,-5.7 15.2,-5.2C14.7,-4.7 14,-3.6 14.5,-2.9C16.2,-2.9 15.9,-2.9 17.7,-4.2L18,-4.5L18.3,-4.5C18.3,-3.7 18.6,-3.2 18.3,-2.6C17.1,-2.6 16.1,-0.8 15.6,0.2C13.6,3.3 17.6,0.7 18,0.2L18.3,0.4C18.3,1.4 18.1,2.3 18,3.3C17.5,5.1 17.3,6.4 19.4,6.4C21.4,6.4 20.3,3.7 20.1,2.5C20.1,1.7 20.3,0.7 20.3,-0.1C21.3,-0.1 22.3,1.4 23.5,0.9L23.7,0.9C24.7,-1.4 21.8,-2.2 20.3,-2.8C20,-3.1 20,-4.4 20.3,-4.7L20.5,-4.9C22.2,-4.3 23.2,-2.3 24.4,-3.6C24.4,-5.5 22,-6.5 20.3,-6.5L20.3,-6.7C20,-7 20.1,-8.2 20.1,-8.8C20.1,-8.8 20.1,-9 20.3,-9C20.8,-8.3 24.4,-6.1 24.4,-8.2C24.4,-10.8 21.5,-10.3 20.2,-11.8L20.2,-13.1L20.4,-13.3C20.4,-13.1 23.5,-11.5 23.5,-12.3L23.7,-12.5C23.7,-15.9 21.8,-14.3 20,-16.2C19.8,-16.5 19.7,-17.5 19.7,-18L19.9,-18.2C21.1,-18.2 21.9,-17.1 23.1,-17.1C24,-17.8 23.6,-18.2 22.8,-18.7L22.8,-19.2C24.3,-19.2 25.5,-21.1 26.7,-21.1C27,-20.6 27.4,-20 27.4,-19.5L27.2,-19.3C26.4,-18.6 22.4,-16.4 23.8,-15.1C24.8,-14 27.2,-16.6 28,-16.6C28.2,-16 28.5,-15.3 28.8,-14.5C28,-14.5 24.1,-12.2 25.6,-10.6C26.8,-9.5 28.3,-12.4 29.2,-11.4L29.2,-9.5C28.2,-8.7 24.5,-7.2 26.3,-5.3C27.3,-5.3 29.2,-6.4 29.2,-6.3L29.4,-6.1L29.4,-2.2C29.2,-1.4 29.1,-0.7 28.9,0.1C28.9,1.1 28.7,2.8 30.1,2.8C31.6,2.6 32.3,1.5 31.6,-0.3L31.1,-2.4L31.1,-6.7C32.1,-6.7 33.6,-4.3 34.3,-6.2C35.2,-8.1 32.3,-8.6 31.1,-9.3C30.6,-9.8 30.9,-11.1 30.9,-11.9L31.1,-11.9C32.5,-11.4 33.8,-10.6 34.7,-11.4C35.6,-13.2 31.7,-14 30.8,-14.3C30.5,-14.6 30.3,-15.6 29.9,-16.1C29.9,-16.3 29.9,-16.3 30.1,-16.3C31.3,-16.3 32.5,-15 33.5,-16.1C34.5,-19 31.6,-19.7 29.3,-19.7C29.3,-20.3 28.6,-21 28.6,-21.8C30.6,-21.8 31,-20.7 32.5,-22C33.2,-24.6 28.8,-23.8 27.4,-23.8C27.1,-24.1 26.7,-24.6 26.4,-24.9L26.4,-25.1C27.9,-25.1 29.1,-25.1 30.1,-26.1C30.1,-28.7 25.3,-26.7 24.2,-26.7L23.7,-27.2C16.2,-32.2 7.6,-31.6 0.6,-25.9L0.4,-25.7C0.2,-25.5 0.1,-25.4 -0.1,-25.5C-0.6,-26 -0.1,-27 0.2,-27.4C5.1,-31.6 10,-35.5 16.5,-36.6L16.7,-36.6L17,-36.3L17,-36C16.5,-33.4 16,-32 18.2,-30.8C20.7,-31.3 19,-33.5 19,-36.8L19,-37C19.3,-37.5 21.2,-37.3 21.7,-37L21.7,-36.8C21.7,-34.4 19.7,-32.9 21.7,-30.8L22.2,-30.8C24.4,-31.9 22.7,-35.5 23.9,-36.8C24.2,-37.1 25.6,-36.8 25.9,-36.5L26.1,-36.3L25.9,-36.1C25.4,-35 24.7,-34 24.2,-32.9L24.2,-32.6C23.9,-31.8 24,-31.5 24.5,-30.8L25,-30.6C26.5,-30.6 27.9,-34.7 27.9,-35.6C29.1,-35.6 29.6,-34.5 30.4,-34C29.2,-33.5 26.7,-31.1 28,-29.8C30,-28.8 30.7,-32.2 32.1,-32.9L32.3,-32.9L32.5,-32.6L33.2,-31.8L33.7,-31.2L33.7,-31C33,-31 30.1,-28.6 31,-27.8L31.2,-27.6C32.6,-26.1 33.9,-29.4 34.9,-29.4C35.8,-29.4 35.9,-28.4 36.3,-27.8C35.6,-27.8 30.2,-24.1 33.6,-24.1C34.3,-23.9 34.6,-25.2 37.3,-25.9L37.3,-25.7L37.8,-24.9L37.8,-24.5C36.6,-23.8 35.3,-23.4 34.4,-22.2C33,-18.6 38,-22.2 38.1,-22.4C38.3,-22.6 38.3,-22.6 38.4,-22.6C38.9,-22.1 38.6,-21.3 39.1,-20.8C38.3,-20.8 33.7,-19 35.4,-17.4C36.8,-16.9 39.6,-19.3 39.6,-18.5L39.8,-18.3L40,-17.3L40,-16.7C38.6,-15.2 37.1,-16.1 37.1,-13.5C38.1,-12.5 39.5,-14.5 40.2,-14.5L40.5,-14.5C40.8,-14.2 40.7,-13.4 40.7,-12.9L40.5,-12.6C38.6,-11.8 36.4,-10.8 38.1,-9.5C38.9,-9.5 39.8,-10.3 40.6,-10.3C41.3,-10.3 40.9,-8.2 40.9,-7.5C40.2,-5.4 39.2,-2.5 42.3,-2.5C44.2,-3.5 43.5,-4.9 42.6,-6.9C42.6,-8 42.4,-9.2 42.4,-10.3L42.4,-10.5C43.2,-11.3 44.8,-9.2 46,-10.3C47.9,-12.2 43.1,-13 42.3,-13C42.3,-13.7 42.1,-14.1 42.1,-14.9C43.1,-14.9 44.6,-14.1 46.2,-14.1C48.4,-16.2 43.1,-16.7 41.8,-16.7C41.8,-17.2 41.3,-18.3 41.3,-19.1C43,-19.1 45.2,-18 46.7,-19.6C46.7,-21.5 42.5,-21.1 40.8,-21.1C40.8,-21.8 40.1,-22.7 40.1,-23.5L40.1,-23.7C42.1,-23.7 44,-22.9 45,-25C45,-27.9 41.3,-25.7 39.7,-25L39.4,-25L39.2,-25.3C38.9,-25.9 38.5,-26.4 38.5,-27.1C39.7,-28.4 42.9,-27.9 42.9,-30.2C40.5,-31.2 40,-30.4 37.8,-28.7L37.6,-28.7C36.7,-28.7 36.4,-30 36.1,-30.6L36.1,-30.8C37.8,-32.4 40.7,-32.4 39.8,-35.2L39.6,-35.4C37.4,-35.4 37.1,-34.1 35.2,-32.8C34.9,-32.5 34.7,-32.6 34.4,-32.6L32.7,-34.3L32.9,-34.6C32.9,-34.9 33.2,-35.2 33.6,-35.4C34.6,-36.5 37.5,-36.9 36.3,-39.1C33.4,-40.1 33.6,-36.7 31.4,-35.7C30.7,-35.7 29.5,-36.7 28.8,-37L28.8,-37.2C28.8,-38.7 31.9,-40 31,-41.9L30.8,-42.1C29.1,-43.9 27.4,-39.8 26.9,-38.4L26.7,-38.4L26.4,-38.2C25.6,-38.2 24.7,-38.9 23.9,-38.9L23.7,-39.1L23.7,-39.3L23.9,-39.9C24.8,-41.2 26.6,-44 24.6,-45.1C22.1,-45.1 22.1,-41.4 22.1,-39.4L21.9,-39.2L21.9,-39L21.7,-39C20.7,-38.8 19.8,-38.8 18.8,-38.8C18.8,-40.6 21.2,-43.8 19.3,-45.6L19.1,-45.6C16.9,-45.6 16.7,-40.6 16.7,-38.8L16.7,-38.5L16.5,-38.5C13.3,-37.8 10.6,-36.6 7.5,-35.3C5,-33.8 2.8,-32.4 0.5,-30.4C0.2,-30.2 0,-30.1 -0.2,-29.9C-0.5,-29.6 -0.4,-29.7 -0.9,-29.7L-1.1,-29.7L-2.8,-53.5L-3.5,-59.8L-4,-48.3L-4,-36.2L-4.3,-25.5C-4.5,-23.6 -4.8,-23.7 -5.1,-22.9L-5.3,-22.9C-14.8,-30.3 -23.3,-37.5 -32.6,-45.1L-35.5,-14C-36.2,-7.4 -36.7,-1.5 -37.4,0.1L-37.7,0.3C-41.6,3.1 -45.5,6 -49.6,8.6C-51.5,9.7 -58.6,14.1 -59.6,15.6L-61,16.4L-61,16.7L-60.8,16.7C-53.2,12.6 -45.4,8.9 -37.7,4.7L-38.7,18.8L-38.7,19.9L-38.9,20.9L-38.7,21.1L-38.5,20.9C-37.3,15.1 -35.4,8.1 -33.2,2.6L-33.2,2.4C-29.6,0.9 -22.8,-3.1 -19.3,-3.1L-18.8,-2.6C-14.4,3.7 -9.6,11.3 -6.2,18.3C-6,18.5 -5.9,18.8 -5.9,18.9L-6.6,31.8L-6.4,35.4C-6.4,36.1 3.1,36.4 2.9,35.7C2.9,34.6 3.1,33.6 3.1,32.5L3.3,32.3C10.1,26.3 16.9,20.2 23.8,14.2C24.8,13.5 25,13.1 26.3,13.4L46.3,26.2C47,26.5 47.3,26.8 48,27.2L48.4,27.2C41.3,20.2 34.3,12.8 26.3,6.6C26,6.5 25.1,5.4 24.6,5.7" style="fill:rgb(34,116,50);"/>
                    </g>
                    <g transform="matrix(1,0,0,1,42.2,296.4)">
                        <path d="M0,-5.1L-4.5,-5.7L-1.1,-2.7L0,-5.1ZM1.4,3.8L-8.7,-5.7L-7.2,-8.9L6.6,-7.4L5.2,-4.3L2.4,-4.7L0.7,-1L2.8,0.9L1.4,3.8Z" style="fill:rgb(36,117,50);fill-rule:nonzero;"/>
                    </g>
                    <g transform="matrix(1,0,0,1,43.4,285.9)">
                        <path d="M0,-9.7L-0.1,-9.5C-0.2,-9.4 -0.3,-9.3 -0.5,-9.1C-0.7,-8.9 -0.8,-8.7 -1,-8.6C-1.3,-8.1 -1.5,-7.7 -1.4,-7.4C-1.3,-7.1 -1,-6.8 -0.5,-6.4L-0.4,-6.4L1,-8.4L2.8,-7.2L1.5,-5.3L7.9,-1L6.2,1.5L-0.2,-2.8L-0.9,-1.8L-2.7,-3L-2,-4L-2.2,-4.2C-3.2,-4.9 -3.8,-5.6 -3.9,-6.5C-4,-7.4 -3.8,-8.3 -3,-9.4C-2.7,-9.8 -2.5,-10.1 -2.3,-10.4C-2.1,-10.7 -1.8,-11 -1.6,-11.2L0,-9.7Z" style="fill:rgb(36,117,50);fill-rule:nonzero;"/>
                    </g>
                    <g transform="matrix(1,0,0,1,51.8,280.2)">
                        <path d="M0,-7.7L-0.2,-7.5C-0.3,-7.4 -0.4,-7.3 -0.6,-7.2C-0.8,-7 -0.9,-6.9 -1.1,-6.6C-1.3,-6.3 -1.5,-6.1 -1.6,-5.7C-1.8,-5.4 -1.9,-5 -2,-4.7L3.2,-0.6L1.3,1.8L-6.4,-4.4L-4.5,-6.8L-3.4,-5.9L-3.4,-6.7C-3.4,-7 -3.4,-7.3 -3.3,-7.5C-3.3,-7.8 -3.2,-8 -3.1,-8.3C-3,-8.6 -2.8,-8.8 -2.7,-9C-2.6,-9.1 -2.6,-9.2 -2.5,-9.3C-2.4,-9.4 -2.3,-9.5 -2.3,-9.5L0,-7.7Z" style="fill:rgb(36,117,50);fill-rule:nonzero;"/>
                    </g>
                    <g transform="matrix(1,0,0,1,60.6,266.9)">
                        <path d="M0,7.4L-2.1,9.6L-9.2,2.8L-7.1,0.6L0,7.4ZM-8.1,-0.5L-10.4,1.8L-12.1,0.1L-9.8,-2.2L-8.1,-0.5Z" style="fill:rgb(36,117,50);fill-rule:nonzero;"/>
                    </g>
                    <g transform="matrix(1,0,0,1,66.2,261.9)">
                        <path d="M0,7.8C-0.6,8.3 -1.3,8.7 -1.9,9C-2.5,9.3 -3.2,9.4 -3.9,9.4C-4.6,9.4 -5.2,9.2 -5.8,8.9C-6.4,8.6 -7,8.1 -7.6,7.4C-8.2,6.7 -8.6,6 -8.8,5.3C-9,4.6 -9.1,3.9 -9,3.3C-8.9,2.7 -8.7,2.1 -8.3,1.5C-7.9,0.9 -7.5,0.4 -6.9,-0.1C-6.5,-0.5 -6,-0.8 -5.5,-1C-5,-1.3 -4.5,-1.5 -3.9,-1.6L-2.2,0.4L-2.5,0.7L-3.1,0.7C-3.3,0.7 -3.6,0.7 -3.8,0.8C-4.1,0.9 -4.3,0.9 -4.6,1.1C-4.9,1.2 -5.1,1.4 -5.4,1.6C-6,2.1 -6.3,2.7 -6.2,3.4C-6.2,4.1 -5.8,4.8 -5.2,5.5C-4.5,6.2 -3.9,6.7 -3.2,6.7C-2.5,6.8 -1.9,6.5 -1.3,6.1C-1,5.8 -0.8,5.6 -0.6,5.3C-0.4,5 -0.3,4.8 -0.2,4.6C-0.1,4.4 -0.1,4.2 -0.1,4C-0.1,3.8 -0.1,3.6 0,3.5L0.3,3.2L2,5.2C1.9,5.4 1.8,5.6 1.7,5.8C1.6,6 1.5,6.2 1.3,6.4C1.1,6.7 1,6.9 0.8,7.1C0.6,7.3 0.4,7.6 0,7.8" style="fill:rgb(36,117,50);fill-rule:nonzero;"/>
                    </g>
                    <g transform="matrix(1,0,0,1,73,259.5)">
                        <path d="M0,1.8L-1.1,0.1C-1.5,0.4 -1.9,0.7 -2.1,0.9C-2.4,1.1 -2.6,1.3 -2.8,1.6C-3,1.8 -3.1,2.1 -3.1,2.3C-3.1,2.5 -3.1,2.8 -2.9,3.1C-2.7,3.5 -2.4,3.7 -2.1,3.7C-1.8,3.7 -1.4,3.6 -1,3.3C-0.8,3.2 -0.6,3 -0.4,2.7C-0.2,2.4 -0.1,2.1 0,1.8M0.8,3.1C0.7,3.4 0.6,3.6 0.6,3.8C0.5,4 0.4,4.2 0.3,4.5C0.1,4.8 0,5 -0.2,5.2C-0.4,5.4 -0.7,5.6 -1.1,5.9C-1.8,6.4 -2.6,6.5 -3.4,6.3C-4.2,6.1 -4.8,5.6 -5.3,4.9C-5.7,4.3 -5.9,3.7 -5.9,3.2C-5.9,2.7 -5.7,2.1 -5.4,1.6C-5.1,1.1 -4.6,0.6 -4,0.1C-3.4,-0.4 -2.7,-0.9 -2,-1.4C-2.3,-1.9 -2.7,-2.1 -3.1,-2C-3.5,-1.9 -4.1,-1.7 -4.8,-1.3C-5.1,-1.1 -5.4,-0.8 -5.8,-0.5C-6.1,-0.1 -6.5,0.3 -6.7,0.7L-6.9,0.8L-8.2,-1.2C-8,-1.4 -7.6,-1.8 -7.1,-2.2C-6.6,-2.7 -6,-3.1 -5.4,-3.4C-4,-4.3 -2.7,-4.7 -1.8,-4.6C-0.8,-4.5 0,-4 0.6,-3L4.2,2.7L1.6,4.3L0.8,3.1Z" style="fill:rgb(36,117,50);fill-rule:nonzero;"/>
                    </g>
                    <g transform="matrix(1,0,0,1,88,254.9)">
                        <path d="M0,-6.8C-0.1,-7.1 -0.2,-7.4 -0.4,-7.6C-0.6,-7.8 -0.8,-7.9 -1.2,-8L-1.9,-8C-2.2,-8 -2.5,-7.9 -2.8,-7.8L-3.9,-7.5L-2.9,-4.1L-2,-4.4C-1.6,-4.5 -1.2,-4.7 -0.9,-4.8C-0.6,-4.9 -0.4,-5.1 -0.2,-5.4C0,-5.6 0.1,-5.8 0.1,-6.1C0.1,-6.1 0.1,-6.4 0,-6.8M7.6,0.5L3.7,1.6L-1.2,-2L-2.3,-1.7L-1,2.9L-4.2,3.8L-7.8,-8.7L-2.7,-10.1C-2,-10.3 -1.4,-10.4 -0.8,-10.5C-0.3,-10.6 0.3,-10.5 0.8,-10.4C1.3,-10.2 1.8,-10 2.2,-9.6C2.6,-9.2 2.9,-8.7 3.1,-8C3.4,-7 3.4,-6.2 3.1,-5.5C2.8,-4.8 2.4,-4.1 1.8,-3.6L7.6,0.5Z" style="fill:rgb(36,117,50);fill-rule:nonzero;"/>
                    </g>
                    <g transform="matrix(1,0,0,1,99.5,242.1)">
                        <path d="M0,13.2L-3.1,13.6L-4.3,3.8L-1.2,3.4L0,13.2ZM-1.3,2L-4.5,2.4L-4.8,0L-1.6,-0.4L-1.3,2Z" style="fill:rgb(36,117,50);fill-rule:nonzero;"/>
                    </g>
                    <g transform="matrix(1,0,0,1,107,244.6)">
                        <path d="M0,10.3C-0.8,10.3 -1.6,10.2 -2.3,10C-3,9.8 -3.6,9.5 -4.1,9.1C-4.6,8.7 -5,8.1 -5.3,7.5C-5.6,6.9 -5.7,6.1 -5.7,5.2C-5.7,4.3 -5.5,3.5 -5.2,2.8C-4.9,2.1 -4.5,1.6 -4,1.2C-3.5,0.8 -2.9,0.5 -2.3,0.3C-1.7,0.1 -0.9,0 -0.2,0C0.3,0 0.9,0.1 1.4,0.2C1.9,0.3 2.5,0.5 3.1,0.8L3.1,3.4L2.7,3.4C2.6,3.3 2.4,3.2 2.2,3C2,2.9 1.8,2.7 1.6,2.6C1.4,2.5 1.1,2.4 0.8,2.3C0.5,2.2 0.2,2.2 -0.1,2.2C-0.9,2.2 -1.5,2.5 -1.9,3C-2.3,3.5 -2.5,4.3 -2.5,5.2C-2.5,6.2 -2.3,6.9 -1.8,7.4C-1.3,7.9 -0.7,8.1 0,8.1C0.4,8.1 0.7,8.1 1,8C1.3,7.9 1.5,7.8 1.8,7.7C2,7.6 2.2,7.5 2.3,7.3C2.4,7.2 2.6,7.1 2.7,6.9L3.1,6.9L3.1,9.5C2.9,9.6 2.7,9.7 2.5,9.8C2.3,9.9 2,10 1.8,10C1.5,10.1 1.2,10.1 1,10.2C0.8,10.3 0.4,10.3 0,10.3" style="fill:rgb(36,117,50);fill-rule:nonzero;"/>
                    </g>
                    <g transform="matrix(1,0,0,1,118.6,251)">
                        <path d="M0,-1.9C0.1,-2.5 0,-3.1 -0.2,-3.4C-0.4,-3.8 -0.8,-4 -1.4,-4.1C-2,-4.2 -2.5,-4.1 -2.9,-3.8C-3.3,-3.5 -3.5,-3 -3.7,-2.4L0,-1.9ZM-1.9,4.3C-3.8,4 -5.1,3.4 -6,2.4C-6.9,1.4 -7.2,0.1 -7,-1.6C-6.8,-3.2 -6.1,-4.4 -5.1,-5.2C-4,-6 -2.7,-6.3 -1,-6.1C0.5,-5.9 1.6,-5.3 2.2,-4.4C2.8,-3.5 3.1,-2.3 2.8,-0.8L2.6,0.3L-4.1,-0.6C-4.1,-0.1 -4.1,0.2 -4,0.6C-3.9,1 -3.7,1.2 -3.5,1.4C-3.3,1.6 -3,1.8 -2.6,1.9C-2.3,2 -1.9,2.1 -1.5,2.2C-1.1,2.2 -0.8,2.3 -0.4,2.2C0,2.1 0.3,2.1 0.6,2C0.9,1.9 1.1,1.8 1.3,1.7C1.5,1.6 1.7,1.5 1.9,1.4L2.2,1.4L1.8,3.9C1.5,4 1.3,4 1.1,4.1C0.9,4.2 0.6,4.2 0.2,4.2C-0.1,4.2 -0.5,4.3 -0.9,4.3C-1,4.4 -1.4,4.4 -1.9,4.3" style="fill:rgb(36,117,50);fill-rule:nonzero;"/>
                    </g>
                    <g transform="matrix(1,0,0,1,132.6,246.9)">
                        <path d="M0,12.6C-1.8,11.9 -3.1,10.8 -3.8,9.3C-4.5,7.8 -4.4,6 -3.6,4C-2.9,2.1 -1.7,0.7 -0.2,0C1.3,-0.7 3,-0.8 4.9,-0.1C5.4,0.1 5.8,0.3 6.2,0.5C6.6,0.7 6.9,0.9 7.2,1.2C7.4,1.4 7.7,1.6 8,1.9C8.3,2.2 8.5,2.4 8.7,2.6L7.6,5.5L7.3,5.4C7.2,5.2 7.1,5 6.9,4.7C6.7,4.4 6.6,4.2 6.3,3.9C6,3.6 5.8,3.3 5.5,3.1C5.2,2.8 4.9,2.6 4.5,2.5C4.1,2.3 3.6,2.2 3.2,2.2C2.8,2.2 2.3,2.3 1.9,2.5C1.5,2.7 1.1,3 0.7,3.5C0.3,4 0,4.5 -0.3,5.3C-0.6,6.1 -0.7,6.7 -0.7,7.3C-0.7,7.9 -0.6,8.4 -0.4,8.9C-0.2,9.3 0.1,9.7 0.4,10C0.7,10.3 1.1,10.5 1.5,10.7C1.9,10.9 2.3,10.9 2.7,10.9C3.1,10.9 3.5,10.9 3.8,10.8C4.1,10.7 4.4,10.7 4.7,10.6C5,10.5 5.2,10.4 5.4,10.3L5.7,10.4L4.6,13.3C4.3,13.3 4,13.3 3.7,13.4L2.7,13.4C2.3,13.4 1.9,13.3 1.5,13.3C1.1,12.9 0.6,12.8 0,12.6" style="fill:rgb(36,117,50);fill-rule:nonzero;"/>
                    </g>
                    <g transform="matrix(1,0,0,1,146.8,260.4)">
                        <path d="M0,-1.3C0.3,-1.9 0.4,-2.4 0.3,-2.8C0.2,-3.2 -0.1,-3.6 -0.6,-3.9C-1.1,-4.2 -1.6,-4.2 -2.1,-4.1C-2.6,-3.9 -3,-3.6 -3.3,-3.1L0,-1.3ZM-4,3.9C-5.7,3 -6.7,2 -7.2,0.7C-7.7,-0.6 -7.5,-1.9 -6.7,-3.3C-5.9,-4.7 -4.9,-5.6 -3.6,-6C-2.3,-6.4 -0.9,-6.2 0.5,-5.4C1.8,-4.7 2.7,-3.8 3,-2.7C3.3,-1.6 3.1,-0.4 2.4,0.9L1.9,1.9L-4.1,-1.3C-4.3,-0.9 -4.4,-0.5 -4.4,-0.2C-4.4,0.1 -4.3,0.5 -4.2,0.8C-4.1,1.1 -3.8,1.3 -3.6,1.6C-3.4,1.9 -3,2 -2.6,2.2C-2.3,2.4 -2,2.5 -1.6,2.6C-1.3,2.7 -0.9,2.7 -0.6,2.8L0.2,2.8C0.5,2.8 0.7,2.8 0.8,2.7L1.1,2.9L-0.1,5.1C-0.4,5.1 -0.6,5 -0.8,5C-1,5 -1.3,4.9 -1.7,4.8C-2,4.7 -2.4,4.6 -2.7,4.5C-3.2,4.3 -3.6,4.1 -4,3.9" style="fill:rgb(36,117,50);fill-rule:nonzero;"/>
                    </g>
                    <g transform="matrix(1,0,0,1,155,260)">
                        <path d="M0,13.4L-2.3,11.4L0.9,7.7C1.2,7.4 1.4,7.1 1.6,6.8C1.8,6.5 2,6.2 2,6C2.1,5.8 2.1,5.5 2,5.3C1.9,5.1 1.7,4.9 1.5,4.7C1.3,4.5 1.1,4.4 0.8,4.3C0.5,4.2 0.2,4.1 -0.1,4.1L-4.7,9.4L-7,7.4L-0.5,0L1.8,2L1.1,2.8C1.8,2.8 2.4,2.9 2.9,3C3.4,3.1 3.9,3.4 4.3,3.8C5.1,4.5 5.4,5.2 5.4,6C5.4,6.8 5,7.7 4.2,8.6L0,13.4Z" style="fill:rgb(36,117,50);fill-rule:nonzero;"/>
                    </g>
                    <g transform="matrix(1,0,0,1,158.7,268.3)">
                        <path d="M0,9.6C-0.8,8.7 -1.3,7.8 -1.3,7.1C-1.3,6.4 -0.9,5.6 0,4.8L3.4,1.7L2.6,0.8L4.2,-0.6L5,0.3L7.1,-1.6L9.2,0.7L7.1,2.6L9.1,4.8L7.5,6.2L5.5,4L2.9,6.3C2.6,6.5 2.4,6.7 2.2,6.9C2,7.1 1.9,7.3 1.8,7.5C1.7,7.7 1.7,7.9 1.7,8.1C1.7,8.3 1.9,8.6 2.2,8.9C2.3,9 2.5,9.2 2.7,9.3C2.9,9.5 3.1,9.5 3.2,9.6L3.4,9.8L1.8,11.2C1.5,11 1.2,10.8 0.9,10.5C0.7,10.3 0.4,10 0,9.6" style="fill:rgb(36,117,50);fill-rule:nonzero;"/>
                    </g>
                    <g transform="matrix(1,0,0,1,170,281.6)">
                        <path d="M0,0.1C0.5,-0.3 0.8,-0.7 0.9,-1.1C1,-1.5 0.9,-2 0.5,-2.5C0.1,-3 -0.3,-3.3 -0.8,-3.3C-1.3,-3.4 -1.8,-3.2 -2.3,-2.9L0,0.1ZM-5.9,3C-7,1.5 -7.5,0.1 -7.3,-1.2C-7.2,-2.5 -6.4,-3.7 -5.1,-4.6C-3.8,-5.5 -2.5,-5.9 -1.1,-5.7C0.2,-5.5 1.4,-4.8 2.4,-3.4C3.3,-2.2 3.6,-1 3.4,0.1C3.2,1.2 2.5,2.2 1.2,3.1L0.3,3.7L-3.7,-1.7C-4.1,-1.4 -4.3,-1.1 -4.5,-0.8C-4.7,-0.5 -4.7,-0.2 -4.7,0.2C-4.7,0.5 -4.6,0.8 -4.5,1.2C-4.4,1.5 -4.2,1.9 -3.9,2.2C-3.7,2.5 -3.4,2.7 -3.2,3C-2.9,3.2 -2.7,3.4 -2.4,3.6C-2.2,3.7 -1.9,3.9 -1.7,4C-1.5,4.1 -1.3,4.2 -1.1,4.2L-0.9,4.5L-3,6C-3.2,5.9 -3.4,5.7 -3.6,5.6C-3.8,5.5 -4,5.3 -4.3,5.1C-4.6,4.9 -4.8,4.6 -5.1,4.4C-5.3,3.8 -5.6,3.4 -5.9,3" style="fill:rgb(36,117,50);fill-rule:nonzero;"/>
                    </g>
                    <g transform="matrix(1,0,0,1,176.3,284.7)">
                        <path d="M0,7.1L-0.1,6.9C-0.1,6.8 -0.2,6.6 -0.3,6.4C-0.4,6.2 -0.5,6 -0.6,5.7C-0.8,5.4 -1,5.1 -1.2,4.9C-1.5,4.6 -1.7,4.4 -2,4.1L-7.9,7.2L-9.4,4.5L-0.6,-0.1L0.9,2.6L-0.4,3.3C-0.2,3.4 0,3.5 0.3,3.6C0.6,3.7 0.8,3.9 1,4C1.2,4.1 1.4,4.3 1.7,4.5C1.9,4.7 2.1,4.9 2.2,5.2C2.2,5.3 2.3,5.4 2.3,5.5C2.4,5.6 2.4,5.7 2.4,5.8L0,7.1Z" style="fill:rgb(36,117,50);fill-rule:nonzero;"/>
                    </g>
                    <g transform="matrix(1,0,0,1,30,323.6)">
                        <path d="M0,1.8C0,-0.2 0.5,-1.7 1.7,-2.9C2.9,-4.1 4.5,-4.7 6.7,-4.7C8.8,-4.7 10.5,-4.2 11.7,-3.1C13,-2 13.6,-0.4 13.6,1.5C13.6,2 13.6,2.5 13.5,2.9C13.4,3.3 13.4,3.7 13.3,4.1C13.2,4.4 13.1,4.7 13,5.1C12.9,5.5 12.7,5.7 12.6,6L9.5,6.1L9.5,5.8C9.6,5.6 9.8,5.4 10,5.2C10.2,5 10.4,4.7 10.6,4.4C10.8,4.1 10.9,3.8 11.1,3.4C11.2,3 11.3,2.7 11.3,2.3C11.3,1.8 11.2,1.4 11.1,1C10.9,0.6 10.7,0.2 10.3,-0.1C10,-0.4 9.5,-0.7 8.9,-0.9C8.3,-1.1 7.6,-1.2 6.9,-1.2C6.1,-1.2 5.4,-1.1 4.8,-0.8C4.2,-0.6 3.8,-0.3 3.5,0.1C3.2,0.4 2.9,0.8 2.8,1.2C2.7,1.6 2.6,2 2.6,2.5C2.6,2.9 2.7,3.3 2.8,3.7C2.9,4.1 3.1,4.4 3.3,4.7C3.5,5 3.7,5.2 3.9,5.5C4.1,5.7 4.3,5.9 4.4,6.1L4.4,6.4L1.3,6.5C1.2,6.3 1.1,6 0.9,5.7C0.7,5.4 0.6,5.1 0.5,4.7C0.4,4.3 0.3,3.9 0.2,3.6C0,2.9 0,2.4 0,1.8" style="fill:rgb(36,117,50);fill-rule:nonzero;"/>
                    </g>
                    <g transform="matrix(1,0,0,1,38,333.6)">
                        <path d="M0,2.9C0.6,2.8 1.1,2.6 1.4,2.2C1.7,1.9 1.8,1.4 1.7,0.8C1.6,0.2 1.4,-0.2 0.9,-0.5C0.5,-0.8 0,-0.9 -0.6,-0.8L0,2.9ZM-6.6,2.9C-6.9,1.1 -6.7,-0.4 -5.9,-1.5C-5.2,-2.6 -4,-3.3 -2.4,-3.6C-0.8,-3.9 0.6,-3.6 1.7,-2.8C2.8,-2 3.5,-0.8 3.7,0.8C3.9,2.3 3.7,3.5 3,4.3C2.3,5.2 1.2,5.7 -0.3,6L-1.4,6.2L-2.5,-0.4C-2.9,-0.3 -3.3,-0.1 -3.6,0.1C-3.9,0.3 -4.1,0.6 -4.2,0.9C-4.3,1.2 -4.4,1.5 -4.4,1.9C-4.4,2.3 -4.4,2.6 -4.3,3.1C-4.2,3.5 -4.1,3.8 -4,4.1C-3.9,4.4 -3.7,4.7 -3.5,5C-3.3,5.2 -3.2,5.4 -3,5.6C-2.8,5.8 -2.7,5.9 -2.6,6.1L-2.5,6.4L-5,6.8C-5.1,6.6 -5.3,6.4 -5.4,6.2C-5.5,6 -5.6,5.7 -5.8,5.4C-5.9,5.1 -6.1,4.8 -6.2,4.4C-6.4,3.8 -6.5,3.4 -6.6,2.9" style="fill:rgb(36,117,50);fill-rule:nonzero;"/>
                    </g>
                    <g transform="matrix(1,0,0,1,35.9,338.7)">
                        <path d="M0,11.6L-1,8.7L3.7,7.2C4.1,7.1 4.5,6.9 4.8,6.8C5.2,6.6 5.4,6.5 5.6,6.4C5.8,6.2 5.9,6 5.9,5.8C5.9,5.6 5.9,5.3 5.8,5C5.7,4.8 5.6,4.5 5.4,4.3C5.2,4.1 5,3.9 4.7,3.7L-2,5.9L-3,3L6.4,0L7.4,2.9L6.4,3.2C7,3.5 7.4,3.9 7.8,4.3C8.2,4.7 8.5,5.1 8.6,5.7C8.9,6.7 8.8,7.5 8.4,8.2C8,8.9 7.2,9.4 6,9.8L0,11.6Z" style="fill:rgb(36,117,50);fill-rule:nonzero;"/>
                    </g>
                    <g transform="matrix(1,0,0,1,38.4,349.1)">
                        <path d="M0,7.2C-0.6,6.1 -0.8,5.2 -0.6,4.4C-0.4,3.7 0.2,3 1.3,2.5L5.4,0.4L4.9,-0.6L6.8,-1.6L7.3,-0.6L9.8,-1.9L11.2,0.8L8.7,2.1L10.1,4.7L8.2,5.7L6.8,3.1L3.7,4.7C3.4,4.9 3.1,5 2.9,5.1C2.7,5.2 2.5,5.4 2.3,5.5C2.2,5.7 2.1,5.9 2.1,6.1C2.1,6.3 2.2,6.6 2.4,7C2.5,7.1 2.6,7.3 2.8,7.5C3,7.7 3.1,7.8 3.2,7.9L3.3,8.1L1.4,9.1C1.2,8.8 0.9,8.6 0.7,8.2C0.5,8 0.2,7.6 0,7.2" style="fill:rgb(36,117,50);fill-rule:nonzero;"/>
                    </g>
                    <g transform="matrix(1,0,0,1,49.5,354.6)">
                        <path d="M0,6.4L-0.1,6.2C-0.1,6.1 -0.2,5.9 -0.3,5.7C-0.4,5.5 -0.5,5.3 -0.7,5.1C-0.9,4.8 -1.1,4.6 -1.4,4.3C-1.7,4 -1.9,3.8 -2.2,3.6L-7.8,7.1L-9.4,4.5L-1,-0.7L0.6,1.9L-0.6,2.6C-0.4,2.6 -0.2,2.7 0.1,2.8C0.4,2.9 0.7,3 0.9,3.1C1.1,3.2 1.4,3.4 1.6,3.6C1.8,3.8 2,4 2.2,4.2C2.3,4.3 2.3,4.4 2.4,4.5C2.5,4.6 2.5,4.7 2.6,4.8L0,6.4Z" style="fill:rgb(36,117,50);fill-rule:nonzero;"/>
                    </g>
                    <g transform="matrix(1,0,0,1,52.9,366.7)">
                        <path d="M0,0C0.5,-0.4 0.8,-0.8 0.9,-1.3C1,-1.7 0.9,-2.2 0.5,-2.6C0.1,-3.1 -0.3,-3.3 -0.8,-3.4C-1.3,-3.4 -1.8,-3.3 -2.3,-2.9L0,0ZM-5.8,3.2C-7,1.7 -7.5,0.3 -7.4,-1C-7.3,-2.3 -6.6,-3.5 -5.3,-4.5C-4,-5.5 -2.7,-5.9 -1.4,-5.8C-0.1,-5.7 1.1,-4.9 2.1,-3.6C3,-2.4 3.4,-1.3 3.2,-0.2C3,0.9 2.3,1.9 1.1,2.8L0.2,3.5L-4,-1.8C-4.3,-1.5 -4.6,-1.2 -4.7,-0.9C-4.8,-0.6 -4.9,-0.3 -4.9,0.1C-4.9,0.4 -4.8,0.7 -4.6,1.1C-4.4,1.4 -4.2,1.8 -4,2.1C-3.8,2.4 -3.5,2.6 -3.3,2.9C-3,3.1 -2.7,3.3 -2.5,3.5C-2.3,3.6 -2,3.7 -1.8,3.8C-1.6,3.9 -1.4,4 -1.2,4L-1,4.3L-3,5.9C-3.2,5.8 -3.5,5.6 -3.6,5.5C-3.8,5.4 -4,5.2 -4.3,5C-4.6,4.8 -4.8,4.6 -5.1,4.3C-5.2,3.9 -5.5,3.6 -5.8,3.2" style="fill:rgb(36,117,50);fill-rule:nonzero;"/>
                    </g>
                    <g transform="matrix(1,0,0,1,60.8,375.5)">
                        <path d="M0,4L3.3,0.4C3.2,0.2 3.1,0.1 3,-0.1C2.8,-0.3 2.7,-0.5 2.6,-0.6C2,-1.1 1.5,-1.3 0.8,-1.1C0.2,-1 -0.4,-0.6 -1.1,0.1C-1.8,0.8 -2.1,1.4 -2.2,2C-2.3,2.5 -2.1,3 -1.6,3.4C-1.4,3.6 -1.2,3.7 -0.9,3.8C-0.6,4 -0.3,4 0,4M0.5,8.1L-1.8,6L-1.1,5.2C-1.4,5.2 -1.6,5.2 -2,5.1C-2.3,5.1 -2.6,5 -2.8,5C-3.1,4.9 -3.3,4.8 -3.5,4.7C-3.7,4.6 -4,4.4 -4.2,4.2C-5,3.4 -5.4,2.5 -5.3,1.4C-5.2,0.3 -4.6,-0.9 -3.5,-2C-2.9,-2.6 -2.3,-3.1 -1.7,-3.4C-1.1,-3.7 -0.5,-3.9 0.1,-4C0.7,-4.1 1.2,-4 1.8,-3.9C2.3,-3.7 2.8,-3.5 3.3,-3.1C3.7,-2.8 4,-2.4 4.1,-2.1C4.3,-1.8 4.4,-1.4 4.6,-1L7.4,-4.1L9.7,-2L0.5,8.1Z" style="fill:rgb(36,117,50);fill-rule:nonzero;"/>
                    </g>
                    <g transform="matrix(1,0,0,1,71.5,376.6)">
                        <path d="M0,13.3L-2.6,11.6L-2,10.7C-2.7,10.8 -3.3,10.8 -3.8,10.8C-4.3,10.8 -4.8,10.6 -5.3,10.2C-6.1,9.7 -6.6,9 -6.7,8.2C-6.8,7.4 -6.5,6.5 -5.9,5.4L-2.4,0L0.2,1.7L-2.5,5.8C-2.8,6.2 -3,6.6 -3.1,6.9C-3.3,7.2 -3.4,7.4 -3.4,7.7C-3.4,7.9 -3.4,8.1 -3.3,8.3C-3.2,8.5 -3,8.7 -2.7,8.9C-2.5,9 -2.3,9.1 -2,9.2C-1.7,9.3 -1.4,9.3 -1.1,9.3L2.7,3.4L5.3,5.1L0,13.3Z" style="fill:rgb(36,117,50);fill-rule:nonzero;"/>
                    </g>
                    <g transform="matrix(1,0,0,1,86.8,388.9)">
                        <path d="M0,0L-0.2,-0.1C-0.3,-0.2 -0.4,-0.3 -0.6,-0.4C-0.8,-0.5 -1,-0.6 -1.3,-0.7C-1.6,-0.8 -1.9,-0.9 -2.3,-0.9C-2.7,-0.9 -3,-1 -3.4,-1L-5.9,5.1L-8.8,4L-5.1,-5.1L-2.2,-4L-2.7,-2.7C-2.5,-2.8 -2.3,-2.8 -2,-2.9C-1.7,-3 -1.4,-3 -1.2,-3.1C-0.9,-3.1 -0.7,-3.2 -0.3,-3.1C0,-3.1 0.3,-3 0.5,-2.9C0.6,-2.9 0.7,-2.8 0.8,-2.8C0.9,-2.8 1,-2.7 1.1,-2.7L0,0Z" style="fill:rgb(36,117,50);fill-rule:nonzero;"/>
                    </g>
                    <g transform="matrix(1,0,0,1,91.8,393)">
                        <path d="M0,-7.5L-3.1,-8.4L-2.4,-10.7L0.7,-9.8L0,-7.5ZM-3.4,3.2L-6.4,2.3L-3.5,-7.1L-0.5,-6.2L-3.4,3.2Z" style="fill:rgb(36,117,50);fill-rule:nonzero;"/>
                    </g>
                    <g transform="matrix(1,0,0,1,99,387.2)">
                        <path d="M0,11.2L-8.5,9.7L-8.1,7.7L-2.5,3.1L-7,2.3L-6.6,0L1.6,1.4L1.3,3.4L-4.3,8L0.5,8.8L0,11.2Z" style="fill:rgb(36,117,50);fill-rule:nonzero;"/>
                    </g>
                    <g transform="matrix(1,0,0,1,112.1,397.1)">
                        <path d="M0,-3.5C0,-4.5 -0.2,-5.1 -0.5,-5.6C-0.8,-6 -1.3,-6.2 -1.9,-6.2C-2.2,-6.2 -2.5,-6.1 -2.7,-6C-3,-5.9 -3.2,-5.8 -3.5,-5.6L-3.3,-0.7C-3.1,-0.6 -2.9,-0.6 -2.8,-0.6L-2.1,-0.6C-1.3,-0.6 -0.8,-0.9 -0.4,-1.4C-0.1,-1.8 0,-2.5 0,-3.5M3.2,-3.7C3.3,-2.1 2.9,-0.9 2.1,0.1C1.3,1.1 0.4,1.6 -0.8,1.6C-1.3,1.6 -1.7,1.6 -2.1,1.5C-2.5,1.4 -2.9,1.2 -3.3,1L-3.2,5.1L-6.3,5.2L-6.8,-8.2L-3.7,-8.3L-3.7,-7.3C-3.3,-7.7 -2.8,-8 -2.3,-8.3C-1.8,-8.6 -1.3,-8.7 -0.7,-8.7C0.4,-8.7 1.4,-8.3 2,-7.4C2.7,-6.4 3.1,-5.2 3.2,-3.7" style="fill:rgb(36,117,50);fill-rule:nonzero;"/>
                    </g>
                    <g transform="matrix(1,0,0,1,122.6,393.2)">
                        <path d="M0,-0.8C-0.1,-1.4 -0.2,-1.8 -0.4,-2.2C-0.6,-2.6 -0.8,-2.8 -1,-3C-1.2,-3.2 -1.5,-3.3 -1.7,-3.4C-1.9,-3.5 -2.2,-3.5 -2.5,-3.4C-2.8,-3.4 -3,-3.3 -3.2,-3.1C-3.4,-3 -3.6,-2.8 -3.7,-2.5C-3.8,-2.2 -3.9,-1.9 -4,-1.5C-4,-1.1 -4,-0.6 -3.9,0C-3.8,0.6 -3.7,1.1 -3.5,1.4C-3.3,1.7 -3.2,2 -3,2.2C-2.8,2.4 -2.6,2.5 -2.3,2.6C-2,2.7 -1.8,2.7 -1.5,2.6C-1.3,2.6 -1,2.5 -0.8,2.3C-0.6,2.2 -0.4,2 -0.3,1.7C-0.2,1.4 -0.1,1.1 0,0.7C0.2,0.3 0.1,-0.2 0,-0.8M3.2,-1.3C3.5,0.3 3.3,1.6 2.6,2.7C1.9,3.8 0.7,4.4 -0.9,4.7C-2.5,5 -3.8,4.7 -4.9,4C-5.9,3.2 -6.6,2.1 -6.9,0.5C-7.2,-1.1 -7,-2.5 -6.2,-3.5C-5.5,-4.6 -4.3,-5.2 -2.7,-5.5C-1.1,-5.8 0.2,-5.5 1.3,-4.8C2.2,-4.1 2.9,-2.9 3.2,-1.3" style="fill:rgb(36,117,50);fill-rule:nonzero;"/>
                    </g>
                    <g transform="matrix(1,0,0,1,137.1,386.6)">
                        <path d="M0,6.9L-2.9,7.9L-3.3,6.9C-3.7,7.5 -4,8 -4.4,8.3C-4.7,8.7 -5.2,8.9 -5.8,9.1C-6.7,9.4 -7.6,9.4 -8.3,9C-9,8.6 -9.6,7.8 -10,6.6L-12.1,0.5L-9.2,-0.5L-7.6,4.1C-7.4,4.6 -7.3,5 -7.2,5.3C-7.1,5.6 -6.9,5.8 -6.8,6C-6.6,6.2 -6.5,6.3 -6.2,6.3C-6,6.3 -5.7,6.3 -5.4,6.2C-5.2,6.1 -5,6 -4.7,5.8C-4.5,5.6 -4.2,5.4 -4.1,5.1L-6.4,-1.5L-3.5,-2.5L0,6.9Z" style="fill:rgb(36,117,50);fill-rule:nonzero;"/>
                    </g>
                    <g transform="matrix(1,0,0,1,142.3,390.2)">
                        <path d="M0,-6.6L-0.2,-6.5C-0.3,-6.5 -0.5,-6.4 -0.7,-6.4C-0.9,-6.3 -1.1,-6.2 -1.4,-6.1C-1.7,-6 -2,-5.8 -2.3,-5.5C-2.6,-5.3 -2.8,-5 -3.1,-4.8L-0.3,1.2L-3.1,2.5L-7.3,-6.4L-4.5,-7.7L-3.9,-6.4C-3.8,-6.6 -3.7,-6.8 -3.6,-7.1C-3.5,-7.4 -3.3,-7.6 -3.2,-7.8C-3.1,-8 -2.9,-8.2 -2.6,-8.4C-2.4,-8.6 -2.1,-8.8 -1.9,-8.9C-1.8,-8.9 -1.7,-9 -1.6,-9C-1.5,-9 -1.4,-9.1 -1.3,-9.1L0,-6.6Z" style="fill:rgb(36,117,50);fill-rule:nonzero;"/>
                    </g>
                    <g transform="matrix(-0.811534,0.584305,0.584305,0.811534,141.111066,379.563757)">
                        <path d="M-6.913,11.43L-3.833,11.43L-3.687,-2.23L-6.767,-2.23L-6.913,11.43Z" style="fill:rgb(36,117,50);fill-rule:nonzero;"/>
                    </g>
                    <g transform="matrix(0.246679,0.969097,0.969097,-0.246679,152.607481,373.159718)">
                        <path d="M-3.585,-2.088L2.09,-2.088L2.883,-3.837L-2.408,-4.76L-3.585,-2.088Z" style="fill:rgb(26,105,43);fill-rule:nonzero;"/>
                    </g>
                    <g transform="matrix(1,0,0,1,160.1,375)">
                        <path d="M0,-2.7L-4,-4.9L-2,-0.9L0,-2.7ZM-1.9,6.1L-7.8,-6.3L-5.2,-8.8L7.1,-2.5L4.7,-0.2L2.2,-1.5L-0.8,1.3L0.5,3.8L-1.9,6.1Z" style="fill:rgb(36,117,50);fill-rule:nonzero;"/>
                    </g>
                    <g transform="matrix(1,0,0,1,162.8,369.8)">
                        <path d="M0,-10.2L-0.1,-10C-0.2,-9.9 -0.3,-9.8 -0.5,-9.7C-0.7,-9.5 -0.9,-9.4 -1,-9.2C-1.4,-8.7 -1.6,-8.3 -1.5,-8C-1.5,-7.7 -1.2,-7.3 -0.7,-6.9L-0.6,-6.9L0.9,-8.8L2.6,-7.5L1.2,-5.7L7.3,-1L5.4,1.4L-0.8,-3.2L-1.6,-2.2L-3.3,-3.5L-2.5,-4.5L-2.8,-4.7C-3.8,-5.4 -4.3,-6.2 -4.4,-7.1C-4.5,-8 -4.1,-8.9 -3.3,-9.9C-3,-10.2 -2.8,-10.6 -2.5,-10.9C-2.2,-11.2 -2,-11.4 -1.8,-11.6L0,-10.2Z" style="fill:rgb(36,117,50);fill-rule:nonzero;"/>
                    </g>
                    <g transform="matrix(1,0,0,1,169.8,364.3)">
                        <path d="M0,-7.6L-0.1,-7.4C-0.2,-7.3 -0.3,-7.2 -0.5,-7C-0.6,-6.8 -0.8,-6.6 -0.9,-6.4C-1.1,-6.1 -1.2,-5.8 -1.3,-5.5C-1.4,-5.2 -1.5,-4.8 -1.6,-4.5L4,-0.9L2.3,1.7L-6,-3.7L-4.3,-6.3L-3.1,-5.5C-3.1,-5.7 -3.2,-5.9 -3.2,-6.3L-3.2,-7.1C-3.2,-7.4 -3.1,-7.6 -3.1,-7.9C-3,-8.2 -2.9,-8.5 -2.8,-8.7C-2.7,-8.8 -2.7,-8.9 -2.6,-9C-2.5,-9.1 -2.5,-9.2 -2.4,-9.3L0,-7.6Z" style="fill:rgb(36,117,50);fill-rule:nonzero;"/>
                    </g>
                    <g transform="matrix(1,0,0,1,178.2,352.4)">
                        <path d="M0,3.5L-1.4,6.2L-10.2,1.7L-8.8,-1L0,3.5ZM-10.1,-1.6L-11.6,1.3L-13.7,0.2L-12.2,-2.7L-10.1,-1.6Z" style="fill:rgb(36,117,50);fill-rule:nonzero;"/>
                    </g>
                    <g transform="matrix(1,0,0,1,178.9,348.3)">
                        <path d="M0,-0.8L-4.5,-2.5C-4.6,-2.4 -4.8,-2.2 -4.9,-2L-5.2,-1.4C-5.5,-0.7 -5.4,-0.1 -5.1,0.4C-4.7,0.9 -4.1,1.4 -3.3,1.7C-2.4,2 -1.7,2.2 -1.2,2C-0.7,1.9 -0.3,1.5 -0.1,0.9C0,0.6 0,0.4 0,0.1C0.1,-0.3 0.1,-0.6 0,-0.8M7,-1.4L5.9,1.5L1.6,-0.1C1.7,0.2 1.8,0.4 1.8,0.7C1.9,1 1.9,1.2 1.9,1.5L1.9,2.3C1.9,2.5 1.8,2.8 1.7,3.1C1.3,4.1 0.5,4.8 -0.6,5.1C-1.7,5.4 -3,5.2 -4.5,4.7C-5.3,4.4 -6,4 -6.5,3.6C-7,3.2 -7.4,2.7 -7.7,2.1C-8,1.6 -8.1,1.1 -8.2,0.5C-8.3,-0.1 -8.2,-0.6 -8,-1.1C-7.8,-1.6 -7.6,-1.9 -7.4,-2.2C-7.2,-2.5 -6.9,-2.8 -6.5,-3.1L-6.9,-3.4L-5.8,-6.2L7,-1.4Z" style="fill:rgb(36,117,50);fill-rule:nonzero;"/>
                    </g>
                    <g transform="matrix(1,0,0,1,185.2,340.6)">
                        <path d="M0,-6.3L-0.6,-3.3L-1.7,-3.5C-1.4,-2.9 -1.1,-2.3 -1,-1.9C-0.9,-1.4 -0.9,-0.9 -1,-0.3C-1.2,0.7 -1.7,1.3 -2.4,1.7C-3.1,2.1 -4.1,2.2 -5.3,1.9L-11.6,0.6L-11,-2.4L-6.2,-1.4C-5.7,-1.3 -5.3,-1.2 -5,-1.2L-4.2,-1.2C-4,-1.2 -3.8,-1.4 -3.7,-1.5C-3.6,-1.6 -3.4,-1.9 -3.4,-2.3L-3.4,-3.1C-3.4,-3.4 -3.5,-3.7 -3.7,-4L-10.6,-5.5L-10,-8.5L0,-6.3Z" style="fill:rgb(36,117,50);fill-rule:nonzero;"/>
                    </g>
                    <g transform="matrix(1,0,0,1,179.6,329.1)">
                        <path d="M0,-4C-0.7,-4 -1.2,-3.9 -1.5,-3.7C-1.9,-3.4 -2.1,-3 -2.1,-2.4C-2.1,-1.8 -2,-1.3 -1.7,-1C-1.4,-0.6 -0.9,-0.4 -0.3,-0.3L0,-4ZM6.4,-2.5C6.3,-0.6 5.7,0.7 4.8,1.7C3.8,2.6 2.5,3 0.9,2.9C-0.7,2.8 -2,2.2 -2.9,1.3C-3.8,0.3 -4.2,-1 -4.1,-2.7C-4,-4.2 -3.5,-5.3 -2.6,-6C-1.7,-6.7 -0.5,-7 1,-6.9L2.1,-6.8L1.6,-0.1C2.1,-0.1 2.5,-0.2 2.8,-0.3C3.1,-0.4 3.4,-0.6 3.6,-0.9C3.8,-1.1 4,-1.4 4.1,-1.8C4.2,-2.1 4.3,-2.5 4.3,-2.9L4.3,-4C4.2,-4.4 4.2,-4.7 4.1,-5C4,-5.3 3.9,-5.5 3.8,-5.7C3.7,-5.9 3.6,-6.1 3.5,-6.2L3.5,-6.5L6,-6.3C6.1,-6 6.2,-5.8 6.2,-5.6C6.3,-5.4 6.3,-5.1 6.4,-4.7C6.5,-4.4 6.5,-4 6.5,-3.7C6.5,-3.5 6.5,-3 6.4,-2.5" style="fill:rgb(36,117,50);fill-rule:nonzero;"/>
                    </g>
                    <g transform="matrix(-1,0,0,1,108.1,406.7)">
                        <path d="M0,-171C-47.5,-171 -86.2,-132.6 -86.2,-85.5C-86.2,-38.4 -47.5,0 0,0C47.5,0 86.2,-38.4 86.2,-85.5C86.2,-132.5 47.5,-171 0,-171Z" style="fill:none;fill-rule:nonzero;stroke:rgb(36,117,50);stroke-width:5px;"/>
                    </g>
                    <g transform="matrix(1,0,0,1,351,359.7)">
                        <path d="M0,-56.4C0,-51.7 1.5,-48.6 3.8,-48.6C6.3,-48.6 8.5,-52.5 8.5,-57.8C8.5,-62.5 6.9,-65.6 4.6,-65.6C2.1,-65.6 0,-61.5 0,-56.4M-6.9,-36.9C-7.6,-35.4 -10.1,-30.6 -10.1,-28.6C-10.1,-27.9 -9.8,-27.1 -9.4,-27.1C-8.4,-27.1 -5.7,-37.1 -3.6,-37.1C-3.1,-37.1 -2.6,-36.1 -3,-34L-6.9,-13.9C-7.3,-12 -9.2,-2.6 -9.2,2.9C-9.2,7.3 -7.8,9.2 -5.8,9.2C-0.1,9.2 6.5,-5 6.5,-8.3C6.5,-9.3 6.1,-10 5.8,-10C5,-10 1.9,-0.3 0.2,-0.3C-0.2,-0.3 -0.5,-1.1 -0.5,-1.9C-0.5,-3.7 0.1,-6.6 0.5,-8.3L4.6,-30.6C6.6,-41.7 4,-44.7 1.6,-44.7C-1.8,-44.5 -4.7,-41.2 -6.9,-36.9" style="fill-rule:nonzero;"/>
                    </g>
                    <g transform="matrix(1,0,0,1,437.4,309.2)">
                        <path d="M0,45.9L0,31.2C-2.2,31.4 -4.9,31.6 -8.2,32C-11.5,32.4 -14.2,32.8 -16.3,33.4C-18.7,34.1 -20.7,35.2 -22.3,36.7C-23.9,38.2 -24.7,40.3 -24.7,43C-24.7,46 -23.8,48.3 -22.1,49.9C-20.3,51.4 -17.8,52.2 -14.4,52.2C-11.5,52.2 -8.9,51.6 -6.6,50.4C-4.2,49.2 -2.1,47.7 0,45.9M0,53.3C-0.7,53.8 -1.7,54.6 -3,55.6C-4.2,56.6 -5.5,57.3 -6.6,57.9C-8.2,58.7 -9.8,59.4 -11.3,59.8C-12.8,60.2 -14.9,60.5 -17.6,60.5C-19.8,60.5 -22,60.1 -24,59.3C-26,58.5 -27.8,57.3 -29.3,55.8C-30.8,54.3 -31.9,52.6 -32.8,50.4C-33.7,48.3 -34.1,46 -34.1,43.6C-34.1,39.9 -33.3,36.8 -31.7,34.2C-30.1,31.6 -27.6,29.6 -24.2,28.1C-21.2,26.7 -17.6,25.8 -13.4,25.3C-9.2,24.8 -4.8,24.4 0,24.1L0,22.4C0,20.3 -0.3,18.6 -1,17.4C-1.7,16.1 -2.6,15.1 -3.7,14.4C-4.9,13.7 -6.3,13.2 -8,13C-9.7,12.8 -11.4,12.6 -13.2,12.6C-15.3,12.6 -17.8,12.9 -20.6,13.5C-23.5,14.1 -26.3,15 -29.2,16.2L-29.7,16.2L-29.7,7.1C-28,6.6 -25.6,6.1 -22.5,5.5C-19.4,4.9 -16.2,4.6 -13.2,4.6C-9.5,4.6 -6.3,4.9 -3.8,5.5C-1.2,6.1 1.1,7.1 3.1,8.6C5.1,10.1 6.6,11.9 7.5,14.2C8.5,16.5 9,19.3 9,22.6L9,58.8L-0.1,58.8L-0.1,53.3L0,53.3ZM-51.5,59.7C-55.2,59.7 -58.7,59.1 -61.8,58C-64.9,56.9 -67.6,55.2 -69.8,52.9C-72,50.6 -73.8,47.8 -75,44.3C-76.2,40.8 -76.8,36.8 -76.8,32.1C-76.8,27.5 -76.2,23.4 -74.9,20.1C-73.6,16.7 -71.9,13.9 -69.8,11.6C-67.7,9.3 -65,7.5 -61.8,6.3C-58.6,5.1 -55.2,4.4 -51.5,4.4C-48.5,4.4 -45.6,4.8 -42.9,5.6C-40.1,6.4 -37.7,7.4 -35.5,8.4L-35.5,18.4L-36,18.4C-36.7,17.9 -37.5,17.2 -38.5,16.6C-39.5,15.9 -40.8,15.2 -42.2,14.5C-43.5,13.9 -45,13.3 -46.7,12.8C-48.4,12.3 -50.1,12.1 -51.7,12.1C-56.4,12.1 -60.2,13.8 -63.1,17.3C-66,20.8 -67.4,25.7 -67.4,32.1C-67.4,38.4 -66,43.2 -63.2,46.7C-60.4,50.2 -56.6,51.9 -51.6,51.9C-48.6,51.9 -45.8,51.3 -43.1,50.1C-40.4,48.9 -38,47.4 -35.9,45.5L-35.4,45.5L-35.4,55.5C-36.3,55.9 -37.4,56.4 -38.8,57C-40.2,57.6 -41.4,58 -42.5,58.3C-44.1,58.7 -45.5,59.1 -46.7,59.3C-48,59.6 -49.6,59.7 -51.5,59.7M-130.7,-5.6L-131.2,-5.6C-132,-5.9 -133.2,-6.2 -134.7,-6.4C-136.2,-6.7 -137.6,-6.8 -138.8,-6.8C-142.7,-6.8 -145.4,-6 -147,-4.3C-148.6,-2.6 -149.5,0.4 -149.5,4.9L-149.5,6.7L-134.4,6.7L-134.4,14.1L-149.2,14.1L-149.2,59.6L-158.3,59.6L-158.3,14.1L-164.5,14.1L-164.5,6.7L-158.3,6.7L-158.3,4.9C-158.3,-1.5 -156.7,-6.3 -153.6,-9.6C-150.5,-12.9 -145.9,-14.6 -140.1,-14.6C-138.4,-14.6 -136.8,-14.5 -135.1,-14.3C-133.5,-14.1 -132,-13.9 -130.7,-13.7L-130.7,-5.6ZM-97.3,16.3L-97.8,16.3C-98.5,16.1 -99.2,16 -100,15.9C-100.8,15.9 -101.7,15.8 -102.7,15.8C-105.2,15.8 -107.6,16.3 -110,17.4C-112.4,18.4 -114.7,20 -116.9,22L-116.9,59.6L-126,59.6L-126,6.7L-116.9,6.7L-116.9,14.6C-113.6,11.7 -110.6,9.7 -108.2,8.5C-105.7,7.3 -103.3,6.7 -101,6.7C-100.1,6.7 -99.4,6.7 -98.9,6.8C-98.4,6.8 -97.9,6.9 -97.3,7L-97.3,16.3ZM-182.1,31.9L-193.3,-1.4L-204.4,31.9L-182.1,31.9ZM-223.4,59.6L-199,-11L-187.1,-11L-162.7,59.6L-172.9,59.6L-179.5,39.9L-207.1,39.9L-213.7,59.6L-223.4,59.6Z" style="fill-rule:nonzero;"/>
                    </g>
                    <g transform="matrix(1,0,0,1,613,331.8)">
                        <path d="M0,3.6C-0.1,1.2 -0.4,-0.9 -0.9,-2.6C-1.4,-4.3 -2.2,-5.8 -3.1,-7C-4.2,-8.3 -5.5,-9.3 -7.2,-10C-8.9,-10.7 -10.9,-11 -13.4,-11C-15.8,-11 -17.9,-10.6 -19.6,-9.9C-21.3,-9.2 -22.9,-8.2 -24.2,-6.8C-25.6,-5.4 -26.6,-3.9 -27.3,-2.2C-28,-0.5 -28.5,1.5 -28.7,3.7L0,3.7L0,3.6ZM-10.7,37.2C-19.4,37.2 -26.1,34.8 -30.9,30.1C-35.7,25.3 -38.1,18.6 -38.1,9.8C-38.1,1.2 -35.8,-5.7 -31.1,-10.8C-26.5,-15.9 -20.4,-18.5 -12.9,-18.5C-9.5,-18.5 -6.5,-18 -3.9,-17.1C-1.3,-16.2 1,-14.7 2.9,-12.6C4.8,-10.5 6.3,-8.1 7.4,-5.2C8.4,-2.3 9,1.3 9,5.5L9,10.3L-28.7,10.3C-28.7,16.5 -27.1,21.2 -23.9,24.4C-20.7,27.7 -16.3,29.3 -10.7,29.3C-8.7,29.3 -6.7,29.1 -4.8,28.6C-2.9,28.2 -1.1,27.6 0.4,26.9C2.1,26.2 3.4,25.5 4.6,24.8C5.7,24.1 6.7,23.5 7.4,22.9L7.9,22.9L7.9,32.6C6.8,33 5.5,33.5 3.9,34.1C2.3,34.7 0.9,35.2 -0.4,35.5C-2.2,36 -3.8,36.3 -5.2,36.6C-6.7,37.1 -8.5,37.2 -10.7,37.2M-54.5,37.1C-58.2,37.1 -61.7,36.5 -64.8,35.4C-67.9,34.3 -70.6,32.6 -72.8,30.3C-75,28 -76.8,25.2 -78,21.7C-79.2,18.2 -79.8,14.2 -79.8,9.5C-79.8,4.9 -79.2,0.8 -77.9,-2.5C-76.6,-5.9 -74.9,-8.7 -72.8,-11C-70.7,-13.3 -68,-15.1 -64.8,-16.3C-61.6,-17.5 -58.2,-18.2 -54.5,-18.2C-51.5,-18.2 -48.6,-17.8 -45.9,-17C-43.1,-16.2 -40.7,-15.2 -38.5,-14.2L-38.5,-4.2L-39,-4.2C-39.7,-4.7 -40.5,-5.4 -41.5,-6C-42.5,-6.7 -43.8,-7.4 -45.2,-8.1C-46.5,-8.7 -48,-9.3 -49.7,-9.8C-51.4,-10.3 -53.1,-10.5 -54.7,-10.5C-59.4,-10.5 -63.2,-8.8 -66.1,-5.3C-69,-1.8 -70.4,3.1 -70.4,9.5C-70.4,15.8 -69,20.6 -66.2,24.1C-63.4,27.6 -59.6,29.3 -54.6,29.3C-51.6,29.3 -48.8,28.7 -46.1,27.5C-43.4,26.3 -41,24.8 -38.9,22.9L-38.4,22.9L-38.4,32.9C-39.3,33.3 -40.4,33.8 -41.8,34.4C-43.2,35 -44.4,35.4 -45.5,35.7C-47.1,36.1 -48.5,36.5 -49.7,36.7C-51,37 -52.6,37.1 -54.5,37.1M-119.9,-13.7C-119.9,-15.8 -120.3,-17.6 -121,-19.2C-121.7,-20.8 -122.9,-22.1 -124.5,-23.1C-125.9,-24 -127.5,-24.6 -129.3,-25C-131.1,-25.4 -133.4,-25.5 -136.1,-25.5L-145.6,-25.5L-145.6,1.1L-137.1,1.1C-134.3,1.1 -131.9,0.9 -129.7,0.4C-127.5,-0.1 -125.6,-1.1 -124.1,-2.5C-122.7,-3.8 -121.7,-5.4 -121,-7.2C-120.2,-9.1 -119.9,-11.2 -119.9,-13.7M-99,37L-111.5,37L-134.5,8.9L-145.5,8.9L-145.5,37L-155.1,37L-155.1,-33.6L-136.4,-33.6C-132.2,-33.6 -128.8,-33.4 -126,-32.9C-123.2,-32.5 -120.5,-31.4 -118,-29.8C-115.5,-28.2 -113.5,-26.2 -112,-23.7C-110.5,-21.2 -109.8,-18.1 -109.8,-14.4C-109.8,-9.2 -111.1,-4.9 -113.8,-1.4C-116.5,2.1 -120.2,4.6 -124.8,6.3L-99,37Z" style="fill:rgb(34,116,50);fill-rule:nonzero;"/>
                    </g>
                    <g transform="matrix(1,0,0,1,524.7,359.7)">
                        <path d="M0,-56.4C0,-51.7 1.5,-48.6 3.8,-48.6C6.3,-48.6 8.5,-52.5 8.5,-57.8C8.5,-62.5 6.9,-65.6 4.6,-65.6C2.1,-65.6 0,-61.5 0,-56.4M-7,-36.9C-7.7,-35.4 -10.2,-30.6 -10.2,-28.6C-10.2,-27.9 -9.9,-27.1 -9.5,-27.1C-8.5,-27.1 -5.8,-37.1 -3.7,-37.1C-3.2,-37.1 -2.7,-36.1 -3.1,-34L-7,-13.9C-7.4,-12 -9.3,-2.6 -9.3,2.9C-9.3,7.3 -7.9,9.2 -5.9,9.2C-0.2,9.2 6.4,-5 6.4,-8.3C6.4,-9.3 6,-10 5.7,-10C4.9,-10 1.8,-0.3 0.1,-0.3C-0.3,-0.3 -0.6,-1.1 -0.6,-1.9C-0.6,-3.7 0,-6.6 0.4,-8.3L4.5,-30.6C6.5,-41.7 3.9,-44.7 1.5,-44.7C-1.8,-44.5 -4.7,-41.2 -7,-36.9" style="fill-rule:nonzero;"/>
                    </g>
                </g>
            </g>
        </g>
    </g>
</svg>
