<?xml version="1.0" encoding="UTF-8" standalone="no"?>
<!DOCTYPE svg PUBLIC "-//W3C//DTD SVG 1.1//EN" "http://www.w3.org/Graphics/SVG/1.1/DTD/svg11.dtd">
<svg width="100%" height="100%" viewBox="0 0 1045 532" version="1.1" xmlns="http://www.w3.org/2000/svg" xmlns:xlink="http://www.w3.org/1999/xlink" xml:space="preserve" xmlns:serif="http://www.serif.com/" style="fill-rule:evenodd;clip-rule:evenodd;stroke-linejoin:round;stroke-miterlimit:2;">
    <g transform="matrix(1,0,0,1,-7449.94549,-114.224583)">
        <g transform="matrix(4.166667,0,0,4.166667,7201.321875,0)">
            <g transform="matrix(1,0,0,1,61.4153,99.0881)">
                <path d="M0,52.289C-0.058,52.289 -0.116,52.286 -0.174,52.28C-1.132,52.185 -1.832,51.332 -1.737,50.374C-0.005,32.941 5.235,16.375 13.837,1.135C14.311,0.295 15.373,0 16.212,0.473C17.051,0.946 17.347,2.01 16.874,2.848C8.51,17.665 3.416,33.77 1.733,50.718C1.644,51.617 0.885,52.289 0,52.289" style="fill:rgb(241,201,26);fill-rule:nonzero;"/>
            </g>
            <g transform="matrix(1,0,0,1,269.5281,53.8249)">
                <path d="M0,18.896C-0.424,18.896 -0.85,18.742 -1.186,18.43C-7.253,12.799 -13.908,7.769 -20.966,3.48C-21.789,2.98 -22.05,1.908 -21.55,1.085C-21.049,0.263 -19.977,0 -19.155,0.501C-11.897,4.912 -5.053,10.084 1.187,15.875C1.892,16.53 1.933,17.633 1.278,18.338C0.935,18.709 0.468,18.896 0,18.896" style="fill:rgb(241,201,26);fill-rule:nonzero;"/>
            </g>
            <g transform="matrix(1,0,0,1,308.6311,111.0767)">
                <path d="M0,40.025C-0.884,40.025 -1.641,39.356 -1.732,38.458C-2.988,26.096 -6.104,14.055 -10.996,2.67C-11.376,1.786 -10.967,0.76 -10.082,0.38C-9.197,0 -8.173,0.41 -7.792,1.294C-2.761,13.005 0.445,25.39 1.736,38.106C1.833,39.063 1.136,39.919 0.178,40.016C0.118,40.022 0.059,40.025 0,40.025" style="fill:rgb(21,64,111);fill-rule:nonzero;"/>
            </g>
            <g transform="matrix(0.968918,-0.247381,-0.247381,-0.968918,299.496432,113.040467)">
                <path d="M-1.978,-0.224C-2.772,4.829 -3.899,9.891 -5.327,14.82L-1.978,15.791C-0.509,10.722 0.65,5.515 1.466,0.317L-1.978,-0.224Z" style="fill:rgb(142,65,153);fill-rule:nonzero;"/>
            </g>
            <g transform="matrix(0.904174,-0.427164,-0.427164,-0.904174,294.199637,97.328116)">
                <path d="M-4.334,-0.907C-4.931,5.646 -6.066,12.204 -7.71,18.587L-4.334,19.455C-2.644,12.893 -1.476,6.149 -0.861,-0.59L-4.334,-0.907Z" style="fill:rgb(16,135,198);fill-rule:nonzero;"/>
            </g>
            <g transform="matrix(0.854692,-0.519136,-0.519136,-0.854692,282.352448,80.645943)">
                <path d="M-4.264,-1.119C-5.042,4.116 -6.171,9.353 -7.618,14.445L-4.264,15.396C-2.777,10.162 -1.616,4.778 -0.815,-0.607L-4.264,-1.119Z" style="fill:rgb(187,59,38);fill-rule:nonzero;"/>
            </g>
            <g transform="matrix(1,0,0,1,104.8396,54.0692)">
                <path d="M0,14.847C-0.495,14.847 -0.987,14.637 -1.332,14.23C-1.954,13.494 -1.862,12.395 -1.127,11.773C3.765,7.634 9.01,3.842 14.461,0.501C15.283,0 16.355,0.257 16.858,1.076C17.361,1.898 17.104,2.971 16.282,3.474C10.982,6.722 5.882,10.41 1.125,14.435C0.797,14.711 0.397,14.847 0,14.847" style="fill:rgb(54,133,64);fill-rule:nonzero;"/>
            </g>
            <g transform="matrix(-0.801306,-0.598255,-0.598255,0.801306,108.429997,73.020999)">
                <path d="M7.847,25.622L11.334,25.622C11.334,16.028 10.238,6.422 8.075,-2.931L4.678,-2.145C6.782,6.95 7.848,16.291 7.847,25.622" style="fill:rgb(201,205,44);fill-rule:nonzero;"/>
            </g>
            <g transform="matrix(-0.870931,-0.491405,-0.491405,0.870931,87.148467,89.098714)">
                <path d="M1.408,15.534L4.894,15.534C4.894,10.203 4.549,4.811 3.869,-0.489L0.411,-0.045C1.071,5.108 1.407,10.35 1.408,15.534" style="fill:rgb(233,126,38);fill-rule:nonzero;"/>
            </g>
            <g transform="matrix(1,0,0,1,226.5659,43.7023)">
                <path d="M0,20.943C-0.234,18.191 -1.411,15.634 -3.386,13.657C-3.502,13.543 -3.628,13.439 -3.748,13.33L-3.315,13.391L-2.22,13.573L-1.154,13.78L-0.118,14.008L0.89,14.251L1.863,14.522L2.8,14.807L3.7,15.107L4.562,15.424L5.383,15.759L6.162,16.11L6.903,16.471L7.595,16.843L8.235,17.231L8.826,17.625L9.371,18.024L9.864,18.434L10.295,18.844L10.679,19.258L11.005,19.669L11.278,20.08L11.492,20.479L11.659,20.872L11.68,20.943L0,20.943ZM11.492,23.562L11.278,23.96L11.005,24.372L10.679,24.783L10.295,25.195L9.864,25.606L9.371,26.017L8.826,26.416L8.235,26.809L7.595,27.197L6.903,27.571L6.162,27.931L5.383,28.283L4.562,28.619L3.7,28.933L2.8,29.236L1.863,29.519L0.89,29.788L-0.118,30.032L-1.154,30.261L-2.22,30.466L-3.315,30.649L-3.923,30.734C-3.741,30.574 -3.557,30.421 -3.386,30.248C-1.533,28.397 -0.389,26.031 -0.06,23.475L11.528,23.475L11.492,23.562ZM-10.469,31.065L-10.469,23.475L-2.617,23.475C-3.28,27.431 -6.469,30.536 -10.469,31.065M-12.801,20.943L-20.825,20.943C-20.361,16.713 -17.017,13.342 -12.801,12.827L-12.801,20.943ZM-12.801,31.079C-16.845,30.585 -20.079,27.465 -20.748,23.475L-12.801,23.475L-12.801,31.079ZM-19.953,30.649L-21.051,30.466L-22.118,30.261L-23.154,30.032L-24.16,29.788L-25.135,29.519L-26.069,29.236L-26.97,28.933L-27.834,28.619L-28.655,28.283L-29.434,27.931L-30.171,27.571L-30.863,27.197L-31.505,26.809L-32.096,26.416L-32.639,26.017L-33.133,25.606L-33.567,25.195L-33.947,24.783L-34.274,24.372L-34.547,23.96L-34.764,23.562L-34.799,23.475L-23.305,23.475C-22.976,26.031 -21.83,28.397 -19.978,30.248C-19.811,30.415 -19.635,30.565 -19.46,30.72L-19.953,30.649ZM-34.927,20.872L-34.764,20.479L-34.547,20.08L-34.274,19.669L-33.947,19.258L-33.567,18.844L-33.133,18.434L-32.904,18.244L-32.237,17.766L-30.452,16.715L-28.612,15.819L-26.717,15.073L-24.784,14.461L-22.816,13.958L-20.822,13.556L-19.664,13.374C-19.77,13.469 -19.878,13.558 -19.978,13.657C-21.955,15.634 -23.133,18.191 -23.366,20.943L-34.949,20.943L-34.927,20.872ZM-35.279,9.756L-34.986,7.066L-34.563,4.633L-34.007,2.439L-33.326,0.486L-32.534,-1.256L-31.632,-2.786L-30.619,-4.131L-29.513,-5.306L-28.299,-6.318L-26.99,-7.202L-25.572,-7.949L-24.05,-8.581L-22.426,-9.1L-20.709,-9.518L-18.897,-9.844L-17.001,-10.085L-15.016,-10.256L-12.956,-10.359L-10.83,-10.41L-8.635,-10.424L-6.375,-10.405L-4.072,-10.368L-1.711,-10.319L0.695,-10.27L3.141,-10.24L5.617,-10.235L8.126,-10.27L10.472,-10.344L10.455,-10.324L8.992,-8.774L7.43,-7.41L5.794,-6.206L4.077,-5.149L2.292,-4.222L0.444,-3.415L-1.454,-2.719L-3.4,-2.112L-5.376,-1.585L-7.383,-1.12L-9.4,-0.706L-11.425,-0.33L-13.445,0.027L-15.455,0.375L-17.435,0.734L-19.389,1.117L-21.299,1.541L-23.16,2.016L-24.963,2.572L-26.693,3.211L-28.347,3.967L-29.91,4.847L-31.374,5.872L-32.708,7.059L-33.913,8.424L-34.959,9.97L-35.323,10.687L-35.279,9.756ZM10.652,-7.071L11.789,-8.27L11.55,-5.862L11.125,-3.421L10.555,-1.273L9.846,0.607L9.019,2.238L8.08,3.636L7.026,4.832L5.868,5.853L4.606,6.719L3.241,7.448L1.764,8.058L0.195,8.553L-1.468,8.952L-3.214,9.279L-5.036,9.532L-6.92,9.74L-8.868,9.914L-10.859,10.064L-12.786,10.212L-12.801,10.212L-12.801,10.213L-12.892,10.22L-12.996,10.229L-14.207,10.267L-15.467,10.335L-16.706,10.427L-17.928,10.551L-19.124,10.69L-20.3,10.863L-21.446,11.056L-22.568,11.271L-23.662,11.511L-24.725,11.774L-25.755,12.051L-26.757,12.357L-27.722,12.678L-28.652,13.026L-29.549,13.389L-30.4,13.769L-31.217,14.172L-31.991,14.593L-32.728,15.033L-33.422,15.495L-34.069,15.977L-34.665,16.474L-34.731,16.535L-34.69,16.228L-34.239,14.323L-33.635,12.64L-32.889,11.163L-32.015,9.868L-31.014,8.728L-29.883,7.731L-28.634,6.852L-27.265,6.082L-25.783,5.411L-24.196,4.822L-22.514,4.307L-20.746,3.852L-18.908,3.444L-17.001,3.073L-15.038,2.719L-13.038,2.369L-11.003,2.01L-8.946,1.623L-6.872,1.203L-4.803,0.723L-2.737,0.169L-0.687,-0.467L1.338,-1.216L3.32,-2.082L5.257,-3.08L7.132,-4.235L8.938,-5.561L10.652,-7.071ZM-10.469,12.841C-6.297,13.395 -3,16.744 -2.538,20.943L-10.469,20.943L-10.469,12.841ZM14.263,22.021L14.222,21.323L14.104,20.633L13.903,19.961L13.634,19.319L13.297,18.698L12.902,18.11L12.455,17.537L11.95,16.995L11.396,16.474L10.797,15.977L10.152,15.495L9.456,15.033L8.722,14.593L7.945,14.172L7.132,13.769L6.278,13.389L5.38,13.026L4.453,12.678L3.486,12.357L2.485,12.051L1.454,11.774L0.394,11.511L-0.703,11.271L-0.778,11.257L0.843,10.863L2.589,10.306L4.257,9.619L5.85,8.77L7.342,7.747L8.724,6.522L9.977,5.093L11.089,3.444L12.044,1.569L12.841,-0.544L13.475,-2.913L13.934,-5.547L14.219,-8.466L14.328,-11.688L14.325,-11.69L14.325,-11.711L14.323,-11.771L14.317,-11.833L14.309,-11.896L14.298,-11.954L14.281,-12.011L14.265,-12.067L14.244,-12.125L14.222,-12.179L14.197,-12.233L14.168,-12.284L14.138,-12.332L14.107,-12.381L14.072,-12.427L14.036,-12.474L13.999,-12.514L13.957,-12.557L13.915,-12.595L13.868,-12.633L13.822,-12.665L13.777,-12.697L13.726,-12.73L13.678,-12.756L13.624,-12.781L13.572,-12.805L13.515,-12.824L13.46,-12.842L13.401,-12.856L13.346,-12.869L13.285,-12.878L13.226,-12.886L13.168,-12.887L13.105,-12.887L13.042,-12.886L10.553,-12.749L8.068,-12.668L5.602,-12.637L3.153,-12.643L0.73,-12.672L-1.664,-12.716L-4.024,-12.764L-6.352,-12.805L-8.63,-12.824L-10.865,-12.814L-13.054,-12.758L-15.181,-12.649L-17.254,-12.474L-19.265,-12.216L-21.209,-11.866L-23.084,-11.406L-24.876,-10.832L-26.591,-10.121L-28.215,-9.262L-29.745,-8.243L-31.16,-7.045L-32.461,-5.674L-33.63,-4.113L-34.663,-2.357L-35.556,-0.405L-36.303,1.756L-36.909,4.132L-37.364,6.738L-37.668,9.575L-37.82,12.665L-37.815,16.023L-37.648,19.562L-37.648,19.59L-37.645,19.648L-37.645,19.649L-37.643,19.665L-37.534,22.002L-37.535,22.021L-37.491,22.718L-37.373,23.408L-37.176,24.079L-36.905,24.723L-36.569,25.342L-36.174,25.931L-35.726,26.502L-35.222,27.044L-34.665,27.567L-34.069,28.064L-33.422,28.546L-32.728,29.008L-31.991,29.446L-31.217,29.869L-30.4,30.27L-29.549,30.653L-28.652,31.015L-27.722,31.362L-26.757,31.684L-25.755,31.988L-24.725,32.266L-23.662,32.529L-22.568,32.768L-21.446,32.984L-20.3,33.177L-19.124,33.35L-17.928,33.49L-16.706,33.614L-15.467,33.704L-14.207,33.772L-12.929,33.815L-11.633,33.83L-10.342,33.815L-9.062,33.772L-7.804,33.704L-6.562,33.614L-5.34,33.49L-4.144,33.35L-2.971,33.177L-1.824,32.984L-0.703,32.768L0.394,32.529L1.454,32.266L2.485,31.988L3.486,31.684L4.453,31.362L5.38,31.015L6.278,30.653L7.132,30.27L7.945,29.869L8.722,29.446L9.456,29.008L10.152,28.546L10.797,28.064L11.396,27.567L11.95,27.044L12.455,26.502L12.902,25.931L13.297,25.342L13.634,24.723L13.903,24.079L14.104,23.408L14.197,22.864L14.225,22.813L14.208,22.805L14.222,22.718L14.263,22.021Z" style="fill:rgb(54,133,64);fill-rule:nonzero;"/>
            </g>
            <g transform="matrix(0,-1,-1,0,159.0189,31.8988)">
                <path d="M-5.925,-5.925C-9.197,-5.925 -11.849,-3.273 -11.849,-0C-11.849,3.272 -9.197,5.925 -5.925,5.925C-2.653,5.925 -0.001,3.272 -0.001,-0C-0.001,-3.273 -2.653,-5.925 -5.925,-5.925" style="fill:rgb(21,63,111);fill-rule:nonzero;"/>
            </g>
            <g transform="matrix(1,0,0,1,150.0512,29.2089)">
                <path d="M0,21.474C0,21.474 -1.555,16.86 -0.696,14.84C2.871,6.448 -7.712,-1.795 -7.712,-1.795C-7.712,-1.795 -8.925,1.908 -8.921,5.959C-8.917,9.916 -7.618,13.99 -4.35,15.944C-1.627,17.573 -1.162,21.926 -1.162,21.926C-1.162,21.926 -2.886,21.153 -3.725,19.57C-4.569,17.977 -7.222,13.232 -18.149,14.137C-19.069,14.213 -19.933,14.45 -21.055,14.539C-21.055,14.539 -20.244,20.561 -13.229,21.903C-6.124,23.26 -4.207,21.411 -2.869,22.181C-2.056,22.647 -1.55,23.269 -1.55,23.269L0,21.474Z" style="fill:rgb(54,133,64);fill-rule:nonzero;"/>
            </g>
            <g transform="matrix(0.664584,0.747214,0.747214,-0.664584,144.373296,49.793402)">
                <path d="M11.156,-4.625C11.156,-4.625 1.348,-3.248 4.759,6.341C7.315,13.962 12.81,20.376 11.156,25.812C11.156,25.812 18.865,24.584 18.212,18.239C17.557,11.895 9.035,1.066 11.156,-4.625" style="fill:rgb(21,63,111);fill-rule:nonzero;"/>
            </g>
            <g transform="matrix(1,0,0,1,143.589,58.4159)">
                <path d="M0,18.676C0,18.676 -1.832,16.172 -1.754,13.081C-1.675,9.989 -0.411,8.428 2.999,6.671C6.409,4.916 13.425,2.877 15.934,1.917C18.033,1.115 20.507,0 20.507,0C20.507,0 23.382,6.133 18.439,9.043C13.497,11.952 12.329,11.717 7.331,13.6C0.637,16.122 0,18.676 0,18.676" style="fill:rgb(54,133,64);fill-rule:nonzero;"/>
            </g>
            <g transform="matrix(1,0,0,1,94.0013,134.122)">
                <path d="M0,12.008C0.553,11.501 0.829,10.813 0.829,9.944C0.829,9.057 0.548,8.363 -0.014,7.865C-0.575,7.367 -1.336,7.118 -2.295,7.118L-6.126,7.118C-6.217,7.118 -6.262,7.163 -6.262,7.254L-6.262,12.633C-6.262,12.724 -6.217,12.769 -6.126,12.769L-2.241,12.769C-1.3,12.769 -0.553,12.516 0,12.008M-6.262,-0.652L-6.262,4.374C-6.262,4.465 -6.217,4.51 -6.126,4.51L-2.458,4.51C-1.499,4.51 -0.742,4.279 -0.189,3.818C0.362,3.356 0.639,2.717 0.639,1.902C0.639,1.07 0.362,0.412 -0.189,-0.067C-0.742,-0.548 -1.499,-0.788 -2.458,-0.788L-6.126,-0.788C-6.217,-0.788 -6.262,-0.742 -6.262,-0.652M1.209,5.76C3.057,6.629 3.98,8.123 3.98,10.242C3.98,11.963 3.405,13.272 2.255,14.168C1.104,15.065 -0.394,15.513 -2.241,15.513L-9.087,15.513C-9.178,15.513 -9.255,15.482 -9.318,15.418C-9.382,15.355 -9.413,15.278 -9.413,15.187L-9.413,-3.179C-9.413,-3.268 -9.382,-3.346 -9.318,-3.409C-9.255,-3.472 -9.178,-3.505 -9.087,-3.505L-2.458,-3.505C-0.484,-3.505 1.037,-3.079 2.105,-2.227C3.174,-1.376 3.709,-0.091 3.709,1.63C3.709,3.532 2.875,4.855 1.209,5.597C1.101,5.652 1.101,5.705 1.209,5.76" style="fill:rgb(35,31,32);fill-rule:nonzero;"/>
            </g>
            <g transform="matrix(1,0,0,1,101.4456,130.0882)">
                <path d="M0,19.452C-0.063,19.389 -0.095,19.311 -0.095,19.221L-0.095,5.963C-0.095,5.873 -0.063,5.796 0,5.732C0.063,5.669 0.141,5.637 0.231,5.637L2.73,5.637C2.821,5.637 2.897,5.669 2.961,5.732C3.024,5.796 3.057,5.873 3.057,5.963L3.057,19.221C3.057,19.311 3.024,19.389 2.961,19.452C2.897,19.515 2.821,19.547 2.73,19.547L0.231,19.547C0.141,19.547 0.063,19.515 0,19.452M0.149,3.219C-0.213,2.857 -0.394,2.395 -0.394,1.834C-0.394,1.272 -0.213,0.81 0.149,0.448C0.512,0.086 0.974,-0.095 1.535,-0.095C2.097,-0.095 2.558,0.086 2.921,0.448C3.282,0.81 3.464,1.272 3.464,1.834C3.464,2.395 3.282,2.857 2.921,3.219C2.558,3.582 2.097,3.763 1.535,3.763C0.974,3.763 0.512,3.582 0.149,3.219" style="fill:rgb(35,31,32);fill-rule:nonzero;"/>
            </g>
            <g transform="matrix(1,0,0,1,115.7356,138.8236)">
                <path d="M0,7.741C0.479,7.361 0.829,6.827 1.046,6.138C1.227,5.541 1.317,4.78 1.317,3.856C1.317,2.879 1.227,2.118 1.046,1.574C0.847,0.887 0.503,0.356 0.014,-0.015C-0.476,-0.386 -1.073,-0.572 -1.779,-0.572C-2.449,-0.572 -3.029,-0.386 -3.518,-0.015C-4.007,0.356 -4.36,0.887 -4.577,1.574C-4.759,2.209 -4.85,2.97 -4.85,3.856C-4.85,4.744 -4.759,5.505 -4.577,6.138C-4.379,6.827 -4.03,7.361 -3.531,7.741C-3.033,8.122 -2.432,8.312 -1.725,8.312C-1.055,8.312 -0.479,8.122 0,7.741M-5.406,9.942C-6.43,9.218 -7.149,8.213 -7.566,6.927C-7.874,5.948 -8.027,4.916 -8.027,3.829C-8.027,2.671 -7.883,1.638 -7.593,0.732C-7.177,-0.535 -6.452,-1.523 -5.42,-2.229C-4.388,-2.936 -3.147,-3.288 -1.698,-3.288C-0.321,-3.288 0.869,-2.936 1.875,-2.229C2.88,-1.523 3.591,-0.545 4.008,0.705C4.333,1.574 4.496,2.607 4.496,3.803C4.496,4.943 4.343,5.975 4.034,6.899C3.618,8.185 2.902,9.195 1.889,9.929C0.874,10.662 -0.33,11.029 -1.725,11.029C-3.156,11.029 -4.383,10.667 -5.406,9.942" style="fill:rgb(35,31,32);fill-rule:nonzero;"/>
            </g>
            <g transform="matrix(1,0,0,1,125.9378,135.9955)">
                <path d="M0,13.368L-4.374,0.11C-4.392,0.074 -4.401,0.028 -4.401,-0.026C-4.401,-0.189 -4.302,-0.271 -4.102,-0.271L-1.331,-0.271C-1.132,-0.271 -1.005,-0.18 -0.95,0.002L1.685,9.075C1.702,9.13 1.729,9.157 1.767,9.157C1.802,9.157 1.829,9.13 1.848,9.075L4.482,0.002C4.537,-0.18 4.664,-0.271 4.863,-0.271L7.635,-0.216C7.743,-0.216 7.824,-0.184 7.879,-0.121C7.934,-0.057 7.942,0.038 7.906,0.165L3.56,13.368C3.505,13.549 3.387,13.639 3.206,13.639L0.354,13.639C0.172,13.639 0.055,13.549 0,13.368" style="fill:rgb(35,31,32);fill-rule:nonzero;"/>
            </g>
            <g transform="matrix(1,0,0,1,139.5081,146.6601)">
                <path d="M0,-7.906C-0.443,-7.57 -0.756,-7.104 -0.937,-6.507C-1.046,-6.198 -1.118,-5.801 -1.154,-5.311C-1.191,-5.22 -1.154,-5.176 -1.046,-5.176L4.469,-5.176C4.56,-5.176 4.605,-5.22 4.605,-5.311C4.568,-5.763 4.515,-6.108 4.442,-6.344C4.279,-6.996 3.957,-7.503 3.478,-7.865C2.997,-8.227 2.396,-8.408 1.671,-8.408C1.001,-8.408 0.443,-8.241 0,-7.906M7.811,-4.008L7.783,-3.165C7.783,-2.948 7.675,-2.839 7.458,-2.839L-1.046,-2.839C-1.137,-2.839 -1.182,-2.794 -1.182,-2.703C-1.127,-2.105 -1.046,-1.698 -0.937,-1.48C-0.502,-0.177 0.557,0.485 2.241,0.502C3.473,0.502 4.451,-0.005 5.176,-1.018C5.248,-1.128 5.339,-1.181 5.447,-1.181C5.52,-1.181 5.583,-1.155 5.638,-1.1L7.322,0.285C7.484,0.412 7.512,0.557 7.403,0.72C6.842,1.517 6.095,2.133 5.162,2.568C4.229,3.002 3.192,3.219 2.052,3.219C0.639,3.219 -0.562,2.903 -1.549,2.269C-2.536,1.635 -3.256,0.747 -3.708,-0.394C-4.125,-1.372 -4.333,-2.73 -4.333,-4.469C-4.333,-5.519 -4.225,-6.371 -4.007,-7.023C-3.645,-8.291 -2.961,-9.291 -1.956,-10.025C-0.951,-10.759 0.258,-11.125 1.671,-11.125C5.239,-11.125 7.249,-9.26 7.702,-5.528C7.774,-5.076 7.811,-4.568 7.811,-4.008" style="fill:rgb(35,31,32);fill-rule:nonzero;"/>
            </g>
            <g transform="matrix(1,0,0,1,158.1858,149.2805)">
                <path d="M0,-13.338C0.145,-13.266 0.199,-13.13 0.163,-12.931L-0.299,-10.485C-0.317,-10.268 -0.444,-10.204 -0.68,-10.295C-0.951,-10.386 -1.269,-10.431 -1.63,-10.431C-1.866,-10.431 -2.047,-10.422 -2.174,-10.404C-2.935,-10.367 -3.568,-10.101 -4.075,-9.603C-4.583,-9.105 -4.836,-8.457 -4.836,-7.66L-4.836,0.028C-4.836,0.119 -4.868,0.196 -4.932,0.26C-4.995,0.323 -5.071,0.354 -5.162,0.354L-7.661,0.354C-7.752,0.354 -7.829,0.323 -7.893,0.26C-7.956,0.196 -7.987,0.119 -7.987,0.028L-7.987,-13.202C-7.987,-13.293 -7.956,-13.369 -7.893,-13.433C-7.829,-13.496 -7.752,-13.528 -7.661,-13.528L-5.162,-13.528C-5.071,-13.528 -4.995,-13.496 -4.932,-13.433C-4.868,-13.369 -4.836,-13.293 -4.836,-13.202L-4.836,-11.98C-4.836,-11.907 -4.822,-11.866 -4.795,-11.858C-4.769,-11.848 -4.736,-11.871 -4.7,-11.925C-3.939,-13.103 -2.88,-13.692 -1.521,-13.692C-0.942,-13.692 -0.435,-13.573 0,-13.338" style="fill:rgb(35,31,32);fill-rule:nonzero;"/>
            </g>
            <g transform="matrix(1,0,0,1,162.4095,136.0921)">
                <path d="M0,13.203C-0.86,12.868 -1.525,12.406 -1.996,11.817C-2.468,11.229 -2.703,10.573 -2.703,9.848L-2.703,9.603C-2.703,9.514 -2.671,9.436 -2.607,9.373C-2.544,9.309 -2.468,9.277 -2.377,9.277L0.014,9.277C0.104,9.277 0.182,9.309 0.245,9.373C0.309,9.436 0.34,9.514 0.34,9.603L0.34,9.658C0.34,10.111 0.589,10.505 1.087,10.84C1.585,11.175 2.215,11.343 2.976,11.343C3.699,11.343 4.288,11.193 4.741,10.894C5.193,10.596 5.42,10.22 5.42,9.766C5.42,9.35 5.234,9.038 4.863,8.829C4.492,8.621 3.89,8.399 3.057,8.164L2.024,7.838C1.101,7.566 0.322,7.276 -0.312,6.969C-0.946,6.661 -1.48,6.239 -1.915,5.705C-2.35,5.171 -2.566,4.487 -2.566,3.654C-2.566,2.387 -2.069,1.377 -1.072,0.625C-0.077,-0.127 1.236,-0.503 2.866,-0.503C3.971,-0.503 4.94,-0.326 5.773,0.027C6.606,0.38 7.249,0.869 7.702,1.494C8.155,2.119 8.382,2.83 8.382,3.627C8.382,3.718 8.35,3.795 8.286,3.857C8.223,3.922 8.146,3.953 8.056,3.953L5.746,3.953C5.655,3.953 5.579,3.922 5.516,3.857C5.452,3.795 5.42,3.718 5.42,3.627C5.42,3.156 5.189,2.762 4.728,2.445C4.266,2.128 3.636,1.97 2.84,1.97C2.133,1.97 1.558,2.101 1.114,2.363C0.67,2.626 0.448,2.993 0.448,3.464C0.448,3.898 0.661,4.229 1.087,4.455C1.513,4.682 2.224,4.931 3.22,5.202L3.817,5.365C4.777,5.655 5.583,5.949 6.235,6.248C6.888,6.547 7.439,6.964 7.893,7.498C8.345,8.032 8.571,8.725 8.571,9.576C8.571,10.862 8.064,11.872 7.051,12.605C6.036,13.339 4.687,13.706 3.003,13.706C1.861,13.706 0.86,13.539 0,13.203" style="fill:rgb(35,31,32);fill-rule:nonzero;"/>
            </g>
            <g transform="matrix(1,0,0,1,173.9016,130.0882)">
                <path d="M0,19.452C-0.063,19.389 -0.095,19.311 -0.095,19.221L-0.095,5.963C-0.095,5.873 -0.063,5.796 0,5.732C0.063,5.669 0.141,5.637 0.231,5.637L2.73,5.637C2.821,5.637 2.897,5.669 2.961,5.732C3.024,5.796 3.057,5.873 3.057,5.963L3.057,19.221C3.057,19.311 3.024,19.389 2.961,19.452C2.897,19.515 2.821,19.547 2.73,19.547L0.231,19.547C0.141,19.547 0.063,19.515 0,19.452M0.149,3.219C-0.213,2.857 -0.394,2.395 -0.394,1.834C-0.394,1.272 -0.213,0.81 0.149,0.448C0.512,0.086 0.974,-0.095 1.535,-0.095C2.097,-0.095 2.558,0.086 2.921,0.448C3.282,0.81 3.464,1.272 3.464,1.834C3.464,2.395 3.282,2.857 2.921,3.219C2.558,3.582 2.097,3.763 1.535,3.763C0.974,3.763 0.512,3.582 0.149,3.219" style="fill:rgb(35,31,32);fill-rule:nonzero;"/>
            </g>
            <g transform="matrix(1,0,0,1,187.8391,143.5901)">
                <path d="M0,-5.379C-0.064,-5.316 -0.141,-5.284 -0.231,-5.284L-3.003,-5.284C-3.094,-5.284 -3.139,-5.238 -3.139,-5.149L-3.139,1.399C-3.139,2.088 -2.989,2.586 -2.69,2.893C-2.392,3.202 -1.916,3.355 -1.264,3.355L-0.449,3.355C-0.358,3.355 -0.281,3.387 -0.218,3.45C-0.154,3.514 -0.123,3.591 -0.123,3.682L-0.123,5.719C-0.123,5.918 -0.231,6.036 -0.449,6.072L-1.861,6.1C-3.292,6.1 -4.361,5.854 -5.067,5.366C-5.773,4.877 -6.136,3.953 -6.154,2.595L-6.154,-5.149C-6.154,-5.238 -6.199,-5.284 -6.29,-5.284L-7.838,-5.284C-7.929,-5.284 -8.006,-5.316 -8.069,-5.379C-8.133,-5.442 -8.164,-5.52 -8.164,-5.61L-8.164,-7.512C-8.164,-7.603 -8.133,-7.679 -8.069,-7.742C-8.006,-7.806 -7.929,-7.838 -7.838,-7.838L-6.29,-7.838C-6.199,-7.838 -6.154,-7.883 -6.154,-7.974L-6.154,-11.152C-6.154,-11.242 -6.122,-11.319 -6.059,-11.383C-5.995,-11.446 -5.919,-11.479 -5.828,-11.479L-3.464,-11.479C-3.374,-11.479 -3.297,-11.446 -3.233,-11.383C-3.17,-11.319 -3.139,-11.242 -3.139,-11.152L-3.139,-7.974C-3.139,-7.883 -3.094,-7.838 -3.003,-7.838L-0.231,-7.838C-0.141,-7.838 -0.064,-7.806 0,-7.742C0.062,-7.679 0.095,-7.603 0.095,-7.512L0.095,-5.61C0.095,-5.52 0.062,-5.442 0,-5.379" style="fill:rgb(35,31,32);fill-rule:nonzero;"/>
            </g>
            <g transform="matrix(1,0,0,1,190.3245,135.8195)">
                <path d="M0,19.127C-0.037,19.064 -0.055,18.986 -0.055,18.896L-0.055,16.939C-0.055,16.849 -0.023,16.773 0.04,16.709C0.104,16.646 0.181,16.613 0.271,16.613L0.299,16.613C1.041,16.596 1.62,16.519 2.037,16.383C2.453,16.247 2.798,15.989 3.069,15.608C3.341,15.229 3.586,14.657 3.803,13.897C3.82,13.86 3.82,13.807 3.803,13.734L-0.68,0.286C-0.698,0.25 -0.707,0.204 -0.707,0.15C-0.707,-0.013 -0.616,-0.095 -0.436,-0.095L2.228,-0.095C2.427,-0.095 2.554,-0.004 2.607,0.178L5.324,9.74C5.342,9.795 5.369,9.822 5.406,9.822C5.442,9.822 5.469,9.795 5.487,9.74L8.204,0.178C8.259,-0.004 8.385,-0.095 8.584,-0.095L11.165,-0.095C11.274,-0.095 11.351,-0.062 11.396,0.001C11.441,0.064 11.446,0.159 11.41,0.286L6.628,14.576C6.176,15.862 5.731,16.821 5.297,17.456C4.862,18.09 4.27,18.543 3.518,18.815C2.766,19.086 1.702,19.222 0.325,19.222L0.136,19.222C0.081,19.222 0.035,19.189 0,19.127" style="fill:rgb(35,31,32);fill-rule:nonzero;"/>
            </g>
            <g transform="matrix(1,0,0,1,214.0823,146.4571)">
                <path d="M0,-12.661C-0.39,-12.316 -0.584,-11.863 -0.584,-11.303C-0.584,-10.994 -0.476,-10.65 -0.258,-10.27C-0.041,-9.89 0.421,-9.273 1.128,-8.423C1.182,-8.35 1.245,-8.341 1.317,-8.395C2.096,-8.885 2.689,-9.36 3.097,-9.822C3.505,-10.284 3.708,-10.786 3.708,-11.33C3.708,-11.89 3.509,-12.339 3.11,-12.675C2.712,-13.01 2.187,-13.177 1.535,-13.177C0.9,-13.177 0.39,-13.005 0,-12.661M4.143,-0.49C4.215,-0.562 4.215,-0.626 4.143,-0.68C4.052,-0.77 3.962,-0.87 3.871,-0.978C3.78,-1.088 3.69,-1.196 3.6,-1.305C3.364,-1.576 2.975,-2.02 2.432,-2.636L1.807,-3.343C1.517,-3.65 1.163,-4.049 0.747,-4.538C0.711,-4.592 0.647,-4.6 0.557,-4.565C-0.258,-4.039 -0.883,-3.523 -1.317,-3.016C-1.752,-2.509 -1.97,-1.938 -1.97,-1.305C-1.97,-0.688 -1.738,-0.195 -1.276,0.176C-0.815,0.547 -0.194,0.733 0.584,0.733C1.707,0.733 2.894,0.325 4.143,-0.49M10.935,2.987C10.935,3.114 10.844,3.178 10.663,3.178L7.865,3.178C7.702,3.178 7.566,3.114 7.457,2.987L6.235,1.629C6.181,1.575 6.117,1.575 6.045,1.629C4.378,2.807 2.549,3.396 0.557,3.396C-1.109,3.396 -2.481,3.001 -3.559,2.213C-4.637,1.426 -5.176,0.271 -5.176,-1.251C-5.176,-2.482 -4.836,-3.523 -4.156,-4.375C-3.478,-5.225 -2.559,-6.014 -1.399,-6.738C-1.29,-6.81 -1.281,-6.874 -1.372,-6.929C-2.332,-8.088 -2.966,-8.984 -3.273,-9.618C-3.582,-10.252 -3.735,-10.913 -3.735,-11.601C-3.735,-12.434 -3.519,-13.19 -3.083,-13.87C-2.648,-14.549 -2.037,-15.083 -1.25,-15.473C-0.462,-15.862 0.438,-16.057 1.453,-16.057C2.504,-16.057 3.437,-15.862 4.252,-15.473C5.066,-15.083 5.705,-14.535 6.167,-13.829C6.629,-13.123 6.859,-12.307 6.859,-11.384C6.859,-10.279 6.534,-9.309 5.882,-8.477C5.229,-7.643 4.351,-6.883 3.246,-6.195C3.155,-6.14 3.146,-6.077 3.22,-6.005C4.052,-5.026 5.066,-3.876 6.262,-2.555C6.316,-2.482 6.38,-2.482 6.452,-2.555C6.887,-3.025 7.448,-3.75 8.137,-4.727C8.245,-4.927 8.39,-4.963 8.571,-4.837L10.419,-3.777C10.636,-3.65 10.672,-3.506 10.527,-3.343C9.767,-2.183 9.015,-1.186 8.272,-0.354L8.245,-0.3C8.245,-0.227 8.281,-0.154 8.354,-0.082C9.006,0.679 9.64,1.403 10.256,2.091C10.382,2.254 10.495,2.39 10.596,2.499C10.694,2.608 10.781,2.698 10.854,2.771C10.908,2.843 10.935,2.915 10.935,2.987" style="fill:rgb(35,31,32);fill-rule:nonzero;"/>
            </g>
            <g transform="matrix(1,0,0,1,236.6438,131.203)">
                <path d="M0,17.848C-1.032,17.314 -1.829,16.567 -2.391,15.607C-2.952,14.647 -3.232,13.533 -3.232,12.265L-3.232,5.555C-3.232,4.287 -2.952,3.173 -2.391,2.213C-1.829,1.253 -1.032,0.511 0,-0.014C1.033,-0.54 2.229,-0.802 3.587,-0.802C4.927,-0.802 6.113,-0.548 7.146,-0.042C8.178,0.465 8.975,1.181 9.536,2.104C10.098,3.028 10.378,4.097 10.378,5.31C10.378,5.401 10.347,5.478 10.283,5.541C10.22,5.605 10.143,5.636 10.053,5.636L7.553,5.772C7.336,5.772 7.227,5.672 7.227,5.473C7.227,4.405 6.896,3.544 6.235,2.892C5.574,2.241 4.691,1.914 3.587,1.914C2.481,1.914 1.594,2.241 0.924,2.892C0.254,3.544 -0.081,4.405 -0.081,5.473L-0.081,12.401C-0.081,13.452 0.254,14.302 0.924,14.954C1.594,15.607 2.481,15.933 3.587,15.933C4.691,15.933 5.574,15.612 6.235,14.968C6.896,14.326 7.227,13.47 7.227,12.401C7.227,12.202 7.336,12.102 7.553,12.102L10.053,12.21C10.143,12.21 10.22,12.238 10.283,12.292C10.347,12.346 10.378,12.41 10.378,12.483C10.378,13.714 10.098,14.796 9.536,15.729C8.975,16.661 8.178,17.382 7.146,17.889C6.113,18.396 4.927,18.65 3.587,18.65C2.229,18.65 1.033,18.382 0,17.848" style="fill:rgb(35,31,32);fill-rule:nonzero;"/>
            </g>
            <g transform="matrix(1,0,0,1,250.4856,130.7122)">
                <path d="M0,18.828C-0.063,18.765 -0.095,18.687 -0.095,18.597L-0.095,0.231C-0.095,0.141 -0.063,0.064 0,0.001C0.063,-0.063 0.141,-0.095 0.231,-0.095L2.73,-0.095C2.821,-0.095 2.897,-0.063 2.962,0.001C3.024,0.064 3.057,0.141 3.057,0.231L3.057,18.597C3.057,18.687 3.024,18.765 2.962,18.828C2.897,18.891 2.821,18.923 2.73,18.923L0.231,18.923C0.141,18.923 0.063,18.891 0,18.828" style="fill:rgb(35,31,32);fill-rule:nonzero;"/>
            </g>
            <g transform="matrix(1,0,0,1,261.5569,136.3772)">
                <path d="M0,7.498L5.515,7.498C5.624,7.498 5.66,7.444 5.624,7.335L2.825,-1.766C2.807,-1.838 2.78,-1.874 2.744,-1.874C2.707,-1.874 2.68,-1.838 2.662,-1.766L-0.108,7.335C-0.127,7.444 -0.091,7.498 0,7.498M7.39,12.986L6.493,10.079C6.456,10.007 6.411,9.971 6.357,9.971L-0.815,9.971C-0.869,9.971 -0.915,10.007 -0.951,10.079L-1.848,12.986C-1.901,13.167 -2.02,13.258 -2.2,13.258L-4.917,13.258C-5.026,13.258 -5.107,13.227 -5.162,13.163C-5.216,13.1 -5.226,13.004 -5.189,12.878L0.706,-5.487C0.761,-5.669 0.878,-5.76 1.06,-5.76L4.455,-5.76C4.636,-5.76 4.754,-5.669 4.809,-5.487L10.731,12.878C10.749,12.914 10.758,12.959 10.758,13.014C10.758,13.177 10.658,13.258 10.459,13.258L7.742,13.258C7.562,13.258 7.443,13.167 7.39,12.986" style="fill:rgb(35,31,32);fill-rule:nonzero;"/>
            </g>
            <g transform="matrix(1,0,0,1,285.722,149.5391)">
                <path d="M0,-18.826C0.063,-18.763 0.096,-18.685 0.096,-18.596L0.096,-16.504C0.096,-16.413 0.063,-16.336 0,-16.272C-0.063,-16.209 -0.141,-16.178 -0.23,-16.178L-5.229,-16.178C-5.32,-16.178 -5.365,-16.132 -5.365,-16.042L-5.365,-0.23C-5.365,-0.139 -5.397,-0.062 -5.46,0.001C-5.524,0.065 -5.601,0.096 -5.691,0.096L-8.19,0.096C-8.281,0.096 -8.358,0.065 -8.422,0.001C-8.485,-0.062 -8.517,-0.139 -8.517,-0.23L-8.517,-16.042C-8.517,-16.132 -8.563,-16.178 -8.652,-16.178L-13.461,-16.178C-13.552,-16.178 -13.629,-16.209 -13.692,-16.272C-13.756,-16.336 -13.787,-16.413 -13.787,-16.504L-13.787,-18.596C-13.787,-18.685 -13.756,-18.763 -13.692,-18.826C-13.629,-18.889 -13.552,-18.922 -13.461,-18.922L-0.23,-18.922C-0.141,-18.922 -0.063,-18.889 0,-18.826" style="fill:rgb(35,31,32);fill-rule:nonzero;"/>
            </g>
            <g transform="matrix(1,0,0,1,112.8968,98.6993)">
                <path d="M0,12.922L9.505,12.922C9.691,12.922 9.754,12.828 9.691,12.642L4.869,-3.043C4.838,-3.168 4.791,-3.23 4.729,-3.23C4.666,-3.23 4.619,-3.168 4.589,-3.043L-0.187,12.642C-0.219,12.828 -0.156,12.922 0,12.922M12.735,22.38L11.19,17.37C11.127,17.245 11.05,17.183 10.956,17.183L-1.404,17.183C-1.498,17.183 -1.576,17.245 -1.639,17.37L-3.184,22.38C-3.277,22.692 -3.48,22.848 -3.792,22.848L-8.474,22.848C-8.661,22.848 -8.802,22.794 -8.896,22.684C-8.989,22.575 -9.005,22.411 -8.942,22.193L1.218,-9.457C1.312,-9.768 1.514,-9.926 1.826,-9.926L7.679,-9.926C7.99,-9.926 8.193,-9.768 8.287,-9.457L18.494,22.193C18.524,22.255 18.54,22.333 18.54,22.427C18.54,22.707 18.368,22.848 18.025,22.848L13.344,22.848C13.031,22.848 12.829,22.692 12.735,22.38" style="fill:rgb(35,31,32);fill-rule:nonzero;"/>
            </g>
            <g transform="matrix(1,0,0,1,135.9085,88.938)">
                <path d="M0,32.445C-0.109,32.337 -0.164,32.204 -0.164,32.048L-0.164,0.398C-0.164,0.242 -0.109,0.109 0,0C0.109,-0.11 0.241,-0.164 0.398,-0.164L4.705,-0.164C4.861,-0.164 4.994,-0.11 5.104,0C5.213,0.109 5.268,0.242 5.268,0.398L5.268,32.048C5.268,32.204 5.213,32.337 5.104,32.445C4.994,32.555 4.861,32.609 4.705,32.609L0.398,32.609C0.241,32.609 0.109,32.555 0,32.445" style="fill:rgb(35,31,32);fill-rule:nonzero;"/>
            </g>
            <g transform="matrix(1,0,0,1,147.0979,88.938)">
                <path d="M0,32.445C-0.109,32.337 -0.164,32.204 -0.164,32.048L-0.164,0.398C-0.164,0.242 -0.109,0.109 0,0C0.109,-0.11 0.241,-0.164 0.398,-0.164L4.705,-0.164C4.861,-0.164 4.994,-0.11 5.104,0C5.213,0.109 5.268,0.242 5.268,0.398L5.268,32.048C5.268,32.204 5.213,32.337 5.104,32.445C4.994,32.555 4.861,32.609 4.705,32.609L0.398,32.609C0.241,32.609 0.109,32.555 0,32.445" style="fill:rgb(35,31,32);fill-rule:nonzero;"/>
            </g>
            <g transform="matrix(1,0,0,1,158.5686,87.861)">
                <path d="M0,33.522C-0.109,33.414 -0.164,33.281 -0.164,33.125L-0.164,10.277C-0.164,10.121 -0.109,9.989 0,9.878C0.109,9.77 0.241,9.714 0.397,9.714L4.705,9.714C4.861,9.714 4.993,9.77 5.104,9.878C5.212,9.989 5.267,10.121 5.267,10.277L5.267,33.125C5.267,33.281 5.212,33.414 5.104,33.522C4.993,33.632 4.861,33.686 4.705,33.686L0.397,33.686C0.241,33.686 0.109,33.632 0,33.522M0.258,5.548C-0.367,4.924 -0.679,4.128 -0.679,3.16C-0.679,2.193 -0.367,1.397 0.258,0.772C0.882,0.148 1.678,-0.164 2.646,-0.164C3.612,-0.164 4.408,0.148 5.033,0.772C5.657,1.397 5.97,2.193 5.97,3.16C5.97,4.128 5.657,4.924 5.033,5.548C4.408,6.172 3.612,6.484 2.646,6.484C1.678,6.484 0.882,6.172 0.258,5.548" style="fill:rgb(35,31,32);fill-rule:nonzero;"/>
            </g>
            <g transform="matrix(1,0,0,1,182.0013,102.7736)">
                <path d="M0,13.623C1.092,12.812 1.639,11.782 1.639,10.533L1.639,8.333C1.639,8.177 1.561,8.099 1.404,8.099L-2.528,8.099C-4.184,8.099 -5.486,8.411 -6.437,9.035C-7.391,9.66 -7.866,10.55 -7.866,11.704C-7.866,12.703 -7.499,13.476 -6.766,14.021C-6.032,14.567 -5.088,14.841 -3.933,14.841C-2.404,14.841 -1.093,14.435 0,13.623M2.388,-4.495C3.886,-3.809 5.04,-2.864 5.853,-1.663C6.663,-0.461 7.069,0.904 7.069,2.434L7.069,18.212C7.069,18.368 7.015,18.501 6.905,18.609C6.796,18.72 6.663,18.773 6.508,18.773L2.2,18.773C2.044,18.773 1.911,18.72 1.803,18.609C1.692,18.501 1.639,18.368 1.639,18.212L1.639,16.714C1.639,16.62 1.607,16.565 1.545,16.55C1.481,16.534 1.42,16.558 1.357,16.62C-0.172,18.306 -2.388,19.148 -5.291,19.148C-7.632,19.148 -9.56,18.556 -11.073,17.369C-12.587,16.183 -13.344,14.419 -13.344,12.078C-13.344,9.644 -12.493,7.748 -10.792,6.39C-9.091,5.032 -6.695,4.353 -3.605,4.353L1.404,4.353C1.561,4.353 1.639,4.275 1.639,4.119L1.639,2.995C1.639,1.778 1.279,0.835 0.562,0.163C-0.157,-0.508 -1.233,-0.844 -2.669,-0.844C-3.855,-0.844 -4.815,-0.633 -5.548,-0.212C-6.282,0.21 -6.742,0.795 -6.93,1.544C-7.023,1.919 -7.242,2.075 -7.585,2.013L-12.126,1.45C-12.283,1.42 -12.415,1.365 -12.524,1.286C-12.634,1.209 -12.673,1.107 -12.642,0.982C-12.392,-0.921 -11.37,-2.482 -9.574,-3.699C-7.78,-4.917 -5.524,-5.525 -2.81,-5.525C-0.843,-5.525 0.89,-5.182 2.388,-4.495" style="fill:rgb(35,31,32);fill-rule:nonzero;"/>
            </g>
            <g transform="matrix(1,0,0,1,212.0345,119.3003)">
                <path d="M0,-19.805C1.514,-18.307 2.271,-16.262 2.271,-13.671L2.271,1.685C2.271,1.841 2.216,1.974 2.106,2.083C1.997,2.193 1.864,2.247 1.709,2.247L-2.599,2.247C-2.755,2.247 -2.888,2.193 -2.996,2.083C-3.106,1.974 -3.16,1.841 -3.16,1.685L-3.16,-12.548C-3.16,-13.984 -3.566,-15.147 -4.378,-16.036C-5.189,-16.925 -6.267,-17.37 -7.608,-17.37C-8.95,-17.37 -10.035,-16.933 -10.862,-16.06C-11.689,-15.185 -12.103,-14.031 -12.103,-12.595L-12.103,1.685C-12.103,1.841 -12.157,1.974 -12.267,2.083C-12.376,2.193 -12.509,2.247 -12.665,2.247L-16.972,2.247C-17.129,2.247 -17.261,2.193 -17.37,2.083C-17.479,1.974 -17.534,1.841 -17.534,1.685L-17.534,-21.116C-17.534,-21.272 -17.479,-21.404 -17.37,-21.514C-17.261,-21.622 -17.129,-21.678 -16.972,-21.678L-12.665,-21.678C-12.509,-21.678 -12.376,-21.622 -12.267,-21.514C-12.157,-21.404 -12.103,-21.272 -12.103,-21.116L-12.103,-19.618C-12.103,-19.524 -12.072,-19.461 -12.009,-19.43C-11.947,-19.399 -11.9,-19.43 -11.869,-19.524C-10.589,-21.209 -8.654,-22.052 -6.063,-22.052C-3.535,-22.052 -1.515,-21.303 0,-19.805" style="fill:rgb(35,31,32);fill-rule:nonzero;"/>
            </g>
            <g transform="matrix(1,0,0,1,223.5276,99.0984)">
                <path d="M0,20.974C-1.749,19.742 -2.966,18.079 -3.652,15.988C-4.151,14.583 -4.401,12.71 -4.401,10.37C-4.401,8.122 -4.151,6.281 -3.652,4.845C-2.996,2.785 -1.787,1.154 -0.023,-0.047C1.739,-1.249 3.823,-1.85 6.227,-1.85C8.661,-1.85 10.783,-1.242 12.594,-0.024C14.404,1.193 15.605,2.722 16.199,4.564C16.355,5.064 16.464,5.563 16.527,6.062L16.527,6.156C16.527,6.468 16.355,6.656 16.012,6.717L11.798,7.327L11.704,7.327C11.424,7.327 11.236,7.17 11.143,6.858C11.143,6.703 11.127,6.577 11.096,6.484C11.033,6.234 10.971,6.015 10.908,5.828C10.628,4.954 10.065,4.236 9.224,3.674C8.381,3.113 7.381,2.831 6.227,2.831C5.04,2.831 4.033,3.136 3.207,3.745C2.38,4.353 1.826,5.189 1.545,6.249C1.232,7.248 1.077,8.637 1.077,10.416C1.077,12.133 1.217,13.522 1.498,14.583C1.81,15.676 2.371,16.542 3.184,17.181C3.995,17.822 5.01,18.141 6.227,18.141C7.412,18.141 8.435,17.837 9.293,17.228C10.151,16.62 10.705,15.8 10.955,14.77C10.986,14.708 11.002,14.63 11.002,14.537C11.033,14.505 11.049,14.458 11.049,14.396C11.143,14.021 11.36,13.866 11.704,13.927L15.918,14.583C16.074,14.615 16.206,14.685 16.316,14.793C16.425,14.904 16.464,15.051 16.434,15.239C16.34,15.738 16.262,16.097 16.199,16.316C15.605,18.313 14.404,19.897 12.594,21.068C10.783,22.238 8.661,22.824 6.227,22.824C3.823,22.824 1.747,22.207 0,20.974" style="fill:rgb(35,31,32);fill-rule:nonzero;"/>
            </g>
            <g transform="matrix(1,0,0,1,251.3147,116.4201)">
                <path d="M0,-13.624C-0.766,-13.046 -1.304,-12.243 -1.615,-11.213C-1.803,-10.682 -1.928,-9.995 -1.99,-9.152C-2.053,-8.996 -1.99,-8.919 -1.803,-8.919L7.702,-8.919C7.857,-8.919 7.936,-8.996 7.936,-9.152C7.873,-9.933 7.779,-10.526 7.655,-10.932C7.374,-12.056 6.819,-12.929 5.993,-13.554C5.165,-14.178 4.127,-14.49 2.879,-14.49C1.725,-14.49 0.765,-14.201 0,-13.624M13.46,-6.905L13.414,-5.454C13.414,-5.079 13.227,-4.893 12.852,-4.893L-1.803,-4.893C-1.959,-4.893 -2.037,-4.814 -2.037,-4.658C-1.943,-3.628 -1.803,-2.926 -1.615,-2.552C-0.866,-0.304 0.96,0.836 3.862,0.866C5.984,0.866 7.67,-0.007 8.919,-1.756C9.043,-1.942 9.2,-2.036 9.387,-2.036C9.512,-2.036 9.621,-1.989 9.715,-1.895L12.617,0.492C12.898,0.711 12.945,0.96 12.758,1.241C11.79,2.615 10.503,3.676 8.896,4.425C7.288,5.174 5.501,5.548 3.535,5.548C1.101,5.548 -0.968,5.003 -2.669,3.909C-4.37,2.817 -5.611,1.288 -6.391,-0.679C-7.109,-2.364 -7.468,-4.705 -7.468,-7.701C-7.468,-9.512 -7.28,-10.978 -6.906,-12.103C-6.282,-14.287 -5.104,-16.012 -3.371,-17.276C-1.639,-18.54 0.444,-19.172 2.879,-19.172C9.028,-19.172 12.492,-15.957 13.273,-9.527C13.397,-8.747 13.46,-7.873 13.46,-6.905" style="fill:rgb(35,31,32);fill-rule:nonzero;"/>
            </g>
        </g>
    </g>
</svg>
