<?xml version="1.0" encoding="UTF-8" standalone="no"?>
<!DOCTYPE svg PUBLIC "-//W3C//DTD SVG 1.1//EN" "http://www.w3.org/Graphics/SVG/1.1/DTD/svg11.dtd">
<svg width="100%" height="100%" viewBox="0 0 3438 3251" version="1.1" xmlns="http://www.w3.org/2000/svg" xmlns:xlink="http://www.w3.org/1999/xlink" xml:space="preserve" xmlns:serif="http://www.serif.com/" style="fill-rule:evenodd;clip-rule:evenodd;stroke-linejoin:round;stroke-miterlimit:2;">
    <g transform="matrix(1,0,0,1,-3.315417,-672.984167)">
        <g transform="matrix(4.166667,0,0,4.166667,0,0)">
            <g transform="matrix(1,0,0,1,775.4697,941.6942)">
                <path d="M0,-442.367L-16.921,-440.957L-19.052,-440.256L-33.866,-436.724L-40.924,-436.015L-45.854,-434.609L-57.857,-429.667L-62.087,-428.261L-80.429,-424.73L-83.259,-424.025L-89.607,-422.615L-98.069,-421.2L-113.594,-414.852L-127.694,-409.91L-136.866,-407.091L-144.633,-402.155L-150.279,-400.034L-158.036,-397.919L-170.736,-393.686L-180.614,-392.977L-190.49,-390.862L-208.841,-385.924L-214.482,-382.399L-220.128,-380.989L-230.701,-378.867L-234.943,-378.162L-238.47,-376.047L-242.7,-374.641L-246.937,-373.226L-258.224,-369.699L-268.802,-366.169L-272.339,-364.059L-274.454,-363.347L-280.087,-360.527L-292.796,-357.002L-294.916,-355.59L-299.147,-354.175L-303.378,-353.47L-297.031,-360.527L-299.147,-360.527L-303.378,-357.002L-306.198,-355.59L-306.91,-354.175L-307.61,-353.47L-308.32,-353.47L-317.488,-349.945L-328.07,-345.008L-337.943,-340.766L-345.711,-338.656L-350.646,-336.54L-355.584,-333.013L-362.641,-330.894L-368.276,-329.484L-368.276,-330.894L-365.466,-333.013L-342.184,-343.593L-346.416,-343.593L-366.17,-335.126L-373.227,-333.013L-376.759,-332.303L-378.87,-330.894L-383.808,-329.484L-390.157,-328.774L-390.157,-325.952L-386.632,-327.369L-383.808,-328.774L-379.575,-325.952L-388.747,-322.427L-394.39,-321.016L-400.741,-320.312L-412.734,-316.779L-421.908,-313.255L-426.835,-311.137L-431.785,-307.612L-440.962,-301.965L-448.01,-299.85L-456.468,-297.735L-457.882,-296.325L-460.004,-295.618L-464.239,-294.913L-470.587,-294.203L-476.233,-294.203L-477.643,-292.793L-480.468,-291.388L-483.29,-290.677L-490.348,-288.562L-497.4,-285.035L-508.687,-276.568L-516.441,-274.453L-526.326,-270.922L-533.379,-270.922L-538.321,-268.811L-543.258,-267.396L-541.141,-267.396L-536.206,-268.101L-534.084,-268.811L-533.379,-269.511L-532.674,-268.811L-532.674,-268.101L-536.206,-265.986L-541.141,-263.159L-548.903,-259.635L-556.661,-256.812L-565.598,-252.577L-571.479,-250.46L-578.536,-246.23L-586.999,-242.714L-596.878,-239.172L-610.993,-233.541L-627.222,-226.473L-631.447,-225.063L-637.095,-224.367L-642.737,-220.828L-647.677,-218.715L-655.438,-213.071L-663.192,-210.249L-668.843,-208.839L-674.49,-206.023L-679.428,-204.601L-687.183,-199.667L-694.948,-196.855L-685.777,-196.855L-685.777,-196.139L-689.305,-193.315L-694.236,-190.494L-706.944,-184.147L-712.587,-181.32L-720.339,-177.795L-726.7,-173.562L-730.226,-171.443L-733.753,-170.032L-735.872,-168.623L-740.81,-167.206L-751.383,-160.856L-762.682,-153.804L-764.092,-150.992L-766.912,-150.277L-768.326,-149.571L-769.732,-147.451L-770.443,-146.047L-772.558,-144.636L-773.968,-143.924L-774.674,-142.514L-770.443,-141.825L-769.031,-142.514L-767.616,-141.825L-767.616,-141.113L-770.443,-140.399L-771.149,-137.579L-771.853,-136.178L-771.853,-134.757L-769.732,-134.048L-768.326,-129.817L-766.912,-129.817L-769.031,-129.112L-769.732,-129.112L-769.732,-124.879L-769.031,-123.47L-766.912,-122.06L-764.092,-121.355L-764.092,-120.643L-763.386,-113.586L-764.092,-108.651L-763.386,-107.946L-759.154,-102.298L-757.035,-100.188L-755.625,-95.955L-754.213,-89.604L-752.793,-84.664L-750.678,-80.431L-750.678,-76.902L-749.277,-74.08L-747.155,-72.669L-743.63,-68.432L-745.04,-64.202L-745.04,-61.383L-742.925,-58.556L-740.81,-49.392L-736.573,-45.863L-734.462,-42.326L-732.341,-38.094L-728.815,-33.863L-728.815,-26.106L-727.405,-17.648L-723.16,-14.107L-721.045,-10.578L-720.339,-4.936L-715.411,0L-713.996,-0.705L-711.881,-0.705L-708.354,-1.41L-706.944,-4.234L-702.002,-4.936L-690.009,-12.697L-684.367,-14.819L-678.721,-17.648L-678.015,-19.049L-676.606,-22.575L-671.664,-23.281L-667.433,-23.987L-658.261,-28.921L-654.028,-31.044L-649.089,-31.748L-642.737,-35.987L-635.675,-38.094L-630.042,-41.626L-627.222,-42.326L-623.69,-45.151L-619.46,-47.263L-615.223,-49.392L-610.281,-51.502L-610.281,-53.614L-607.46,-54.325L-596.878,-60.671L-585.589,-67.022L-577.127,-69.144L-566.779,-73.374L-556.661,-79.017L-548.198,-81.137L-537.611,-87.484L-526.326,-93.131L-512.924,-98.073L-499.52,-103.008L-497.4,-104.418L-495.987,-105.124L-494.582,-105.124L-493.163,-106.54L-490.347,-108.651L-485.392,-109.36L-480.468,-111.475L-475.533,-115.003L-469.882,-116.412L-465.649,-117.113L-461.419,-118.528L-456.468,-120.643L-449.419,-122.06L-443.779,-124.879L-438.842,-128.411L-443.779,-126.994L-449.419,-122.764L-449.419,-128.411L-440.961,-131.932L-435.317,-134.048L-428.95,-134.757L-426.835,-134.757L-426.835,-134.048L-422.613,-134.048L-421.908,-134.757L-415.561,-136.867L-409.208,-140.399L-410.623,-141.825L-407.798,-145.345L-404.266,-147.452L-397.214,-148.157L-404.266,-142.514L-400.741,-142.514L-399.316,-145.345L-396.509,-147.452L-392.984,-149.572L-390.869,-151.687L-383.1,-155.214L-375.345,-157.333L-359.113,-162.271L-351.355,-164.386L-343.594,-167.914L-328.07,-174.971L-319.603,-177.09L-311.131,-178.504L-304.083,-182.025L-297.031,-184.147L-280.087,-189.789L-272.339,-192.61L-202.485,-218.716L-179.908,-227.89L-156.631,-236.353L-150.279,-237.763L-134.751,-242.714L-112.183,-249.76L-103.006,-253.992L-95.244,-257.517L-83.959,-258.929L-79.725,-260.344L-76.189,-261.754L-70.55,-265.279L-64.194,-266.691L-62.087,-266.691L-57.857,-267.396L-49.39,-269.511L-40.923,-272.336L-33.161,-275.154L-19.051,-279.393L-14.815,-280.799L-7.048,-280.093L2.115,-280.799L5.64,-282.784L7.057,-283.626L12.003,-283.626L13.409,-287.856L16.229,-289.973L19.754,-291.388L19.754,-294.204L16.229,-294.913L14.109,-297.026L13.409,-300.555L15.52,-300.555L18.344,-301.965L16.938,-304.087L17.639,-306.907L21.166,-312.55L27.518,-314.67L34.569,-317.489L35.986,-319.607L34.569,-320.312L33.863,-322.427L28.929,-322.427L27.518,-320.312L21.166,-319.607L19.754,-320.312L21.875,-322.427L21.875,-324.542L20.462,-323.837L19.754,-324.542L19.754,-325.952L21.166,-327.369L21.875,-328.774L26.811,-330.188L28.223,-330.894L28.929,-333.013L32.453,-334.421L34.569,-335.126L35.986,-338.656L32.454,-341.476L28.929,-345.008L26.102,-346.418L21.875,-347.118L25.401,-347.823L26.811,-349.945L28.929,-351.351L30.338,-353.47L31.748,-354.881L31.748,-356.29L33.163,-357.002L34.568,-357.002L34.568,-360.527L27.518,-360.527L26.102,-361.232L28.223,-365.465L28.928,-366.875L26.102,-366.875L26.102,-366.169L18.344,-366.169L14.823,-365.465L13.408,-364.059L12.717,-361.232L8.471,-366.169L14.109,-368.284L19.754,-373.226L28.928,-374.641L13.408,-373.932L12.003,-372.522L9.881,-371.814L5.639,-368.995L4.241,-368.284L-1.41,-366.875L-8.467,-365.465L-10.579,-364.764L-11.991,-363.347L-15.524,-361.232L-19.052,-360.527L-28.219,-360.527L-28.219,-364.764L-27.51,-365.465L-19.052,-365.465L-4.942,-366.875L-2.111,-368.995L-2.111,-373.226L-0.706,-373.932L5.877,-374.874L13.408,-377.462L26.102,-380.283L25.401,-385.924L21.166,-387.341L11.302,-387.341L9.167,-386.635L8.471,-385.924L5.639,-388.041L4.941,-388.746L2.824,-389.451L2.115,-387.341L1.409,-385.924L1.409,-382.399L-0.706,-381.693L-3.528,-384.514L-6.352,-385.219L-9.168,-384.514L-11.294,-381.693L-19.052,-379.572L-20.462,-380.284L-20.462,-381.693L-19.516,-387.103L-19.183,-388.997L-17.631,-388.746L-11.294,-388.746L0,-392.977L5.172,-394.151L7.762,-395.804L12.717,-394.391L18.344,-395.804L19.754,-399.328L13.408,-399.328L15.519,-400.034L19.754,-400.034L26.101,-401.443L26.101,-402.155L13.408,-405.68L13.408,-408.501L12.002,-409.21L5.877,-409.443L0.705,-407.091L-6.352,-405.68L-9.168,-406.381L-9.878,-407.795L-9.168,-409.91L-6.352,-412.032L-2.111,-414.852L-2.111,-417.673L-0.706,-421.2L2.115,-421.906L2.824,-424.025L2.115,-423.319L-2.111,-421.906L-2.111,-423.319L-0.001,-427.552L0.705,-430.372L0.705,-431.077L-0.706,-429.667L-7.049,-427.552L-14.815,-426.847L-19.052,-424.025L-21.872,-422.615L-28.219,-421.2L-31.04,-420.495L-33.161,-419.79L-33.867,-421.2L-35.986,-422.615L-37.387,-424.025L-36.687,-426.142L-33.866,-426.847L-19.752,-429.667L-4.943,-435.309L2.115,-436.724L2.824,-440.957L2.824,-442.367L0,-442.367ZM-84.665,-406.381L-83.6,-407.795L-81.844,-408.501L-76.189,-412.733L-77.607,-408.501L-83.491,-405.68L-89.607,-405.68L-84.665,-406.381ZM-101.601,-382.399L-98.068,-386.635L-93.131,-387.341L-88.897,-388.747L-86.081,-389.451L-83.25,-390.862L-77.607,-392.977L-67.73,-393.686L-62.087,-397.213L-59.263,-399.328L-57.857,-399.328L-55.03,-400.034L-52.915,-400.034L-52.915,-399.328L-55.03,-396.508L-57.503,-395.448L-59.263,-393.686L-61.733,-393.336L-66.316,-392.977L-72.672,-392.271L-79.725,-388.747L-83.25,-387.341L-84.665,-387.341L-89.607,-386.635L-95.244,-385.924L-96.655,-385.219L-97.359,-383.808L-98.068,-381.693L-100.885,-381.693L-101.601,-382.399ZM-156.631,-393.686L-153.8,-393.686L-151.689,-394.391L-150.279,-395.804L-147.459,-397.919L-144.632,-399.328L-143.927,-399.328L-144.632,-398.628L-146.748,-393.686L-150.279,-392.977L-156.631,-392.977L-156.631,-393.686ZM-348.531,-330.894L-341.465,-335.126L-334.422,-338.656L-327.37,-340.066L-320.307,-342.888L-306.91,-347.824L-286.448,-354.881L-272.339,-358.408L-263.872,-361.232L-262.457,-364.059L-261.045,-364.764L-259.63,-365.465L-258.93,-362.642L-261.045,-359.823L-263.872,-357.703L-266.692,-357.002L-272.685,-355.59L-275.86,-355.59L-279.391,-353.47L-289.974,-349.945L-299.853,-347.118L-315.373,-341.476L-321.729,-339.361L-328.774,-335.126L-336.537,-333.714L-342.184,-330.894L-347.827,-330.188L-348.531,-330.188L-348.531,-330.894ZM-71.262,-351.351L-68.44,-351.351L-63.504,-352.761L-62.087,-352.761L-58.321,-353.47L-55.03,-353.47L-53.62,-354.881L-49.39,-357.002L-42.329,-357.002L-42.329,-354.881L-47.974,-353.47L-52.915,-353.47L-57.148,-352.06L-57.857,-351.351L-62.087,-351.351L-64.91,-350.65L-66.316,-349.945L-67.73,-347.824L-72.672,-347.118L-71.262,-351.351ZM-65.611,-321.722L-64.91,-322.427L-62.087,-324.542L-57.857,-325.246L-57.148,-325.952L-55.03,-328.774L-48.675,-328.774L-43.739,-330.188L-42.329,-331.599L-40.923,-333.013L-35.272,-333.013L-30.334,-335.126L-23.987,-335.831L-21.872,-337.951L-20.258,-338.354L-18.814,-338.889L-11.294,-340.066L-7.049,-342.183L-2.111,-343.593L-0.706,-345.008L2.115,-345.008L4.241,-343.593L0,-342.183L-2.111,-340.066L-7.049,-340.066L-11.294,-338.656L-19.052,-335.831L-28.219,-333.013L-35.272,-329.484L-41.624,-329.484L-47.974,-328.774L-54.326,-325.952L-58.083,-323.837L-62.087,-322.427L-66.316,-320.312L-65.611,-321.722ZM-57.857,-306.198L-57.148,-307.612L-55.03,-307.612L-55.03,-305.497L-54.326,-304.792L-59.263,-304.792L-57.857,-306.198ZM-63.505,-304.792L-59.972,-304.792L-61.733,-303.732L-63.505,-301.965L-63.505,-304.792ZM-175.671,-285.035L-170.736,-287.856L-168.623,-288.562L-162.274,-291.388L-159.447,-294.203L-156.631,-294.203L-150.454,-295.225L-148.869,-294.913L-148.869,-294.203L-150.279,-293.498L-152.394,-292.793L-155.926,-291.388L-157.332,-290.677L-160.862,-290.677L-162.274,-288.562L-169.324,-287.15L-170.736,-285.035L-174.971,-284.331L-175.671,-285.035ZM-177.086,-272.336L-175.671,-273.748L-172.856,-275.154L-170.035,-275.154L-166.508,-277.274L-165.085,-277.978L-163.672,-280.093L-150.629,-281.506L-148.164,-283.625L-144.633,-285.035L-139.697,-286.45L-134.046,-287.15L-129.818,-288.562L-126.297,-290.677L-123.466,-290.677L-121.346,-291.388L-119.94,-292.793L-119.227,-294.203L-113.593,-294.203L-112.883,-292.793L-113.593,-291.388L-120.65,-290.677L-122.055,-289.268L-123.466,-288.562L-127.694,-288.562L-129.818,-287.15L-133.334,-285.035L-136.174,-285.035L-139.697,-283.625L-143.927,-282.92L-148.869,-280.798L-150.279,-280.093L-152.394,-280.093L-156.631,-276.568L-162.274,-275.154L-169.324,-275.154L-170.736,-272.336L-172.856,-271.626L-175.671,-270.922L-177.086,-272.336ZM-28.219,-285.035L-27.51,-287.15L-23.987,-288.562L-22.577,-288.562L-19.752,-290.677L-15.524,-290.677L-13.4,-291.388L-11.294,-291.388L-9.168,-288.562L-15.524,-287.15L-22.577,-287.15L-25.397,-285.035L-28.219,-283.625L-28.219,-285.035ZM-596.878,-232.83L-589.826,-237.057L-582.064,-239.173L-575.703,-242.714L-570.775,-244.115L-565.484,-245.524L-551.02,-253.287L-536.911,-258.929L-533.379,-258.222L-533.379,-257.517L-546.074,-252.577L-558.782,-245.524L-564.072,-243.764L-567.249,-242.714L-570.775,-240.583L-574.996,-239.172L-586.294,-236.353L-591.941,-234.235L-596.878,-231.415L-596.878,-232.83Z" style="fill:rgb(101,179,69);fill-rule:nonzero;"/>
            </g>
            <g transform="matrix(1,0,0,1,781.1119,520.4935)">
                <path d="M0,5.643L-2.82,6.348L-6.352,6.348L-6.352,4.942L-3.525,2.116L0,0.706L0.712,0L2.117,-0.705L6.363,0L2.117,4.942L0,5.643Z" style="fill:rgb(101,179,69);"/>
            </g>
            <g transform="matrix(1,0,0,1,781.1119,666.5377)">
                <path d="M0,-4.937L-2.82,-4.236L-6.352,-1.412L-7.05,-0.707L-6.352,-0.002L-5.64,0.705L-4.235,-0.002L-1.406,-1.412L0,-2.117L2.831,-4.937L2.831,-5.642L1.417,-5.642L0,-4.937Z" style="fill:rgb(101,179,69);"/>
            </g>
            <g transform="matrix(1,0,0,1,734.3557,676.3776)">
                <path d="M0,-3.452L-6.857,-2.08L-6.857,0.035L-4.738,2.155L-1.927,1.446L-0.505,0.035L0.543,-1.375L5.84,-2.78L7.245,-4.197L7.245,-5.607L6.54,-5.607L5.13,-4.197L0,-3.452Z" style="fill:rgb(101,179,69);"/>
            </g>
            <g transform="matrix(0.961663,-0.274233,-0.274233,-0.961663,504.450249,576.490577)">
                <path d="M-0.616,2.651L9.66,2.651L18.965,4.406L7.82,3.913L-0.616,2.651Z" style="fill:rgb(101,179,69);"/>
            </g>
            <g transform="matrix(1,0,0,1,503.1309,580.4599)">
                <path d="M0,-6.35L-3.523,-5.641L-15.52,-4.936L-17.637,0L-9.864,-3.525L0,-6.35Z" style="fill:rgb(101,179,69);"/>
            </g>
            <g transform="matrix(1,0,0,1,718.3217,636.9072)">
                <path d="M0,-2.825L-0.705,-1.411L-2.111,0L2.825,0L2.115,-0.71L2.115,-2.825L0,-2.825Z" style="fill:rgb(101,179,69);fill-rule:nonzero;"/>
            </g>
            <g transform="matrix(1,0,0,1,734.5486,609.3912)">
                <path d="M0,-0.708L5.647,-0.708L10.584,-2.821L16.932,-3.53L19.047,-5.645L20.661,-6.053L22.109,-6.583L29.629,-7.761L33.87,-9.876L38.808,-11.292L40.214,-12.702L43.038,-12.702L45.16,-11.292L40.923,-9.876L38.808,-7.761L33.87,-7.761L29.629,-6.351L21.867,-3.53L12.704,-0.708L5.647,2.822L-0.698,2.822L-7.05,3.527L-13.402,6.349L-17.165,8.464L-21.169,9.874L-25.392,11.994L-24.692,10.579L-23.987,9.874L-21.169,7.763L-16.934,7.054L-16.229,6.349L-14.107,3.527L-7.755,3.527L-2.82,2.112L-1.41,0.706L0,-0.708Z" style="fill:rgb(101,179,69);fill-rule:nonzero;"/>
            </g>
            <g transform="matrix(1,0,0,1,711.9653,590.3342)">
                <path d="M0,-1.403L1.417,-1.403L5.184,-2.112L8.474,-2.112L9.884,-3.518L14.114,-5.642L21.175,-5.642L21.175,-3.518L15.531,-2.112L10.589,-2.112L6.356,-0.702L5.647,0.007L1.417,0.007L-1.406,0.714L-2.811,1.415L-4.226,3.534L-9.168,4.239L-7.758,0.007L-4.935,0.007L0,-1.403Z" style="fill:rgb(101,179,69);fill-rule:nonzero;"/>
            </g>
            <g transform="matrix(1,0,0,1,625.1906,545.1928)">
                <path d="M0,0.698L2.82,-1.417L5.647,-2.827L6.352,-2.827L5.647,-2.127L3.532,2.813L0,3.525" style="fill:rgb(101,179,69);fill-rule:nonzero;"/>
            </g>
            <g transform="matrix(1,0,0,1,623.7806,547.3031)">
                <path d="M0,0L-2.111,0.701L-4.94,0.701L-4.94,1.41L1.41,1.41L1.41,-1.41L0,0Z" style="fill:rgb(101,179,69);fill-rule:nonzero;"/>
            </g>
            <g transform="matrix(1,0,0,1,211.3973,695.1122)">
                <path d="M0,2.82L-3.175,3.871L-6.702,5.997L-10.928,7.407L-22.222,10.232L-27.869,12.347L-32.804,15.165L-32.804,13.755L-25.751,9.527L-17.989,7.407L-11.633,3.871L-6.702,2.47L-1.41,1.055L13.054,-6.702L27.164,-12.345L30.689,-11.644L30.689,-10.935L18.001,-5.993L5.292,1.055L0,2.82L-1.06,3.175" style="fill:rgb(101,179,69);fill-rule:nonzero;"/>
            </g>
            <g transform="matrix(1,0,0,1,358.2285,731.2822)">
                <path d="M0,-426.265L-7.033,-430.482L-12.651,-434.71L-13.351,-438.226L-14.766,-441.037L-18.994,-446.664L-26.022,-452.996L-35.87,-454.402L-44.315,-453.697L-52.048,-451.586L-60.493,-448.07L-66.821,-445.964L-73.153,-441.742L-90.036,-441.037L-96.364,-441.742L-102.696,-446.664L-109.025,-450.181L-116.058,-452.302L-123.095,-452.996L-125.208,-452.996L-121.689,-456.515L-119.574,-458.621L-116.763,-460.031L-111.841,-460.736L-107.624,-460.031L-104.101,-457.921L-100.576,-453.697L-95.663,-448.775L-90.036,-446.664L-73.854,-446.664L-68.932,-448.775L-64.71,-450.886L-59.786,-453.697L-54.864,-455.107L-46.421,-462.843L-38.688,-467.765L-33.059,-470.596L-26.022,-473.391L-26.022,-482.541L-28.838,-484.648L-32.354,-486.763L-33.059,-491.685L-33.76,-495.902L-31.649,-501.535L-30.948,-505.051L-32.354,-508.568L-37.276,-517.006L-43.599,-523.34L-52.048,-527.562L-61.198,-528.967L-75.964,-529.672L-82.997,-528.262L-97.069,-528.262L-99.871,-528.967L-103.396,-528.967L-106.214,-531.073L-110.431,-534.594L-125.906,-538.111L-132.941,-538.811L-139.273,-538.111L-140.679,-538.111L-139.978,-542.327L-140.679,-544.44L-141.384,-545.85L-142.085,-547.957L-144.2,-550.772L-150.529,-556.399L-164.599,-564.139L-173.035,-565.545L-173.74,-565.545L-180.777,-568.356L-181.482,-568.356L-187.096,-569.061L-192.734,-569.766L-205.394,-569.766L-210.32,-566.95L-213.838,-564.84L-220.871,-561.321L-228.604,-555.694L-235.643,-549.362L-237.049,-548.662L-246.889,-543.74L-258.854,-538.111L-260.264,-538.111L-266.592,-537.406L-269.408,-535.299L-267.292,-531.779L-263.076,-529.672L-258.854,-528.967L-250.414,-528.262L-249.008,-525.447L-246.889,-524.045L-242.676,-521.23L-237.754,-516.301L-235.643,-513.49L-232.826,-510.678L-235.643,-501.535L-236.344,-499.418L-236.344,-495.902L-241.971,-502.941L-244.787,-510.678L-249.709,-517.006L-257.449,-520.522L-258.854,-520.522L-267.292,-521.928L-274.33,-520.522L-279.959,-517.006L-282.77,-514.895L-284.881,-511.379L-285.586,-507.158L-285.586,-498.012L-286.286,-494.496L-289.102,-490.98L-293.319,-487.463L-302.469,-481.836L-312.313,-476.912L-319.345,-472.691L-325.68,-466.363L-330.602,-460.031L-333.408,-452.996L-334.113,-445.964L-332.712,-439.632L-327.79,-433.298L-318.645,-427.671L-320.05,-417.827L-320.758,-412.905L-320.05,-409.382L-316.534,-406.571L-311.612,-405.866L-303.866,-405.866L-293.319,-395.317L-293.319,-393.911L-294.024,-393.206L-296.135,-393.206L-315.128,-392.499L-327.085,-388.982L-336.934,-383.355L-343.968,-376.323L-346.079,-372.807L-347.485,-368.583L-347.485,-361.55L-346.78,-355.223L-345.374,-351.001L-339.044,-344.672L-332.712,-343.262L-326.38,-339.745L-315.128,-328.491L-309.501,-324.283L-303.866,-322.157L-285.586,-322.157L-282.77,-320.76L-282.069,-320.76L-279.959,-318.645L-275.726,-312.313L-273.624,-312.313L-275.726,-308.797L-279.254,-303.873L-279.959,-297.541L-276.431,-290.508L-268.703,-283.476L-263.076,-279.953L-258.854,-277.842L-256.744,-277.141L-241.971,-270.109L-239.16,-270.109L-235.644,-264.482L-229.314,-254.64L-219.457,-238.453L-213.838,-229.31L-210.32,-223.683L-208.91,-222.277L-204.689,-213.832L-201.177,-203.988L-201.877,-166.706L-203.283,-126.612L-204.689,-90.03L-207.504,-56.266L-209.61,-14.066L-210.32,6.338L-210.32,20.66L-210.473,28.139L-213.289,56.967L-217.497,84.415L-220.321,94.964L-223.838,104.114L-228.762,111.852L-233.712,117.312L-236.12,119.906L-236.42,120.223L-236.954,121.028L-241.426,124.511L-249.161,129.435L-258.304,134.362L-266.743,138.574L-275.03,143.37L-266.743,143.501L-131.219,143.501L-131.219,142.8L-140.377,136.468L-142.484,135.062L-149.516,130.136L-162.176,120.285L-167.805,114.663L-172.026,108.331L-174.842,102.702L-177.653,96.37L-181.17,86.521L-181.482,83.477L-181.482,68.942L-180.072,-64.003L-179.367,-130.128L-180.777,-196.248L-180.777,-200.468L-177.961,-202.583L-173.74,-208.205L-168.816,-215.943L-163.189,-228.605L-158.959,-237.047L-154.046,-244.787L-144.2,-258.852L-141.384,-263.076L-135.757,-272.219L-128.713,-283.475L-122.39,-284.881L-113.947,-285.582L-89.331,-293.324L-80.891,-296.84L-75.964,-299.651L-72.439,-304.573L-69.628,-309.511L-68.932,-315.829L-69.628,-322.157L-73.854,-326.378L-75.964,-330.602L-77.37,-334.823L-77.37,-339.745L-75.964,-342.572L-73.854,-343.966L-66.12,-344.671L-53.459,-345.372L-42.894,-346.778L-36.575,-348.891L-34.465,-350.301L-33.76,-351.706L-35.87,-355.223L-40.783,-356.628L-60.493,-359.444L-71.738,-360.858L-83.704,-361.55L-85.11,-361.55L-86.52,-362.956L-85.11,-365.772L-83.704,-368.583L-75.264,-369.288L-67.526,-370.693L-57.675,-375.618L-48.532,-379.147L-36.575,-379.839L-24.616,-382.664L-21.801,-384.06L-21.1,-385.466L-13.351,-398.132L-10.549,-404.46L-7.033,-410.087L0.705,-418.527L1.41,-424.154L1.41,-425.56L0,-426.265ZM-123.095,-388.282L-124.501,-386.171L-128.713,-385.466L-132.241,-381.249L-136.457,-377.728L-141.384,-373.507L-145.601,-369.995L-149.824,-371.401L-153.341,-373.507L-157.553,-374.212L-158.959,-374.917L-158.959,-379.147L-157.553,-379.839L-152.636,-381.249L-151.23,-383.355L-150.529,-385.466L-149.824,-387.577L-150.529,-391.8L-158.959,-393.206L-158.254,-396.722L-156.861,-398.833L-150.529,-399.534L-141.384,-398.132L-139.273,-398.132L-135.757,-397.436L-131.524,-395.317L-123.095,-388.282ZM-143.494,-461.437L-125.906,-461.437L-124.501,-460.736L-125.208,-459.326L-132.241,-448.775L-134.351,-448.775L-139.273,-450.886L-151.23,-450.886L-156.861,-452.996L-156.861,-460.031L-143.494,-461.437ZM-196.955,-519.817L-196.25,-521.23L-194.844,-521.928L-192.734,-526.152L-189.907,-529.672L-187.096,-530.368L-186.404,-531.073L-173.74,-531.073L-166.705,-531.778L-150.529,-534.594L-150.529,-528.967L-155.451,-526.152L-158.959,-524.746L-162.484,-524.045L-172.334,-523.34L-173.74,-522.635L-181.482,-521.928L-187.096,-521.23L-191.328,-519.117L-194.844,-515.6L-196.955,-517.006L-196.955,-519.817ZM-161.083,-458.621L-161.083,-457.213L-162.484,-454.402L-173.74,-453.697L-181.482,-453.697L-185.699,-452.996L-187.096,-452.302L-189.206,-451.586L-192.734,-448.07L-196.955,-441.037L-198.361,-437.521L-198.361,-433.298L-196.955,-430.482L-194.845,-427.671L-192.029,-426.97L-188.501,-426.265L-187.096,-424.859L-186.404,-424.859L-184.994,-423.454L-184.293,-419.933L-184.994,-417.122L-185.699,-415.011L-187.096,-413.605L-187.801,-413.605L-189.907,-414.31L-192.734,-414.31L-201.177,-412.905L-201.877,-411.492L-201.177,-405.866L-201.877,-402.349L-202.582,-400.239L-205.393,-398.132L-209.61,-400.239L-210.32,-401.649L-211.728,-405.866L-213.838,-407.276L-213.838,-407.976L-214.539,-410.787L-215.244,-419.232L-213.838,-419.933L-213.838,-438.927L-215.244,-441.742L-216.639,-445.964L-215.938,-448.07L-214.539,-448.775L-213.838,-450.181L-212.433,-451.586L-210.32,-452.302L-206.799,-453.697L-188.501,-454.402L-187.096,-455.107L-187.096,-473.391L-187.801,-474.801L-187.096,-475.507L-184.293,-478.32L-182.883,-479.726L-181.482,-480.431L-179.367,-482.541L-177.256,-481.836L-176.556,-480.431L-175.855,-476.912L-174.445,-472.691L-173.74,-471.285L-171.634,-469.88L-168.111,-467.764L-164.599,-466.363L-163.189,-464.253L-161.783,-462.843L-161.083,-462.142L-162.484,-460.031L-161.083,-458.621ZM-164.599,-398.132L-164.599,-393.206L-180.777,-393.206L-181.482,-392.499L-187.096,-392.499L-194.844,-391.8L-197.66,-389.687L-199.766,-389.687L-201.176,-390.392L-201.877,-392.499L-199.766,-396.722L-194.844,-400.239L-190.621,-400.952L-187.096,-399.533L-183.588,-398.833L-166.005,-398.833L-164.599,-398.132ZM-232.825,-496.607L-231.42,-499.418L-229.314,-505.051L-227.904,-509.268L-218.051,-507.158L-213.838,-507.158L-211.02,-508.568L-210.32,-508.568L-206.799,-509.973L-204.688,-511.379L-201.877,-514.895L-201.176,-512.789L-200.471,-511.379L-198.361,-510.678L-198.361,-503.641L-196.25,-499.418L-193.439,-496.607L-189.907,-495.201L-188.501,-492.385L-187.096,-490.275L-184.293,-486.763L-184.293,-482.541L-187.096,-481.836L-187.801,-481.836L-189.907,-480.431L-190.621,-481.836L-192.029,-482.541L-193.439,-483.242L-194.139,-483.947L-202.582,-488.164L-210.32,-491.685L-211.728,-492.385L-213.838,-492.385L-220.871,-494.496L-229.314,-495.201L-235.643,-495.201L-232.825,-496.607ZM-280.664,-395.317L-282.77,-394.612L-284.175,-394.612L-286.991,-395.317L-298.247,-405.866L-294.024,-407.276L-282.77,-414.31L-280.664,-415.725L-279.254,-417.122L-276.431,-418.527L-269.407,-419.232L-268.702,-417.827L-267.292,-412.905L-267.292,-406.571L-272.919,-402.349L-280.664,-395.317M-244.082,-325.678L-250.414,-324.283L-256.043,-322.157L-258.854,-321.456L-261.67,-320.046L-267.292,-317.235L-270.813,-322.862L-273.624,-324.283L-274.329,-327.8L-273.624,-329.196L-268.702,-329.901L-260.264,-330.602L-251.114,-330.602L-246.183,-329.901L-244.082,-328.491L-242.676,-325.678L-244.082,-325.678ZM-235.643,-408.681L-239.16,-411.492L-242.676,-412.905L-258.854,-412.905L-260.264,-413.605L-260.264,-419.933L-258.154,-419.933L-237.754,-416.417L-235.643,-415.725L-229.314,-415.011L-222.982,-415.725L-220.166,-410.087L-218.051,-407.976L-215.244,-405.865L-213.838,-400.239L-213.133,-398.132L-211.02,-392.499L-210.32,-390.392L-210.32,-388.982L-211.02,-388.282L-213.838,-389.687L-218.751,-393.206L-222.982,-395.317L-225.793,-398.833L-234.938,-408.681L-235.643,-408.681ZM-201.177,-230.015L-210.32,-244.787L-212.433,-249.004L-213.838,-250.414L-218.751,-256.742L-225.793,-264.482L-211.02,-264.482L-210.32,-263.777L-204.688,-258.852L-202.582,-256.037L-201.177,-251.815L-201.177,-230.015ZM-186.404,-308.797L-187.096,-307.391L-187.801,-306.686L-188.501,-306.686L-195.545,-308.092L-200.471,-310.202L-203.283,-313.027L-203.283,-318.645L-206.098,-322.157L-209.61,-324.283L-213.838,-324.283L-215.244,-324.973L-222.982,-324.283L-226.498,-324.283L-231.42,-325.678L-230.014,-328.491L-227.904,-330.602L-203.283,-330.602L-199.066,-332.008L-194.139,-334.118L-192.029,-333.418L-190.621,-332.008L-188.501,-325.678L-194.844,-325.678L-198.361,-324.973L-198.361,-322.157L-196.955,-319.35L-195.545,-317.94L-191.328,-317.235L-187.801,-317.235L-187.096,-313.719L-186.404,-310.908L-186.404,-308.797ZM-182.883,-330.602L-183.588,-333.418L-184.994,-335.524L-187.096,-336.934L-187.801,-337.635L-187.801,-339.745L-187.096,-339.745L-184.293,-340.45L-183.588,-342.572L-182.183,-343.967L-181.482,-343.967L-177.961,-347.483L-176.556,-346.778L-175.855,-346.088L-174.445,-344.672L-174.445,-342.572L-175.855,-339.745L-175.855,-334.118L-176.556,-334.118L-175.855,-329.196L-176.556,-327.8L-177.961,-327.086L-181.482,-327.086L-182.883,-330.602ZM-181.482,-269.412L-181.482,-270.109L-178.662,-272.219L-177.961,-275.736L-176.556,-282.063L-173.74,-282.768L-167.41,-284.881L-163.894,-287.701L-162.484,-291.222L-163.894,-294.738L-166.705,-297.541L-170.929,-302.478L-170.228,-315.83L-158.959,-315.83L-154.046,-313.719L-151.935,-311.608L-150.529,-308.797L-150.529,-306.686L-151.23,-305.99L-152.635,-305.281L-153.341,-303.168L-155.451,-302.478L-156.861,-301.057L-157.553,-295.43L-156.861,-288.393L-155.451,-286.287L-152.636,-284.881L-163.189,-275.031L-173.74,-264.482L-174.445,-264.482L-176.556,-263.076L-177.256,-262.371L-177.961,-263.777L-180.072,-265.182L-180.777,-266.588L-181.482,-269.413L-181.482,-269.412ZM-141.384,-276.445L-145.601,-270.109L-162.484,-246.893L-168.816,-237.047L-173.74,-230.715L-176.556,-227.904L-180.072,-228.605L-180.777,-231.42L-177.961,-245.488L-175.855,-249.709L-173.74,-251.815L-173.035,-252.52L-166.005,-260.258L-162.484,-266.588L-157.553,-272.219L-148.419,-282.063L-145.601,-278.547L-142.789,-280.658L-141.384,-280.658L-139.273,-282.063L-141.384,-276.445ZM-92.847,-367.177L-96.364,-361.55L-120.984,-361.55L-132.241,-357.329L-137.162,-354.518L-140.679,-349.596L-141.384,-345.372L-141.384,-344.672L-139.978,-341.856L-137.162,-339.04L-132.241,-336.229L-132.241,-333.418L-135.052,-331.307L-137.162,-330.602L-141.384,-331.307L-144.199,-332.008L-151.23,-334.823L-157.553,-336.229L-160.364,-335.524L-163.189,-333.418L-166.005,-333.418L-165.3,-339.04L-163.189,-343.967L-159.664,-347.483L-156.152,-350.301L-152.636,-351.001L-148.419,-351.706L-143.494,-355.223L-141.384,-356.628L-140.679,-357.329L-139.978,-360.145L-139.273,-364.377L-128.713,-376.323L-123.095,-380.544L-117.468,-383.355L-113.947,-379.839L-110.431,-377.028L-106.919,-374.212L-101.281,-369.995L-92.847,-368.583L-92.147,-368.583L-92.847,-367.177Z" style="fill:rgb(30,28,26);fill-rule:nonzero;"/>
            </g>
            <g transform="matrix(1,0,0,1,382.8383,865.0654)">
                <path d="M0,-137.994L-6.811,-120.603C-13.318,-125.346 -23.561,-127.722 -37.524,-127.722C-50.605,-127.722 -61.099,-122.095 -68.994,-110.844C-76.893,-99.59 -80.84,-85.079 -80.84,-67.32C-80.84,-50.37 -76.793,-36.626 -68.69,-26.086C-60.589,-15.544 -50.133,-10.276 -37.32,-10.276C-23.357,-10.276 -12.609,-15.223 -5.084,-25.12L6.101,-9.562C-5.694,2.166 -20.883,8.03 -39.455,8.03C-58.913,8.03 -74.233,1.011 -85.418,-13.023C-96.601,-27.055 -102.197,-45.561 -102.197,-68.541C-102.197,-90.772 -96.233,-109.249 -84.3,-123.96C-72.368,-138.67 -56.944,-146.024 -38.03,-146.024C-21.83,-146.024 -9.154,-143.346 0,-137.994" style="fill:rgb(30,28,26);fill-rule:nonzero;"/>
            </g>
            <g transform="matrix(1,0,0,1,0,512.137)">
                <rect x="415.886" y="209.445" width="20.337" height="148.973" style="fill:rgb(30,28,26);"/>
            </g>
            <g transform="matrix(1,0,0,1,490.6243,852.2462)">
                <path d="M0,-112.36L0,-70.976L52.365,-70.976L52.365,-53.691L0,-53.691L0,18.304L-20.34,18.304L-20.34,-130.664L71.685,-130.664L71.685,-112.36L0,-112.36Z" style="fill:rgb(30,28,26);fill-rule:nonzero;"/>
            </g>
            <g transform="matrix(1,0,0,1,572.4793,797.2386)">
                <path d="M0,-2.444C0,-24.003 5.41,-42.03 16.225,-56.541C27.031,-71.043 41.626,-78.299 59.994,-78.299C80.673,-78.299 96.521,-71.622 107.538,-58.27C118.548,-44.912 124.057,-26.302 124.057,-2.444C124.057,22.03 118.534,41.199 107.482,55.058C96.434,68.926 80.609,75.855 59.994,75.855C41.22,75.855 26.523,68.534 15.921,53.89C5.305,39.251 0,20.474 0,-2.444M21.355,-2.444C21.355,14.639 24.729,28.912 31.478,40.366C38.218,51.826 47.727,57.553 59.994,57.553C73.896,57.553 84.484,52.298 91.779,41.791C99.062,31.285 102.702,16.541 102.702,-2.444C102.702,-40.809 88.469,-59.997 59.994,-59.997C47.386,-59.997 37.797,-54.843 31.219,-44.544C24.645,-34.235 21.355,-20.201 21.355,-2.444" style="fill:rgb(30,28,26);fill-rule:nonzero;"/>
            </g>
            <g transform="matrix(1,0,0,1,802.5954,720.0584)">
                <path d="M0,150.492L-39.757,86.533C-44.297,86.533 -51.485,86.194 -61.316,85.516L-61.316,150.492L-81.653,150.492L-81.653,1.523C-80.906,1.523 -75.634,1.269 -65.836,0.763C-56.048,0.251 -48.911,0 -44.439,0C-8.642,0 9.252,14.232 9.252,42.706C9.252,52.064 6.376,60.489 0.61,67.976C-5.15,75.468 -11.999,80.126 -19.932,81.957L23.286,150.492L0,150.492ZM-61.316,19.828L-61.316,68.231C-56.436,68.908 -51.689,69.245 -47.08,69.245C-34.877,69.245 -25.993,67.28 -20.437,63.347C-14.877,59.418 -12.103,52.403 -12.103,42.3C-12.103,33.96 -15.078,27.962 -21.047,24.3C-27.011,20.641 -36.436,18.81 -49.319,18.81C-51.354,18.81 -55.347,19.149 -61.316,19.828" style="fill:rgb(30,28,26);fill-rule:nonzero;"/>
            </g>
        </g>
    </g>
</svg>
