<?xml version="1.0" encoding="UTF-8" standalone="no"?>
<!DOCTYPE svg PUBLIC "-//W3C//DTD SVG 1.1//EN" "http://www.w3.org/Graphics/SVG/1.1/DTD/svg11.dtd">
<svg width="100%" height="100%" viewBox="0 0 357 50" version="1.1" xmlns="http://www.w3.org/2000/svg" xmlns:xlink="http://www.w3.org/1999/xlink" xml:space="preserve" xmlns:serif="http://www.serif.com/" style="fill-rule:evenodd;clip-rule:evenodd;stroke-linejoin:round;stroke-miterlimit:2;">
    <g transform="matrix(1,0,0,1,-24.484611,-31)">
        <g>
            <g>
                <g>
                    <path d="M99.9,77.4C96.2,79.6 91.9,80.3 87.6,80.3C82.1,80.3 76.5,79.1 72.4,75.4C68.2,71.8 66.4,66.6 66.4,61.3C66.4,49.4 76.4,43.4 87.8,43.4C92.2,43.4 95.7,44 100,45.3C100.4,45.5 101,45.6 100.9,46.3C100.6,48 100.1,52 100,54.3L97.9,54.3C97.8,52.8 97.8,51.3 97.6,49.8C95,47.1 91.6,46.2 88,46.2C84,46.2 80.2,47.6 77.6,50.5C75.2,53.1 74.4,57 74.4,60.5C74.4,64.8 75.5,69 78.6,72.3C81.9,75.7 85.4,76.8 90.1,76.8C93.3,76.8 97.6,75.7 100.3,74.1L100.9,74.7L99.9,77.4" style="fill:rgb(118,188,33);fill-rule:nonzero;"/>
                    <path d="M113.7,50.2C113.6,46.5 113.4,46 109.1,46.2L109.1,44C112.6,44.2 115.4,44.3 117.5,44.3C119.6,44.3 122.3,44.2 125.8,44L125.8,46.2C121.5,46 121.2,46.5 121.2,50.2L121.2,73.5C121.2,77.2 121.4,77.7 125.8,77.5L125.8,79.7C122.3,79.5 119.6,79.4 117.5,79.4C115.4,79.4 112.7,79.5 109.1,79.7L109.1,77.5C113.4,77.6 113.6,77.2 113.7,73.4L113.7,50.2" style="fill:rgb(118,188,33);fill-rule:nonzero;"/>
                    <path d="M172.3,51L166.5,62.3L158.6,78.7L158,80L156.2,80C156.1,79.5 155,77.2 154.3,75.7L141.9,51L141.9,73.5C141.9,77.2 142.1,77.7 146.5,77.5L146.5,79.7C144,79.5 142,79.4 140.4,79.4C138.8,79.4 136.8,79.5 134.2,79.7L134.2,77.5C138.6,77.7 138.8,77.2 138.8,73.5L138.8,50.2C138.8,46.5 138.6,46 134.2,46.2L134.2,44C137.4,44.2 139.3,44.3 140.9,44.3C142.5,44.3 144.4,44.2 147.1,44C148.1,46.2 149.9,50.2 151.1,52.5L159.6,69.7C160.5,68.2 161.2,66.7 162,65.1C165.9,57 170.6,47.3 172.1,44C174.7,44.2 176.7,44.3 178.3,44.3C179.9,44.3 181.9,44.2 184.5,44L184.5,46.2C180.2,46 179.9,46.5 179.9,50.2L179.9,73.5C179.9,77.2 180.1,77.7 184.5,77.5L184.5,79.7C181,79.5 178.3,79.4 176.2,79.4C174.1,79.4 171.4,79.5 167.8,79.7L167.8,77.5C172.1,77.6 172.3,77.2 172.4,73.4L172.3,51" style="fill:rgb(118,188,33);fill-rule:nonzero;"/>
                    <path d="M230.5,51L224.7,62.3L216.8,78.7L216.2,79.9L214.4,79.9C214.3,79.4 213.2,77.1 212.5,75.6L200.1,51L200.1,73.5C200.1,77.2 200.3,77.7 204.7,77.5L204.7,79.7C202.2,79.5 200.2,79.4 198.6,79.4C197,79.4 195,79.5 192.4,79.7L192.4,77.5C196.7,77.7 197,77.2 197,73.5L197,50.2C197,46.5 196.8,46 192.4,46.2L192.4,44C195.6,44.2 197.5,44.3 199.1,44.3C200.7,44.3 202.6,44.2 205.3,44C206.3,46.2 208.1,50.2 209.3,52.5L217.8,69.7C218.7,68.2 219.4,66.7 220.2,65.1C224.1,57 228.8,47.3 230.3,44C232.9,44.2 234.9,44.3 236.5,44.3C238.1,44.3 240,44.2 242.7,44L242.7,46.2C238.4,46 238.1,46.5 238.1,50.2L238.1,73.5C238.1,77.2 238.3,77.7 242.7,77.5L242.7,79.7C239.2,79.5 236.5,79.4 234.4,79.4C232.3,79.4 229.6,79.5 226,79.7L226,77.5C230.3,77.6 230.5,77.2 230.6,73.4L230.5,51" style="fill:rgb(118,188,33);fill-rule:nonzero;"/>
                    <path d="M269.9,61C274.1,54.2 277.9,48.5 280,44.3L284.1,44.3L284.1,45.3L281.9,48.3L276.2,56.7L273.8,60.4L272.1,63.7C271.8,64.4 271.8,65.3 271.8,66.2L271.8,73.6C271.8,77.3 272,77.8 276.4,77.6L276.4,79.8C272.9,79.6 270.2,79.5 268.1,79.5C266,79.5 263.3,79.6 259.7,79.8L259.7,77.6C264,77.7 264.2,77.3 264.3,73.5L264.3,67C264.3,65.9 264.1,64.8 263.8,64.2C263.3,63 262.6,62 261.9,60.8L256.5,52.3C255.7,51.2 254.6,49.8 253.7,48.8C252.5,47.5 250.9,47.1 249.5,47.1L249.5,45.2L258.1,43.3C261,44.9 262.6,47.6 264.2,50.3L269.9,61" style="fill:rgb(118,188,33);fill-rule:nonzero;"/>
                    <path d="M310.8,73.5C310.8,77.2 311,77.7 315.4,77.5L315.4,79.7C311.9,79.5 309.2,79.4 307.1,79.4C305,79.4 302.3,79.5 298.7,79.7L298.7,77.5C303,77.6 303.2,77.2 303.3,73.4L303.3,47.4L295.4,47.4C294.1,47.6 293.6,47.9 293,49.1C292.9,50 292.8,51.3 292.7,52.6L290.6,52.6C290.7,50.1 290.4,46.7 290.4,44C297.5,44.2 303,44.3 307.2,44.3C311.4,44.3 316.8,44.2 324.1,44C323.9,46.3 323.7,49.5 323.4,52.6L321.3,52.6C321.3,51.9 321.3,51.1 321.2,50.4C320.8,47.8 321.4,47.5 318.4,47.4L310.8,47.4L310.8,73.5" style="fill:rgb(118,188,33);fill-rule:nonzero;"/>
                    <g>
                        <g>
                            <path d="M48.9,48.7C49.2,48.8 49.6,49 49.8,49.3C49.9,49.5 50,49.7 50.1,49.9C50.2,50.4 50.2,50.8 49.9,51.2C49.6,51.6 49.3,51.6 48.9,51.6C48.5,51.6 48.2,51.5 47.9,51.4C47.6,51.3 47.4,51.2 47.2,51C47,50.9 46.9,50.6 46.8,50.2C46.7,49.8 46.8,49.5 46.8,49.2C46.9,48.9 46.9,48.7 47.2,48.6C47.4,48.4 47.7,48.4 48,48.4C48.2,48.4 48.3,48.4 48.5,48.5L48.9,48.7Z" style="fill:rgb(118,188,33);fill-rule:nonzero;"/>
                        </g>
                        <g>
                            <path d="M43.6,43.9C43.6,44.2 43.7,44.6 43.7,45.1C43.8,45.8 43.9,46.1 43.9,46.4C43.9,46.6 43.9,46.8 43.7,46.9C43.6,47 43.6,47 43.5,47C43.3,46.9 43.2,46.8 43.2,46.5C43.2,46.1 43.1,45.7 43,45.3L43,44.2C43,44 43.1,43.8 43.1,43.7C43.1,43.7 43.1,43.6 43.3,43.7C43.5,43.7 43.5,43.8 43.6,43.9" style="fill:rgb(118,188,33);fill-rule:nonzero;"/>
                        </g>
                        <g>
                            <path d="M43.7,40.1L43.7,40.5C43.7,40.8 43.7,41.3 43.9,41.8C44.1,42.6 44.1,42.9 44,43.2C44,43.3 43.9,43.4 43.8,43.4C43.6,43.5 43.6,43.5 43.4,43.4C43.2,43.2 43.2,42.9 43.1,42.5L43,41.9C42.9,41.3 43,40.8 43,40.4C43,40.1 43.1,40 43.2,39.8C43.2,39.8 43.3,39.7 43.4,39.8C43.6,39.8 43.7,39.9 43.7,40.1" style="fill:rgb(118,188,33);fill-rule:nonzero;"/>
                        </g>
                        <g>
                            <path d="M43.6,47.3C43.7,47.6 43.7,48 43.7,48.5C43.8,49.2 43.9,49.5 43.9,49.8C43.9,50 43.9,50.2 43.7,50.3C43.6,50.4 43.5,50.4 43.5,50.3C43.4,50.3 43.2,50.1 43.2,49.8C43.2,49.4 43.1,49 43,48.6L43,47.5C43,47.3 43,47.1 43.1,47C43.1,47 43.1,46.9 43.3,47C43.5,47.1 43.5,47.1 43.6,47.3" style="fill:rgb(118,188,33);fill-rule:nonzero;"/>
                        </g>
                        <g>
                            <path d="M48.9,45.4C49.2,45.5 49.6,45.7 49.8,46C49.9,46.2 50,46.4 50.1,46.6C50.2,47.1 50.2,47.5 49.9,47.9C49.6,48.3 49.3,48.3 48.9,48.3C48.5,48.3 48.2,48.2 47.9,48.1C47.6,48 47.4,47.9 47.2,47.7C47,47.6 46.9,47.3 46.8,46.9C46.7,46.5 46.8,46.2 46.8,45.9C46.9,45.6 46.9,45.4 47.2,45.3C47.4,45.1 47.7,45.1 48,45.1C48.2,45.1 48.3,45.1 48.5,45.2L48.9,45.4Z" style="fill:rgb(118,188,33);fill-rule:nonzero;"/>
                        </g>
                        <g>
                            <path d="M48.9,55.2C49.2,55.3 49.6,55.5 49.8,55.8C49.9,56 50,56.2 50.1,56.4C50.2,56.9 50.2,57.3 49.9,57.7C49.6,58.1 49.3,58.1 48.9,58.1C48.5,58.1 48.2,58 47.9,57.9C47.6,57.8 47.4,57.7 47.2,57.5C47,57.3 46.9,57.1 46.8,56.7C46.7,56.3 46.8,56 46.8,55.7C46.9,55.4 46.9,55.2 47.2,55.1C47.4,54.9 47.7,54.9 48,54.9C48.2,54.9 48.3,54.9 48.5,55L48.9,55.2Z" style="fill:rgb(118,188,33);fill-rule:nonzero;"/>
                        </g>
                        <g>
                            <path d="M48.9,51.9C49.2,52 49.6,52.2 49.8,52.5C49.9,52.7 50,52.9 50.1,53.1C50.2,53.6 50.2,54 49.9,54.4C49.6,54.8 49.3,54.8 48.9,54.8C48.5,54.8 48.2,54.7 47.9,54.6C47.6,54.5 47.4,54.4 47.2,54.2C47,54 46.9,53.8 46.8,53.4C46.7,53 46.8,52.7 46.8,52.4C46.9,52.1 46.9,51.9 47.2,51.8C47.4,51.6 47.7,51.6 48,51.6C48.2,51.6 48.3,51.6 48.5,51.7L48.9,51.9Z" style="fill:rgb(118,188,33);fill-rule:nonzero;"/>
                        </g>
                        <g>
                            <path d="M48.9,61.7C49.2,61.8 49.6,62 49.8,62.3C49.9,62.5 50,62.7 50.1,62.9C50.2,63.4 50.2,63.8 49.9,64.2C49.6,64.6 49.3,64.6 48.9,64.6C48.5,64.6 48.2,64.5 47.9,64.4C47.6,64.3 47.4,64.2 47.2,64C47,63.9 46.9,63.6 46.8,63.2C46.7,62.8 46.8,62.5 46.8,62.2C46.9,61.9 46.9,61.7 47.2,61.6C47.4,61.4 47.7,61.4 48,61.4C48.2,61.4 48.3,61.4 48.5,61.5L48.9,61.7Z" style="fill:rgb(118,188,33);fill-rule:nonzero;"/>
                        </g>
                        <g>
                            <path d="M48.9,58.4C49.2,58.5 49.6,58.7 49.8,59C49.9,59.2 50,59.4 50.1,59.6C50.2,60.1 50.2,60.5 49.9,60.9C49.6,61.3 49.3,61.3 48.9,61.3C48.5,61.3 48.2,61.2 47.9,61.1C47.6,61 47.4,60.9 47.2,60.7C47,60.5 46.9,60.3 46.8,59.9C46.7,59.5 46.8,59.2 46.8,58.9C46.9,58.6 46.9,58.4 47.2,58.3C47.4,58.1 47.7,58.1 48,58.1C48.2,58.1 48.3,58.1 48.5,58.2L48.9,58.4Z" style="fill:rgb(118,188,33);fill-rule:nonzero;"/>
                        </g>
                        <g>
                            <path d="M48.9,68.2C49.2,68.3 49.6,68.5 49.8,68.8C49.9,69 50,69.2 50.1,69.4C50.2,69.9 50.2,70.3 49.9,70.7C49.6,71.1 49.3,71.1 48.9,71.1C48.5,71.1 48.2,71 47.9,70.9C47.6,70.8 47.4,70.6 47.2,70.5C47,70.3 46.9,70.1 46.8,69.7C46.7,69.3 46.8,69 46.8,68.7C46.9,68.4 46.9,68.3 47.2,68.1C47.4,68 47.6,68 48,68C48.2,68 48.3,68.1 48.5,68.1L48.9,68.2Z" style="fill:rgb(118,188,33);fill-rule:nonzero;"/>
                        </g>
                        <g>
                            <path d="M48.9,65C49.2,65.1 49.6,65.3 49.8,65.6C49.9,65.8 50,66 50.1,66.2C50.2,66.7 50.2,67.1 49.9,67.5C49.6,67.9 49.3,67.9 48.9,67.9C48.5,67.9 48.2,67.8 47.9,67.7C47.6,67.6 47.4,67.5 47.2,67.3C47,67.2 46.9,66.9 46.8,66.5C46.7,66.1 46.8,65.8 46.8,65.5C46.9,65.2 46.9,65.1 47.2,64.9C47.4,64.7 47.7,64.7 48,64.7C48.2,64.7 48.3,64.7 48.5,64.8L48.9,65Z" style="fill:rgb(118,188,33);fill-rule:nonzero;"/>
                        </g>
                        <g>
                            <path d="M48.9,74.7C49.2,74.8 49.6,75 49.8,75.3C49.9,75.5 50,75.7 50.1,75.9C50.2,76.4 50.2,76.8 49.9,77.2C49.6,77.6 49.3,77.6 48.9,77.6C48.5,77.6 48.2,77.5 47.9,77.4C47.6,77.3 47.4,77.2 47.2,77C47,76.8 46.9,76.6 46.8,76.2C46.7,75.8 46.8,75.5 46.8,75.2C46.9,74.9 46.9,74.8 47.2,74.6C47.5,74.4 47.7,74.4 48,74.4C48.2,74.4 48.3,74.4 48.5,74.5L48.9,74.7Z" style="fill:rgb(118,188,33);fill-rule:nonzero;"/>
                        </g>
                        <g>
                            <path d="M48.9,71.5C49.2,71.6 49.6,71.8 49.8,72.1C49.9,72.3 50,72.5 50.1,72.7C50.2,73.2 50.2,73.6 49.9,74C49.6,74.4 49.3,74.4 48.9,74.4C48.5,74.4 48.2,74.3 47.9,74.2C47.6,74.1 47.4,74 47.2,73.8C47,73.7 46.9,73.4 46.8,73C46.7,72.6 46.8,72.3 46.8,72C46.9,71.7 46.9,71.5 47.2,71.4C47.4,71.2 47.7,71.2 48,71.2C48.2,71.2 48.3,71.2 48.5,71.3L48.9,71.5Z" style="fill:rgb(118,188,33);fill-rule:nonzero;"/>
                        </g>
                        <g>
                            <path d="M48.9,78C49.2,78.1 49.6,78.3 49.8,78.6C49.9,78.8 50,79 50.1,79.2C50.2,79.7 50.2,80.1 49.9,80.5C49.6,80.9 49.3,80.9 48.9,80.9C48.5,80.9 48.2,80.8 47.9,80.7C47.6,80.6 47.4,80.5 47.2,80.3C47,80.2 46.9,79.9 46.8,79.5C46.7,79.1 46.8,78.8 46.8,78.5C46.9,78.2 46.9,78 47.2,77.9C47.4,77.7 47.7,77.7 48,77.7C48.2,77.7 48.3,77.7 48.5,77.8L48.6,77.8L48.9,78Z" style="fill:rgb(118,188,33);fill-rule:nonzero;"/>
                        </g>
                        <g>
                            <path d="M46.5,49.2C46.4,49.5 46.3,49.6 46,49.7C45.7,49.8 45.6,49.8 45.3,49.6C45,49.4 44.9,49.3 44.7,49.1C44.5,48.9 44.3,48.7 44.2,48.3C44,47.9 43.9,47.5 44,47.1C44.1,46.7 44.3,46.5 44.6,46.5C44.9,46.5 45.3,46.6 45.4,46.7C45.6,46.9 45.8,47.1 46,47.3C46.3,47.6 46.6,48.3 46.6,48.8C46.6,48.9 46.5,49.1 46.5,49.2" style="fill:rgb(118,188,33);fill-rule:nonzero;"/>
                        </g>
                        <g>
                            <path d="M46.5,52.5C46.4,52.8 46.3,52.9 46,53C45.7,53.1 45.6,53 45.3,52.9C45,52.7 44.9,52.6 44.7,52.4C44.5,52.2 44.3,52 44.2,51.6C44,51.2 43.9,50.8 44,50.4C44.1,50 44.3,49.8 44.6,49.8C44.9,49.7 45.3,49.9 45.4,50C45.6,50.2 45.8,50.4 46,50.6C46.3,50.9 46.6,51.6 46.6,52.1C46.6,52.2 46.5,52.4 46.5,52.5" style="fill:rgb(118,188,33);fill-rule:nonzero;"/>
                        </g>
                        <g>
                            <path d="M46.5,55.8C46.4,56.1 46.3,56.2 46,56.3C45.7,56.4 45.6,56.4 45.3,56.2C45,56 44.9,55.9 44.7,55.7C44.5,55.5 44.3,55.3 44.2,54.9C44,54.5 43.9,54.1 44,53.7C44.1,53.3 44.3,53.1 44.6,53C44.9,52.9 45.3,53.1 45.4,53.2C45.6,53.4 45.8,53.6 46,53.8C46.1,54 46.3,54.2 46.4,54.5C46.5,54.8 46.6,55 46.6,55.3C46.6,55.5 46.5,55.7 46.5,55.8" style="fill:rgb(118,188,33);fill-rule:nonzero;"/>
                        </g>
                        <g>
                            <path d="M46.5,59.1C46.4,59.4 46.3,59.5 46,59.6C45.7,59.7 45.6,59.7 45.3,59.5C45,59.3 44.9,59.2 44.7,59C44.5,58.8 44.3,58.6 44.2,58.2C44,57.9 43.9,57.4 44,57C44.1,56.6 44.3,56.4 44.6,56.3C44.9,56.2 45.3,56.3 45.4,56.5C45.6,56.7 45.8,56.9 46,57.1C46.3,57.4 46.6,58.1 46.6,58.6C46.6,58.8 46.5,59 46.5,59.1" style="fill:rgb(118,188,33);fill-rule:nonzero;"/>
                        </g>
                        <g>
                            <path d="M46.5,62.4C46.4,62.7 46.3,62.8 46,62.9C45.7,63 45.6,63 45.3,62.8C45,62.6 44.9,62.5 44.7,62.3C44.5,62.1 44.3,61.9 44.2,61.5C44,61.1 43.9,60.7 44,60.3C44.1,59.9 44.3,59.7 44.6,59.7C44.9,59.6 45.3,59.8 45.4,59.9C45.6,60.1 45.8,60.3 46,60.5C46.3,60.8 46.6,61.5 46.6,62C46.6,62.2 46.5,62.3 46.5,62.4" style="fill:rgb(118,188,33);fill-rule:nonzero;"/>
                        </g>
                        <g>
                            <path d="M46.5,65.8C46.4,66.1 46.3,66.2 46,66.3C45.7,66.4 45.6,66.4 45.3,66.2C45,66.1 44.9,65.9 44.7,65.8C44.6,65.6 44.3,65.4 44.2,65C44,64.5 43.9,64 44,63.6C44.1,63.2 44.3,63 44.6,63C44.9,62.9 45.3,63.1 45.4,63.2C45.6,63.4 45.8,63.6 46,63.8C46.3,64.1 46.6,64.8 46.6,65.3C46.6,65.5 46.5,65.6 46.5,65.8" style="fill:rgb(118,188,33);fill-rule:nonzero;"/>
                        </g>
                        <g>
                            <path d="M46.5,69.1C46.4,69.4 46.3,69.5 46,69.6C45.7,69.7 45.6,69.7 45.3,69.5C45,69.4 44.9,69.2 44.7,69.1C44.5,68.9 44.3,68.7 44.2,68.3C44,67.9 43.9,67.5 44,67.1C44.1,66.7 44.3,66.5 44.6,66.5C44.9,66.4 45.3,66.6 45.4,66.7C45.6,66.9 45.8,67.1 46,67.3C46.3,67.6 46.6,68.3 46.6,68.8C46.6,68.8 46.5,68.9 46.5,69.1" style="fill:rgb(118,188,33);fill-rule:nonzero;"/>
                        </g>
                        <g>
                            <path d="M46.5,72.4C46.4,72.7 46.3,72.8 46,72.9C45.7,73 45.6,73 45.3,72.8C45,72.6 44.9,72.5 44.7,72.4C44.5,72.2 44.3,72 44.2,71.6C44,71.2 43.9,70.8 44,70.3C44.1,69.9 44.3,69.7 44.6,69.7C44.9,69.6 45.3,69.8 45.4,69.9C45.6,70.1 45.8,70.3 46,70.5C46.1,70.7 46.3,70.9 46.4,71.2C46.5,71.5 46.6,71.8 46.6,72C46.6,72.1 46.5,72.2 46.5,72.4" style="fill:rgb(118,188,33);fill-rule:nonzero;"/>
                        </g>
                        <g>
                            <path d="M46.5,75.7C46.4,76 46.3,76.1 46,76.2C45.7,76.3 45.6,76.3 45.3,76.1C45,75.9 44.9,75.8 44.7,75.6C44.6,75.4 44.3,75.2 44.2,74.8C44,74.4 43.9,74 44,73.5C44.1,73.1 44.3,72.9 44.6,72.8C44.9,72.7 45.3,72.9 45.4,73C45.6,73.2 45.8,73.4 46,73.6C46.1,73.8 46.3,74 46.4,74.3C46.5,74.6 46.6,74.9 46.6,75.1C46.6,75.4 46.5,75.5 46.5,75.7" style="fill:rgb(118,188,33);fill-rule:nonzero;"/>
                        </g>
                        <g>
                            <path d="M46.5,78.8C46.4,79.1 46.3,79.2 46,79.3C45.7,79.4 45.6,79.4 45.3,79.2C45,79 44.9,78.9 44.7,78.8C44.5,78.6 44.3,78.4 44.2,78C44,77.6 43.9,77.2 44,76.8C44.1,76.4 44.3,76.2 44.6,76.2C44.9,76.1 45.3,76.3 45.4,76.4C45.6,76.6 45.8,76.8 46,77C46.2,77.2 46.3,77.4 46.4,77.7C46.5,78 46.6,78.3 46.6,78.5C46.5,78.5 46.5,78.7 46.5,78.8" style="fill:rgb(118,188,33);fill-rule:nonzero;"/>
                        </g>
                        <g>
                            <path d="M43.6,50.5C43.7,50.8 43.7,51.2 43.7,51.7C43.8,52.4 43.9,52.7 43.9,53C43.9,53.2 43.9,53.4 43.7,53.5C43.6,53.6 43.5,53.6 43.5,53.5C43.4,53.5 43.2,53.4 43.2,53C43.2,52.6 43.1,52.2 43,51.8L43,50.7C43,50.5 43,50.3 43.1,50.2C43.1,50.2 43.1,50.1 43.3,50.2C43.5,50.3 43.5,50.4 43.6,50.5" style="fill:rgb(118,188,33);fill-rule:nonzero;"/>
                        </g>
                        <g>
                            <path d="M43.5,53.8C43.6,54.1 43.6,54.5 43.6,55C43.7,55.7 43.8,56 43.8,56.3C43.8,56.5 43.8,56.7 43.6,56.8C43.5,56.9 43.4,56.9 43.4,56.8C43.3,56.8 43.1,56.6 43.1,56.3C43.1,55.9 43,55.5 42.9,55.1L42.9,54C42.9,53.8 42.9,53.6 43,53.5C43,53.5 43,53.4 43.2,53.5C43.5,53.6 43.5,53.7 43.5,53.8" style="fill:rgb(118,188,33);fill-rule:nonzero;"/>
                        </g>
                        <g>
                            <path d="M43.5,57.1C43.6,57.4 43.6,57.8 43.6,58.3C43.7,59 43.8,59.3 43.8,59.6C43.8,59.8 43.8,60 43.6,60.1C43.5,60.2 43.4,60.2 43.4,60.2C43.3,60.1 43.1,60 43.1,59.7C43.1,59.3 43,58.9 42.9,58.5L42.9,57.4C42.9,57.2 42.9,57 43,56.9C43,56.9 43,56.8 43.2,56.9C43.5,56.9 43.5,57 43.5,57.1" style="fill:rgb(118,188,33);fill-rule:nonzero;"/>
                        </g>
                        <g>
                            <path d="M43.6,60.4C43.7,60.7 43.7,61.1 43.7,61.6C43.8,62.3 43.9,62.6 43.9,62.9C43.9,63.1 43.9,63.3 43.7,63.4C43.6,63.5 43.5,63.5 43.5,63.5C43.4,63.4 43.2,63.3 43.2,63C43.2,62.6 43.1,62.2 43,61.8L43,60.7C43,60.5 43,60.3 43.1,60.2C43.1,60.2 43.1,60.1 43.3,60.2C43.5,60.2 43.5,60.2 43.6,60.4" style="fill:rgb(118,188,33);fill-rule:nonzero;"/>
                        </g>
                        <g>
                            <path d="M43.5,63.7C43.6,64 43.6,64.4 43.6,64.8C43.7,65.5 43.8,65.9 43.8,66.1C43.8,66.3 43.8,66.5 43.6,66.6C43.5,66.7 43.4,66.7 43.4,66.7C43.3,66.6 43.1,66.5 43.1,66.2C43.1,65.8 43,65.4 42.9,65L42.9,63.9C42.9,63.7 42.9,63.5 43,63.4C43,63.4 43,63.3 43.2,63.4C43.5,63.5 43.5,63.6 43.5,63.7" style="fill:rgb(118,188,33);fill-rule:nonzero;"/>
                        </g>
                        <g>
                            <path d="M43.6,67C43.7,67.3 43.7,67.7 43.7,68.1C43.8,68.8 43.9,69.2 43.9,69.4C43.9,69.6 43.9,69.8 43.7,69.9C43.7,70 43.6,70 43.6,70C43.5,69.9 43.3,69.8 43.3,69.5C43.3,69.1 43.2,68.7 43.1,68.3L43.1,67.2C43.1,67 43.2,66.8 43.2,66.8C43.2,66.8 43.2,66.7 43.4,66.8C43.5,66.8 43.6,66.9 43.6,67" style="fill:rgb(118,188,33);fill-rule:nonzero;"/>
                        </g>
                        <g>
                            <path d="M43.6,70.3C43.7,70.6 43.7,71 43.7,71.4C43.8,72.1 43.9,72.5 43.9,72.7C43.9,72.9 43.9,73.1 43.7,73.2C43.6,73.3 43.5,73.3 43.5,73.3C43.4,73.2 43.2,73.2 43.2,72.8C43.2,72.4 43.1,72 43,71.6L43,70.5C43,70.3 43,70.1 43.1,70C43.1,70 43.1,69.9 43.3,70C43.5,70.2 43.5,70.2 43.6,70.3" style="fill:rgb(118,188,33);fill-rule:nonzero;"/>
                        </g>
                        <g>
                            <path d="M43.6,73.7C43.7,74 43.7,74.4 43.7,74.9C43.8,75.6 43.9,76 43.9,76.2C43.9,76.4 43.9,76.6 43.7,76.7C43.6,76.8 43.5,76.8 43.5,76.8C43.4,76.7 43.2,76.6 43.2,76.3C43.2,75.9 43.1,75.5 43,75.1L43,74C43,73.8 43,73.6 43.1,73.5C43.1,73.5 43.1,73.4 43.3,73.5C43.5,73.5 43.5,73.6 43.6,73.7" style="fill:rgb(118,188,33);fill-rule:nonzero;"/>
                        </g>
                        <g>
                            <path d="M46.5,46C46.4,46.3 46.3,46.4 46,46.5C45.7,46.6 45.6,46.6 45.3,46.4C45,46.2 44.9,46.1 44.7,45.9C44.5,45.7 44.3,45.5 44.2,45.1C44,44.7 43.9,44.3 44,43.9C44.1,43.5 44.3,43.3 44.6,43.3C44.9,43.3 45.3,43.4 45.4,43.5C45.6,43.7 45.8,43.9 46,44.1C46.1,44.3 46.3,44.5 46.4,44.8C46.5,45.1 46.6,45.4 46.6,45.6C46.6,45.7 46.5,45.8 46.5,46" style="fill:rgb(118,188,33);fill-rule:nonzero;"/>
                        </g>
                        <g>
                            <path d="M52.1,48.5C52.4,48.4 52.8,48.4 53,48.4C53.2,48.4 53.5,48.6 53.6,48.8C53.7,49 53.8,49.3 53.8,49.7L53.8,50.2C53.7,50.6 53.6,50.8 53.4,51C53.2,51.2 53,51.3 52.7,51.4C52.4,51.5 52.1,51.6 51.7,51.6C51.3,51.6 51,51.6 50.7,51.2C50.4,50.8 50.4,50.4 50.5,49.9C50.6,49.4 50.9,49.1 51.2,48.9C51.4,48.8 51.5,48.7 51.7,48.7L52.1,48.5Z" style="fill:rgb(118,188,33);fill-rule:nonzero;"/>
                        </g>
                        <g>
                            <path d="M57.1,43.5C57.4,43.4 57.4,43.6 57.5,44.1L57.5,45.2C57.5,45.6 57.4,46 57.3,46.4C57.3,46.8 57.1,46.9 56.9,47C56.7,47.1 56.5,46.8 56.4,46.6C56.3,46.4 56.4,46.1 56.4,45.9C56.5,45.6 56.5,45.3 56.6,45C56.6,44.6 56.7,44.2 56.7,43.9C56.9,43.6 57,43.5 57.1,43.5" style="fill:rgb(118,188,33);fill-rule:nonzero;"/>
                        </g>
                        <g>
                            <path d="M57.1,39.9L57.3,39.9C57.4,40.1 57.4,40.2 57.5,40.5C57.6,40.9 57.6,41.3 57.5,42L57.4,42.6C57.4,43 57.3,43.3 57.1,43.5C57,43.7 56.9,43.7 56.8,43.5C56.6,43.4 56.6,43.2 56.6,43C56.6,42.8 56.6,42.4 56.8,41.9C56.9,41.4 57,40.9 57,40.6L57,40.2C56.9,40 57,39.9 57.1,39.9" style="fill:rgb(118,188,33);fill-rule:nonzero;"/>
                        </g>
                        <g>
                            <path d="M57.1,47L57.3,47C57.3,47.1 57.4,47.2 57.4,47.5L57.4,48.6C57.4,49 57.3,49.4 57.2,49.8C57.2,50.1 57,50.2 56.9,50.3L56.7,50.3C56.5,50.2 56.5,50 56.5,49.8C56.6,49.3 56.7,48.9 56.7,48.5C56.8,48.1 56.8,47.7 56.8,47.3C57,47.1 57,47 57.1,47" style="fill:rgb(118,188,33);fill-rule:nonzero;"/>
                        </g>
                        <g>
                            <path d="M52.1,45.2C52.4,45.1 52.8,45.1 53,45.1C53.2,45.1 53.5,45.3 53.6,45.5C53.7,45.7 53.8,46 53.8,46.3L53.8,46.8C53.7,47.2 53.6,47.4 53.4,47.6C53.2,47.8 53,47.9 52.7,48C52.4,48.1 52.1,48.2 51.7,48.2C51.3,48.2 51,48.2 50.7,47.8C50.4,47.4 50.4,47 50.5,46.5C50.6,46 50.9,45.7 51.2,45.5C51.4,45.4 51.5,45.3 51.7,45.3L52.1,45.2Z" style="fill:rgb(118,188,33);fill-rule:nonzero;"/>
                        </g>
                        <g>
                            <path d="M52.1,55C52.4,54.9 52.8,54.9 53,54.9C53.2,54.9 53.5,55.1 53.6,55.3C53.7,55.5 53.8,55.9 53.8,56.2L53.8,56.7C53.7,57.1 53.6,57.3 53.4,57.5C53.2,57.7 53,57.8 52.7,57.9C52.4,58 52.1,58.1 51.7,58.1C51.3,58.1 51,58.1 50.7,57.7C50.4,57.3 50.4,56.9 50.5,56.4C50.6,55.9 50.9,55.6 51.2,55.4C51.4,55.3 51.5,55.2 51.7,55.2L52.1,55Z" style="fill:rgb(118,188,33);fill-rule:nonzero;"/>
                        </g>
                        <g>
                            <path d="M52.1,51.8C52.4,51.7 52.8,51.7 53,51.7C53.2,51.7 53.5,51.9 53.6,52.1C53.7,52.3 53.8,52.6 53.8,53L53.8,53.5C53.7,53.9 53.6,54.1 53.4,54.3C53.2,54.5 53,54.6 52.7,54.7C52.4,54.8 52.1,54.9 51.7,54.9C51.3,54.9 51,54.9 50.7,54.5C50.4,54.1 50.4,53.7 50.5,53.2C50.6,52.7 50.9,52.4 51.2,52.2C51.4,52.1 51.5,52 51.7,52L52.1,51.8Z" style="fill:rgb(118,188,33);fill-rule:nonzero;"/>
                        </g>
                        <g>
                            <path d="M52.1,61.5C52.4,61.4 52.8,61.4 53,61.4C53.2,61.4 53.5,61.6 53.6,61.8C53.7,62 53.8,62.3 53.8,62.7L53.8,63.2C53.7,63.6 53.6,63.8 53.4,64C53.2,64.2 53,64.3 52.7,64.4C52.4,64.5 52.1,64.6 51.7,64.6C51.3,64.6 51,64.6 50.7,64.2C50.4,63.8 50.4,63.5 50.5,62.9C50.6,62.4 50.9,62.1 51.2,61.9C51.4,61.8 51.5,61.7 51.7,61.7L52.1,61.5Z" style="fill:rgb(118,188,33);fill-rule:nonzero;"/>
                        </g>
                        <g>
                            <path d="M52.1,58.3C52.4,58.2 52.8,58.2 53,58.2C53.2,58.2 53.5,58.4 53.6,58.6C53.7,58.8 53.8,59.1 53.8,59.5L53.8,60C53.7,60.4 53.6,60.6 53.4,60.8C53.2,61 53,61.1 52.7,61.2C52.4,61.3 52.1,61.4 51.7,61.4C51.3,61.4 51,61.4 50.7,61C50.4,60.6 50.4,60.2 50.5,59.7C50.6,59.2 50.9,58.9 51.2,58.7C51.4,58.6 51.5,58.5 51.7,58.5L52.1,58.3Z" style="fill:rgb(118,188,33);fill-rule:nonzero;"/>
                        </g>
                        <g>
                            <path d="M52.1,68.1C52.4,68 52.8,68 53,68C53.2,68 53.5,68.2 53.6,68.4C53.7,68.6 53.8,69 53.8,69.3L53.8,69.8C53.7,70.2 53.6,70.4 53.4,70.6C53.2,70.8 53,70.9 52.7,71C52.4,71.1 52.1,71.2 51.7,71.2C51.3,71.2 51,71.2 50.7,70.8C50.4,70.4 50.4,70 50.5,69.5C50.6,68.9 50.9,68.7 51.2,68.5C51.4,68.4 51.5,68.3 51.7,68.3L52.1,68.1Z" style="fill:rgb(118,188,33);fill-rule:nonzero;"/>
                        </g>
                        <g>
                            <path d="M52.1,64.8C52.4,64.7 52.8,64.7 53,64.7C53.2,64.7 53.5,64.9 53.6,65.1C53.7,65.3 53.8,65.7 53.8,66L53.8,66.5C53.7,66.9 53.6,67.1 53.4,67.3C53.2,67.4 53,67.6 52.7,67.7C52.4,67.8 52.1,67.9 51.7,67.9C51.3,67.9 51,67.9 50.7,67.5C50.4,67.1 50.4,66.7 50.5,66.2C50.6,65.7 50.9,65.4 51.2,65.2C51.4,65.1 51.5,65 51.7,65L52.1,64.8Z" style="fill:rgb(118,188,33);fill-rule:nonzero;"/>
                        </g>
                        <g>
                            <path d="M52.1,74.6C52.4,74.5 52.8,74.5 53,74.5C53.2,74.5 53.5,74.7 53.6,74.9C53.7,75.1 53.8,75.5 53.8,75.8L53.8,76.3C53.7,76.7 53.6,76.9 53.4,77.1C53.2,77.3 53,77.4 52.7,77.5C52.4,77.6 52.1,77.7 51.7,77.7C51.3,77.7 51,77.7 50.7,77.3C50.4,76.9 50.4,76.5 50.5,76C50.6,75.4 50.9,75.2 51.2,74.9C51.4,74.8 51.5,74.7 51.7,74.7L52.1,74.6Z" style="fill:rgb(118,188,33);fill-rule:nonzero;"/>
                        </g>
                        <g>
                            <path d="M52.1,71.3C52.4,71.2 52.8,71.2 53,71.2C53.2,71.2 53.5,71.4 53.6,71.6C53.7,71.8 53.8,72.2 53.8,72.5L53.8,73C53.7,73.4 53.6,73.6 53.4,73.8C53.2,74 53,74.1 52.7,74.2C52.4,74.3 52.1,74.4 51.7,74.4C51.3,74.4 51,74.4 50.7,74C50.4,73.6 50.4,73.2 50.5,72.7C50.6,72.2 50.9,71.9 51.2,71.7C51.4,71.6 51.5,71.5 51.7,71.5L51.8,71.5L52.1,71.3Z" style="fill:rgb(118,188,33);fill-rule:nonzero;"/>
                        </g>
                        <g>
                            <path d="M52.1,77.8C52.4,77.7 52.8,77.7 53,77.7C53.2,77.7 53.5,77.9 53.6,78.1C53.7,78.3 53.8,78.7 53.8,79L53.8,79.5C53.7,79.9 53.6,80.1 53.4,80.3C53.2,80.5 53,80.6 52.7,80.7C52.4,80.8 52.1,80.9 51.7,80.9C51.3,80.9 51,80.9 50.7,80.5C50.4,80.1 50.4,79.8 50.5,79.2C50.6,78.7 50.9,78.4 51.2,78.2C51.4,78.1 51.5,78 51.7,78L52.1,77.8Z" style="fill:rgb(118,188,33);fill-rule:nonzero;"/>
                        </g>
                        <g>
                            <path d="M53.9,48.7C53.9,48.3 54.1,47.8 54.3,47.5C54.4,47.2 54.6,47.1 54.8,46.9C55,46.7 55.2,46.5 55.5,46.4C55.8,46.3 56.1,46.4 56.3,46.6C56.5,46.8 56.6,47.2 56.5,47.7C56.4,48.1 56.2,48.5 56,48.8C55.7,49.1 55.6,49.4 55.1,49.6C54.9,49.8 54.7,49.8 54.4,49.7C54.1,49.7 54,49.5 53.9,49.2C54,49 53.9,48.9 53.9,48.7" style="fill:rgb(118,188,33);fill-rule:nonzero;"/>
                        </g>
                        <g>
                            <path d="M53.9,52.1C53.9,51.7 54.1,51.2 54.3,50.9C54.4,50.6 54.6,50.5 54.8,50.3C55,50.1 55.2,49.9 55.5,49.8C55.8,49.7 56.1,49.8 56.3,50C56.5,50.2 56.6,50.6 56.5,51.1C56.4,51.5 56.2,52 56,52.2C55.7,52.6 55.6,52.8 55.1,53L54.5,53C54.2,53 54.1,52.8 54,52.5C54,52.3 53.9,52.2 53.9,52.1" style="fill:rgb(118,188,33);fill-rule:nonzero;"/>
                        </g>
                        <g>
                            <path d="M53.9,55.4C53.9,55 54.1,54.5 54.3,54.2C54.4,53.9 54.6,53.8 54.8,53.6C55,53.4 55.2,53.2 55.5,53.1C55.8,53 56.1,53.1 56.3,53.3C56.5,53.5 56.6,53.9 56.5,54.4C56.4,54.8 56.2,55.3 56,55.5C55.7,55.9 55.6,56.1 55.1,56.3C54.9,56.4 54.7,56.5 54.4,56.4C54.1,56.4 54,56.2 53.9,55.9C54,55.6 53.9,55.5 53.9,55.4" style="fill:rgb(118,188,33);fill-rule:nonzero;"/>
                        </g>
                        <g>
                            <path d="M53.9,58.7C53.9,58.3 54.1,57.8 54.3,57.5C54.4,57.2 54.6,57.1 54.8,56.9C55,56.7 55.2,56.5 55.5,56.4C55.8,56.3 56.1,56.4 56.3,56.6C56.5,56.8 56.6,57.2 56.5,57.7C56.4,58.1 56.2,58.6 56,58.8C55.7,59.2 55.6,59.4 55.1,59.6C54.9,59.8 54.7,59.8 54.4,59.7C54.1,59.6 54,59.5 53.9,59.2C54,58.9 53.9,58.8 53.9,58.7" style="fill:rgb(118,188,33);fill-rule:nonzero;"/>
                        </g>
                        <g>
                            <path d="M53.9,62C53.9,61.6 54.1,61.1 54.3,60.8C54.4,60.5 54.6,60.4 54.8,60.2C55,60 55.2,59.8 55.5,59.7C55.8,59.6 56.1,59.7 56.3,59.9C56.5,60.1 56.6,60.5 56.5,61C56.4,61.4 56.2,61.9 56,62.1C55.7,62.5 55.6,62.7 55.1,62.9C54.9,63.1 54.7,63.1 54.4,63C54.1,63 54,62.8 53.9,62.5C54,62.3 53.9,62.1 53.9,62" style="fill:rgb(118,188,33);fill-rule:nonzero;"/>
                        </g>
                        <g>
                            <path d="M53.9,65.3C53.9,64.9 54.1,64.5 54.3,64.1C54.4,63.8 54.6,63.7 54.8,63.5C55,63.3 55.2,63.1 55.5,63C55.8,62.9 56.1,63 56.3,63.2C56.5,63.4 56.6,63.8 56.5,64.3C56.4,64.7 56.2,65.2 56,65.4C55.7,65.8 55.6,66 55.1,66.2C54.9,66.3 54.7,66.3 54.4,66.3C54.1,66.2 54,66.1 53.9,65.8C54,65.6 53.9,65.4 53.9,65.3" style="fill:rgb(118,188,33);fill-rule:nonzero;"/>
                        </g>
                        <g>
                            <path d="M53.9,68.6C53.9,68.2 54.1,67.8 54.3,67.4C54.4,67.1 54.6,67 54.8,66.8C55,66.6 55.2,66.4 55.5,66.3C55.8,66.2 56.1,66.2 56.3,66.5C56.5,66.7 56.6,67.1 56.5,67.6C56.4,68 56.2,68.5 56,68.7C55.7,69.1 55.6,69.3 55.1,69.5C54.9,69.7 54.7,69.7 54.4,69.6C54.1,69.5 54,69.4 53.9,69.1C54,68.9 53.9,68.7 53.9,68.6" style="fill:rgb(118,188,33);fill-rule:nonzero;"/>
                        </g>
                        <g>
                            <path d="M53.9,71.9C53.9,71.5 54.1,71 54.3,70.7C54.4,70.4 54.6,70.3 54.8,70.1C55,69.9 55.2,69.7 55.5,69.6C55.8,69.5 56.1,69.5 56.3,69.8C56.5,70 56.6,70.5 56.5,70.9C56.4,71.3 56.2,71.8 56,72C55.7,72.4 55.6,72.6 55.1,72.8C54.9,72.9 54.7,73 54.4,72.9C54.1,72.8 54,72.7 53.9,72.4C54,72.2 53.9,72 53.9,71.9" style="fill:rgb(118,188,33);fill-rule:nonzero;"/>
                        </g>
                        <g>
                            <path d="M53.9,75.2C53.9,74.8 54.1,74.4 54.3,74C54.4,73.7 54.6,73.6 54.8,73.4C55,73.2 55.2,73 55.5,72.9C55.8,72.8 56.1,72.9 56.3,73.1C56.5,73.3 56.6,73.8 56.5,74.2C56.4,74.6 56.2,75.1 56,75.3C55.7,75.7 55.6,75.9 55.1,76.1C54.9,76.3 54.7,76.3 54.4,76.2C54.1,76.1 54,76 53.9,75.7C54,75.5 53.9,75.4 53.9,75.2" style="fill:rgb(118,188,33);fill-rule:nonzero;"/>
                        </g>
                        <g>
                            <path d="M54,78.4C54,78 54.2,77.6 54.4,77.2C54.6,77 54.7,76.8 54.9,76.6C55.1,76.4 55.3,76.2 55.6,76.1C55.9,76 56.2,76.1 56.4,76.3C56.6,76.5 56.7,77 56.6,77.4C56.5,77.8 56.3,78.3 56.1,78.5C55.8,78.9 55.6,79.1 55.2,79.3C54.9,79.5 54.8,79.5 54.5,79.4C54.2,79.3 54.1,79.2 54,78.9L54,78.4" style="fill:rgb(118,188,33);fill-rule:nonzero;"/>
                        </g>
                        <g>
                            <path d="M57.1,50.3L57.3,50.3C57.3,50.4 57.4,50.5 57.4,50.8L57.4,51.9C57.4,52.3 57.3,52.7 57.2,53.1C57.2,53.4 57,53.5 56.9,53.6L56.7,53.6C56.5,53.5 56.5,53.3 56.5,53.1C56.6,52.6 56.7,52.1 56.7,51.8C56.7,51.4 56.8,51 56.8,50.7C56.9,50.4 57,50.3 57.1,50.3" style="fill:rgb(118,188,33);fill-rule:nonzero;"/>
                        </g>
                        <g>
                            <path d="M57.1,53.6L57.3,53.6C57.3,53.7 57.4,53.8 57.4,54.1L57.4,55.2C57.4,55.6 57.3,56 57.2,56.4C57.2,56.7 57,56.8 56.9,56.9L56.7,56.9C56.5,56.8 56.5,56.6 56.5,56.4C56.6,55.9 56.7,55.5 56.7,55.1C56.7,54.7 56.8,54.3 56.8,54C56.9,53.7 57,53.7 57.1,53.6" style="fill:rgb(118,188,33);fill-rule:nonzero;"/>
                        </g>
                        <g>
                            <path d="M57.1,56.8L57.3,56.8C57.3,56.9 57.4,57 57.4,57.3L57.4,58.4C57.4,58.8 57.3,59.2 57.2,59.6C57.2,59.9 57,60 56.9,60.1L56.7,60.1C56.5,60 56.5,59.8 56.5,59.6C56.6,59.1 56.7,58.7 56.7,58.3C56.7,57.9 56.8,57.5 56.8,57.1C57,56.9 57,56.9 57.1,56.8" style="fill:rgb(118,188,33);fill-rule:nonzero;"/>
                        </g>
                        <g>
                            <path d="M57.1,60.2L57.3,60.2C57.3,60.3 57.4,60.4 57.4,60.7L57.4,61.8C57.4,62.2 57.3,62.6 57.2,63C57.2,63.3 57,63.4 56.9,63.5L56.7,63.5C56.5,63.4 56.5,63.2 56.5,63C56.6,62.5 56.7,62.1 56.7,61.7C56.8,61.3 56.8,60.9 56.8,60.6C57,60.3 57,60.2 57.1,60.2" style="fill:rgb(118,188,33);fill-rule:nonzero;"/>
                        </g>
                        <g>
                            <path d="M57.1,63.4L57.3,63.4C57.3,63.5 57.4,63.6 57.4,63.9L57.4,65C57.4,65.4 57.3,65.8 57.2,66.2C57.2,66.5 57,66.6 56.9,66.7C56.9,66.7 56.8,66.7 56.7,66.6C56.5,66.5 56.5,66.3 56.5,66.1C56.6,65.6 56.7,65.2 56.7,64.8C56.8,64.4 56.8,64 56.8,63.6C57,63.5 57,63.4 57.1,63.4" style="fill:rgb(118,188,33);fill-rule:nonzero;"/>
                        </g>
                        <g>
                            <path d="M57.1,66.8L57.3,66.8C57.3,66.9 57.4,67.1 57.4,67.3L57.4,68.4C57.4,68.8 57.3,69.2 57.2,69.6C57.2,69.9 57,70 56.9,70.1C56.9,70.1 56.8,70.1 56.7,70C56.5,69.9 56.5,69.7 56.5,69.5C56.6,69 56.7,68.6 56.7,68.2C56.8,67.8 56.8,67.4 56.8,67.1C57,66.9 57,66.8 57.1,66.8" style="fill:rgb(118,188,33);fill-rule:nonzero;"/>
                        </g>
                        <g>
                            <path d="M57.1,70.1L57.3,70.1C57.3,70.2 57.4,70.3 57.4,70.5L57.4,71.6C57.4,72 57.3,72.4 57.2,72.8C57.2,73.1 57,73.2 56.9,73.3C56.9,73.3 56.8,73.3 56.7,73.2C56.5,73.1 56.5,72.9 56.5,72.7C56.6,72.2 56.7,71.8 56.7,71.4C56.8,71 56.8,70.6 56.8,70.2C57,70.2 57,70.1 57.1,70.1" style="fill:rgb(118,188,33);fill-rule:nonzero;"/>
                        </g>
                        <g>
                            <path d="M57.1,73.3L57.3,73.3C57.3,73.4 57.4,73.5 57.4,73.8L57.4,74.9C57.4,75.3 57.3,75.7 57.2,76.1C57.2,76.4 57,76.5 56.9,76.6L56.7,76.6C56.5,76.5 56.5,76.3 56.5,76.1C56.6,75.6 56.7,75.2 56.7,74.8C56.8,74.4 56.8,74 56.8,73.7C57,73.4 57,73.4 57.1,73.3" style="fill:rgb(118,188,33);fill-rule:nonzero;"/>
                        </g>
                        <g>
                            <path d="M53.9,45.5C53.9,45.1 54.1,44.7 54.3,44.3C54.4,44 54.6,43.9 54.8,43.7C55,43.5 55.2,43.3 55.5,43.2C55.8,43.1 56.1,43.2 56.3,43.4C56.5,43.6 56.6,44 56.5,44.5C56.4,44.9 56.2,45.4 56,45.6C55.7,46 55.6,46.2 55.1,46.4C54.9,46.6 54.7,46.6 54.4,46.5C54.1,46.5 54,46.3 53.9,46C54,45.8 53.9,45.7 53.9,45.5" style="fill:rgb(118,188,33);fill-rule:nonzero;"/>
                        </g>
                        <g>
                            <path d="M46.9,38.1C46.9,38.3 46.7,38.6 46.5,38.7C46,39.1 45,39.7 44,39.9C43.7,39.9 43.4,39.6 43.3,39.4C42.9,38.7 42.9,37.6 43.1,37C43.3,36.6 43.6,36.1 43.9,36.2C45,36.4 46,37.1 46.4,37.4C46.8,37.8 46.9,37.8 46.9,38.1" style="fill:rgb(118,188,33);fill-rule:nonzero;"/>
                        </g>
                        <g>
                            <path d="M51.3,41.2C51.5,41.1 51.8,41.2 52,41.4C52.6,41.8 53.4,42.5 53.9,43.4C54,43.6 53.8,44 53.6,44.2C53,44.8 52,45.1 51.4,45.1C50.9,45.1 50.4,44.9 50.4,44.6C50.3,43.5 50.6,42.3 50.8,41.8C51,41.4 51.1,41.3 51.3,41.2" style="fill:rgb(118,188,33);fill-rule:nonzero;"/>
                        </g>
                        <g>
                            <path d="M49.2,41.3C49.4,41.4 49.6,41.6 49.7,41.9C49.9,42.6 50.2,43.6 50.1,44.7C50.1,44.9 49.7,45.1 49.4,45.2C48.6,45.4 47.6,45 47.1,44.6C46.7,44.3 46.4,43.8 46.6,43.6C47.1,42.7 48.1,41.8 48.5,41.6C48.9,41.3 49,41.2 49.2,41.3" style="fill:rgb(118,188,33);fill-rule:nonzero;"/>
                        </g>
                        <g>
                            <path d="M47.7,39.9C47.8,40.1 47.8,40.4 47.7,40.7C47.5,41.4 47.1,42.4 46.4,43.2C46.2,43.4 45.8,43.3 45.5,43.2C44.8,42.8 44.2,42 44,41.3C43.9,40.8 43.9,40.3 44.2,40.2C45.2,39.8 46.5,39.7 46.9,39.7C47.4,39.8 47.5,39.8 47.7,39.9" style="fill:rgb(118,188,33);fill-rule:nonzero;"/>
                        </g>
                        <g>
                            <path d="M53.6,38.1C53.6,37.9 53.8,37.6 54,37.5C54.5,37.1 55.5,36.5 56.5,36.3C56.7,36.3 57,36.6 57.2,36.8C57.6,37.5 57.5,38.6 57.3,39.2C57.1,39.6 56.8,40.1 56.5,40C55.4,39.8 54.4,39.1 54,38.7C53.6,38.4 53.6,38.3 53.6,38.1" style="fill:rgb(118,188,33);fill-rule:nonzero;"/>
                        </g>
                        <g>
                            <path d="M51.3,35C51.1,34.9 50.9,34.7 50.8,34.4C50.6,33.7 50.3,32.6 50.4,31.6C50.4,31.4 50.8,31.1 51.1,31.1C51.9,31 52.9,31.3 53.4,31.7C53.8,32 54.1,32.5 53.9,32.8C53.3,33.8 52.4,34.6 52,34.8C51.6,35 51.5,35 51.3,35" style="fill:rgb(118,188,33);fill-rule:nonzero;"/>
                        </g>
                        <g>
                            <path d="M49.3,35C49.1,35.1 48.8,35 48.6,34.8C48,34.4 47.2,33.7 46.7,32.8C46.6,32.6 46.8,32.2 47,32C47.5,31.4 48.6,31.1 49.2,31.1C49.7,31.1 50.2,31.3 50.2,31.6C50.3,32.7 50,33.9 49.8,34.4C49.5,34.8 49.5,34.9 49.3,35" style="fill:rgb(118,188,33);fill-rule:nonzero;"/>
                        </g>
                        <g>
                            <path d="M53,36.1C52.9,35.9 52.9,35.6 53,35.3C53.2,34.6 53.6,33.6 54.3,32.8C54.5,32.6 54.9,32.7 55.1,32.8C55.8,33.2 56.4,34 56.6,34.7C56.7,35.2 56.7,35.7 56.4,35.8C55.4,36.2 54.1,36.3 53.7,36.3C53.2,36.3 53.1,36.3 53,36.1" style="fill:rgb(118,188,33);fill-rule:nonzero;"/>
                        </g>
                        <g>
                            <path d="M53,40C53.1,39.8 53.4,39.7 53.7,39.7C54.4,39.7 55.5,39.8 56.4,40.2C56.6,40.3 56.7,40.7 56.6,41C56.5,41.8 55.8,42.7 55.3,43C54.9,43.2 54.4,43.4 54.2,43.2C53.5,42.4 53,41.2 52.9,40.7C52.8,40.3 52.8,40.2 53,40" style="fill:rgb(118,188,33);fill-rule:nonzero;"/>
                        </g>
                        <g>
                            <path d="M47.6,36.1C47.5,36.3 47.2,36.4 46.9,36.4C46.2,36.4 45.1,36.4 44.2,35.9C44,35.8 43.9,35.4 43.9,35.1C44,34.3 44.6,33.4 45.2,33.1C45.6,32.8 46.1,32.7 46.3,32.9C47,33.7 47.5,34.9 47.6,35.4C47.7,35.8 47.7,35.9 47.6,36.1" style="fill:rgb(118,188,33);fill-rule:nonzero;"/>
                        </g>
                        <g>
                            <path d="M50.3,41.2C52,41.2 53.4,39.8 53.4,38.1C53.4,36.4 52,35 50.3,35C48.6,35 47.2,36.4 47.2,38.1C47.2,39.8 48.6,41.2 50.3,41.2" style="fill:rgb(118,188,33);fill-rule:nonzero;"/>
                        </g>
                    </g>
                    <g>
                        <g>
                            <g>
                                <path d="M35.7,53.5L35.7,31.1L36.7,31.1L36.7,53.9C36.7,53.9 36.8,59 36.8,60.4C36.8,61.9 36.5,63.2 36.5,63.2C36.5,63.2 36.2,65.2 35.1,66.3C35.1,66.3 34.3,67.2 33.5,67.9C32.7,68.6 32.5,69.1 32.4,69.5C32.3,69.9 32.2,71.1 32.2,71.1C32.2,71.1 37.3,65.5 37.5,62.8L37.6,62L37.6,31.3L38.6,31.3L38.6,63.8C38.6,63.8 38.4,68.2 36.8,72.1C36.8,72.1 36.1,73.5 35.4,74.6C34.5,76.1 32.4,77.8 32.3,79.1C32.3,79.9 32.2,80.7 32.2,80.7L30.9,80.7L30.8,77.5C30.8,77.5 30.8,76.5 30.6,75.7C30.4,74.8 30.1,74.3 29.8,73.8C29.5,73.3 29.1,72.9 28.7,72.4C24,65.9 24.5,61.3 24.5,61C24.5,60.2 24.5,59.2 24.5,59.4L24.5,31L25.4,31L25.4,58.7C25.4,58.7 25.3,60.9 26.9,62.6C28,63.8 28.1,63.7 29,64.8C29.9,65.8 30.4,67.1 30.4,67.1C30.4,67.1 30.5,67.1 30.4,65.9C30.3,64.7 29.2,63.8 29.2,63.8C26.2,61.2 26.3,57.5 26.3,57.5L26.4,31L27.3,31L27.3,49.4C27.3,49.4 27.3,50.3 27.6,51.2C27.9,52.2 28.3,53.1 29,54.7C30.2,57.5 31,59.1 31,59.1C31,59.1 30.9,56.8 30.6,56.3C30.3,55.8 29.7,54.4 29.7,54.4C29,52.6 28.8,51.6 28.6,51.1C28.2,49.5 28.3,48.7 28.3,48.7L28.3,31L29.2,31L29.2,42.4C29.2,44.5 29.7,45.3 30.1,46.1C30.5,46.9 30.9,48.3 30.9,48.3C30.9,48.3 31.2,47.4 30.5,44.8C30.3,44.1 30.2,41.6 30.2,41.6L30.2,31L31.1,31L31.1,38C31.1,38 31.4,41 31.7,40.2C32,39.4 32.1,38.5 32.1,38.5L32.1,31L33.1,31L33.1,46.9C33.1,46.9 33,48.9 32.6,50.2C32.1,51.7 32.3,52.6 32.3,52.6C32.3,52.6 32.7,51.9 33.3,50.5C34,49 34.1,47.7 34.1,47.7L34.1,31L35,31L35,53.1C35,54.3 34.7,55 33.8,57.6C33.2,59.4 32.8,59.8 32.7,60.5C32.5,61.4 32.6,62.4 32.6,62.4L34,59.6C34.8,57.9 35,57.2 35.4,55.9C35.2,55.8 35.7,54.8 35.7,53.5Z" style="fill:rgb(118,188,33);fill-rule:nonzero;"/>
                            </g>
                        </g>
                    </g>
                </g>
            </g>
            <g>
                <g>
                    <path d="M366.1,61.1C366.6,62.3 367.4,64.1 368.1,65.7C368.5,66.8 368.5,68 368.2,69.3C367.6,71.6 365.6,73.1 363.6,74.1C363.3,73.6 363.2,73.5 362.8,72.7C367.2,69.6 366.4,66.1 365.3,64.6C362.1,66.2 360,67.1 356.3,69.2C354.5,70.3 355.3,71.8 355.8,73.1C356.3,74.4 359,79.6 359.6,81C360.6,80.5 368.1,76.5 370.7,75.1C371.7,74.5 372.8,74.2 373.1,73.1C373.4,72.2 372.9,71.4 372.5,70.5C371.9,69.2 367.4,60.2 367.1,59.7L366.1,61.1Z" style="fill:rgb(255,183,27);fill-rule:nonzero;"/>
                </g>
                <g>
                    <path d="M360.9,56.1C361.6,55 362.8,53.5 363.9,52.1C364.7,51.2 365.7,50.6 367,50.2C369.3,49.6 371.6,50.5 373.4,51.8C373.1,52.3 373,52.5 372.6,53.2C367.7,50.9 365.1,53.4 364.3,55.1C367.3,57.1 369.1,58.5 372.8,60.6C374.6,61.6 375.5,60.2 376.5,59C377.4,57.9 380.6,53 381.4,51.8C380.5,51.2 373.3,46.7 370.8,45.1C369.8,44.5 369,43.7 367.9,44C367,44.2 366.5,45.1 366,45.8C365.2,47 359.6,55.4 359.3,55.9L360.9,56.1Z" style="fill:rgb(0,178,227);fill-rule:nonzero;"/>
                </g>
                <g>
                    <path d="M359.2,63.1C357.9,63 356,62.8 354.2,62.5C353,62.3 352,61.7 351,60.7C349.4,59 349,56.6 349.2,54.3L350.8,54.3C351.3,59.7 354.8,60.7 356.6,60.5C356.8,57 357.1,54.6 357.1,50.4C357,48.3 355.3,48.2 353.9,48C352.5,47.8 346.7,47.5 345.2,47.3C345.1,48.4 344.8,56.9 344.7,59.9C344.7,61.1 344.4,62.2 345.2,63C345.8,63.7 346.8,63.7 347.7,63.8C349.1,63.9 359.2,64.5 359.8,64.6L359.2,63.1Z" style="fill:rgb(52,143,65);fill-rule:nonzero;"/>
                </g>
            </g>
        </g>
    </g>
</svg>
