<?xml version="1.0" encoding="UTF-8" standalone="no"?>
<!DOCTYPE svg PUBLIC "-//W3C//DTD SVG 1.1//EN" "http://www.w3.org/Graphics/SVG/1.1/DTD/svg11.dtd">
<svg width="100%" height="100%" viewBox="0 0 1545 575" version="1.1" xmlns="http://www.w3.org/2000/svg" xmlns:xlink="http://www.w3.org/1999/xlink" xml:space="preserve" xmlns:serif="http://www.serif.com/" style="fill-rule:evenodd;clip-rule:evenodd;stroke-linejoin:round;stroke-miterlimit:2;">
    <g transform="matrix(1,0,0,1,-620.365417,-897.697083)">
        <g transform="matrix(4.166667,0,0,4.166667,0,0)">
            <g id="Layer-1" serif:id="Layer 1">
                <g>
                    <g transform="matrix(1,0,0,1,368.7079,276.6743)">
                        <path d="M0,-41.022C4.748,-41.022 9.232,-40.163 13.328,-38.468L15.271,-37.665L20.037,-57.141L18.749,-57.785C15.322,-59.498 7.919,-61.227 -0.896,-61.227C-22.726,-61.227 -44.752,-48.256 -44.752,-19.278C-44.752,-0.191 -33.585,20.205 -2.242,20.205C6.933,20.205 14.444,18.471 17.541,16.861L18.717,16.249L15.297,-3.036L13.246,-2.23C10.24,-1.049 4.978,-0.225 0.449,-0.225C-12.254,-0.225 -19.839,-7.85 -19.839,-20.624C-19.839,-35.664 -9.591,-41.022 0,-41.022" style="fill:rgb(243,121,32);fill-rule:nonzero;"/>
                    </g>
                    <g transform="matrix(1,0,0,1,0,-82.953)">
                        <rect x="409.399" y="299.522" width="23.904" height="79.189" style="fill:rgb(243,121,32);"/>
                    </g>
                    <g transform="matrix(1,0,0,1,495.8534,269.2824)">
                        <path d="M0,-26.8C0,-21.329 -4.104,-18.064 -10.979,-18.064C-12.121,-18.064 -13.022,-18.097 -13.773,-18.144L-13.773,-34.224C-12.753,-34.333 -11.355,-34.415 -9.635,-34.415C-5.239,-34.415 0,-33.094 0,-26.8M14.338,-46.847C8.691,-51.172 0.483,-53.275 -10.756,-53.275C-20.533,-53.275 -29.007,-52.701 -35.941,-51.569L-37.454,-51.322L-37.454,26.475L-13.773,26.475L-13.773,0.886C-12.854,0.95 -11.815,1.02 -10.643,1.02C0.461,1.02 9.562,-1.853 15.688,-7.298C20.842,-11.972 23.68,-19.058 23.68,-27.249C23.68,-35.197 20.179,-42.53 14.338,-46.847" style="fill:rgb(243,121,32);fill-rule:nonzero;"/>
                    </g>
                    <g transform="matrix(-1,0,0,1,651.379,41.443)">
                        <rect x="324.266" y="268.278" width="2.847" height="17.281" style="fill:rgb(95,40,0);"/>
                    </g>
                    <g transform="matrix(1,0,0,1,334.5507,322.9085)">
                        <path d="M0,-9.095L7.997,4.093L11.577,4.093L11.577,-13.188L8.753,-13.188L8.753,-0.02L0.756,-13.188L-2.824,-13.188L-2.824,4.093L0,4.093L0,-9.095Z" style="fill:rgb(95,40,0);fill-rule:nonzero;"/>
                    </g>
                    <g transform="matrix(1,0,0,1,353.7196,309.721)">
                        <path d="M0,17.281L2.836,17.281L2.836,2.759L8.029,2.759L8.029,0L-5.172,0L-5.172,2.759L0,2.759L0,17.281Z" style="fill:rgb(95,40,0);fill-rule:nonzero;"/>
                    </g>
                    <g transform="matrix(1,0,0,1,376.5741,312.4576)">
                        <path d="M0,11.807L-9.603,11.807L-9.603,6.994L-0.272,6.994L-0.272,4.3L-9.603,4.3L-9.603,0.022L0,0.022L0,-2.737L-12.427,-2.737L-12.427,14.544L0,14.544L0,11.807Z" style="fill:rgb(95,40,0);fill-rule:nonzero;"/>
                    </g>
                    <g transform="matrix(1,0,0,1,382.9745,324.2425)">
                        <path d="M0,-11.763L4.666,-11.763C6.372,-11.763 6.88,-11.5 7.019,-11.387C7.361,-11.11 7.433,-10.468 7.433,-9.979L7.433,-8.08C7.433,-7.384 7.287,-6.914 6.999,-6.684C6.817,-6.538 6.274,-6.295 4.666,-6.295L0,-6.295L0,-11.763ZM0,-3.569L5.244,-3.569C6.378,-3.569 6.832,-3.327 7.013,-3.125C7.169,-2.949 7.433,-2.453 7.433,-1.108L7.433,2.759L10.344,2.759L10.344,-1.664C10.344,-2.81 10.163,-3.645 9.791,-4.216C9.614,-4.488 9.382,-4.72 9.095,-4.913C9.343,-5.083 9.555,-5.292 9.729,-5.537C10.137,-6.109 10.344,-6.883 10.344,-7.84L10.344,-10.295C10.344,-11.844 9.931,-12.955 9.116,-13.598C8.327,-14.22 6.989,-14.522 5.025,-14.522L-2.824,-14.522L-2.824,2.759L0,2.759L0,-3.569Z" style="fill:rgb(95,40,0);fill-rule:nonzero;"/>
                    </g>
                    <g transform="matrix(1,0,0,1,400.3202,322.9085)">
                        <path d="M0,-9.095L7.997,4.093L11.577,4.093L11.577,-13.188L8.753,-13.188L8.753,-0.02L0.756,-13.188L-2.824,-13.188L-2.824,4.093L0,4.093L0,-9.095Z" style="fill:rgb(95,40,0);fill-rule:nonzero;"/>
                    </g>
                    <g transform="matrix(1,0,0,1,425.6025,316.5171)">
                        <path d="M0,3.689L-5.553,3.689L-2.785,-3.843L0,3.689ZM2.512,10.485L5.471,10.485L-0.948,-6.796L-4.625,-6.796L-11.009,10.485L-8.049,10.485L-6.532,6.328L0.963,6.328L2.512,10.485Z" style="fill:rgb(95,40,0);fill-rule:nonzero;"/>
                    </g>
                    <g transform="matrix(1,0,0,1,434.8476,309.721)">
                        <path d="M0,17.281L2.836,17.281L2.836,2.759L8.029,2.759L8.029,0L-5.172,0L-5.172,2.759L0,2.759L0,17.281Z" style="fill:rgb(95,40,0);fill-rule:nonzero;"/>
                    </g>
                    <g transform="matrix(-1,0,0,1,893.397,41.443)">
                        <rect x="445.275" y="268.278" width="2.847" height="17.281" style="fill:rgb(95,40,0);"/>
                    </g>
                    <g transform="matrix(1,0,0,1,455.1122,316.0427)">
                        <path d="M0,4.637L0,0.033C0,-1.325 0.097,-1.956 0.178,-2.246C0.282,-2.618 0.451,-2.901 0.691,-3.109C0.975,-3.35 1.308,-3.519 1.709,-3.624C2.138,-3.736 2.908,-3.793 4,-3.793L5.004,-3.793C6.105,-3.793 6.88,-3.737 7.309,-3.629C7.709,-3.527 8.038,-3.363 8.31,-3.133C8.554,-2.922 8.722,-2.638 8.826,-2.267C8.906,-1.977 9.003,-1.347 9.003,0.011L9.003,4.637C9.003,6.022 8.91,6.642 8.832,6.918C8.732,7.273 8.568,7.543 8.334,7.746C8.055,7.984 7.709,8.157 7.307,8.26C6.873,8.372 6.099,8.429 5.004,8.429L4,8.429C2.906,8.429 2.136,8.372 1.708,8.26C1.308,8.157 0.976,7.988 0.693,7.748C0.45,7.538 0.281,7.258 0.177,6.889C0.097,6.607 0,5.986 0,4.637M3.487,11.156L5.538,11.156C7.88,11.156 9.49,10.709 10.46,9.792C11.44,8.867 11.915,7.325 11.915,5.074L11.915,-0.436C11.915,-2.699 11.447,-4.246 10.483,-5.166C9.527,-6.076 7.909,-6.519 5.538,-6.519L3.487,-6.519C1.138,-6.519 -0.475,-6.07 -1.442,-5.148C-2.416,-4.218 -2.89,-2.677 -2.89,-0.436L-2.89,5.074C-2.89,7.324 -2.416,8.867 -1.441,9.791C-0.474,10.709 1.138,11.156 3.487,11.156" style="fill:rgb(95,40,0);fill-rule:nonzero;"/>
                    </g>
                    <g transform="matrix(1,0,0,1,485.5077,309.721)">
                        <path d="M0,17.281L0,0L-2.824,0L-2.824,13.168L-10.821,0L-14.401,0L-14.401,17.281L-11.577,17.281L-11.577,4.093L-3.58,17.281L0,17.281Z" style="fill:rgb(95,40,0);fill-rule:nonzero;"/>
                    </g>
                    <g transform="matrix(1,0,0,1,499.2128,316.5171)">
                        <path d="M0,3.689L-5.553,3.689L-2.785,-3.843L0,3.689ZM-4.625,-6.796L-11.009,10.485L-8.049,10.485L-6.532,6.328L0.963,6.328L2.512,10.485L5.471,10.485L-0.948,-6.796L-4.625,-6.796Z" style="fill:rgb(95,40,0);fill-rule:nonzero;"/>
                    </g>
                    <g transform="matrix(1,0,0,1,519.3359,312.4576)">
                        <path d="M0,11.807L-9.209,11.807L-9.209,-2.737L-12.012,-2.737L-12.012,14.544L0,14.544L0,11.807Z" style="fill:rgb(95,40,0);fill-rule:nonzero;"/>
                    </g>
                    <g transform="matrix(1,0,0,1,327.0907,350.4007)">
                        <path d="M0,-11.764L4.513,-11.764C6.014,-11.764 6.464,-11.536 6.587,-11.44C6.88,-11.207 6.941,-10.654 6.941,-10.231L6.941,-7.841C6.941,-7.423 6.877,-6.874 6.571,-6.632C6.443,-6.532 5.986,-6.296 4.513,-6.296L0,-6.296L0,-11.764ZM4.535,-14.523L-2.824,-14.523L-2.824,2.759L0,2.759L0,-3.548L4.535,-3.548C6.515,-3.548 7.857,-3.853 8.64,-4.481C9.444,-5.127 9.854,-6.258 9.854,-7.841L9.854,-10.296C9.854,-11.845 9.44,-12.956 8.625,-13.599C7.837,-14.221 6.499,-14.523 4.535,-14.523" style="fill:rgb(95,40,0);fill-rule:nonzero;"/>
                    </g>
                    <g transform="matrix(1,0,0,1,351.8202,346.8259)">
                        <path d="M0,-4.615L0,0.011C0,1.396 -0.093,2.016 -0.171,2.292C-0.271,2.647 -0.435,2.917 -0.669,3.12C-0.948,3.358 -1.294,3.531 -1.696,3.634C-2.13,3.746 -2.904,3.803 -3.999,3.803L-5.003,3.803C-6.097,3.803 -6.867,3.746 -7.295,3.634C-7.695,3.531 -8.027,3.362 -8.31,3.122C-8.553,2.912 -8.722,2.632 -8.826,2.263C-8.906,1.981 -9.003,1.36 -9.003,0.011L-9.003,-4.594C-9.003,-5.951 -8.906,-6.582 -8.825,-6.872C-8.721,-7.244 -8.552,-7.527 -8.311,-7.735C-8.028,-7.976 -7.695,-8.145 -7.294,-8.25C-6.998,-8.327 -6.36,-8.419 -5.003,-8.419L-3.999,-8.419C-2.63,-8.419 -1.989,-8.329 -1.692,-8.254C-1.295,-8.154 -0.967,-7.991 -0.693,-7.758C-0.449,-7.548 -0.281,-7.264 -0.177,-6.893C-0.097,-6.603 0,-5.973 0,-4.615M-3.465,-11.145L-5.516,-11.145C-7.865,-11.145 -9.478,-10.697 -10.445,-9.775C-11.419,-8.846 -11.892,-7.304 -11.892,-5.062L-11.892,0.447C-11.892,2.697 -11.419,4.241 -10.444,5.165C-9.477,6.083 -7.865,6.53 -5.516,6.53L-3.465,6.53C-1.123,6.53 0.487,6.083 1.457,5.166C2.437,4.242 2.912,2.699 2.912,0.447L2.912,-5.062C2.912,-7.327 2.444,-8.873 1.482,-9.791C0.524,-10.702 -1.094,-11.145 -3.465,-11.145" style="fill:rgb(95,40,0);fill-rule:nonzero;"/>
                    </g>
                    <g transform="matrix(1,0,0,1,369.6191,353.1589)">
                        <path d="M0,-17.281L-13.201,-17.281L-13.201,-14.522L-8.029,-14.522L-8.029,0L-5.193,0L-5.193,-14.522L0,-14.522L0,-17.281Z" style="fill:rgb(95,40,0);fill-rule:nonzero;"/>
                    </g>
                    <g transform="matrix(1,0,0,1,379.0868,342.6743)">
                        <path d="M0,3.689L-5.553,3.689L-2.785,-3.843L0,3.689ZM-4.625,-6.796L-11.009,10.485L-8.049,10.485L-6.532,6.328L0.963,6.328L2.512,10.485L5.471,10.485L-0.948,-6.796L-4.625,-6.796Z" style="fill:rgb(95,40,0);fill-rule:nonzero;"/>
                    </g>
                    <g transform="matrix(1,0,0,1,382.9814,350.4007)">
                        <path d="M0,-11.764L5.172,-11.764L5.172,2.759L8.008,2.759L8.008,-11.764L13.201,-11.764L13.201,-14.523L0,-14.523L0,-11.764Z" style="fill:rgb(95,40,0);fill-rule:nonzero;"/>
                    </g>
                    <g transform="matrix(1,0,0,1,409.7821,346.8259)">
                        <path d="M0,-4.615L0,0.011C0,1.396 -0.093,2.016 -0.171,2.292C-0.271,2.647 -0.435,2.917 -0.669,3.12C-0.948,3.358 -1.294,3.531 -1.696,3.634C-2.13,3.746 -2.904,3.803 -3.999,3.803L-5.003,3.803C-6.097,3.803 -6.867,3.746 -7.295,3.634C-7.695,3.531 -8.027,3.362 -8.31,3.122C-8.553,2.912 -8.722,2.632 -8.826,2.263C-8.906,1.981 -9.003,1.36 -9.003,0.011L-9.003,-4.594C-9.003,-5.951 -8.906,-6.582 -8.825,-6.872C-8.721,-7.244 -8.552,-7.527 -8.312,-7.735C-8.028,-7.976 -7.695,-8.145 -7.294,-8.25C-6.998,-8.327 -6.36,-8.419 -5.003,-8.419L-3.999,-8.419C-2.63,-8.419 -1.989,-8.329 -1.692,-8.254C-1.295,-8.154 -0.967,-7.991 -0.693,-7.758C-0.449,-7.548 -0.281,-7.264 -0.177,-6.893C-0.097,-6.603 0,-5.973 0,-4.615M-3.465,-11.145L-5.516,-11.145C-7.865,-11.145 -9.478,-10.697 -10.445,-9.775C-11.419,-8.846 -11.893,-7.304 -11.893,-5.062L-11.893,0.447C-11.893,2.697 -11.419,4.241 -10.444,5.165C-9.477,6.083 -7.865,6.53 -5.516,6.53L-3.465,6.53C-1.123,6.53 0.487,6.083 1.457,5.166C2.437,4.242 2.912,2.699 2.912,0.447L2.912,-5.062C2.912,-7.327 2.444,-8.873 1.481,-9.791C0.524,-10.702 -1.094,-11.145 -3.465,-11.145" style="fill:rgb(95,40,0);fill-rule:nonzero;"/>
                    </g>
                    <g transform="matrix(1,0,0,1,433.0028,353.3557)">
                        <path d="M0,-17.675L-1.898,-17.675C-4.078,-17.675 -5.579,-17.224 -6.486,-16.296C-7.39,-15.372 -7.828,-13.834 -7.828,-11.592L-7.828,-6.082C-7.828,-3.84 -7.39,-2.302 -6.486,-1.377C-5.579,-0.45 -4.079,0 -1.898,0L0,0C2.204,0 3.708,-0.39 4.597,-1.193C5.488,-1.997 5.94,-3.393 5.94,-5.34L5.94,-6.927L3.022,-6.927L3.063,-6.372C3.069,-6.283 3.074,-6.188 3.077,-6.085C3.081,-5.981 3.083,-5.83 3.083,-5.635C3.083,-4.158 2.767,-3.546 2.501,-3.292C2.231,-3.034 1.556,-2.727 -0.131,-2.727L-1.386,-2.727C-2.6,-2.727 -3.163,-2.814 -3.422,-2.887C-3.768,-2.985 -4.053,-3.143 -4.297,-3.373C-4.523,-3.584 -4.681,-3.86 -4.775,-4.214C-4.85,-4.491 -4.938,-5.115 -4.938,-6.519L-4.938,-11.145C-4.938,-12.558 -4.85,-13.184 -4.775,-13.461C-4.681,-13.815 -4.523,-14.09 -4.292,-14.305C-4.054,-14.532 -3.761,-14.689 -3.396,-14.785C-2.992,-14.894 -2.316,-14.948 -1.386,-14.948L-0.131,-14.948C1.519,-14.948 2.192,-14.653 2.469,-14.404C2.849,-14.063 3.05,-13.324 3.05,-12.269L3.05,-11.304L5.94,-11.304L5.94,-12.53C5.94,-14.359 5.473,-15.692 4.552,-16.494C3.638,-17.288 2.148,-17.675 0,-17.675" style="fill:rgb(95,40,0);fill-rule:nonzero;"/>
                    </g>
                    <g transform="matrix(1,0,0,1,442.4941,335.8782)">
                        <path d="M0,17.281L12.427,17.281L12.427,14.544L2.824,14.544L2.824,9.73L12.154,9.73L12.154,7.037L2.824,7.037L2.824,2.758L12.427,2.758L12.427,0L0,0L0,17.281Z" style="fill:rgb(95,40,0);fill-rule:nonzero;"/>
                    </g>
                    <g transform="matrix(1,0,0,1,469.8954,339.9909)">
                        <path d="M0,9.055L-7.997,-4.113L-11.577,-4.113L-11.577,13.168L-8.753,13.168L-8.753,-0.02L-0.756,13.168L2.824,13.168L2.824,-4.113L0,-4.113L0,9.055Z" style="fill:rgb(95,40,0);fill-rule:nonzero;"/>
                    </g>
                    <g transform="matrix(1,0,0,1,474.9609,350.4007)">
                        <path d="M0,-11.764L5.172,-11.764L5.172,2.759L8.008,2.759L8.008,-11.764L13.201,-11.764L13.201,-14.523L0,-14.523L0,-11.764Z" style="fill:rgb(95,40,0);fill-rule:nonzero;"/>
                    </g>
                    <g transform="matrix(1,0,0,1,490.3818,335.8782)">
                        <path d="M0,17.281L12.427,17.281L12.427,14.544L2.824,14.544L2.824,9.73L12.154,9.73L12.154,7.037L2.824,7.037L2.824,2.758L12.427,2.758L12.427,0L0,0L0,17.281Z" style="fill:rgb(95,40,0);fill-rule:nonzero;"/>
                    </g>
                    <g transform="matrix(1,0,0,1,509.0292,350.4007)">
                        <path d="M0,-11.764L4.666,-11.764C6.372,-11.764 6.88,-11.501 7.019,-11.388C7.361,-11.111 7.433,-10.469 7.433,-9.98L7.433,-8.081C7.433,-7.385 7.287,-6.915 6.999,-6.685C6.817,-6.539 6.274,-6.296 4.666,-6.296L0,-6.296L0,-11.764ZM9.729,-5.538C10.137,-6.11 10.344,-6.884 10.344,-7.841L10.344,-10.296C10.344,-11.845 9.931,-12.956 9.116,-13.599C8.328,-14.221 6.99,-14.523 5.025,-14.523L-2.824,-14.523L-2.824,2.759L0,2.759L0,-3.57L5.244,-3.57C6.378,-3.57 6.832,-3.328 7.013,-3.126C7.169,-2.95 7.433,-2.454 7.433,-1.109L7.433,2.759L10.344,2.759L10.344,-1.665C10.344,-2.811 10.163,-3.646 9.791,-4.217C9.614,-4.489 9.382,-4.721 9.095,-4.914C9.343,-5.084 9.555,-5.293 9.729,-5.538" style="fill:rgb(95,40,0);fill-rule:nonzero;"/>
                    </g>
                    <g transform="matrix(1,0,0,1,297.4257,227.0668)">
                        <path d="M0,114.984L-0.026,126.134L-137.331,126.13L-137.329,114.983L-148.538,114.983L-148.526,0.026L-137.311,0.026L-137.302,-11.15L-0.002,-11.145L-0.008,0.036L11.172,0.026L11.177,114.979L0,114.984Z" style="fill:rgb(243,121,32);"/>
                    </g>
                    <g transform="matrix(1,0,0,1,223.8046,258.577)">
                        <path d="M0,-0.742C0.444,-1.165 1.568,-1.449 2.824,-1.449C4.092,-1.449 5.227,-1.166 5.695,-0.742L0,-0.742ZM2.893,0.707C1.721,0.707 0.66,0.463 0.134,0.088L5.599,0.088C5.097,0.462 4.052,0.707 2.893,0.707M2.824,-2.621C1.177,-2.621 -0.202,-2.217 -0.865,-1.54C-1.192,-1.205 -1.36,-0.799 -1.351,-0.389C-1.36,0.038 -1.193,0.441 -0.867,0.775C0.136,1.8 2.265,1.879 2.893,1.879C4.534,1.879 5.911,1.474 6.574,0.795C6.904,0.458 7.073,0.048 7.063,-0.364C7.073,-0.789 6.908,-1.188 6.585,-1.519C5.586,-2.542 3.454,-2.621 2.824,-2.621" style="fill:white;fill-rule:nonzero;"/>
                    </g>
                    <g transform="matrix(1,0,0,1,222.1669,250.0841)">
                        <path d="M0,2.037L0,-0C0.776,0.173 1.304,0.612 1.304,1.018C1.304,1.425 0.776,1.865 0,2.037M-1.38,2.039C-2.171,1.869 -2.684,1.428 -2.684,1.018C-2.684,0.613 -2.156,0.174 -1.38,0.001L-1.38,2.039ZM2.684,1.018C2.684,-0.371 1.203,-1.459 -0.688,-1.459C-2.581,-1.459 -4.064,-0.371 -4.064,1.018C-4.064,2.408 -2.581,3.496 -0.688,3.496C1.203,3.496 2.684,2.408 2.684,1.018" style="fill:white;fill-rule:nonzero;"/>
                    </g>
                    <g transform="matrix(1,0,0,1,231.8373,250.0841)">
                        <path d="M0,2.037L0,-0C0.775,0.174 1.302,0.613 1.302,1.018C1.302,1.425 0.775,1.864 0,2.037M-1.38,2.04C-2.171,1.869 -2.685,1.428 -2.685,1.018C-2.685,0.613 -2.157,0.174 -1.38,-0L-1.38,2.04ZM-0.69,-1.459C-2.583,-1.459 -4.065,-0.371 -4.065,1.018C-4.065,2.408 -2.583,3.496 -0.69,3.496C1.202,3.496 2.683,2.408 2.683,1.018C2.683,-0.371 1.202,-1.459 -0.69,-1.459" style="fill:white;fill-rule:nonzero;"/>
                    </g>
                    <g transform="matrix(1,0,0,1,246.3896,310.0511)">
                        <path d="M0,27.401C-0.242,27.859 -0.82,28.319 -1.677,28.708L-2.704,24.472C-1.597,24.783 -0.663,25.177 -0.306,25.698C0.304,26.587 0.161,27.095 0,27.401M-7.343,29.725L-7.566,29.725C-8.571,29.725 -9.509,29.747 -10.377,29.767C-11.108,29.785 -11.789,29.801 -12.417,29.801C-15.142,29.801 -16.146,29.473 -16.549,28.458C-17.146,26.938 -17.393,17.566 -17.436,10.199C-15.018,10.159 -11.988,10.015 -8.92,9.633C-11.628,21.7 -10.438,22.449 -9.839,22.822C-9.199,23.222 -8.143,23.416 -6.332,23.725C-5.928,23.794 -5.484,23.869 -5.025,23.954L-3.714,29.36C-4.752,29.586 -5.969,29.725 -7.343,29.725M-24.662,28.455C-25.065,29.473 -26.07,29.801 -28.796,29.801C-29.424,29.801 -30.104,29.785 -30.836,29.767C-31.703,29.747 -32.641,29.725 -33.646,29.725L-33.869,29.725C-35.243,29.725 -36.461,29.586 -37.498,29.359L-36.186,23.954C-35.728,23.869 -35.284,23.794 -34.88,23.725C-33.068,23.416 -32.013,23.222 -31.375,22.823C-30.824,22.479 -29.594,21.702 -31.956,9.368C-29.464,9.717 -26.684,9.97 -23.776,10.104C-23.817,17.484 -24.064,26.93 -24.662,28.455M-39.536,28.708C-40.391,28.319 -40.97,27.859 -41.211,27.401C-41.372,27.095 -41.515,26.588 -40.904,25.697C-40.548,25.176 -39.614,24.783 -38.507,24.472L-39.536,28.708ZM-5.974,21.621C-6.841,21.473 -7.98,21.279 -8.498,21.103C-8.716,19.742 -7.809,14.501 -6.647,9.303C-4.02,8.863 -1.48,8.219 0.593,7.28C1.373,6.926 1.764,6.043 1.5,5.227C0.541,2.259 -0.305,-0.741 -1.04,-3.779C-1.081,-3.819 -1.115,-3.866 -1.158,-3.903C-1.659,-4.33 -2.293,-4.498 -3.089,-4.412C-4.085,-4.305 -4.395,-3.77 -4.947,-2.665C-5.511,-1.537 -6.362,0.163 -8.682,0.163L-8.714,0.163C-11.162,0.146 -12.168,-1.577 -12.833,-2.719C-13.462,-3.795 -13.745,-4.175 -14.455,-4.217C-15.362,-4.269 -15.632,-3.948 -16.323,-2.651C-16.912,-1.545 -17.803,0.127 -19.971,0.225C-23.034,0.363 -24.041,-1.674 -24.645,-2.891C-25.153,-3.916 -25.348,-4.183 -25.851,-4.244C-26.809,-4.367 -27.191,-3.893 -28.027,-2.512C-28.708,-1.387 -29.641,0.154 -31.531,0.192C-34.216,0.224 -35.105,-1.799 -35.635,-3.021C-36.148,-4.202 -36.332,-4.434 -36.792,-4.477C-37.382,-4.533 -37.839,-4.418 -38.186,-4.125C-38.399,-3.946 -38.563,-3.705 -38.691,-3.455C-39.405,-0.518 -40.221,2.416 -41.15,5.356C-41.411,6.182 -41.004,7.071 -40.209,7.412C-38.766,8.032 -36.689,8.576 -34.206,9.016C-33.19,14.329 -32.427,19.748 -32.7,21.098C-33.208,21.275 -34.362,21.472 -35.238,21.621C-38.136,22.114 -41.42,22.674 -42.664,24.49C-43.829,26.187 -43.544,27.551 -43.1,28.395C-41.755,30.949 -37.449,31.859 -33.869,31.859L-33.646,31.859C-32.659,31.859 -31.738,31.881 -30.886,31.9C-30.137,31.919 -29.439,31.934 -28.796,31.934L-28.795,31.934C-26.24,31.934 -23.663,31.726 -22.676,29.237C-21.848,27.126 -21.675,16.074 -21.643,10.177C-20.955,10.195 -20.264,10.206 -19.569,10.21C-19.537,16.114 -19.363,27.131 -18.534,29.241C-17.549,31.726 -14.972,31.934 -12.417,31.934C-11.773,31.934 -11.076,31.919 -10.326,31.9C-9.475,31.881 -8.553,31.859 -7.566,31.859L-7.343,31.859C-3.762,31.859 0.543,30.949 1.888,28.395C2.333,27.551 2.618,26.187 1.454,24.491C0.208,22.674 -3.076,22.114 -5.974,21.621" style="fill:white;fill-rule:nonzero;"/>
                    </g>
                    <g transform="matrix(1,0,0,1,287.4652,253.1985)">
                        <path d="M0,60.821C-0.187,60.923 -0.387,60.97 -0.585,60.97C-1.022,60.97 -1.445,60.737 -1.668,60.326L-2.681,58.46C-3.004,57.862 -2.783,57.116 -2.186,56.792C-1.588,56.467 -0.841,56.689 -0.517,57.287L0.495,59.153C0.819,59.751 0.598,60.498 0,60.821M-10.072,63.382C-10.259,63.483 -10.461,63.532 -10.66,63.532C-11.096,63.532 -11.518,63.3 -11.741,62.89L-12.759,61.026C-13.084,60.429 -12.864,59.682 -12.268,59.356C-11.671,59.031 -10.924,59.251 -10.598,59.847L-9.581,61.713C-9.255,62.309 -9.475,63.056 -10.072,63.382M-14.876,50.389L-15.09,49.909C-15.847,48.214 -17.34,47.201 -19.085,47.201C-21.43,47.201 -23.5,48.966 -24.237,51.592C-25.879,57.442 -25.761,63.142 -25.502,68.678C-26.375,68.516 -27.262,68.431 -28.173,68.431C-28.245,68.431 -28.313,68.437 -28.384,68.438C-28.524,62.453 -28.897,55.921 -30.302,50.928C-29.689,50.723 -29.103,50.437 -28.549,50.063C-27.342,49.245 -26.476,48.23 -25.917,46.996C-21.921,45.67 -19.142,40.713 -18.261,36.579C-17.428,36.692 -16.571,36.754 -15.814,36.754C-15.451,36.754 -15.105,36.739 -14.771,36.716C-14.172,40.632 -12.704,48.974 -10.095,54.705C-10.72,54.958 -11.581,55.466 -12.312,56.022C-13.054,54.452 -13.666,53.105 -14.876,50.389M-27.545,73.897L-28.742,75.649C-29.004,76.033 -29.429,76.24 -29.861,76.24C-30.124,76.24 -30.39,76.164 -30.624,76.004C-31.24,75.582 -31.399,74.74 -30.978,74.123L-29.78,72.371C-29.358,71.753 -28.516,71.594 -27.899,72.016C-27.282,72.438 -27.124,73.28 -27.545,73.897M-32.594,49.05L-32.595,49.05C-34.152,49.05 -35.621,48.405 -36.608,47.819C-36.496,47.76 -36.384,47.692 -36.277,47.616C-34.6,46.414 -35.624,43.007 -37.383,40.165C-37.549,39.896 -37.682,39.674 -37.789,39.489L-37.336,39.514C-35.504,39.609 -32.494,41.049 -31.035,41.993C-30.539,42.313 -30.077,42.468 -29.622,42.468C-28.757,42.468 -28.234,41.917 -27.909,41.539C-27.597,42.243 -27.299,43.611 -27.578,44.901C-27.978,46.76 -28.98,47.641 -29.808,48.203C-30.639,48.765 -31.577,49.05 -32.594,49.05M-20.754,33.521C-20.095,33.499 -19.135,33.467 -18.234,33.445C-16.659,33.411 -15.354,33.344 -15.341,33.343C-14.973,33.324 -14.69,33.01 -14.709,32.642C-14.728,32.274 -15.046,31.995 -15.41,32.01C-15.423,32.01 -16.707,32.077 -18.265,32.111C-19.532,32.141 -20.915,32.19 -21.423,32.21C-21.535,32.146 -21.66,32.104 -21.792,32.081C-21.811,32.055 -21.846,31.994 -21.872,31.866C-21.981,31.358 -21.891,31.132 -21.865,31.079C-21.794,31.01 -21.738,30.928 -21.689,30.844C-21.072,30.821 -19.877,30.781 -18.771,30.757C-17.194,30.72 -15.891,30.65 -15.878,30.649C-15.51,30.63 -15.228,30.315 -15.248,29.947C-15.268,29.579 -15.58,29.303 -15.95,29.317C-15.963,29.317 -17.247,29.386 -18.801,29.422C-20.022,29.449 -21.351,29.496 -21.901,29.516C-21.965,29.458 -22.037,29.407 -22.115,29.365C-22.139,29.342 -22.207,29.253 -22.193,28.995C-22.169,28.551 -21.844,28.327 -21.829,28.315C-21.793,28.295 -21.763,28.27 -21.729,28.248C-21.077,28.224 -20.003,28.188 -19.001,28.165C-17.426,28.129 -16.12,28.061 -16.107,28.061C-15.739,28.042 -15.456,27.727 -15.475,27.36C-15.494,26.991 -15.812,26.704 -16.176,26.727C-16.189,26.728 -17.477,26.796 -19.032,26.831C-19.86,26.85 -20.737,26.878 -21.389,26.901C-21.423,26.846 -21.46,26.794 -21.508,26.745C-21.612,26.587 -21.527,26.385 -21.256,26.145C-20.76,25.958 -18.729,25.673 -17.169,25.622C-17.127,25.62 -17.083,25.616 -17.041,25.61C-17.036,25.609 -16.512,25.53 -15.779,25.53C-14.728,25.53 -12.818,25.698 -11.84,26.821C-11.075,27.7 -10.752,29.675 -11.091,31.415C-11.343,32.711 -11.919,33.673 -12.674,34.055C-13.367,34.411 -14.482,34.606 -15.814,34.606C-18.126,34.606 -20.108,34.059 -20.44,33.83C-20.581,33.721 -20.68,33.617 -20.754,33.521M-28.16,12.851C-27.819,12.251 -27.601,11.626 -27.509,10.967C-26.612,11.185 -25.766,11.382 -25.047,11.382C-23.644,11.382 -23.17,10.598 -23.013,10.133C-22.6,8.913 -23.257,6.967 -24.455,3.635C-24.462,3.616 -24.469,3.597 -24.476,3.579C-23.813,3.421 -23.093,3.174 -22.35,2.782C-20.196,7.858 -19.175,9.116 -18.2,9.469C-17.195,9.83 -15.883,9.372 -13.672,7.815C-13.42,8.174 -13.134,8.526 -12.802,8.864C-12.544,9.124 -12.243,9.407 -11.888,9.686C-13.695,11.222 -15.647,12.95 -16.274,14.885C-16.805,16.51 -16.416,19.454 -16.004,22.57C-15.968,22.842 -15.933,23.112 -15.897,23.383C-16.592,23.39 -17.121,23.453 -17.303,23.477C-17.46,23.484 -17.902,23.507 -18.466,23.551C-19.66,17.516 -23.994,13.944 -28.16,12.851M-26.125,1.861C-26.393,1.889 -26.661,1.904 -26.923,1.904C-31.362,1.904 -34.174,-2.179 -35.184,-4.226C-34.728,-4.128 -34.2,-4.057 -33.7,-4.122C-31.373,-4.433 -30.436,-8.957 -30.713,-13.265C-30.782,-14.331 -30.79,-14.976 -30.771,-15.361C-30.529,-15.226 -30.237,-15.046 -29.981,-14.89C-29.798,-14.777 -29.603,-14.658 -29.394,-14.532C-27.132,-13.171 -24.395,-9.464 -23.174,-7.267C-22.618,-6.264 -21.895,-5.755 -21.025,-5.755C-20.512,-5.755 -20.062,-5.935 -19.665,-6.091C-19.457,-6.173 -19.258,-6.253 -19.069,-6.289C-18.884,-5.488 -19.273,-2.843 -20.929,-0.886C-22.739,1.255 -24.657,1.707 -26.125,1.861M-12.264,-1.242C-12.106,-0.956 -11.913,-0.667 -11.656,-0.419C-11.41,-0.183 -10.959,0.098 -10.211,0.098C-8.624,0.098 -6.152,-1.214 -3.915,-3.245C-3.367,-3.742 -2.99,-4.06 -2.731,-4.258C-2.705,-4.075 -2.681,-3.872 -2.658,-3.689L-2.585,-3.113C-2.3,-0.958 -3.318,2.841 -4.097,4.729C-4.906,6.694 -3.604,7.442 -2.978,7.8C-2.863,7.866 -2.747,7.933 -2.65,7.999C-3.169,8.521 -4.919,9.479 -6.847,9.479L-7.003,9.477C-9.319,9.411 -10.6,8.405 -11.457,7.537C-14.31,4.641 -13.026,0.529 -12.264,-1.242M-22.138,82.132L-20.944,80.373C-20.525,79.754 -19.683,79.593 -19.064,80.012C-18.446,80.432 -18.285,81.274 -18.705,81.892L-19.899,83.651C-20.16,84.037 -20.586,84.245 -21.02,84.245C-21.281,84.245 -21.546,84.17 -21.779,84.011C-22.397,83.592 -22.558,82.75 -22.138,82.132M-23.942,30.499C-24.06,30.877 -24.111,31.374 -24.023,31.991C-26.881,31.794 -30.538,31.354 -33.792,30.378C-40.484,28.371 -44.799,24.798 -46.061,23.651L-46.245,13.003C-46.111,13.112 -45.978,13.228 -45.847,13.351C-45.713,13.479 -45.326,14.01 -44.984,14.477C-43.231,16.88 -39.585,21.877 -34.049,24.077C-30.515,25.481 -26.629,26.528 -23.721,27.208C-24.021,27.6 -24.299,28.147 -24.338,28.879C-24.375,29.569 -24.196,30.105 -23.942,30.499M-60.973,10.815C-67.063,10.815 -72.017,3.85 -72.017,-4.71C-72.017,-5.352 -71.979,-5.99 -71.923,-6.622L-50.021,-6.622C-49.965,-5.989 -49.927,-5.351 -49.927,-4.71C-49.927,3.85 -54.882,10.815 -60.973,10.815M-56.252,19.948C-57.7,23.995 -60.594,32.03 -60.594,32.03C-60.594,32.03 -63.523,25.034 -65.134,20.306C-66.756,15.582 -70.365,9.639 -70.365,9.639L-70.466,9.348L-69.081,9.356C-66.835,11.676 -64.023,13.061 -60.973,13.061C-57.963,13.061 -55.185,11.716 -52.954,9.452L-51.91,9.458C-51.91,9.458 -54.928,16.255 -56.252,19.948M-77.197,-8.99C-74.861,-17.351 -67.864,-23.709 -60.738,-23.709C-53.736,-23.709 -47.062,-17.476 -44.742,-8.99L-52.376,-8.99C-53.655,-13.064 -56.97,-16.397 -60.854,-16.397C-64.733,-16.397 -68.248,-13.064 -69.565,-8.99L-77.197,-8.99ZM-76.13,23.829C-77.592,25.126 -81.784,28.454 -88.203,30.378C-90.365,31.026 -93.022,31.518 -95.953,31.818C-95.897,31.28 -95.954,30.842 -96.061,30.5C-95.807,30.106 -95.627,29.57 -95.664,28.88C-95.707,28.087 -96.027,27.503 -96.355,27.108C-96.329,26.985 -96.315,26.856 -96.309,26.725C-93.157,25.919 -90.343,25.029 -87.945,24.077C-82.411,21.878 -78.765,16.882 -77.012,14.48C-76.794,14.182 -76.56,13.86 -76.382,13.632C-76.182,17.098 -76.098,20.492 -76.13,23.829M-97.887,29.366C-97.965,29.407 -98.037,29.458 -98.102,29.516C-98.651,29.496 -99.98,29.449 -101.203,29.422C-102.756,29.386 -104.042,29.317 -104.055,29.317C-104.433,29.297 -104.737,29.579 -104.757,29.947C-104.777,30.315 -104.495,30.63 -104.127,30.649C-104.114,30.65 -102.808,30.72 -101.233,30.757C-100.125,30.781 -98.93,30.821 -98.313,30.844C-98.265,30.928 -98.208,31.009 -98.138,31.079C-98.111,31.131 -98.021,31.358 -98.13,31.867C-98.157,31.992 -98.191,32.053 -98.209,32.079C-98.354,32.1 -98.488,32.141 -98.607,32.209C-99.135,32.189 -100.491,32.141 -101.739,32.111C-103.293,32.077 -104.578,32.01 -104.591,32.01C-104.957,31.995 -105.273,32.274 -105.292,32.642C-105.311,33.01 -105.028,33.324 -104.66,33.343C-104.647,33.344 -103.344,33.411 -101.769,33.445C-100.868,33.467 -99.909,33.499 -99.25,33.521C-99.323,33.617 -99.42,33.72 -99.558,33.827C-99.895,34.059 -101.876,34.606 -104.189,34.606C-105.521,34.606 -106.636,34.411 -107.333,34.054C-108.086,33.673 -108.662,32.709 -108.914,31.412C-109.251,29.673 -108.928,27.7 -108.161,26.821C-107.184,25.698 -105.275,25.53 -104.223,25.53C-103.49,25.53 -102.967,25.609 -102.964,25.609C-102.92,25.616 -102.877,25.62 -102.833,25.622C-101.274,25.673 -99.244,25.958 -98.746,26.145C-98.477,26.385 -98.391,26.585 -98.47,26.711C-98.528,26.77 -98.577,26.834 -98.616,26.9C-99.267,26.878 -100.143,26.85 -100.972,26.831C-102.525,26.796 -103.812,26.728 -103.825,26.727C-104.187,26.706 -104.507,26.991 -104.526,27.36C-104.545,27.727 -104.262,28.042 -103.895,28.061C-103.881,28.061 -102.577,28.129 -101.002,28.165C-99.999,28.188 -98.924,28.224 -98.272,28.248C-98.24,28.27 -98.21,28.296 -98.175,28.315C-98.172,28.317 -97.833,28.549 -97.809,28.995C-97.795,29.253 -97.864,29.342 -97.887,29.366M-100.321,41.049C-99.478,40.983 -98.677,40.95 -97.941,40.95C-97.331,40.95 -96.773,40.973 -96.257,41.016C-96.681,41.808 -96.931,42.818 -96.815,44.147C-97.698,43.952 -98.535,43.846 -99.224,43.846C-101.693,43.846 -102.082,45.09 -102.134,45.624C-102.22,46.508 -102.287,47.032 -102.338,47.434C-102.472,48.486 -102.504,48.836 -102.504,51.481C-102.504,51.874 -102.3,52.236 -101.966,52.44C-97.644,55.078 -96.896,59.633 -95.861,65.936C-95.777,66.447 -95.689,66.972 -95.601,67.497C-96.458,67.519 -97.45,67.679 -98.518,68.1C-98.943,66.582 -99.288,64.988 -99.61,63.468C-100.496,59.294 -101.261,55.688 -103.556,54.628C-104.119,54.367 -104.786,54.612 -105.046,55.176C-105.071,55.229 -105.09,55.282 -105.106,55.335C-105.293,55.572 -105.701,56.027 -106.039,56.406C-106.607,57.042 -107.286,57.801 -107.94,58.606C-108.418,58.147 -109.137,57.569 -110.07,57.102C-107.296,52.438 -105.961,44.841 -106.634,36.529C-105.915,36.676 -105.1,36.754 -104.189,36.754C-103.717,36.754 -103.206,36.729 -102.686,36.683C-102.664,36.938 -102.632,37.235 -102.585,37.608C-102.523,38.104 -102.49,38.503 -102.463,38.818C-102.384,39.766 -102.276,41.065 -100.679,41.065C-100.575,41.065 -100.456,41.059 -100.321,41.049M-94.873,71.605C-94.271,71.605 -93.63,72.007 -93.198,72.65C-92.835,73.183 -92.683,73.793 -92.783,74.316C-92.854,74.679 -93.048,74.983 -93.331,75.174C-93.541,75.313 -93.788,75.386 -94.047,75.386C-94.649,75.386 -95.275,75.003 -95.721,74.357C-96.369,73.386 -96.31,72.3 -95.592,71.82C-95.384,71.68 -95.135,71.605 -94.873,71.605M-97.958,82.297C-98.173,82.44 -98.419,82.513 -98.678,82.513C-99.283,82.513 -99.927,82.114 -100.359,81.472C-100.724,80.94 -100.878,80.332 -100.777,79.81C-100.707,79.443 -100.508,79.135 -100.218,78.942C-100.013,78.804 -99.766,78.731 -99.506,78.731C-98.907,78.731 -98.264,79.129 -97.828,79.767C-97.193,80.73 -97.252,81.813 -97.958,82.297M-109.138,64.061C-109.271,64.341 -109.493,64.547 -109.761,64.64C-109.874,64.679 -109.988,64.699 -110.105,64.699C-110.705,64.699 -111.272,64.206 -111.551,63.442C-111.879,62.499 -111.603,61.613 -110.913,61.373C-110.227,61.138 -109.438,61.678 -109.125,62.587C-108.938,63.112 -108.942,63.651 -109.138,64.061M-112.113,5.235C-111.83,5.02 -111.559,4.788 -111.312,4.527C-110.677,3.85 -110.207,3.062 -109.911,2.212C-109.786,2.217 -109.659,2.228 -109.537,2.228C-105.648,2.228 -104.055,-1.033 -102.514,-4.187C-101.854,-5.538 -101.171,-6.935 -100.297,-8.161C-100.292,-8.17 -100.288,-8.181 -100.282,-8.189C-99.354,-7.68 -98.291,-7.389 -97.159,-7.389C-97.108,-7.389 -97.059,-7.396 -97.008,-7.397C-97.306,-6.542 -97.513,-5.531 -96.88,-4.627C-96.649,-4.299 -96.037,-3.427 -94.883,-3.39C-91.226,-3.277 -89.104,-1.142 -88.005,3.633C-88.286,3.659 -88.566,3.697 -88.842,3.758C-89.735,3.958 -90.543,4.333 -91.241,4.839C-92.702,1.239 -94.796,-0.818 -97.04,-0.818C-98.277,-0.818 -100.554,-0.142 -101.908,4.378C-103.277,8.956 -103.313,14.842 -103.347,20.535C-103.353,21.52 -103.361,22.475 -103.374,23.411C-103.615,23.395 -103.902,23.382 -104.223,23.382C-104.954,23.382 -105.798,23.454 -106.64,23.652C-107.019,14.64 -107.737,8.194 -112.113,5.235M-112.54,3.372C-113.463,4.352 -114.714,4.893 -116.062,4.893L-116.063,4.893C-117.298,4.893 -118.475,4.426 -119.374,3.58C-119.578,3.387 -119.812,3.098 -120.038,2.79L-116.88,2.977C-116.604,2.997 -116.331,2.87 -116.161,2.648C-115.991,2.425 -115.942,2.133 -116.032,1.868L-116.88,-0.654L-114.281,0.019C-114.005,0.091 -113.715,0.018 -113.505,-0.171C-113.295,-0.361 -113.194,-0.644 -113.237,-0.923L-113.72,-4.081C-113.324,-3.876 -112.961,-3.656 -112.752,-3.46C-111.811,-2.576 -111.271,-1.378 -111.231,-0.087C-111.191,1.204 -111.656,2.432 -112.54,3.372M-101.872,-14.928L-99.844,-12.502C-99.665,-12.288 -99.391,-12.177 -99.111,-12.204C-98.833,-12.234 -98.587,-12.399 -98.455,-12.646L-97.202,-14.992L-95.906,-12.636C-95.77,-12.388 -95.518,-12.226 -95.236,-12.202C-94.957,-12.183 -94.679,-12.3 -94.504,-12.524L-92.537,-15.039C-92.414,-14.611 -92.325,-14.196 -92.325,-13.908C-92.325,-11.242 -94.494,-9.074 -97.159,-9.074C-99.822,-9.074 -101.989,-11.242 -101.989,-13.908C-101.989,-14.187 -101.94,-14.553 -101.872,-14.928M-82.71,9.074C-82.647,9.346 -82.615,9.717 -82.602,10.098L-85.114,8.165C-85.336,7.993 -85.629,7.944 -85.895,8.032C-86.16,8.122 -86.365,8.337 -86.439,8.606L-87.151,11.168L-88.925,9.15C-89.112,8.937 -89.393,8.833 -89.673,8.872C-89.954,8.911 -90.196,9.089 -90.318,9.343L-91.696,12.231C-91.908,11.839 -92.084,11.452 -92.146,11.173C-92.723,8.569 -91.077,5.981 -88.476,5.403C-88.128,5.325 -87.772,5.286 -87.419,5.286C-85.18,5.286 -83.199,6.878 -82.71,9.074M-93.909,42.246C-93.44,41.544 -92.604,41.259 -92.077,41.62C-91.869,41.758 -91.719,41.987 -91.664,42.262C-91.583,42.655 -91.699,43.135 -91.972,43.549C-92.324,44.053 -92.803,44.346 -93.263,44.346C-93.46,44.346 -93.648,44.291 -93.806,44.186C-94.031,44.032 -94.179,43.797 -94.231,43.517C-94.307,43.117 -94.189,42.654 -93.909,42.246M-87.48,45.389C-86.986,44.673 -86.159,44.399 -85.636,44.755C-85.42,44.897 -85.268,45.133 -85.213,45.414C-85.136,45.813 -85.254,46.279 -85.538,46.691C-85.864,47.176 -86.357,47.482 -86.819,47.482C-87.02,47.482 -87.209,47.425 -87.369,47.319C-87.911,46.944 -87.956,46.116 -87.48,45.389M-117.98,66.299C-118.098,66.339 -118.211,66.357 -118.326,66.357C-118.927,66.357 -119.509,65.847 -119.774,65.091C-119.965,64.569 -119.964,64.029 -119.769,63.619C-119.633,63.335 -119.406,63.126 -119.13,63.031C-119.027,62.994 -118.91,62.974 -118.791,62.974C-118.2,62.974 -117.619,63.48 -117.346,64.233C-117.025,65.172 -117.3,66.054 -117.98,66.299M-29.891,12.473C-30.654,13.519 -31.828,14.049 -33.382,14.049C-33.882,14.049 -34.348,13.992 -34.736,13.917C-34.672,13.848 -34.611,13.774 -34.557,13.694C-33.686,12.433 -35.259,10.311 -37.205,8.768C-37.388,8.624 -37.537,8.501 -37.658,8.399L-37.333,8.301C-36.892,8.168 -36.264,8.096 -35.517,8.096C-34.339,8.096 -33.059,8.272 -32.312,8.445C-32.112,8.491 -31.931,8.514 -31.758,8.514C-30.743,8.514 -30.396,7.743 -30.243,7.342C-29.848,7.755 -29.295,8.635 -29.165,9.604C-28.976,11.003 -29.454,11.872 -29.891,12.473M4.269,54.319C3.564,54.221 2.767,54.112 1.99,53.905C-0.341,53.289 -2.173,53.001 -3.776,53.001C-5.421,53.001 -6.752,53.319 -8.029,53.817C-10.426,48.219 -12.029,39.88 -12.563,36.321C-12.251,36.221 -11.962,36.104 -11.698,35.969C-10.332,35.276 -9.368,33.804 -8.982,31.825C-8.507,29.384 -9.004,26.805 -10.22,25.409C-11.124,24.373 -12.375,23.844 -13.607,23.591C-13.663,23.154 -13.719,22.717 -13.777,22.276C-14.121,19.673 -14.511,16.721 -14.138,15.581C-13.673,14.145 -11.797,12.553 -10.141,11.15L-9.793,10.854C-9.026,11.137 -8.128,11.336 -7.058,11.366C-6.988,11.369 -6.929,11.369 -6.847,11.37C-4.422,11.37 -1.622,10.135 -0.854,8.726C-0.562,8.19 -0.564,7.618 -0.862,7.156C-1.189,6.648 -1.66,6.378 -2.038,6.161C-2.191,6.073 -2.423,5.94 -2.461,5.891C-2.461,5.89 -2.483,5.773 -2.349,5.448C-1.529,3.458 -0.359,-0.695 -0.712,-3.361L-0.783,-3.92C-0.935,-5.161 -1.093,-6.445 -2.352,-6.445C-3.078,-6.445 -3.813,-5.889 -5.185,-4.645C-7.249,-2.773 -9.275,-1.792 -10.211,-1.792C-10.31,-1.792 -10.36,-1.803 -10.36,-1.795C-10.543,-1.982 -10.712,-2.347 -10.848,-2.642C-11.096,-3.181 -11.436,-3.918 -12.24,-3.918C-12.94,-3.918 -13.321,-3.312 -13.446,-3.113C-14.314,-1.733 -15.878,2.173 -14.689,5.784C-16.475,7.071 -17.201,7.304 -17.444,7.335C-17.802,7.037 -18.635,5.84 -20.47,1.46C-20.12,1.145 -19.77,0.792 -19.426,0.385C-17.418,-1.988 -16.643,-5.556 -17.291,-7.163C-17.549,-7.804 -18.046,-8.207 -18.656,-8.269C-19.32,-8.335 -19.927,-8.105 -20.39,-7.921C-20.623,-7.829 -20.888,-7.724 -21.025,-7.724C-21.116,-7.724 -21.288,-7.924 -21.453,-8.222C-22.689,-10.447 -25.663,-14.585 -28.379,-16.218C-28.583,-16.341 -28.773,-16.457 -28.951,-16.567C-29.904,-17.153 -30.535,-17.539 -31.176,-17.539C-31.574,-17.539 -31.938,-17.384 -32.205,-17.101C-32.787,-16.48 -32.821,-15.376 -32.678,-13.139C-32.393,-8.704 -33.507,-6.253 -33.96,-6.075C-34.321,-6.025 -34.776,-6.148 -35.185,-6.248C-35.543,-6.337 -35.882,-6.42 -36.202,-6.42C-36.833,-6.42 -37.161,-6.091 -37.3,-5.894C-37.714,-5.311 -37.464,-4.597 -37.382,-4.363C-36.635,-2.226 -33.108,3.872 -26.923,3.872C-26.869,3.872 -26.813,3.865 -26.759,3.864C-26.695,4.041 -26.632,4.219 -26.569,4.395C-26.011,5.948 -25.199,8.208 -25.13,9.133C-25.627,9.114 -26.393,8.928 -27.136,8.747C-27.317,8.703 -27.499,8.661 -27.681,8.618C-28.144,7.049 -29.329,5.456 -30.437,5.456C-30.73,5.456 -30.997,5.557 -31.21,5.751C-31.539,6.049 -31.678,6.419 -31.779,6.69C-31.795,6.734 -31.817,6.792 -31.836,6.84C-31.863,6.837 -31.896,6.83 -31.936,6.821C-32.713,6.64 -34.118,6.429 -35.517,6.429C-36.439,6.429 -37.213,6.523 -37.819,6.707L-38.167,6.81C-38.946,7.04 -39.619,7.237 -39.757,7.947C-39.902,8.693 -39.281,9.249 -38.241,10.075C-36.721,11.28 -36.042,12.413 -35.984,12.811C-36.08,12.905 -36.24,13.014 -36.364,13.098C-36.695,13.322 -37.194,13.661 -37.132,14.279C-37.104,14.557 -36.946,14.942 -36.35,15.192C-35.884,15.387 -34.736,15.717 -33.382,15.717C-32.051,15.717 -30.891,15.395 -29.944,14.782C-29.933,14.784 -29.923,14.788 -29.912,14.79C-26.183,15.249 -21.868,18.262 -20.694,23.821C-21.505,23.964 -22.231,24.162 -22.562,24.434C-22.611,24.476 -22.651,24.519 -22.697,24.561C-25.543,23.909 -29.472,22.874 -33.013,21.467C-37.795,19.567 -40.996,15.179 -42.716,12.823C-43.25,12.09 -43.604,11.605 -43.925,11.304C-44.644,10.63 -45.4,10.118 -46,9.763C-46.012,9.753 -46.02,9.739 -46.031,9.729C-47.261,8.629 -49.079,7.819 -51.145,7.243C-48.994,4.085 -47.681,-0.113 -47.681,-4.71C-47.681,-5.35 -47.712,-5.988 -47.763,-6.622L-43.24,-6.622C-42.883,-6.622 -42.546,-6.783 -42.321,-7.06C-42.097,-7.336 -42.008,-7.7 -42.081,-8.048C-44.232,-18.326 -52.253,-26.076 -60.738,-26.076C-69.343,-26.076 -77.743,-18.158 -79.862,-8.049C-79.935,-7.701 -79.847,-7.337 -79.623,-7.06C-79.398,-6.783 -79.06,-6.622 -78.704,-6.622L-74.18,-6.622C-74.23,-5.988 -74.264,-5.351 -74.264,-4.71C-74.264,-0.062 -72.92,4.174 -70.727,7.344C-72.72,7.918 -74.446,8.672 -75.807,9.587C-75.892,9.644 -75.961,9.717 -76.034,9.788C-76.627,10.141 -77.366,10.644 -78.069,11.303C-78.39,11.605 -78.744,12.091 -79.28,12.825C-81,15.18 -84.202,19.567 -88.982,21.467C-91.47,22.456 -94.437,23.378 -97.802,24.207C-97.813,24.21 -97.82,24.214 -97.832,24.217C-98.605,23.882 -100.011,23.69 -101.129,23.587C-101.115,22.598 -101.107,21.588 -101.101,20.549C-101.067,15.014 -101.033,9.292 -99.755,5.022C-99.082,2.772 -98.067,1.428 -97.04,1.428C-95.978,1.428 -94.362,2.881 -93.147,6.124C-93.078,6.309 -93.003,6.474 -92.927,6.632C-93.82,8.038 -94.179,9.784 -93.792,11.535C-93.539,12.686 -92.411,14.291 -92.284,14.47C-92.125,14.693 -91.869,14.824 -91.598,14.824C-91.573,14.824 -91.549,14.823 -91.524,14.821C-91.227,14.795 -90.966,14.614 -90.837,14.344L-89.347,11.221L-87.388,13.45C-87.184,13.682 -86.87,13.782 -86.567,13.715C-86.266,13.645 -86.027,13.417 -85.944,13.118L-85.151,10.262L-82.299,12.458C-82.052,12.647 -81.722,12.686 -81.439,12.557C-81.156,12.43 -80.966,12.157 -80.944,11.846C-80.931,11.641 -80.815,9.807 -81.066,8.704C-81.593,6.341 -83.407,4.499 -85.656,3.854C-86.523,-0.512 -88.579,-5.441 -94.79,-5.63C-94.813,-5.641 -94.883,-5.693 -95.042,-5.919C-95.117,-6.098 -94.833,-6.822 -94.696,-7.169C-94.589,-7.443 -94.488,-7.724 -94.399,-8.011C-92.182,-9.052 -90.64,-11.3 -90.64,-13.908C-90.64,-15.089 -91.394,-16.895 -91.479,-17.097C-91.596,-17.371 -91.849,-17.564 -92.145,-17.603C-92.44,-17.639 -92.735,-17.521 -92.918,-17.286L-95.045,-14.568L-96.474,-17.166C-96.622,-17.435 -96.905,-17.603 -97.212,-17.603L-97.217,-17.603C-97.526,-17.601 -97.81,-17.43 -97.956,-17.158L-99.353,-14.541L-101.659,-17.3C-101.858,-17.539 -102.173,-17.648 -102.478,-17.585C-102.782,-17.521 -103.027,-17.294 -103.114,-16.995C-103.171,-16.798 -103.674,-15.038 -103.674,-13.908C-103.674,-12.279 -103.07,-10.792 -102.08,-9.649L-102.205,-9.356C-103.146,-8.009 -103.851,-6.568 -104.532,-5.173C-106.094,-1.978 -107.171,-0.018 -109.537,-0.018C-109.541,-0.018 -109.545,-0.019 -109.549,-0.019C-109.549,-0.06 -109.545,-0.099 -109.547,-0.14C-109.601,-1.88 -110.33,-3.495 -111.598,-4.687C-112.455,-5.494 -114.287,-6.187 -114.493,-6.263C-114.771,-6.367 -115.086,-6.314 -115.317,-6.125C-115.549,-5.937 -115.663,-5.64 -115.618,-5.345L-115.096,-1.931L-117.964,-2.673C-118.263,-2.751 -118.581,-2.658 -118.792,-2.432C-119.002,-2.205 -119.072,-1.882 -118.973,-1.589L-118.027,1.221L-121.613,1.01C-121.92,0.991 -122.218,1.145 -122.381,1.41C-122.543,1.674 -122.547,2.007 -122.39,2.276C-122.286,2.453 -121.353,4.032 -120.529,4.807C-119.315,5.948 -117.729,6.577 -116.063,6.577C-115.583,6.577 -115.11,6.52 -114.649,6.417C-110.033,8.311 -109.29,13.99 -108.853,24.603C-109.185,24.833 -109.503,25.091 -109.78,25.409C-110.997,26.803 -111.496,29.38 -111.022,31.821C-110.702,33.471 -109.974,34.762 -108.952,35.551C-108.937,35.776 -108.922,36.005 -108.907,36.259C-108.172,44.516 -109.516,52.184 -112.248,56.385C-112.653,56.315 -113.078,56.272 -113.528,56.272C-115.855,56.272 -118.228,57.325 -120.581,59.401C-123.322,61.817 -124.293,65.017 -123.182,67.96C-122.059,70.932 -119.132,72.928 -115.899,72.928C-114.602,72.928 -113.32,72.612 -112.053,71.969L-110.563,71.101L-110.469,71.034C-109.069,69.849 -107.982,68.796 -107.228,67.503C-105.361,64.283 -105.708,62.079 -106.553,60.467C-105.819,59.53 -104.989,58.601 -104.365,57.904C-104.162,57.676 -103.983,57.476 -103.826,57.298C-102.942,58.587 -102.345,61.398 -101.807,63.935C-101.442,65.655 -101.049,67.465 -100.538,69.195C-101.773,70.054 -103.05,71.311 -104.286,73.14C-106.349,76.198 -106.69,79.535 -105.222,82.298C-103.777,85.016 -100.783,86.774 -97.595,86.774C-95.388,86.774 -93.29,85.953 -91.497,84.37L-90.129,83.01L-90.045,82.911C-88.86,81.231 -87.978,79.782 -87.524,78.167C-86.132,73.164 -88.02,70.836 -89.822,69.366C-90.43,68.873 -91.688,68.144 -93.278,67.758C-93.405,67.016 -93.527,66.286 -93.644,65.572C-94.695,59.174 -95.533,54.071 -100.257,50.87C-100.252,48.831 -100.216,48.554 -100.11,47.718C-100.063,47.352 -100.004,46.886 -99.93,46.157C-99.796,46.126 -99.573,46.092 -99.224,46.092C-98.346,46.092 -97.283,46.29 -96.246,46.611C-95.87,47.585 -95.298,48.516 -94.559,49.563L-93.427,50.699C-92.085,51.883 -90.486,52.508 -88.803,52.508L-88.802,52.508C-86.372,52.508 -84.089,51.169 -82.988,49.096C-81.868,46.991 -82.128,44.445 -83.702,42.114C-86.105,38.555 -88.718,37.807 -90.487,37.807C-92.171,37.807 -93.611,38.473 -94.399,38.997C-95.456,38.803 -96.63,38.704 -97.941,38.704C-98.651,38.704 -99.414,38.731 -100.211,38.788C-100.216,38.736 -100.221,38.683 -100.225,38.632C-100.253,38.291 -100.289,37.864 -100.356,37.329C-100.418,36.838 -100.446,36.538 -100.459,36.355C-99.505,36.149 -98.689,35.869 -98.251,35.532C-97.923,35.278 -97.678,35.012 -97.49,34.753C-97.464,34.754 -97.445,34.759 -97.418,34.759C-97.336,34.759 -97.253,34.756 -97.169,34.749C-93.422,34.454 -90.133,33.888 -87.396,33.067C-82.316,31.544 -78.539,29.225 -76.216,27.505C-76.488,35.086 -77.376,42.403 -78.912,49.651C-78.497,49.587 -78.061,49.571 -77.607,49.614C-75.428,49.819 -74.669,51.57 -74.167,52.727C-73.585,54.07 -73.366,54.29 -72.663,54.271C-72.324,54.264 -71.973,53.725 -71.476,52.905C-70.655,51.549 -69.413,49.507 -66.583,49.855C-64.534,50.112 -63.752,51.686 -63.236,52.729C-62.62,53.972 -62.361,54.365 -61.173,54.307C-60.657,54.284 -60.426,53.985 -59.847,52.897C-59.168,51.624 -58.137,49.698 -55.366,49.866C-53.11,50.001 -52.188,51.582 -51.514,52.736C-50.852,53.87 -50.571,54.237 -49.771,54.242C-49.238,54.232 -49.075,54.089 -48.502,52.946C-47.907,51.756 -47.006,49.956 -44.461,49.683C-43.909,49.625 -43.379,49.641 -42.875,49.722C-44.394,42.598 -45.309,35.253 -45.64,27.608C-43.306,29.317 -39.575,31.575 -34.598,33.067C-30.534,34.286 -25.941,34.724 -22.803,34.878L-22.684,34.88C-22.611,34.88 -22.557,34.83 -22.51,34.759C-22.322,35.016 -22.078,35.28 -21.752,35.531C-21.462,35.755 -21.004,35.953 -20.452,36.122C-21.104,39.284 -22.958,42.577 -25.239,44.149C-25.164,42.36 -25.691,40.607 -26.395,39.735C-26.909,39.098 -27.457,38.966 -27.826,38.966C-28.025,38.966 -28.22,39.003 -28.404,39.079C-28.959,39.305 -29.305,39.713 -29.558,40.01C-29.6,40.059 -29.653,40.122 -29.7,40.174C-29.732,40.157 -29.77,40.135 -29.815,40.106C-31.409,39.075 -34.827,37.395 -37.221,37.271L-37.707,37.244C-38.043,37.223 -38.333,37.207 -38.573,37.207C-38.916,37.207 -39.827,37.207 -40.265,37.994C-40.752,38.868 -40.223,39.843 -39.293,41.346C-37.918,43.569 -37.577,45.315 -37.687,45.846C-37.849,45.923 -38.103,45.987 -38.298,46.036C-38.818,46.169 -39.605,46.37 -39.81,47.18C-39.902,47.547 -39.878,48.106 -39.238,48.695C-38.451,49.419 -35.726,51.297 -32.595,51.298L-32.594,51.298C-32.575,51.298 -32.556,51.296 -32.537,51.296C-31.124,56.151 -30.759,62.923 -30.627,68.595C-31.1,68.651 -31.559,68.712 -31.99,68.773C-32.97,68.91 -33.895,69.041 -34.749,69.041C-35.515,69.041 -36.141,68.939 -36.72,68.72C-37.666,68.362 -38.359,68.631 -38.619,69.394C-39.376,71.624 -36.178,78.558 -30.958,82.569C-27.479,85.239 -22.5,86.897 -17.963,86.897C-15.894,86.897 -14.03,86.548 -12.573,85.887C-11.672,85.477 -12.336,83.978 -13.342,81.709L-13.512,81.326C-16.35,74.888 -17.894,71.712 -21.914,69.838C-22.349,69.635 -22.786,69.459 -23.224,69.3C-23.495,63.718 -23.692,57.964 -22.074,52.199C-21.541,50.298 -20.189,49.446 -19.085,49.446C-18.228,49.446 -17.538,49.936 -17.142,50.824L-16.928,51.303C-15.711,54.034 -14.806,56.063 -14.052,57.658C-15.095,58.843 -15.656,60.044 -16.148,61.099C-16.743,62.374 -17.256,63.474 -18.421,64.189C-19.255,64.701 -19.237,65.282 -19.152,65.583C-18.721,67.106 -14.633,68.393 -10.225,68.393C-8.011,68.393 -5.827,68.07 -3.91,67.459C2.288,65.483 6.049,58.622 6.413,55.339C6.499,54.626 5.563,54.497 4.269,54.319" style="fill:white;fill-rule:nonzero;"/>
                    </g>
                </g>
            </g>
        </g>
    </g>
</svg>
