<?xml version="1.0" encoding="UTF-8" standalone="no"?>
<!DOCTYPE svg PUBLIC "-//W3C//DTD SVG 1.1//EN" "http://www.w3.org/Graphics/SVG/1.1/DTD/svg11.dtd">
<svg width="100%" height="100%" viewBox="0 0 731 224" version="1.1" xmlns="http://www.w3.org/2000/svg" xmlns:xlink="http://www.w3.org/1999/xlink" xml:space="preserve" xmlns:serif="http://www.serif.com/" style="fill-rule:evenodd;clip-rule:evenodd;stroke-linejoin:round;stroke-miterlimit:2;">
    <g transform="matrix(1,0,0,1,-10.58875,-10.52125)">
        <g transform="matrix(4.166667,0,0,4.166667,0,0)">
            <g transform="matrix(0,1,1,0,63.3831,25.427)">
                <rect x="-8.14" y="-13.539" width="21.679" height="5.399" style="fill:rgb(0,112,60);"/>
            </g>
            <g transform="matrix(1,0,0,1,80.4243,24.2263)">
                <path d="M0,8.511L0,13.243C-2.71,14.673 -5.547,15.383 -8.512,15.372C-12.36,15.358 -15.419,14.283 -17.701,12.152C-19.982,10.016 -21.12,7.392 -21.12,4.279C-21.12,1.167 -19.918,-1.47 -17.515,-3.636C-15.112,-5.798 -11.973,-6.872 -8.099,-6.858C-5.007,-6.846 -2.393,-6.202 -0.254,-4.924L-0.254,-0.096C-2.88,-1.588 -5.367,-2.338 -7.712,-2.346C-10.02,-2.355 -11.905,-1.742 -13.365,-0.515C-14.832,0.713 -15.562,2.288 -15.562,4.199C-15.562,6.121 -14.842,7.711 -13.397,8.971C-11.957,10.225 -10.105,10.856 -7.85,10.865C-6.733,10.869 -5.658,10.725 -4.627,10.437C-3.589,10.145 -2.049,9.504 0,8.511" style="fill:rgb(0,112,60);"/>
            </g>
            <g transform="matrix(1,0,0,1,97.9073,25.5373)">
                <path d="M0,5.517L-3.499,-2.912L-6.67,5.493L0,5.517ZM-0.434,-8.077L9.157,13.617L3.356,13.596L1.572,9.302L-8.093,9.267L-9.708,13.549L-15.424,13.528L-6.722,-8.1L-0.434,-8.077Z" style="fill:rgb(0,112,60);"/>
            </g>
            <g transform="matrix(1,0,0,1,114.8445,35.2421)">
                <path d="M0,-13.749L0,-8.826L2.837,-8.816C3.742,-8.813 4.457,-9.022 4.986,-9.449C5.515,-9.876 5.78,-10.489 5.78,-11.283C5.78,-12.913 4.759,-13.732 2.715,-13.739L0,-13.749ZM-5.399,-17.739L4.261,-17.704C6.357,-17.696 8.061,-17.081 9.374,-15.864C10.681,-14.642 11.338,-13.168 11.338,-11.443C11.338,-9.05 10.094,-7.287 7.611,-6.147C8.707,-5.661 9.745,-4.329 10.724,-2.161C11.703,0.013 12.651,2.065 13.561,3.99L7.654,3.969C7.299,3.253 6.68,1.89 5.796,-0.114C4.918,-2.124 4.16,-3.418 3.541,-3.986C2.917,-4.56 2.255,-4.848 1.54,-4.851L0,-4.857L0,3.941L-5.399,3.921L-5.399,-17.739Z" style="fill:rgb(0,112,60);"/>
            </g>
            <g transform="matrix(1,0,0,1,136.6037,35.2991)">
                <path d="M0,-13.727L0,-0.007L3.52,0.005C5.807,0.014 7.553,-0.61 8.76,-1.86C9.972,-3.11 10.576,-4.765 10.576,-6.824C10.576,-8.951 9.962,-10.632 8.739,-11.859C7.511,-13.086 5.754,-13.706 3.456,-13.714L0,-13.727ZM-5.399,-17.717L4.155,-17.682C7.85,-17.669 10.767,-16.647 12.915,-14.617C15.059,-12.593 16.133,-9.974 16.133,-6.772C16.133,-3.41 15.043,-0.779 12.868,1.135C10.692,3.043 7.585,3.99 3.552,3.976L-5.399,3.943L-5.399,-17.717Z" style="fill:rgb(0,112,60);"/>
            </g>
            <g transform="matrix(1,0,0,1,167.9146,25.7915)">
                <path d="M0,5.517L-3.499,-2.912L-6.669,5.493L0,5.517ZM-0.434,-8.077L9.157,13.617L3.356,13.596L1.572,9.302L-8.093,9.267L-9.708,13.549L-15.424,13.528L-6.722,-8.1L-0.434,-8.077Z" style="fill:rgb(0,112,60);"/>
            </g>
            <g transform="matrix(1,0,0,1,6.6313,52.9312)">
                <path d="M0,-4.238C-0.037,-4.174 -0.076,-4.128 -0.117,-4.098C-0.158,-4.069 -0.211,-4.054 -0.272,-4.055C-0.337,-4.055 -0.407,-4.08 -0.482,-4.128C-0.558,-4.176 -0.649,-4.228 -0.754,-4.287C-0.858,-4.346 -0.98,-4.401 -1.12,-4.449C-1.26,-4.497 -1.427,-4.521 -1.617,-4.522C-1.79,-4.522 -1.941,-4.502 -2.07,-4.461C-2.2,-4.42 -2.307,-4.362 -2.395,-4.288C-2.483,-4.215 -2.55,-4.127 -2.593,-4.024C-2.636,-3.921 -2.657,-3.807 -2.657,-3.684C-2.657,-3.527 -2.613,-3.396 -2.525,-3.291C-2.437,-3.186 -2.321,-3.096 -2.177,-3.022C-2.032,-2.947 -1.867,-2.88 -1.682,-2.821C-1.497,-2.762 -1.308,-2.699 -1.114,-2.632C-0.92,-2.565 -0.73,-2.488 -0.545,-2.399C-0.36,-2.311 -0.196,-2.2 -0.051,-2.065C0.094,-1.93 0.211,-1.765 0.299,-1.57C0.386,-1.376 0.43,-1.14 0.43,-0.863C0.43,-0.562 0.379,-0.28 0.276,-0.017C0.173,0.246 0.022,0.475 -0.177,0.67C-0.376,0.865 -0.619,1.018 -0.906,1.13C-1.193,1.241 -1.52,1.297 -1.89,1.296C-2.103,1.295 -2.312,1.272 -2.518,1.23C-2.725,1.188 -2.922,1.129 -3.112,1.051C-3.301,0.973 -3.48,0.88 -3.646,0.772C-3.813,0.663 -3.96,0.543 -4.09,0.41L-3.725,-0.185C-3.694,-0.228 -3.654,-0.265 -3.604,-0.294C-3.555,-0.323 -3.503,-0.337 -3.447,-0.337C-3.37,-0.336 -3.287,-0.305 -3.198,-0.242C-3.109,-0.178 -3.002,-0.107 -2.879,-0.03C-2.756,0.048 -2.611,0.118 -2.446,0.182C-2.281,0.245 -2.084,0.278 -1.853,0.279C-1.499,0.281 -1.225,0.197 -1.03,0.03C-0.836,-0.138 -0.739,-0.377 -0.739,-0.692C-0.739,-0.868 -0.782,-1.011 -0.87,-1.122C-0.958,-1.234 -1.075,-1.328 -1.22,-1.404C-1.365,-1.48 -1.53,-1.544 -1.714,-1.597C-1.899,-1.649 -2.087,-1.707 -2.278,-1.77C-2.469,-1.832 -2.657,-1.907 -2.842,-1.993C-3.027,-2.08 -3.192,-2.193 -3.337,-2.332C-3.481,-2.472 -3.597,-2.646 -3.684,-2.855C-3.772,-3.063 -3.817,-3.319 -3.817,-3.624C-3.817,-3.867 -3.768,-4.104 -3.671,-4.335C-3.574,-4.566 -3.434,-4.77 -3.249,-4.948C-3.064,-5.126 -2.836,-5.268 -2.565,-5.375C-2.294,-5.482 -1.982,-5.535 -1.631,-5.533C-1.237,-5.532 -0.874,-5.469 -0.541,-5.344C-0.208,-5.22 0.076,-5.047 0.309,-4.824L0,-4.238Z" style="fill:rgb(0,112,60);"/>
            </g>
            <g transform="matrix(1,0,0,1,10.9226,53.108)">
                <path d="M0,-2.72C-0.034,-2.677 -0.066,-2.643 -0.099,-2.619C-0.131,-2.594 -0.179,-2.582 -0.24,-2.582C-0.299,-2.582 -0.356,-2.601 -0.412,-2.637C-0.467,-2.672 -0.533,-2.712 -0.61,-2.758C-0.687,-2.802 -0.778,-2.843 -0.884,-2.879C-0.991,-2.915 -1.123,-2.932 -1.28,-2.932C-1.48,-2.933 -1.656,-2.898 -1.807,-2.826C-1.958,-2.755 -2.083,-2.65 -2.183,-2.515C-2.283,-2.38 -2.359,-2.217 -2.408,-2.024C-2.457,-1.832 -2.481,-1.614 -2.481,-1.37C-2.481,-1.118 -2.454,-0.893 -2.4,-0.695C-2.346,-0.498 -2.269,-0.333 -2.167,-0.199C-2.066,-0.064 -1.942,0.038 -1.797,0.108C-1.653,0.178 -1.49,0.214 -1.308,0.215C-1.126,0.215 -0.978,0.193 -0.866,0.148C-0.753,0.104 -0.659,0.055 -0.582,0.002C-0.505,-0.052 -0.438,-0.101 -0.38,-0.146C-0.324,-0.19 -0.26,-0.212 -0.189,-0.211C-0.097,-0.211 -0.028,-0.175 0.018,-0.104L0.347,0.313C0.22,0.46 0.083,0.583 -0.065,0.683C-0.213,0.782 -0.365,0.862 -0.524,0.921C-0.683,0.981 -0.846,1.023 -1.014,1.047C-1.182,1.071 -1.35,1.083 -1.516,1.082C-1.808,1.081 -2.084,1.025 -2.343,0.915C-2.602,0.805 -2.828,0.645 -3.022,0.435C-3.216,0.224 -3.369,-0.033 -3.481,-0.337C-3.594,-0.641 -3.651,-0.986 -3.651,-1.375C-3.651,-1.722 -3.6,-2.046 -3.5,-2.343C-3.4,-2.64 -3.253,-2.896 -3.059,-3.113C-2.865,-3.329 -2.625,-3.498 -2.338,-3.62C-2.052,-3.743 -1.722,-3.803 -1.35,-3.801C-0.995,-3.8 -0.684,-3.742 -0.418,-3.627C-0.151,-3.512 0.088,-3.348 0.3,-3.135L0,-2.72" style="fill:rgb(0,112,60);"/>
            </g>
            <g transform="matrix(1,0,0,1,13.4623,53.5474)">
                <path d="M0,-5.389C0,-5.29 -0.02,-5.198 -0.06,-5.112C-0.1,-5.026 -0.152,-4.951 -0.219,-4.886C-0.285,-4.821 -0.363,-4.771 -0.453,-4.733C-0.542,-4.695 -0.638,-4.675 -0.739,-4.675C-0.838,-4.675 -0.93,-4.696 -1.018,-4.735C-1.106,-4.774 -1.183,-4.825 -1.248,-4.89C-1.312,-4.955 -1.363,-5.03 -1.402,-5.117C-1.44,-5.203 -1.46,-5.295 -1.46,-5.394C-1.46,-5.496 -1.44,-5.591 -1.402,-5.681C-1.363,-5.77 -1.312,-5.846 -1.248,-5.911C-1.183,-5.976 -1.106,-6.027 -1.018,-6.066C-0.93,-6.104 -0.838,-6.122 -0.739,-6.122C-0.638,-6.121 -0.542,-6.102 -0.453,-6.064C-0.363,-6.025 -0.285,-5.972 -0.219,-5.907C-0.152,-5.842 -0.1,-5.765 -0.06,-5.676C-0.02,-5.586 0,-5.491 0,-5.389M-1.303,0.729L-0.157,0.733L-0.157,-4.008L-1.303,-4.012L-1.303,0.729Z" style="fill:rgb(0,112,60);"/>
            </g>
            <g transform="matrix(1,0,0,1,16.6685,53.3982)">
                <path d="M0,-3.248C-0.333,-3.249 -0.593,-3.156 -0.781,-2.969C-0.969,-2.782 -1.089,-2.515 -1.141,-2.171L1.012,-2.163C1.012,-2.311 0.992,-2.451 0.95,-2.582C0.909,-2.713 0.846,-2.827 0.763,-2.926C0.679,-3.025 0.575,-3.104 0.447,-3.162C0.319,-3.219 0.169,-3.247 0,-3.248M-0.023,-4.066C0.276,-4.065 0.552,-4.016 0.804,-3.92C1.057,-3.823 1.274,-3.684 1.456,-3.5C1.637,-3.316 1.78,-3.091 1.884,-2.823C1.987,-2.557 2.038,-2.251 2.038,-1.909C2.038,-1.737 2.019,-1.621 1.982,-1.562C1.946,-1.502 1.875,-1.471 1.77,-1.472L-1.165,-1.482C-1.146,-1.239 -1.103,-1.029 -1.035,-0.852C-0.967,-0.674 -0.878,-0.528 -0.767,-0.412C-0.656,-0.296 -0.524,-0.209 -0.371,-0.151C-0.219,-0.094 -0.051,-0.064 0.134,-0.064C0.319,-0.063 0.479,-0.084 0.613,-0.126C0.747,-0.169 0.864,-0.217 0.964,-0.268C1.064,-0.32 1.152,-0.368 1.228,-0.411C1.303,-0.453 1.376,-0.475 1.447,-0.475C1.542,-0.474 1.613,-0.439 1.659,-0.367L1.987,0.05C1.861,0.197 1.719,0.32 1.562,0.419C1.405,0.519 1.242,0.598 1.07,0.658C0.9,0.717 0.726,0.76 0.548,0.784C0.371,0.808 0.199,0.819 0.032,0.819C-0.297,0.818 -0.604,0.761 -0.887,0.651C-1.171,0.54 -1.417,0.378 -1.627,0.163C-1.836,-0.052 -2.001,-0.318 -2.121,-0.634C-2.241,-0.95 -2.301,-1.316 -2.301,-1.731C-2.301,-2.055 -2.249,-2.359 -2.144,-2.644C-2.039,-2.929 -1.889,-3.176 -1.693,-3.387C-1.497,-3.597 -1.259,-3.762 -0.977,-3.884C-0.695,-4.007 -0.377,-4.067 -0.023,-4.066" style="fill:rgb(0,112,60);"/>
            </g>
            <g transform="matrix(1,0,0,1,19.5705,49.3662)">
                <path d="M0,4.792L0,0.05L0.698,0.053C0.846,0.053 0.943,0.123 0.989,0.262L1.067,0.637C1.163,0.539 1.264,0.449 1.371,0.37C1.477,0.29 1.589,0.221 1.708,0.163C1.827,0.105 1.953,0.061 2.088,0.031C2.224,-0 2.372,-0.015 2.532,-0.014C2.791,-0.013 3.021,0.031 3.221,0.119C3.421,0.208 3.589,0.332 3.723,0.491C3.857,0.65 3.959,0.84 4.028,1.06C4.097,1.281 4.131,1.524 4.131,1.789L4.131,4.807L2.99,4.803L2.99,1.785C2.99,1.495 2.923,1.271 2.791,1.111C2.658,0.952 2.457,0.873 2.186,0.872C1.989,0.871 1.804,0.915 1.631,1.004C1.459,1.093 1.295,1.214 1.141,1.367L1.141,4.796L0,4.792" style="fill:rgb(0,112,60);"/>
            </g>
            <g transform="matrix(1,0,0,1,27.9516,53.1699)">
                <path d="M0,-2.72C-0.034,-2.677 -0.066,-2.643 -0.099,-2.619C-0.131,-2.594 -0.179,-2.582 -0.24,-2.582C-0.299,-2.582 -0.356,-2.601 -0.412,-2.637C-0.467,-2.672 -0.533,-2.712 -0.61,-2.758C-0.687,-2.802 -0.778,-2.843 -0.884,-2.879C-0.991,-2.915 -1.123,-2.932 -1.28,-2.932C-1.48,-2.933 -1.656,-2.898 -1.807,-2.826C-1.958,-2.755 -2.083,-2.65 -2.183,-2.515C-2.283,-2.38 -2.359,-2.217 -2.408,-2.024C-2.457,-1.832 -2.481,-1.614 -2.481,-1.37C-2.481,-1.118 -2.454,-0.893 -2.4,-0.695C-2.346,-0.498 -2.269,-0.333 -2.167,-0.199C-2.066,-0.064 -1.943,0.038 -1.797,0.108C-1.653,0.178 -1.49,0.214 -1.308,0.215C-1.126,0.215 -0.978,0.193 -0.866,0.148C-0.754,0.104 -0.659,0.055 -0.582,0.002C-0.505,-0.052 -0.438,-0.101 -0.381,-0.146C-0.324,-0.19 -0.261,-0.212 -0.19,-0.211C-0.097,-0.211 -0.028,-0.175 0.018,-0.104L0.346,0.313C0.22,0.46 0.083,0.583 -0.065,0.683C-0.213,0.782 -0.365,0.862 -0.524,0.921C-0.683,0.981 -0.846,1.023 -1.014,1.047C-1.182,1.071 -1.35,1.083 -1.516,1.082C-1.808,1.081 -2.084,1.025 -2.343,0.915C-2.602,0.805 -2.828,0.645 -3.022,0.435C-3.217,0.224 -3.369,-0.033 -3.481,-0.337C-3.594,-0.641 -3.651,-0.986 -3.651,-1.375C-3.651,-1.722 -3.6,-2.046 -3.5,-2.343C-3.4,-2.64 -3.253,-2.896 -3.06,-3.113C-2.865,-3.329 -2.625,-3.498 -2.338,-3.62C-2.052,-3.743 -1.722,-3.803 -1.35,-3.802C-0.995,-3.8 -0.684,-3.742 -0.418,-3.627C-0.151,-3.512 0.088,-3.348 0.3,-3.135L0,-2.72" style="fill:rgb(0,112,60);"/>
            </g>
            <g transform="matrix(1,0,0,1,31.3323,53.4514)">
                <path d="M0,-3.248C-0.333,-3.249 -0.593,-3.156 -0.781,-2.969C-0.969,-2.782 -1.089,-2.515 -1.141,-2.171L1.012,-2.163C1.012,-2.311 0.992,-2.451 0.951,-2.582C0.909,-2.713 0.846,-2.827 0.763,-2.926C0.679,-3.025 0.575,-3.104 0.447,-3.162C0.319,-3.219 0.169,-3.247 0,-3.248M-0.023,-4.066C0.276,-4.065 0.552,-4.016 0.804,-3.92C1.057,-3.823 1.274,-3.684 1.456,-3.5C1.638,-3.316 1.781,-3.091 1.884,-2.823C1.987,-2.557 2.038,-2.251 2.038,-1.909C2.038,-1.737 2.019,-1.622 1.982,-1.562C1.946,-1.502 1.875,-1.471 1.77,-1.472L-1.165,-1.482C-1.146,-1.239 -1.103,-1.029 -1.035,-0.852C-0.967,-0.674 -0.878,-0.528 -0.767,-0.412C-0.656,-0.296 -0.524,-0.209 -0.371,-0.152C-0.219,-0.094 -0.051,-0.064 0.134,-0.064C0.319,-0.063 0.479,-0.084 0.613,-0.126C0.747,-0.169 0.864,-0.217 0.964,-0.268C1.064,-0.32 1.152,-0.368 1.228,-0.411C1.303,-0.453 1.376,-0.475 1.447,-0.475C1.542,-0.474 1.613,-0.439 1.659,-0.367L1.987,0.05C1.861,0.197 1.719,0.32 1.562,0.419C1.405,0.519 1.242,0.598 1.07,0.658C0.9,0.717 0.726,0.76 0.548,0.784C0.371,0.808 0.199,0.819 0.033,0.819C-0.297,0.818 -0.604,0.761 -0.887,0.651C-1.171,0.54 -1.417,0.378 -1.627,0.163C-1.836,-0.052 -2.001,-0.318 -2.121,-0.634C-2.241,-0.95 -2.301,-1.316 -2.301,-1.731C-2.301,-2.055 -2.249,-2.359 -2.144,-2.644C-2.039,-2.929 -1.888,-3.176 -1.693,-3.387C-1.497,-3.597 -1.258,-3.762 -0.976,-3.884C-0.694,-4.007 -0.377,-4.067 -0.023,-4.066" style="fill:rgb(0,112,60);"/>
            </g>
            <g transform="matrix(1,0,0,1,36.3601,47.5215)">
                <path d="M0,6.788L0,2.906L-0.411,2.84C-0.5,2.821 -0.571,2.788 -0.625,2.744C-0.679,2.699 -0.707,2.636 -0.707,2.552L-0.707,2.085L0,2.088L0,1.737C0,1.466 0.042,1.223 0.123,1.007C0.205,0.792 0.322,0.609 0.474,0.459C0.627,0.308 0.812,0.193 1.031,0.114C1.249,0.035 1.496,-0.004 1.77,-0.003C1.989,-0.003 2.192,0.027 2.38,0.087L2.357,0.66C2.354,0.703 2.341,0.737 2.32,0.763C2.298,0.789 2.271,0.809 2.235,0.822C2.2,0.836 2.158,0.845 2.112,0.85C2.066,0.854 2.016,0.857 1.964,0.857C1.829,0.856 1.709,0.87 1.602,0.899C1.496,0.927 1.405,0.978 1.331,1.05C1.257,1.122 1.202,1.218 1.163,1.336C1.125,1.454 1.105,1.602 1.105,1.778L1.105,2.092L2.339,2.097L2.339,2.91L1.141,2.906L1.141,6.792L0,6.788" style="fill:rgb(0,112,60);"/>
            </g>
            <g transform="matrix(1,0,0,1,41.3169,50.2993)">
                <path d="M0,3.129C0.395,3.13 0.687,2.999 0.877,2.735C1.066,2.471 1.16,2.083 1.16,1.571C1.16,1.06 1.066,0.67 0.877,0.401C0.687,0.133 0.395,-0.003 0,-0.004C-0.401,-0.006 -0.696,0.127 -0.889,0.396C-1.081,0.665 -1.178,1.054 -1.178,1.563C-1.178,2.071 -1.081,2.458 -0.889,2.725C-0.696,2.993 -0.401,3.128 0,3.129M0,-0.878C0.351,-0.876 0.672,-0.818 0.96,-0.703C1.248,-0.588 1.494,-0.426 1.699,-0.215C1.904,-0.005 2.061,0.251 2.172,0.554C2.283,0.856 2.338,1.193 2.338,1.566C2.338,1.942 2.283,2.281 2.172,2.583C2.061,2.884 1.904,3.141 1.699,3.352C1.494,3.564 1.248,3.727 0.96,3.84C0.672,3.953 0.351,4.008 0,4.007C-0.354,4.006 -0.676,3.948 -0.966,3.833C-1.255,3.718 -1.502,3.554 -1.707,3.34C-1.911,3.127 -2.07,2.869 -2.183,2.567C-2.295,2.264 -2.352,1.925 -2.352,1.549C-2.352,1.176 -2.295,0.839 -2.183,0.538C-2.07,0.236 -1.911,-0.019 -1.707,-0.228C-1.502,-0.436 -1.255,-0.597 -0.966,-0.71C-0.676,-0.823 -0.354,-0.879 0,-0.878" style="fill:rgb(0,112,60);"/>
            </g>
            <g transform="matrix(1,0,0,1,44.6408,49.445)">
                <path d="M0,4.818L0,0.076L0.67,0.079C0.787,0.079 0.868,0.1 0.915,0.141C0.961,0.183 0.992,0.259 1.007,0.367L1.072,0.903C1.223,0.62 1.4,0.397 1.604,0.236C1.806,0.075 2.047,-0.004 2.324,-0.003C2.543,-0.002 2.718,0.047 2.851,0.143L2.777,0.997C2.762,1.052 2.74,1.091 2.711,1.114C2.682,1.137 2.642,1.149 2.592,1.149C2.546,1.149 2.478,1.141 2.387,1.125C2.297,1.109 2.207,1.101 2.121,1.101C1.995,1.101 1.882,1.119 1.784,1.155C1.685,1.192 1.597,1.244 1.519,1.313C1.44,1.382 1.371,1.466 1.311,1.565C1.251,1.663 1.193,1.776 1.141,1.902L1.141,4.822L0,4.818" style="fill:rgb(0,112,60);"/>
            </g>
            <g transform="matrix(1,0,0,1,50.3172,49.4656)">
                <path d="M0,4.818L0,0.076L0.67,0.079C0.787,0.079 0.869,0.1 0.915,0.141C0.961,0.183 0.992,0.259 1.008,0.367L1.072,0.903C1.223,0.62 1.4,0.397 1.604,0.236C1.807,0.075 2.047,-0.004 2.324,-0.003C2.543,-0.002 2.719,0.047 2.851,0.143L2.778,0.997C2.762,1.052 2.741,1.091 2.711,1.114C2.682,1.137 2.642,1.149 2.593,1.149C2.546,1.149 2.479,1.141 2.388,1.125C2.297,1.109 2.208,1.101 2.122,1.101C1.995,1.101 1.883,1.119 1.784,1.155C1.685,1.192 1.597,1.244 1.519,1.313C1.44,1.382 1.371,1.466 1.311,1.565C1.251,1.663 1.194,1.776 1.141,1.902L1.141,4.822L0,4.818" style="fill:rgb(0,112,60);"/>
            </g>
            <g transform="matrix(1,0,0,1,55.4566,53.539)">
                <path d="M0,-3.248C-0.333,-3.249 -0.593,-3.156 -0.781,-2.969C-0.969,-2.782 -1.089,-2.515 -1.141,-2.171L1.012,-2.163C1.012,-2.311 0.992,-2.451 0.95,-2.582C0.909,-2.713 0.846,-2.827 0.763,-2.926C0.679,-3.025 0.575,-3.104 0.447,-3.162C0.319,-3.219 0.169,-3.247 0,-3.248M-0.023,-4.066C0.276,-4.065 0.552,-4.016 0.804,-3.92C1.057,-3.823 1.274,-3.684 1.456,-3.5C1.638,-3.316 1.781,-3.091 1.884,-2.823C1.987,-2.557 2.038,-2.252 2.038,-1.91C2.038,-1.737 2.019,-1.622 1.982,-1.562C1.946,-1.502 1.875,-1.471 1.77,-1.472L-1.165,-1.482C-1.146,-1.239 -1.103,-1.029 -1.035,-0.852C-0.967,-0.674 -0.878,-0.528 -0.767,-0.412C-0.656,-0.296 -0.524,-0.209 -0.371,-0.152C-0.219,-0.094 -0.051,-0.064 0.134,-0.064C0.319,-0.063 0.479,-0.084 0.613,-0.126C0.747,-0.169 0.864,-0.217 0.965,-0.268C1.064,-0.32 1.152,-0.368 1.228,-0.411C1.303,-0.453 1.376,-0.475 1.447,-0.475C1.542,-0.474 1.613,-0.439 1.659,-0.367L1.987,0.05C1.861,0.197 1.719,0.32 1.562,0.419C1.405,0.519 1.242,0.598 1.07,0.658C0.9,0.717 0.726,0.76 0.548,0.784C0.371,0.808 0.199,0.819 0.032,0.819C-0.297,0.818 -0.604,0.761 -0.887,0.651C-1.171,0.54 -1.417,0.378 -1.627,0.163C-1.836,-0.052 -2.001,-0.318 -2.121,-0.634C-2.241,-0.95 -2.301,-1.316 -2.301,-1.731C-2.301,-2.055 -2.249,-2.359 -2.144,-2.644C-2.039,-2.929 -1.888,-3.176 -1.693,-3.387C-1.497,-3.597 -1.258,-3.762 -0.977,-3.884C-0.694,-4.007 -0.377,-4.067 -0.023,-4.066" style="fill:rgb(0,112,60);"/>
            </g>
            <g transform="matrix(1,0,0,1,61.5884,53.3755)">
                <path d="M0,-2.882C-0.031,-2.833 -0.063,-2.799 -0.097,-2.779C-0.131,-2.759 -0.174,-2.749 -0.226,-2.749C-0.281,-2.749 -0.34,-2.765 -0.403,-2.795C-0.466,-2.826 -0.541,-2.862 -0.624,-2.901C-0.707,-2.94 -0.801,-2.974 -0.907,-3.005C-1.013,-3.037 -1.14,-3.053 -1.285,-3.053C-1.509,-3.054 -1.685,-3.007 -1.813,-2.912C-1.941,-2.817 -2.005,-2.692 -2.005,-2.538C-2.005,-2.436 -1.972,-2.351 -1.905,-2.282C-1.839,-2.212 -1.751,-2.15 -1.642,-2.098C-1.533,-2.045 -1.409,-1.998 -1.271,-1.956C-1.132,-1.914 -0.991,-1.867 -0.847,-1.817C-0.704,-1.768 -0.564,-1.712 -0.425,-1.648C-0.286,-1.585 -0.161,-1.504 -0.052,-1.406C0.057,-1.309 0.145,-1.192 0.211,-1.056C0.278,-0.92 0.31,-0.757 0.31,-0.565C0.31,-0.338 0.27,-0.128 0.188,0.064C0.106,0.256 -0.015,0.422 -0.175,0.562C-0.335,0.701 -0.533,0.81 -0.768,0.888C-1.004,0.965 -1.277,1.004 -1.585,1.003C-1.748,1.003 -1.907,0.987 -2.062,0.957C-2.218,0.927 -2.367,0.887 -2.51,0.833C-2.654,0.781 -2.787,0.718 -2.908,0.647C-3.03,0.576 -3.138,0.499 -3.23,0.415L-2.967,-0.018C-2.933,-0.071 -2.893,-0.111 -2.847,-0.138C-2.8,-0.166 -2.742,-0.179 -2.671,-0.179C-2.6,-0.179 -2.532,-0.159 -2.469,-0.118C-2.406,-0.078 -2.333,-0.034 -2.25,0.012C-2.167,0.059 -2.069,0.102 -1.956,0.143C-1.844,0.183 -1.702,0.204 -1.529,0.204C-1.394,0.205 -1.277,0.188 -1.18,0.156C-1.083,0.124 -1.003,0.083 -0.939,0.031C-0.877,-0.021 -0.83,-0.083 -0.801,-0.152C-0.772,-0.222 -0.758,-0.292 -0.758,-0.366C-0.758,-0.477 -0.79,-0.568 -0.856,-0.639C-0.922,-0.71 -1.01,-0.772 -1.12,-0.825C-1.229,-0.878 -1.354,-0.926 -1.494,-0.968C-1.634,-1.01 -1.778,-1.055 -1.924,-1.105C-2.07,-1.155 -2.213,-1.214 -2.354,-1.281C-2.494,-1.348 -2.619,-1.431 -2.728,-1.533C-2.837,-1.635 -2.925,-1.76 -2.991,-1.908C-3.058,-2.056 -3.091,-2.235 -3.091,-2.445C-3.091,-2.639 -3.053,-2.824 -2.976,-2.999C-2.899,-3.174 -2.785,-3.328 -2.635,-3.458C-2.486,-3.589 -2.3,-3.693 -2.076,-3.77C-1.853,-3.848 -1.596,-3.886 -1.303,-3.885C-0.976,-3.884 -0.679,-3.829 -0.411,-3.72C-0.143,-3.611 0.08,-3.468 0.259,-3.292L0,-2.882" style="fill:rgb(0,112,60);"/>
            </g>
            <g transform="matrix(1,0,0,1,64.076,53.7312)">
                <path d="M0,-5.389C0,-5.29 -0.02,-5.198 -0.06,-5.112C-0.1,-5.026 -0.152,-4.951 -0.219,-4.886C-0.285,-4.821 -0.363,-4.771 -0.453,-4.733C-0.542,-4.695 -0.638,-4.675 -0.739,-4.675C-0.838,-4.675 -0.93,-4.696 -1.018,-4.735C-1.106,-4.774 -1.183,-4.825 -1.248,-4.89C-1.312,-4.955 -1.363,-5.03 -1.402,-5.117C-1.44,-5.203 -1.46,-5.295 -1.46,-5.394C-1.46,-5.496 -1.44,-5.591 -1.402,-5.681C-1.363,-5.77 -1.312,-5.846 -1.248,-5.911C-1.183,-5.976 -1.106,-6.027 -1.018,-6.066C-0.93,-6.104 -0.838,-6.122 -0.739,-6.122C-0.638,-6.121 -0.542,-6.102 -0.453,-6.064C-0.363,-6.025 -0.285,-5.972 -0.219,-5.907C-0.152,-5.842 -0.1,-5.765 -0.06,-5.676C-0.02,-5.586 0,-5.491 0,-5.389M-1.303,0.729L-0.157,0.733L-0.157,-4.008L-1.303,-4.012L-1.303,0.729Z" style="fill:rgb(0,112,60);"/>
            </g>
            <g transform="matrix(0,1,1,0,68.9869,50.4806)">
                <rect x="-2.865" y="-4.006" width="6.871" height="1.141" style="fill:rgb(0,112,60);"/>
            </g>
            <g transform="matrix(1,0,0,1,68.3328,53.7466)">
                <path d="M0,-5.389C0,-5.29 -0.02,-5.198 -0.06,-5.112C-0.1,-5.026 -0.152,-4.951 -0.219,-4.886C-0.285,-4.821 -0.363,-4.771 -0.453,-4.733C-0.542,-4.695 -0.638,-4.675 -0.739,-4.675C-0.838,-4.675 -0.93,-4.696 -1.018,-4.735C-1.106,-4.774 -1.183,-4.825 -1.247,-4.89C-1.312,-4.955 -1.363,-5.03 -1.402,-5.117C-1.44,-5.203 -1.46,-5.295 -1.46,-5.394C-1.46,-5.496 -1.44,-5.591 -1.402,-5.681C-1.363,-5.77 -1.312,-5.846 -1.247,-5.911C-1.183,-5.976 -1.106,-6.027 -1.018,-6.066C-0.93,-6.104 -0.838,-6.122 -0.739,-6.122C-0.638,-6.121 -0.542,-6.102 -0.453,-6.064C-0.363,-6.025 -0.285,-5.972 -0.219,-5.907C-0.152,-5.842 -0.1,-5.765 -0.06,-5.676C-0.02,-5.586 0,-5.491 0,-5.389M-1.303,0.729L-0.157,0.733L-0.157,-4.008L-1.303,-4.012L-1.303,0.729Z" style="fill:rgb(0,112,60);"/>
            </g>
            <g transform="matrix(1,0,0,1,71.5394,53.5974)">
                <path d="M0,-3.248C-0.333,-3.249 -0.593,-3.156 -0.781,-2.969C-0.969,-2.782 -1.089,-2.515 -1.141,-2.171L1.012,-2.163C1.012,-2.311 0.992,-2.451 0.951,-2.582C0.909,-2.713 0.846,-2.827 0.763,-2.926C0.68,-3.025 0.575,-3.104 0.447,-3.162C0.319,-3.219 0.169,-3.247 0,-3.248M-0.023,-4.066C0.276,-4.065 0.552,-4.016 0.804,-3.92C1.057,-3.823 1.274,-3.684 1.456,-3.5C1.638,-3.316 1.781,-3.091 1.884,-2.823C1.987,-2.557 2.038,-2.251 2.038,-1.909C2.038,-1.737 2.019,-1.621 1.982,-1.562C1.946,-1.502 1.875,-1.471 1.77,-1.472L-1.164,-1.482C-1.146,-1.239 -1.103,-1.029 -1.035,-0.852C-0.967,-0.674 -0.878,-0.528 -0.767,-0.412C-0.656,-0.296 -0.524,-0.209 -0.371,-0.151C-0.219,-0.094 -0.051,-0.064 0.134,-0.064C0.319,-0.063 0.479,-0.084 0.613,-0.126C0.747,-0.169 0.864,-0.217 0.964,-0.268C1.065,-0.32 1.152,-0.368 1.228,-0.411C1.303,-0.453 1.376,-0.475 1.447,-0.475C1.542,-0.474 1.613,-0.439 1.659,-0.367L1.987,0.05C1.861,0.197 1.719,0.32 1.562,0.419C1.405,0.519 1.242,0.598 1.071,0.658C0.9,0.717 0.726,0.76 0.549,0.784C0.371,0.808 0.199,0.819 0.033,0.819C-0.297,0.818 -0.604,0.761 -0.887,0.651C-1.17,0.54 -1.417,0.378 -1.627,0.163C-1.836,-0.052 -2.001,-0.318 -2.121,-0.634C-2.241,-0.95 -2.301,-1.316 -2.301,-1.731C-2.301,-2.055 -2.249,-2.359 -2.144,-2.644C-2.039,-2.929 -1.888,-3.176 -1.693,-3.387C-1.497,-3.597 -1.258,-3.762 -0.976,-3.884C-0.694,-4.007 -0.377,-4.067 -0.023,-4.066" style="fill:rgb(0,112,60);"/>
            </g>
            <g transform="matrix(1,0,0,1,74.4415,49.5654)">
                <path d="M0,4.792L0,0.05L0.698,0.053C0.846,0.053 0.943,0.123 0.989,0.262L1.068,0.637C1.163,0.539 1.265,0.449 1.371,0.37C1.477,0.29 1.59,0.221 1.709,0.163C1.827,0.105 1.953,0.061 2.089,0.031C2.224,-0 2.372,-0.015 2.533,-0.014C2.791,-0.013 3.021,0.031 3.221,0.119C3.421,0.208 3.589,0.332 3.723,0.491C3.857,0.65 3.959,0.84 4.028,1.06C4.097,1.281 4.131,1.524 4.131,1.789L4.131,4.807L2.99,4.803L2.99,1.785C2.99,1.495 2.924,1.271 2.791,1.111C2.659,0.952 2.457,0.873 2.186,0.872C1.989,0.871 1.804,0.915 1.631,1.004C1.459,1.093 1.296,1.214 1.141,1.367L1.141,4.796L0,4.792" style="fill:rgb(0,112,60);"/>
            </g>
            <g transform="matrix(1,0,0,1,81.1584,48.1455)">
                <path d="M0,6.268C-0.412,6.266 -0.728,6.148 -0.949,5.915C-1.169,5.681 -1.28,5.361 -1.28,4.951L-1.28,2.303L-1.765,2.301C-1.827,2.301 -1.879,2.281 -1.922,2.241C-1.965,2.2 -1.987,2.14 -1.987,2.06L-1.987,1.607L-1.225,1.486L-0.984,0.192C-0.969,0.131 -0.939,0.083 -0.896,0.049C-0.853,0.016 -0.798,-0.001 -0.73,-0.001L-0.139,0.001L-0.139,1.494L1.128,1.498L1.128,2.312L-0.139,2.307L-0.139,4.876C-0.139,5.024 -0.102,5.14 -0.029,5.223C0.043,5.307 0.142,5.349 0.268,5.349C0.339,5.35 0.399,5.34 0.447,5.324C0.495,5.307 0.536,5.29 0.571,5.272C0.607,5.254 0.638,5.235 0.666,5.218C0.693,5.201 0.721,5.194 0.749,5.194C0.782,5.194 0.81,5.202 0.832,5.219C0.853,5.236 0.877,5.262 0.901,5.296L1.243,5.852C1.077,5.99 0.886,6.094 0.67,6.164C0.455,6.234 0.231,6.269 0,6.268" style="fill:rgb(0,112,60);"/>
            </g>
            <g transform="matrix(0,1,1,0,89.327,50.5544)">
                <rect x="-2.865" y="-4.006" width="6.871" height="1.141" style="fill:rgb(0,112,60);"/>
            </g>
            <g transform="matrix(1,0,0,1,89.1464,53.8222)">
                <path d="M0,-5.389C0,-5.29 -0.02,-5.198 -0.06,-5.112C-0.1,-5.026 -0.152,-4.951 -0.219,-4.886C-0.285,-4.821 -0.363,-4.771 -0.453,-4.733C-0.542,-4.695 -0.638,-4.675 -0.739,-4.675C-0.838,-4.675 -0.93,-4.696 -1.018,-4.735C-1.106,-4.774 -1.183,-4.825 -1.248,-4.89C-1.313,-4.955 -1.363,-5.03 -1.402,-5.117C-1.44,-5.203 -1.46,-5.295 -1.46,-5.394C-1.46,-5.496 -1.44,-5.591 -1.402,-5.681C-1.363,-5.77 -1.313,-5.846 -1.248,-5.911C-1.183,-5.976 -1.106,-6.027 -1.018,-6.066C-0.93,-6.104 -0.838,-6.122 -0.739,-6.122C-0.638,-6.121 -0.542,-6.102 -0.453,-6.064C-0.363,-6.025 -0.285,-5.972 -0.219,-5.907C-0.152,-5.842 -0.1,-5.765 -0.06,-5.676C-0.02,-5.586 0,-5.491 0,-5.389M-1.303,0.729L-0.157,0.733L-0.157,-4.008L-1.303,-4.012L-1.303,0.729Z" style="fill:rgb(0,112,60);"/>
            </g>
            <g transform="matrix(1,0,0,1,89.5783,54.349)">
                <path d="M0,-4.752L0.943,-4.749C1.029,-4.748 1.101,-4.728 1.158,-4.688C1.215,-4.647 1.252,-4.596 1.271,-4.535L2.186,-1.999C2.235,-1.851 2.278,-1.706 2.314,-1.564C2.349,-1.422 2.382,-1.28 2.412,-1.139C2.443,-1.28 2.477,-1.422 2.514,-1.563C2.551,-1.705 2.595,-1.85 2.648,-1.997L3.581,-4.526C3.603,-4.588 3.641,-4.639 3.697,-4.679C3.753,-4.718 3.819,-4.738 3.895,-4.738L4.797,-4.735L2.916,0L1.881,-0.004L0,-4.752Z" style="fill:rgb(0,112,60);"/>
            </g>
            <g transform="matrix(1,0,0,1,96.6098,53.6884)">
                <path d="M0,-3.248C-0.333,-3.249 -0.593,-3.156 -0.781,-2.969C-0.969,-2.782 -1.089,-2.515 -1.141,-2.171L1.012,-2.163C1.012,-2.311 0.992,-2.451 0.95,-2.582C0.909,-2.713 0.846,-2.827 0.763,-2.926C0.679,-3.025 0.574,-3.104 0.447,-3.162C0.319,-3.219 0.169,-3.247 0,-3.248M-0.023,-4.066C0.276,-4.065 0.551,-4.016 0.804,-3.92C1.056,-3.823 1.274,-3.684 1.456,-3.5C1.637,-3.316 1.78,-3.091 1.884,-2.823C1.987,-2.557 2.038,-2.252 2.038,-1.909C2.038,-1.737 2.019,-1.622 1.982,-1.562C1.946,-1.502 1.875,-1.471 1.77,-1.472L-1.165,-1.482C-1.146,-1.239 -1.103,-1.029 -1.035,-0.852C-0.967,-0.674 -0.878,-0.528 -0.767,-0.412C-0.657,-0.296 -0.524,-0.209 -0.371,-0.152C-0.219,-0.094 -0.051,-0.064 0.134,-0.064C0.319,-0.063 0.479,-0.084 0.613,-0.126C0.747,-0.169 0.864,-0.217 0.964,-0.268C1.064,-0.32 1.152,-0.368 1.228,-0.411C1.303,-0.453 1.376,-0.475 1.446,-0.475C1.542,-0.474 1.613,-0.439 1.659,-0.367L1.987,0.05C1.86,0.197 1.719,0.32 1.562,0.419C1.405,0.519 1.241,0.598 1.07,0.658C0.9,0.717 0.726,0.76 0.548,0.784C0.371,0.808 0.199,0.819 0.032,0.819C-0.298,0.818 -0.604,0.761 -0.887,0.651C-1.171,0.54 -1.417,0.378 -1.627,0.163C-1.836,-0.052 -2.001,-0.318 -2.121,-0.634C-2.241,-0.95 -2.301,-1.316 -2.301,-1.731C-2.301,-2.055 -2.249,-2.359 -2.144,-2.644C-2.04,-2.929 -1.889,-3.176 -1.693,-3.387C-1.498,-3.597 -1.259,-3.762 -0.977,-3.884C-0.695,-4.007 -0.377,-4.067 -0.023,-4.066" style="fill:rgb(0,112,60);"/>
            </g>
            <g transform="matrix(0,1,1,0,103.5178,50.6059)">
                <rect x="-2.865" y="-4.006" width="6.871" height="1.141" style="fill:rgb(0,112,60);"/>
            </g>
            <g transform="matrix(1,0,0,1,103.3372,53.8737)">
                <path d="M0,-5.389C0,-5.29 -0.02,-5.198 -0.06,-5.112C-0.1,-5.026 -0.152,-4.951 -0.219,-4.886C-0.285,-4.821 -0.364,-4.771 -0.453,-4.733C-0.542,-4.695 -0.638,-4.675 -0.739,-4.675C-0.838,-4.675 -0.93,-4.696 -1.018,-4.735C-1.106,-4.774 -1.183,-4.825 -1.248,-4.89C-1.313,-4.955 -1.363,-5.03 -1.402,-5.117C-1.44,-5.203 -1.46,-5.295 -1.46,-5.394C-1.46,-5.496 -1.44,-5.591 -1.402,-5.681C-1.363,-5.77 -1.313,-5.846 -1.248,-5.911C-1.183,-5.976 -1.106,-6.027 -1.018,-6.066C-0.93,-6.104 -0.838,-6.122 -0.739,-6.122C-0.638,-6.121 -0.542,-6.102 -0.453,-6.064C-0.364,-6.025 -0.285,-5.972 -0.219,-5.907C-0.152,-5.842 -0.1,-5.765 -0.06,-5.676C-0.02,-5.586 0,-5.491 0,-5.389M-1.303,0.729L-0.157,0.733L-0.157,-4.008L-1.303,-4.012L-1.303,0.729Z" style="fill:rgb(0,112,60);"/>
            </g>
            <g transform="matrix(1,0,0,1,104.2421,47.7735)">
                <path d="M0,6.852L0,-0.015L1.141,-0.011L1.141,2.628C1.326,2.453 1.529,2.312 1.751,2.205C1.973,2.098 2.234,2.045 2.532,2.046C2.791,2.047 3.021,2.091 3.221,2.179C3.421,2.268 3.589,2.392 3.723,2.551C3.857,2.71 3.959,2.9 4.028,3.12C4.097,3.341 4.131,3.584 4.131,3.849L4.131,6.867L2.99,6.863L2.99,3.845C2.99,3.555 2.924,3.331 2.791,3.171C2.658,3.012 2.457,2.933 2.186,2.932C1.989,2.931 1.804,2.975 1.631,3.064C1.459,3.153 1.295,3.274 1.141,3.427L1.141,6.856L0,6.852" style="fill:rgb(0,112,60);"/>
            </g>
            <g transform="matrix(1,0,0,1,111.7977,50.5552)">
                <path d="M0,3.129C0.394,3.13 0.687,2.999 0.877,2.735C1.066,2.471 1.16,2.083 1.16,1.571C1.16,1.06 1.066,0.67 0.877,0.401C0.687,0.133 0.394,-0.003 0,-0.004C-0.401,-0.006 -0.696,0.127 -0.889,0.396C-1.081,0.665 -1.178,1.054 -1.178,1.563C-1.178,2.071 -1.081,2.458 -0.889,2.725C-0.696,2.993 -0.401,3.128 0,3.129M0,-0.878C0.351,-0.876 0.671,-0.818 0.959,-0.703C1.248,-0.588 1.494,-0.426 1.699,-0.215C1.904,-0.005 2.061,0.251 2.172,0.554C2.283,0.856 2.338,1.193 2.338,1.566C2.338,1.942 2.283,2.281 2.172,2.582C2.061,2.884 1.904,3.141 1.699,3.352C1.494,3.564 1.248,3.727 0.959,3.84C0.671,3.953 0.351,4.008 0,4.007C-0.354,4.006 -0.676,3.948 -0.966,3.833C-1.255,3.718 -1.502,3.554 -1.707,3.34C-1.911,3.127 -2.07,2.869 -2.183,2.567C-2.295,2.264 -2.352,1.925 -2.352,1.549C-2.352,1.176 -2.295,0.839 -2.183,0.538C-2.07,0.236 -1.911,-0.019 -1.707,-0.228C-1.502,-0.436 -1.255,-0.597 -0.966,-0.71C-0.676,-0.823 -0.354,-0.879 0,-0.878" style="fill:rgb(0,112,60);"/>
            </g>
            <g transform="matrix(1,0,0,1,117.001,50.5741)">
                <path d="M0,3.129C0.394,3.13 0.687,2.999 0.877,2.735C1.066,2.471 1.16,2.083 1.16,1.571C1.16,1.06 1.066,0.67 0.877,0.401C0.687,0.133 0.394,-0.003 0,-0.004C-0.401,-0.006 -0.696,0.127 -0.889,0.396C-1.081,0.665 -1.179,1.054 -1.179,1.563C-1.179,2.071 -1.081,2.458 -0.889,2.725C-0.696,2.993 -0.401,3.128 0,3.129M0,-0.878C0.351,-0.876 0.671,-0.818 0.959,-0.703C1.247,-0.588 1.494,-0.426 1.699,-0.215C1.903,-0.005 2.061,0.251 2.172,0.554C2.283,0.856 2.338,1.193 2.338,1.566C2.338,1.942 2.283,2.281 2.172,2.582C2.061,2.884 1.903,3.141 1.699,3.352C1.494,3.564 1.247,3.727 0.959,3.84C0.671,3.953 0.351,4.008 0,4.007C-0.354,4.006 -0.676,3.948 -0.966,3.833C-1.255,3.718 -1.502,3.554 -1.707,3.34C-1.912,3.127 -2.07,2.869 -2.183,2.567C-2.296,2.264 -2.352,1.925 -2.352,1.549C-2.352,1.176 -2.296,0.839 -2.183,0.538C-2.07,0.236 -1.912,-0.019 -1.707,-0.228C-1.502,-0.436 -1.255,-0.597 -0.966,-0.71C-0.676,-0.823 -0.354,-0.879 0,-0.878" style="fill:rgb(0,112,60);"/>
            </g>
            <g transform="matrix(1,0,0,1,121.9962,48.7312)">
                <path d="M0,5.122C0.237,5.123 0.439,5.074 0.605,4.977C0.772,4.878 0.929,4.739 1.077,4.558L1.077,2.432C0.947,2.275 0.807,2.163 0.655,2.097C0.502,2.033 0.338,1.999 0.162,1.999C-0.01,1.998 -0.166,2.03 -0.305,2.094C-0.443,2.158 -0.562,2.255 -0.661,2.386C-0.759,2.516 -0.835,2.682 -0.887,2.884C-0.939,3.086 -0.965,3.324 -0.965,3.598C-0.965,3.875 -0.942,4.11 -0.898,4.302C-0.853,4.495 -0.79,4.653 -0.707,4.775C-0.623,4.896 -0.522,4.985 -0.402,5.039C-0.281,5.094 -0.148,5.121 0,5.122M1.521,5.964C1.369,5.964 1.274,5.894 1.234,5.755L1.137,5.297C1.038,5.408 0.935,5.508 0.827,5.597C0.719,5.686 0.604,5.762 0.479,5.826C0.355,5.891 0.22,5.939 0.077,5.974C-0.066,6.009 -0.222,6.027 -0.388,6.026C-0.647,6.026 -0.884,5.971 -1.1,5.862C-1.315,5.753 -1.5,5.596 -1.656,5.39C-1.811,5.185 -1.931,4.932 -2.016,4.63C-2.101,4.327 -2.144,3.982 -2.144,3.594C-2.144,3.243 -2.096,2.917 -2.001,2.615C-1.905,2.313 -1.768,2.052 -1.589,1.831C-1.411,1.61 -1.197,1.437 -0.947,1.313C-0.698,1.189 -0.417,1.128 -0.106,1.129C0.159,1.13 0.385,1.173 0.573,1.258C0.761,1.343 0.929,1.458 1.077,1.6L1.077,-0.905L2.218,-0.901L2.218,5.967L1.521,5.964Z" style="fill:rgb(0,112,60);"/>
            </g>
            <g transform="matrix(1,0,0,1,128.2855,53.6176)">
                <path d="M0,-2.882C-0.031,-2.833 -0.063,-2.799 -0.097,-2.779C-0.131,-2.759 -0.174,-2.749 -0.227,-2.749C-0.282,-2.749 -0.341,-2.764 -0.403,-2.795C-0.467,-2.826 -0.541,-2.862 -0.624,-2.901C-0.707,-2.94 -0.801,-2.974 -0.907,-3.005C-1.014,-3.037 -1.14,-3.053 -1.285,-3.053C-1.509,-3.054 -1.685,-3.007 -1.813,-2.912C-1.941,-2.817 -2.006,-2.692 -2.006,-2.538C-2.006,-2.436 -1.972,-2.351 -1.905,-2.282C-1.839,-2.212 -1.752,-2.15 -1.642,-2.098C-1.533,-2.045 -1.409,-1.998 -1.271,-1.956C-1.132,-1.914 -0.991,-1.867 -0.847,-1.817C-0.704,-1.768 -0.564,-1.712 -0.425,-1.648C-0.287,-1.585 -0.162,-1.504 -0.052,-1.406C0.057,-1.309 0.145,-1.192 0.211,-1.056C0.277,-0.92 0.31,-0.757 0.31,-0.565C0.31,-0.338 0.27,-0.128 0.188,0.064C0.106,0.256 -0.015,0.422 -0.175,0.562C-0.336,0.701 -0.533,0.81 -0.769,0.888C-1.004,0.965 -1.277,1.004 -1.585,1.003C-1.748,1.003 -1.907,0.987 -2.062,0.957C-2.218,0.927 -2.367,0.887 -2.511,0.833C-2.654,0.781 -2.787,0.718 -2.908,0.647C-3.03,0.576 -3.138,0.499 -3.23,0.415L-2.967,-0.018C-2.933,-0.071 -2.893,-0.111 -2.847,-0.138C-2.8,-0.166 -2.742,-0.179 -2.671,-0.179C-2.6,-0.179 -2.532,-0.159 -2.469,-0.118C-2.406,-0.078 -2.333,-0.034 -2.251,0.012C-2.167,0.059 -2.069,0.102 -1.956,0.143C-1.844,0.183 -1.702,0.204 -1.53,0.204C-1.394,0.205 -1.277,0.188 -1.18,0.156C-1.083,0.124 -1.003,0.083 -0.939,0.031C-0.876,-0.021 -0.83,-0.083 -0.801,-0.152C-0.771,-0.222 -0.758,-0.292 -0.758,-0.366C-0.758,-0.477 -0.79,-0.568 -0.856,-0.639C-0.922,-0.71 -1.01,-0.772 -1.12,-0.825C-1.229,-0.878 -1.354,-0.926 -1.494,-0.968C-1.634,-1.01 -1.778,-1.055 -1.924,-1.105C-2.07,-1.155 -2.213,-1.214 -2.354,-1.281C-2.494,-1.348 -2.619,-1.431 -2.728,-1.533C-2.837,-1.635 -2.925,-1.76 -2.991,-1.908C-3.058,-2.056 -3.091,-2.235 -3.091,-2.445C-3.091,-2.639 -3.053,-2.824 -2.976,-2.999C-2.899,-3.174 -2.785,-3.328 -2.636,-3.458C-2.486,-3.589 -2.3,-3.693 -2.077,-3.77C-1.853,-3.848 -1.595,-3.886 -1.303,-3.885C-0.976,-3.884 -0.679,-3.829 -0.411,-3.72C-0.143,-3.611 0.08,-3.468 0.259,-3.292L0,-2.882" style="fill:rgb(0,112,60);"/>
            </g>
            <g transform="matrix(1,0,0,1,133.1378,53.9819)">
                <path d="M0,-5.389C0,-5.29 -0.02,-5.198 -0.06,-5.112C-0.1,-5.026 -0.152,-4.951 -0.219,-4.886C-0.285,-4.821 -0.364,-4.771 -0.453,-4.733C-0.542,-4.695 -0.638,-4.675 -0.739,-4.675C-0.838,-4.675 -0.93,-4.696 -1.018,-4.735C-1.106,-4.774 -1.183,-4.825 -1.248,-4.89C-1.313,-4.955 -1.363,-5.03 -1.402,-5.117C-1.44,-5.203 -1.46,-5.295 -1.46,-5.394C-1.46,-5.496 -1.44,-5.591 -1.402,-5.681C-1.363,-5.77 -1.313,-5.846 -1.248,-5.911C-1.183,-5.976 -1.106,-6.027 -1.018,-6.066C-0.93,-6.104 -0.838,-6.122 -0.739,-6.122C-0.638,-6.121 -0.542,-6.102 -0.453,-6.064C-0.364,-6.025 -0.285,-5.972 -0.219,-5.907C-0.152,-5.842 -0.1,-5.765 -0.06,-5.676C-0.02,-5.586 0,-5.491 0,-5.389ZM-1.303,0.729L-0.157,0.733L-0.157,-4.008L-1.303,-4.012L-1.303,0.729Z" style="fill:rgb(0,112,60);"/>
            </g>
            <g transform="matrix(1,0,0,1,134.0427,49.7818)">
                <path d="M0,4.792L0,0.05L0.698,0.053C0.846,0.053 0.943,0.123 0.989,0.262L1.068,0.637C1.163,0.539 1.264,0.449 1.371,0.37C1.477,0.29 1.589,0.221 1.708,0.163C1.827,0.105 1.953,0.061 2.088,0.031C2.224,-0 2.372,-0.015 2.532,-0.014C2.791,-0.013 3.021,0.031 3.221,0.119C3.421,0.208 3.589,0.332 3.723,0.491C3.857,0.65 3.959,0.84 4.028,1.06C4.097,1.281 4.131,1.524 4.131,1.789L4.131,4.807L2.99,4.803L2.99,1.785C2.99,1.495 2.924,1.271 2.791,1.111C2.658,0.952 2.457,0.873 2.186,0.872C1.989,0.871 1.804,0.915 1.631,1.004C1.459,1.093 1.295,1.214 1.141,1.367L1.141,4.796L0,4.792" style="fill:rgb(0,112,60);"/>
            </g>
            <g transform="matrix(1,0,0,1,143.2823,48.8085)">
                <path d="M0,5.122C0.237,5.123 0.439,5.074 0.605,4.977C0.771,4.878 0.929,4.739 1.077,4.558L1.077,2.432C0.947,2.275 0.807,2.163 0.655,2.097C0.502,2.033 0.337,1.999 0.162,1.999C-0.011,1.998 -0.166,2.03 -0.305,2.094C-0.444,2.158 -0.562,2.255 -0.661,2.386C-0.76,2.516 -0.835,2.682 -0.887,2.884C-0.94,3.086 -0.966,3.324 -0.966,3.598C-0.966,3.875 -0.943,4.11 -0.898,4.302C-0.853,4.495 -0.79,4.653 -0.707,4.775C-0.624,4.896 -0.522,4.985 -0.402,5.039C-0.282,5.094 -0.148,5.121 0,5.122M1.52,5.964C1.369,5.964 1.274,5.894 1.234,5.755L1.137,5.297C1.038,5.408 0.935,5.508 0.827,5.597C0.719,5.686 0.604,5.762 0.479,5.826C0.354,5.891 0.22,5.939 0.077,5.974C-0.066,6.009 -0.222,6.027 -0.388,6.026C-0.647,6.025 -0.885,5.971 -1.1,5.862C-1.315,5.753 -1.5,5.596 -1.656,5.39C-1.812,5.185 -1.932,4.932 -2.016,4.63C-2.101,4.327 -2.144,3.982 -2.144,3.594C-2.144,3.243 -2.096,2.917 -2.001,2.615C-1.905,2.313 -1.769,2.052 -1.59,1.831C-1.411,1.61 -1.197,1.437 -0.947,1.313C-0.698,1.189 -0.418,1.128 -0.106,1.129C0.158,1.13 0.385,1.173 0.573,1.258C0.761,1.343 0.929,1.458 1.077,1.6L1.077,-0.905L2.218,-0.901L2.218,5.967L1.52,5.964Z" style="fill:rgb(0,112,60);"/>
            </g>
            <g transform="matrix(1,0,0,1,146.8144,49.8159)">
                <path d="M0,4.818L0,0.076L0.67,0.079C0.787,0.079 0.868,0.1 0.915,0.141C0.961,0.183 0.992,0.259 1.008,0.367L1.072,0.903C1.223,0.62 1.4,0.397 1.604,0.236C1.807,0.075 2.047,-0.004 2.324,-0.003C2.543,-0.002 2.718,0.047 2.851,0.143L2.777,0.997C2.762,1.052 2.74,1.091 2.711,1.114C2.682,1.137 2.642,1.149 2.592,1.149C2.546,1.149 2.478,1.141 2.387,1.125C2.297,1.109 2.207,1.101 2.121,1.101C1.995,1.101 1.882,1.119 1.784,1.155C1.685,1.192 1.597,1.244 1.519,1.313C1.44,1.382 1.371,1.466 1.311,1.565C1.251,1.663 1.194,1.776 1.141,1.902L1.141,4.822L0,4.818" style="fill:rgb(0,112,60);"/>
            </g>
            <g transform="matrix(1,0,0,1,151.9127,50.0591)">
                <path d="M0,5.809C-0.034,5.889 -0.077,5.949 -0.131,5.99C-0.185,6.032 -0.268,6.053 -0.379,6.052L-1.229,6.049L-0.342,4.153L-2.26,-0.244L-1.257,-0.24C-1.168,-0.24 -1.097,-0.218 -1.046,-0.175C-0.995,-0.132 -0.958,-0.082 -0.934,-0.026L0.074,2.436C0.135,2.605 0.186,2.773 0.226,2.94C0.251,2.853 0.279,2.768 0.308,2.683C0.337,2.598 0.368,2.515 0.402,2.432L1.354,-0.018C1.378,-0.079 1.42,-0.13 1.477,-0.17C1.534,-0.21 1.597,-0.23 1.668,-0.23L2.583,-0.226L0,5.809" style="fill:rgb(0,112,60);"/>
            </g>
            <g transform="matrix(1,0,0,1,158.4806,50.6313)">
                <path d="M0,3.333C0.234,3.334 0.438,3.292 0.608,3.207C0.78,3.123 0.946,2.996 1.109,2.824L1.109,2.025C0.776,2.039 0.499,2.066 0.276,2.106C0.053,2.147 -0.128,2.201 -0.263,2.264C-0.399,2.329 -0.496,2.404 -0.554,2.49C-0.613,2.576 -0.642,2.67 -0.642,2.772C-0.642,2.972 -0.582,3.115 -0.464,3.202C-0.345,3.289 -0.191,3.332 0,3.333M1.705,4.051C1.597,4.051 1.514,4.033 1.456,4.001C1.397,3.968 1.351,3.903 1.317,3.805L1.215,3.467C1.095,3.574 0.978,3.668 0.864,3.749C0.75,3.83 0.631,3.899 0.508,3.954C0.385,4.009 0.254,4.05 0.114,4.077C-0.026,4.105 -0.182,4.118 -0.351,4.117C-0.552,4.117 -0.737,4.088 -0.906,4.034C-1.075,3.979 -1.221,3.899 -1.345,3.79C-1.468,3.682 -1.563,3.548 -1.631,3.387C-1.699,3.227 -1.733,3.041 -1.733,2.828C-1.733,2.649 -1.685,2.472 -1.591,2.298C-1.497,2.125 -1.341,1.968 -1.123,1.828C-0.904,1.689 -0.613,1.575 -0.249,1.483C0.114,1.393 0.567,1.342 1.109,1.331L1.109,1.054C1.109,0.737 1.041,0.501 0.906,0.348C0.77,0.195 0.575,0.119 0.319,0.118C0.134,0.117 -0.018,0.138 -0.14,0.181C-0.262,0.224 -0.369,0.271 -0.462,0.325C-0.554,0.378 -0.638,0.427 -0.713,0.47C-0.789,0.513 -0.873,0.534 -0.966,0.534C-1.046,0.534 -1.114,0.512 -1.169,0.47C-1.225,0.428 -1.269,0.38 -1.303,0.325L-1.507,-0.041C-0.961,-0.538 -0.305,-0.785 0.462,-0.783C0.739,-0.782 0.988,-0.736 1.206,-0.645C1.425,-0.553 1.61,-0.426 1.761,-0.264C1.911,-0.101 2.027,0.093 2.106,0.318C2.184,0.543 2.223,0.79 2.223,1.058L2.223,4.053L1.705,4.051Z" style="fill:rgb(0,112,60);"/>
            </g>
            <g transform="matrix(1,0,0,1,161.9512,49.8708)">
                <path d="M0,4.818L0,0.076L0.67,0.079C0.787,0.079 0.868,0.1 0.915,0.141C0.961,0.183 0.992,0.259 1.007,0.367L1.072,0.903C1.223,0.62 1.4,0.397 1.604,0.236C1.806,0.075 2.047,-0.004 2.324,-0.003C2.543,-0.002 2.718,0.047 2.851,0.143L2.777,0.997C2.762,1.052 2.74,1.091 2.711,1.114C2.682,1.137 2.642,1.149 2.592,1.149C2.546,1.149 2.478,1.141 2.387,1.125C2.297,1.109 2.207,1.101 2.121,1.101C1.995,1.101 1.882,1.119 1.784,1.155C1.685,1.192 1.597,1.244 1.519,1.313C1.44,1.382 1.371,1.466 1.311,1.565C1.251,1.663 1.193,1.776 1.141,1.902L1.141,4.822L0,4.818" style="fill:rgb(0,112,60);"/>
            </g>
            <g transform="matrix(1,0,0,1,167.0906,53.9442)">
                <path d="M0,-3.248C-0.333,-3.249 -0.593,-3.156 -0.781,-2.969C-0.969,-2.782 -1.089,-2.515 -1.141,-2.171L1.012,-2.163C1.012,-2.311 0.992,-2.451 0.951,-2.582C0.909,-2.713 0.846,-2.827 0.763,-2.926C0.679,-3.025 0.575,-3.104 0.447,-3.162C0.319,-3.219 0.169,-3.247 0,-3.248M-0.023,-4.066C0.276,-4.065 0.552,-4.016 0.804,-3.92C1.057,-3.823 1.274,-3.684 1.456,-3.5C1.638,-3.316 1.781,-3.091 1.884,-2.823C1.987,-2.557 2.038,-2.252 2.038,-1.91C2.038,-1.737 2.019,-1.622 1.982,-1.562C1.946,-1.502 1.875,-1.471 1.77,-1.472L-1.164,-1.482C-1.146,-1.239 -1.103,-1.029 -1.035,-0.852C-0.967,-0.674 -0.878,-0.528 -0.767,-0.412C-0.656,-0.296 -0.524,-0.209 -0.371,-0.152C-0.219,-0.094 -0.051,-0.064 0.134,-0.064C0.319,-0.063 0.479,-0.084 0.613,-0.126C0.747,-0.169 0.864,-0.217 0.964,-0.268C1.065,-0.32 1.152,-0.368 1.228,-0.411C1.303,-0.453 1.376,-0.475 1.446,-0.475C1.542,-0.474 1.613,-0.439 1.659,-0.367L1.987,0.05C1.861,0.197 1.719,0.32 1.562,0.419C1.405,0.519 1.242,0.598 1.071,0.658C0.9,0.717 0.726,0.76 0.549,0.784C0.371,0.808 0.199,0.819 0.033,0.819C-0.297,0.818 -0.604,0.761 -0.887,0.651C-1.171,0.54 -1.417,0.378 -1.627,0.163C-1.836,-0.052 -2.001,-0.318 -2.121,-0.634C-2.241,-0.95 -2.301,-1.316 -2.301,-1.731C-2.301,-2.055 -2.249,-2.359 -2.144,-2.644C-2.039,-2.929 -1.888,-3.176 -1.693,-3.387C-1.497,-3.597 -1.258,-3.762 -0.976,-3.884C-0.694,-4.007 -0.377,-4.067 -0.023,-4.066" style="fill:rgb(0,112,60);"/>
            </g>
            <g transform="matrix(1,0,0,1,171.2523,50.6777)">
                <path d="M0,3.333C0.234,3.334 0.438,3.292 0.609,3.207C0.78,3.123 0.946,2.996 1.109,2.824L1.109,2.025C0.777,2.039 0.5,2.066 0.276,2.106C0.053,2.147 -0.128,2.201 -0.263,2.264C-0.399,2.329 -0.496,2.404 -0.554,2.49C-0.613,2.576 -0.642,2.67 -0.642,2.772C-0.642,2.972 -0.582,3.115 -0.464,3.202C-0.345,3.289 -0.191,3.332 0,3.333M1.705,4.051C1.597,4.051 1.514,4.033 1.456,4.001C1.397,3.968 1.351,3.903 1.317,3.805L1.216,3.467C1.096,3.574 0.978,3.668 0.864,3.749C0.75,3.83 0.632,3.899 0.508,3.954C0.385,4.009 0.254,4.05 0.114,4.077C-0.026,4.105 -0.182,4.118 -0.351,4.117C-0.551,4.117 -0.736,4.088 -0.905,4.034C-1.075,3.979 -1.221,3.899 -1.344,3.79C-1.468,3.682 -1.563,3.548 -1.631,3.387C-1.699,3.227 -1.733,3.041 -1.733,2.828C-1.733,2.649 -1.685,2.472 -1.591,2.298C-1.497,2.125 -1.342,1.968 -1.123,1.828C-0.904,1.689 -0.613,1.575 -0.249,1.484C0.114,1.393 0.567,1.342 1.109,1.331L1.109,1.054C1.109,0.737 1.042,0.501 0.906,0.348C0.771,0.195 0.575,0.119 0.319,0.118C0.134,0.117 -0.018,0.138 -0.14,0.181C-0.262,0.224 -0.369,0.271 -0.462,0.325C-0.554,0.378 -0.638,0.427 -0.713,0.47C-0.789,0.513 -0.873,0.534 -0.965,0.534C-1.046,0.534 -1.114,0.512 -1.169,0.47C-1.224,0.428 -1.269,0.38 -1.303,0.325L-1.507,-0.041C-0.961,-0.538 -0.305,-0.785 0.462,-0.783C0.739,-0.782 0.988,-0.736 1.206,-0.645C1.425,-0.553 1.61,-0.426 1.761,-0.264C1.912,-0.101 2.027,0.094 2.106,0.318C2.184,0.543 2.223,0.79 2.223,1.058L2.223,4.053L1.705,4.051Z" style="fill:rgb(0,112,60);"/>
            </g>
            <g transform="matrix(1,0,0,1,177.4797,53.7962)">
                <path d="M0,-2.882C-0.031,-2.833 -0.063,-2.799 -0.097,-2.779C-0.131,-2.759 -0.174,-2.749 -0.226,-2.749C-0.281,-2.749 -0.34,-2.765 -0.403,-2.795C-0.466,-2.826 -0.54,-2.862 -0.623,-2.901C-0.707,-2.94 -0.801,-2.974 -0.907,-3.005C-1.013,-3.037 -1.14,-3.053 -1.284,-3.053C-1.509,-3.054 -1.685,-3.007 -1.813,-2.912C-1.941,-2.817 -2.005,-2.692 -2.005,-2.538C-2.005,-2.436 -1.972,-2.351 -1.905,-2.282C-1.839,-2.212 -1.751,-2.15 -1.642,-2.098C-1.532,-2.045 -1.409,-1.998 -1.271,-1.956C-1.132,-1.914 -0.99,-1.867 -0.847,-1.817C-0.704,-1.768 -0.563,-1.712 -0.425,-1.648C-0.286,-1.585 -0.161,-1.504 -0.052,-1.406C0.057,-1.309 0.145,-1.192 0.211,-1.056C0.278,-0.92 0.31,-0.757 0.31,-0.565C0.31,-0.338 0.27,-0.128 0.188,0.064C0.106,0.256 -0.015,0.422 -0.175,0.562C-0.335,0.701 -0.533,0.81 -0.768,0.888C-1.004,0.965 -1.277,1.004 -1.585,1.003C-1.748,1.003 -1.907,0.987 -2.062,0.957C-2.218,0.927 -2.367,0.887 -2.51,0.833C-2.654,0.781 -2.787,0.718 -2.908,0.647C-3.03,0.576 -3.138,0.499 -3.23,0.415L-2.966,-0.018C-2.933,-0.071 -2.893,-0.111 -2.846,-0.138C-2.8,-0.166 -2.742,-0.179 -2.671,-0.179C-2.6,-0.179 -2.532,-0.159 -2.469,-0.118C-2.406,-0.078 -2.333,-0.034 -2.25,0.012C-2.167,0.059 -2.069,0.102 -1.956,0.143C-1.843,0.183 -1.702,0.204 -1.529,0.204C-1.394,0.205 -1.277,0.188 -1.18,0.156C-1.083,0.124 -1.003,0.083 -0.939,0.031C-0.877,-0.021 -0.83,-0.083 -0.801,-0.152C-0.771,-0.222 -0.758,-0.292 -0.758,-0.366C-0.758,-0.477 -0.79,-0.568 -0.856,-0.639C-0.922,-0.71 -1.01,-0.772 -1.12,-0.825C-1.229,-0.878 -1.354,-0.926 -1.494,-0.968C-1.634,-1.01 -1.777,-1.055 -1.924,-1.105C-2.07,-1.155 -2.213,-1.214 -2.353,-1.281C-2.494,-1.348 -2.619,-1.431 -2.728,-1.533C-2.837,-1.635 -2.925,-1.76 -2.991,-1.908C-3.058,-2.056 -3.091,-2.235 -3.091,-2.445C-3.091,-2.639 -3.053,-2.824 -2.976,-2.999C-2.899,-3.174 -2.785,-3.328 -2.635,-3.458C-2.486,-3.589 -2.299,-3.693 -2.076,-3.77C-1.853,-3.848 -1.596,-3.886 -1.303,-3.885C-0.976,-3.884 -0.679,-3.829 -0.411,-3.72C-0.143,-3.611 0.08,-3.468 0.259,-3.292L0,-2.882" style="fill:rgb(0,112,60);"/>
            </g>
            <g transform="matrix(1,0,0,1,42.84,29.0908)">
                <path d="M0,-2.277L-0.001,-2.277C-0.026,3.178 -4.481,8.162 -9.933,8.835L-9.979,8.841L-19.958,10.025L-19.958,4.404L-12.958,-3.426L-12.959,-3.427C-11.073,-5.556 -10.067,-8.32 -9.946,-11.121C-9.911,-11.125 -9.876,-11.129 -9.841,-11.132L-9.841,-11.134L0,-12.302L0,-2.277Z" style="fill:rgb(241,173,45);"/>
            </g>
            <g transform="matrix(1,0,0,1,2.5416,29.0895)">
                <path d="M0,-2.422L0.001,-2.422C0.026,3.033 4.481,8.05 9.933,8.762L9.979,8.768L19.958,10.025L19.958,0.046C19.958,-5.443 15.468,-10.499 9.979,-11.19C9.933,-11.196 9.887,-11.2 9.841,-11.206L9.841,-11.207L0,-12.447L0,-2.422Z" style="fill:rgb(229,116,43);"/>
            </g>
            <g transform="matrix(1,0,0,1,29.5125,24.3381)">
                <path d="M0,-14.26L0,-14.259C3.583,-10.133 3.539,-3.436 -0.099,0.671L-0.098,0.671L-6.251,7.553L-6.251,4.983C-6.251,-0.65 -10.591,-5.864 -16.091,-7.082C-16.021,-9.719 -15.092,-12.335 -13.308,-14.331C-13.277,-14.365 -13.245,-14.399 -13.214,-14.433L-13.215,-14.434L-6.62,-21.813L0,-14.26Z" style="fill:rgb(0,112,60);"/>
            </g>
        </g>
    </g>
</svg>
