<?xml version="1.0" encoding="UTF-8" standalone="no"?>
<!DOCTYPE svg PUBLIC "-//W3C//DTD SVG 1.1//EN" "http://www.w3.org/Graphics/SVG/1.1/DTD/svg11.dtd">
<svg width="100%" height="100%" viewBox="0 0 3183 3153" version="1.1" xmlns="http://www.w3.org/2000/svg" xmlns:xlink="http://www.w3.org/1999/xlink" xml:space="preserve" xmlns:serif="http://www.serif.com/" style="fill-rule:evenodd;clip-rule:evenodd;stroke-linejoin:round;stroke-miterlimit:2;">
    <g transform="matrix(1,0,0,1,-4815.157917,-577.768509)">
        <g transform="matrix(4.166667,0,0,4.166667,0,0)">
            <g transform="matrix(1,0,0,1,1446.4097,666.5983)">
                <path d="M0,93.725L-18.817,93.725L-33.955,47.519L-49.095,93.725L-67.783,93.725L-93.579,0L-69.495,0L-57.252,49.501L-42.112,0L-25.787,0L-10.66,49.501L1.583,0L25.671,0L0,93.725Z" style="fill:rgb(187,49,38);fill-rule:nonzero;"/>
            </g>
            <g transform="matrix(1,0,0,1,1521.5402,697.8012)">
                <path d="M0,54.228C-4.217,58.7 -11.316,63.316 -22.778,63.316C-34.218,63.316 -41.329,58.7 -45.546,54.228C-51.474,47.774 -53.312,41.063 -53.312,27.109C-53.312,13.294 -51.474,6.443 -45.546,-0.011C-41.329,-4.476 -34.218,-9.088 -22.778,-9.088C-11.316,-9.088 -4.217,-4.476 0,-0.011C5.924,6.443 7.762,13.294 7.762,27.109C7.762,41.063 5.924,47.774 0,54.228M-16.99,12.372C-18.302,11.05 -20.14,10.394 -22.778,10.394C-25.412,10.394 -27.25,11.05 -28.572,12.372C-31.325,15.136 -31.727,20.138 -31.727,27.109C-31.727,34.088 -31.325,39.092 -28.572,41.854C-27.25,43.167 -25.412,43.828 -22.778,43.828C-20.14,43.828 -18.302,43.167 -16.99,41.854C-14.22,39.092 -13.819,34.088 -13.819,27.109C-13.819,20.138 -14.22,15.136 -16.99,12.372" style="fill:rgb(187,49,38);fill-rule:nonzero;"/>
            </g>
            <g transform="matrix(1,0,0,1,1576.9408,737.1615)">
                <path d="M0,-25.286C-2.104,-27.386 -4.077,-28.962 -7.766,-28.962C-10.662,-28.962 -16.46,-27.255 -16.46,-19.222L-16.46,23.164L-38.045,23.164L-38.045,-47.659L-16.981,-47.659L-16.981,-41.865C-13.822,-45.02 -7.638,-48.45 -0.266,-48.45C6.72,-48.45 11.451,-46.732 16.322,-41.865L0,-25.286Z" style="fill:rgb(187,49,38);fill-rule:nonzero;"/>
            </g>
            <g transform="matrix(1,0,0,1,1618.5135,666.5983)">
                <path d="M0,93.725C-15.657,93.725 -21.987,82.535 -21.987,72.796L-21.987,0L-0.39,0L-0.39,71.213C-0.39,73.982 1.047,75.554 3.951,75.554L11.451,75.554L11.451,93.725L0,93.725Z" style="fill:rgb(187,49,38);fill-rule:nonzero;"/>
            </g>
            <g transform="matrix(1,0,0,1,1675.4904,667.3893)">
                <path d="M0,92.934L0,87.136C-4.341,91.482 -8.937,93.725 -16.313,93.725C-23.157,93.725 -29.476,91.351 -33.562,87.272C-40.537,80.297 -40.138,67.919 -40.138,57.523C-40.138,47.129 -40.537,34.751 -33.562,27.769C-29.476,23.694 -23.293,21.32 -16.449,21.32C-9.469,21.32 -4.607,23.304 -0.645,27.248L-0.645,-0.791L20.94,-0.791L20.94,92.934L0,92.934ZM-9.604,40.808C-17.635,40.808 -18.55,47.253 -18.55,57.523C-18.55,67.792 -17.635,74.242 -9.604,74.242C-1.572,74.242 -0.645,67.792 -0.645,57.523C-0.645,47.253 -1.572,40.808 -9.604,40.808" style="fill:rgb(187,49,38);fill-rule:nonzero;"/>
            </g>
            <g transform="matrix(1,0,0,1,1217.5039,777.8476)">
                <path d="M0,93.716L-4.341,79.759L-33.163,79.759L-37.77,93.716L-61.866,93.716L-27.776,0L-9.995,0L24.1,93.716L0,93.716ZM-18.287,35.537L-26.718,60.548L-10.396,60.548L-18.287,35.537Z" style="fill:rgb(187,49,38);fill-rule:nonzero;"/>
            </g>
            <g transform="matrix(1,0,0,1,1271.0577,799.9606)">
                <path d="M0,95.297C-11.061,95.297 -19.344,93.319 -26.589,86.083L-13.161,72.654C-9.866,75.948 -5.924,77.135 -1.053,77.135C8.03,77.135 10.398,70.947 10.398,66.335L10.398,61.203C6.447,65.153 1.712,67.131 -4.869,67.131C-11.713,67.131 -17.375,64.887 -21.457,60.812C-27.902,54.358 -28.037,46.466 -28.037,33.558C-28.037,20.659 -27.902,12.761 -21.457,6.314C-17.375,2.232 -11.578,0 -4.742,0C2.503,0 6.709,2.232 11.059,6.585L11.059,0.789L31.979,0.789L31.979,66.466C31.979,83.189 19.346,95.297 0,95.297M1.978,19.477C-5.924,19.477 -6.445,26.321 -6.445,33.558C-6.445,40.803 -5.924,47.647 1.978,47.647C9.877,47.647 10.398,40.803 10.398,33.558C10.398,26.321 9.877,19.477 1.978,19.477" style="fill:rgb(187,49,38);fill-rule:nonzero;"/>
            </g>
            <g transform="matrix(1,0,0,1,1353.1788,848.4032)">
                <path d="M0,-25.283C-2.102,-27.387 -4.075,-28.963 -7.766,-28.963C-10.66,-28.963 -16.449,-27.252 -16.449,-19.219L-16.449,23.16L-38.045,23.16L-38.045,-47.656L-16.979,-47.656L-16.979,-41.862C-13.819,-45.017 -7.636,-48.443 -0.264,-48.443C6.72,-48.443 11.451,-46.729 16.324,-41.862L0,-25.283Z" style="fill:rgb(187,49,38);fill-rule:nonzero;"/>
            </g>
            <g transform="matrix(1,0,0,1,1420.2902,809.0399)">
                <path d="M0,54.234C-4.217,58.706 -11.316,63.311 -22.778,63.311C-34.218,63.311 -41.329,58.706 -45.546,54.234C-51.463,47.78 -53.312,41.069 -53.312,27.115C-53.312,13.3 -51.463,6.449 -45.546,-0.005C-41.329,-4.47 -34.218,-9.077 -22.778,-9.077C-11.316,-9.077 -4.217,-4.47 0,-0.005C5.924,6.449 7.771,13.3 7.771,27.115C7.771,41.069 5.924,47.78 0,54.234M-16.979,12.369C-18.291,11.056 -20.138,10.395 -22.778,10.395C-25.401,10.395 -27.25,11.056 -28.561,12.369C-31.325,15.138 -31.715,20.144 -31.715,27.115C-31.715,34.09 -31.325,39.098 -28.561,41.865C-27.25,43.173 -25.401,43.834 -22.778,43.834C-20.138,43.834 -18.291,43.173 -16.979,41.865C-14.209,39.098 -13.819,34.09 -13.819,27.115C-13.819,20.144 -14.209,15.138 -16.979,12.369" style="fill:rgb(187,49,38);fill-rule:nonzero;"/>
            </g>
            <g transform="matrix(1,0,0,1,1461.4703,827.8623)">
                <path d="M0,-7.764L0,43.699L-21.586,43.699L-21.586,-7.764L-28.04,-7.764L-28.04,-24.348L-21.586,-24.348L-21.586,-30.538C-21.586,-40.282 -15.267,-51.463 0.39,-51.463L11.853,-51.463L11.853,-33.307L4.341,-33.307C1.448,-33.307 0,-31.724 0,-28.955L0,-24.348L11.853,-24.348L11.853,-7.764L0,-7.764Z" style="fill:rgb(187,49,38);fill-rule:nonzero;"/>
            </g>
            <g transform="matrix(1,0,0,1,1529.3643,809.0399)">
                <path d="M0,54.234C-4.217,58.706 -11.316,63.311 -22.778,63.311C-34.229,63.311 -41.331,58.706 -45.546,54.234C-51.474,47.78 -53.312,41.069 -53.312,27.115C-53.312,13.3 -51.474,6.449 -45.546,-0.005C-41.331,-4.47 -34.229,-9.077 -22.778,-9.077C-11.316,-9.077 -4.217,-4.47 0,-0.005C5.924,6.449 7.76,13.3 7.76,27.115C7.76,41.069 5.924,47.78 0,54.234M-16.981,12.369C-18.302,11.056 -20.14,10.395 -22.778,10.395C-25.412,10.395 -27.25,11.056 -28.563,12.369C-31.325,15.138 -31.715,20.144 -31.715,27.115C-31.715,34.09 -31.325,39.098 -28.563,41.865C-27.25,43.173 -25.412,43.834 -22.778,43.834C-20.14,43.834 -18.302,43.173 -16.981,41.865C-14.211,39.098 -13.821,34.09 -13.821,27.115C-13.821,20.144 -14.212,15.138 -16.981,12.369" style="fill:rgb(187,49,38);fill-rule:nonzero;"/>
            </g>
            <g transform="matrix(1,0,0,1,1584.7538,848.4032)">
                <path d="M0,-25.283C-2.102,-27.387 -4.071,-28.963 -7.766,-28.963C-10.66,-28.963 -16.449,-27.252 -16.449,-19.219L-16.449,23.16L-38.034,23.16L-38.034,-47.656L-16.979,-47.656L-16.979,-41.862C-13.819,-45.017 -7.625,-48.443 -0.255,-48.443C6.72,-48.443 11.451,-46.729 16.333,-41.862L0,-25.283Z" style="fill:rgb(187,49,38);fill-rule:nonzero;"/>
            </g>
            <g transform="matrix(1,0,0,1,1619.0988,829.1836)">
                <path d="M0,13.948C0,19.746 4.472,25.007 12.498,25.007C20,25.007 23.3,22.905 27.111,19.078L40.008,31.977C32.773,39.223 25.663,43.169 12.498,43.169C-3.168,43.169 -21.2,37.507 -21.2,6.971C-21.2,-16.196 -8.026,-29.221 10.527,-29.221C31.062,-29.221 42.386,-14.218 42.386,4.332L42.386,13.948L0,13.948ZM19.874,-5.926C18.553,-8.957 15.659,-11.455 10.527,-11.455C5.388,-11.455 2.494,-8.957 1.188,-5.926C0.255,-4.088 0,-2.11 0,-0.399L21.056,-0.399C21.056,-2.11 20.785,-4.088 19.874,-5.926" style="fill:rgb(187,49,38);fill-rule:nonzero;"/>
            </g>
            <g transform="matrix(1,0,0,1,1694.3757,799.9627)">
                <path d="M0,72.388C-10.671,72.388 -21.065,71.863 -30.804,62.123L-16.859,48.173C-10.935,54.101 -3.295,54.101 0.39,54.101C3.55,54.101 9.604,53.17 9.604,49.49C9.604,47.508 8.673,45.404 4.472,45.005L-6.454,43.958C-18.697,42.777 -26.993,37.247 -26.993,23.428C-26.993,7.764 -12.908,0 1.171,0C12.764,0 22.102,1.712 29.086,8.682L15.784,21.98C12.232,18.426 6.319,17.77 0.781,17.77C-4.487,17.77 -6.188,20.264 -6.188,21.845C-6.188,22.637 -6.454,25.271 -1.583,25.796L9.339,26.847C24.215,28.29 30.669,37.119 30.669,48.439C30.669,65.154 16.449,72.388 0,72.388" style="fill:rgb(187,49,38);fill-rule:nonzero;"/>
            </g>
            <g transform="matrix(1,0,0,1,1754.7648,783.2366)">
                <path d="M0,88.327C-15.657,88.327 -21.976,77.137 -21.976,67.398L-21.976,36.864L-28.43,36.864L-28.43,20.28L-21.976,20.28L-21.976,0L-0.39,0L-0.39,20.28L10.797,20.28L10.797,36.864L-0.39,36.864L-0.39,65.819C-0.39,68.588 1.058,70.162 3.951,70.162L10.797,70.162L10.797,88.327L0,88.327Z" style="fill:rgb(187,49,38);fill-rule:nonzero;"/>
            </g>
            <g transform="matrix(1,0,0,1,1812.7993,848.4032)">
                <path d="M0,-25.283C-2.104,-27.387 -4.077,-28.963 -7.758,-28.963C-10.651,-28.963 -16.449,-27.252 -16.449,-19.219L-16.449,23.16L-38.025,23.16L-38.025,-47.656L-16.97,-47.656L-16.97,-41.862C-13.81,-45.017 -7.627,-48.443 -0.255,-48.443C6.72,-48.443 11.46,-46.729 16.333,-41.862L0,-25.283Z" style="fill:rgb(187,49,38);fill-rule:nonzero;"/>
            </g>
            <g transform="matrix(1,0,0,1,1864.2491,816.0166)">
                <path d="M0,63.972C-1.448,68.049 -3.284,71.082 -5.527,73.321C-9.729,77.793 -15.127,79.239 -21.446,79.239L-29.611,79.239L-29.611,59.757L-25.006,59.757C-21.18,59.757 -19.218,58.839 -17.761,54.494L-15.792,48.57L-39.351,-15.267L-16.714,-15.267L-4.731,21.462L6.72,-15.267L29.359,-15.267L0,63.972Z" style="fill:rgb(187,49,38);fill-rule:nonzero;"/>
            </g>
            <g transform="matrix(0.05677,-0.998387,-0.998387,-0.05677,1589.705062,283.182527)">
                <path d="M-294.333,-293.38C-283.109,67.213 -321.844,-64.926 -311.41,311.495C-296.911,198.787 -309.33,228.584 -294.333,117.435C-286.809,61.782 -294.788,18.276 -285.343,-30.521C-270.694,-133.758 -280.151,-208.251 -294.333,-293.38" style="fill:rgb(168,123,80);"/>
            </g>
            <g transform="matrix(0.029266,-0.999572,-0.999572,-0.029266,1691.561397,389.666018)">
                <path d="M-228.17,-234.536C-208.585,6.067 -257.129,-140.893 -236.343,235.099C-224.949,122.035 -240.101,162.197 -228.17,50.677C-222.18,-5.161 -222.044,3.667 -213.946,-45.376C-205.362,-152.025 -211.647,-149.835 -228.17,-234.536" style="fill:rgb(168,123,80);"/>
            </g>
            <g transform="matrix(-0.024205,-0.999707,-0.999707,0.024205,1452.905186,255.711381)">
                <path d="M-275.377,-255.749C-278.499,-257.461 -279.356,-252.286 -278.556,-242.024C-238.892,105.707 -303.282,-0.892 -275.377,271.201C-275.539,239.079 -277.416,261.664 -276.807,210.856C-274.777,40.706 -220.397,68.836 -275.377,-255.749" style="fill:rgb(168,123,80);"/>
            </g>
            <g transform="matrix(1,0,0,1,1413.0912,511.8845)">
                <path d="M0,-109.118C0,-109.118 -36.119,-79.937 -50.698,-59.3C-71.013,-30.54 -59.442,20.289 -59.442,20.289L-67.874,22.537C-67.874,22.537 -75.264,-33.158 -79.11,-52.15C-82.961,-71.133 -113.985,-124.771 -113.985,-124.771L-111.061,-131.655C-111.061,-131.655 -82.866,-85.333 -80.733,-80.482C-78.629,-75.624 -68.224,-66.226 -65.185,-65.406C-62.16,-64.579 -61.214,-64.985 -59.821,-66.466C-54.525,-72.11 -6.906,-113.805 -6.906,-113.805L0,-109.118Z" style="fill:rgb(117,76,40);fill-rule:nonzero;"/>
            </g>
            <g transform="matrix(1,0,0,1,1268.8296,381.8462)">
                <path d="M0,-29.749C0,-29.749 31.13,-55.882 68.459,-48.35C105.797,-40.83 100.82,-40.234 140.056,-39.733C179.283,-39.243 210.118,-8.829 191.987,3.454C173.866,15.757 167.126,26.133 134.803,20.86C102.483,15.593 48.35,1.177 5.797,5.392C-36.744,9.604 -112.693,7.416 -96.665,-7.03C-80.642,-21.477 0,-29.749 0,-29.749" style="fill:rgb(112,135,27);fill-rule:nonzero;"/>
            </g>
            <g transform="matrix(-0.360419,-0.932791,-0.932791,0.360419,1342.027917,420.832819)">
                <path d="M-8.078,-11.769C-14.254,-11.958 -19.256,-8.246 -19.257,-3.467C-19.241,1.311 -14.246,5.344 -8.078,5.542C-1.9,5.731 3.104,2.027 3.089,-2.761C3.094,-7.541 -1.911,-11.575 -8.078,-11.769" style="fill:rgb(117,76,40);fill-rule:nonzero;"/>
            </g>
            <g transform="matrix(1,0,0,1,1652.3618,586.0355)">
                <path d="M0,-321.407C0,-321.407 -90.171,-242.634 -116.87,-210.723C-146.432,-175.396 -146.989,-145.343 -148.29,-103.673C-149.161,-75.674 -146.782,-8.797 -146.782,-8.797L-161.708,0C-161.708,0 -180.516,-144.228 -188.907,-185.978C-197.295,-227.757 -247.818,-301.759 -247.818,-301.759L-241.295,-316.891C-241.295,-316.891 -178.219,-232.189 -173.501,-227.327C-158.724,-212.08 -139.898,-219.951 -136.763,-223.11C-105.522,-254.455 -29.877,-321.407 -29.877,-321.407L0,-321.407Z" style="fill:rgb(117,76,40);fill-rule:nonzero;"/>
            </g>
            <g transform="matrix(1,0,0,1,1244.0869,202.3418)">
                <path d="M0,39.617C0,39.617 35.365,33.817 42.542,24.319C49.72,14.837 62.435,5.868 82.875,6.394C103.323,6.924 166.315,-13.105 193.929,-28.392C221.561,-43.688 255.584,-75.685 322.115,-58.97C388.656,-42.278 464.687,-5.725 496.733,-0.461C528.774,4.822 549.779,50.157 556.399,57.017C563.028,63.872 553.964,68.512 545.103,72.829C536.263,77.15 524.918,86.014 499.502,80.21C474.085,74.412 427.832,68.663 408.88,68.087C389.929,67.497 319.806,64.732 335.053,76.955C350.3,89.178 358.878,115.302 322.545,111.73C286.202,108.156 265.763,96.554 249.19,101.305C232.61,106.043 189.599,113.998 184.542,104.465C179.478,94.931 179.544,76.024 154.698,84.611C129.837,93.2 91.712,103.409 70.171,99.192C48.614,94.971 37.963,70.636 29.838,70.716C21.71,70.807 -38.671,44.038 0,39.617" style="fill:rgb(112,135,27);fill-rule:nonzero;"/>
            </g>
            <g transform="matrix(-0.359637,-0.933092,-0.933092,0.359637,1482.125302,316.905944)">
                <path d="M-16.003,-23.316C-28.221,-23.72 -38.144,-16.365 -38.149,-6.885C-38.146,2.574 -28.24,10.583 -16.003,10.979C-3.772,11.382 6.139,4.028 6.134,-5.446C6.137,-14.922 -3.775,-22.914 -16.003,-23.316" style="fill:rgb(117,76,40);fill-rule:nonzero;"/>
            </g>
            <g transform="matrix(1,0,0,1,1802.7693,607.0905)">
                <path d="M0,-229.55C0,-229.55 -68.344,-187.645 -87.085,-161.789C-112.728,-126.427 -110.726,-27.946 -110.91,-21.246C-111.502,1.342 -110.325,5.79 -110.325,5.79L-121.426,14.447C-121.426,14.447 -134.15,-97.997 -140.047,-130.923C-145.916,-163.862 -193.754,-232.211 -193.754,-232.211L-188.346,-243.997C-188.346,-243.997 -124.41,-163.326 -119.206,-161.789C-114.021,-160.246 -110.293,-159.16 -107.997,-161.789C-59.985,-216.097 -12.764,-234.813 -12.764,-234.813L0,-229.55Z" style="fill:rgb(117,76,40);fill-rule:nonzero;"/>
            </g>
            <g transform="matrix(1,0,0,1,1888.5129,325.1554)">
                <path d="M0,50.219C-51.363,82.766 -120.415,71.137 -124.756,71.434C-134.64,72.115 -169.674,58.886 -189.317,58.085C-193.956,57.883 -239.47,61.934 -240.548,62.38C-242.55,63.322 -293.303,61.985 -299.593,62.406C-305.817,62.817 -327.564,52.906 -332.856,54.134C-339.14,55.58 -348.187,50.192 -354.737,47.295C-361.461,44.335 -352.278,23.665 -348.553,17.351C-348.298,16.949 -316.798,-1.898 -270.835,-19.593C-237.213,-32.547 -199.263,-31.585 -196.984,-31.434C-189.337,-30.964 -134.374,-27.049 -131.859,-25.736C-130.103,-24.805 -33.434,-0.621 -27.96,2.733C-27.96,2.733 36.757,26.924 0,50.219" style="fill:rgb(112,135,27);fill-rule:nonzero;"/>
            </g>
            <g transform="matrix(-0.35961,-0.933103,-0.933103,0.35961,1680.11011,405.063051)">
                <path d="M-12.419,-18.117C-21.922,-18.435 -29.625,-12.72 -29.626,-5.362C-29.63,1.998 -21.93,8.221 -12.419,8.528C-2.93,8.841 4.781,3.122 4.776,-4.234C4.773,-11.601 -2.923,-17.816 -12.419,-18.117" style="fill:rgb(117,76,40);fill-rule:nonzero;"/>
            </g>
        </g>
    </g>
</svg>
