<?xml version="1.0" encoding="UTF-8" standalone="no"?>
<!DOCTYPE svg PUBLIC "-//W3C//DTD SVG 1.1//EN" "http://www.w3.org/Graphics/SVG/1.1/DTD/svg11.dtd">
<svg width="100%" height="100%" viewBox="0 0 3200 1285" version="1.1" xmlns="http://www.w3.org/2000/svg" xmlns:xlink="http://www.w3.org/1999/xlink" xml:space="preserve" xmlns:serif="http://www.serif.com/" style="fill-rule:evenodd;clip-rule:evenodd;stroke-linejoin:round;stroke-miterlimit:2;">
    <g id="Background" transform="matrix(3.125,0,0,3.125,0,0)">
        <path d="M0,0L1023.999,0C1024.809,1.042 1023.999,1.229 1023.999,16.5L1023.999,410.999C1022.565,411.795 1022.431,410.999 1003.5,410.999L0,410.999C-0.921,409.815 0,408 0,406.5L0,0Z" style="fill:rgb(254,254,254);"/>
        <path d="M660.959,124.531C661.215,122.603 662.915,109.78 668.211,101.325C692.114,63.162 730.702,73.119 741.635,79.231C774.612,97.668 772.214,125.472 772.214,138.5C772.214,208.335 772.327,208.707 771.362,209.245C769.903,210.059 746.648,209.559 744.499,209.513C740.509,209.427 742.538,207.013 742.198,171.509C742.169,168.494 739.598,169.103 737.5,169.102C691.977,169.093 691.886,169.098 691.48,169.473C690.145,170.708 691.141,200.381 690.829,207.538C690.718,210.09 688.222,209.517 675.5,209.517C662.76,209.517 660.862,210.41 660.856,206.497C660.746,136.943 660.847,131.088 660.959,124.531Z" style="fill:rgb(1,125,62);"/>
        <path d="M384.5,156.084C384.017,156.088 378.832,156.125 378.471,156.462C377.746,157.141 377.839,157.345 377.839,202.5C377.839,207.304 379.297,209.514 374.5,209.517C349.11,209.537 348.892,209.572 348.186,208.717C347.795,208.242 347.838,208.153 347.838,103.5C347.838,74.632 347.537,73.702 349.478,73.359C349.816,73.299 411.751,73.331 412.502,73.344C442.965,73.881 451.703,99.777 452.578,103.481C458.253,127.531 446.446,138.462 441.982,143.912C438.455,148.218 448.273,147.108 453.195,172.566C455.129,182.57 453.848,208.519 453.775,208.678C453.391,209.517 448.006,209.517 447.5,209.517C425.434,209.519 425.399,209.592 424.761,209.141C423.117,207.981 424.882,181.373 423.605,176.476C417.452,152.879 398.813,156.084 384.5,156.084Z" style="fill:rgb(1,125,62);"/>
        <path d="M644.081,165.515C644.079,165.983 646.621,191.26 621.726,204.946C612.165,210.202 611.586,209.517 537.5,209.517C531.642,209.517 526.845,210.285 526.771,207.479C526.714,205.335 526.12,182.783 526.928,180.673C527.357,179.552 527.859,179.692 581.5,179.692C601.602,179.692 610.176,181.227 613.57,171.526C615.245,166.739 613.103,156.623 601.5,156.514C559.466,156.117 547.427,160.061 530.753,141.29C517.768,126.674 515.065,94.304 543.305,78.156C552.964,72.633 553.59,73.356 621.5,73.356C634.017,73.356 636.634,72.74 636.729,75.479C636.731,75.56 636.767,101.198 636.711,101.532C636.379,103.521 635.421,103.213 606.5,103.213C593.167,103.213 579.833,103.213 566.5,103.213C563.886,103.214 553.404,102.189 551.401,113.486C551.03,115.583 551.367,126.456 564.499,126.646C605.78,127.243 619.027,122.104 636.252,143.691C637.756,145.576 640.078,149.83 640.692,151.421C644.029,160.066 643.666,162.887 644.081,165.515Z" style="fill:rgb(1,125,62);"/>
        <path d="M212.956,144.483C213.039,135.886 212.967,135.91 214.32,127.468C216.414,114.399 235.47,67.615 291.456,73.902C314.423,76.481 330.883,94.667 333.471,97.526C336.083,100.412 334.368,100.894 331.462,103.457C317.296,115.955 317.358,115.993 316.126,117.076C312.406,120.349 311.86,118.099 308.374,114.629C291.678,98.007 270.888,103.372 264.655,106.798C229.929,125.884 241.334,166.749 266.406,176.739C293.924,187.705 312.503,164.008 312.689,163.92C313.16,163.697 313.623,163.302 324.724,173.249C332.65,180.352 336.125,182.045 334.201,184.264C302.988,220.263 260.667,212.123 239.594,195.383C215.492,176.238 213.723,153.286 212.956,144.483Z" style="fill:rgb(1,125,62);"/>
        <path d="M858.5,102.949C857.597,103.069 854.782,102.03 854.761,105.504C854.656,123.353 855.01,207.35 854.547,208.522C854.068,209.735 853.572,209.517 831.5,209.517C826.99,209.517 824.845,211.04 824.839,206.498C824.712,105.102 826.021,103.821 823.644,103.124C821.598,102.524 782.94,103.878 781.702,102.334C781.253,101.774 781.287,101.676 781.295,76.499C781.297,72.118 783.142,73.093 787.5,73.089C796.225,73.081 895.764,72.985 896.566,73.114C898.606,73.441 898.235,74.409 898.235,95.5C898.235,97.463 898.958,102.547 896.575,102.924C896.371,102.957 896.375,102.947 858.5,102.949Z" style="fill:rgb(1,125,62);"/>
        <path d="M60.864,200.234C62.023,200.235 62.04,200.301 62.115,200.235C63.772,198.773 60.463,178.896 70.637,169.654C78.733,162.298 98.647,168.739 115.176,157.055C124.269,150.628 124.518,134.511 127.521,136.465C128.472,137.084 127.111,140.434 126.981,140.755C122.079,152.823 113.036,184.4 110.868,188.67C102.145,205.85 90.155,202.527 69.443,206.199C9.431,216.841 -20.765,137.225 33.624,104.718C41.118,100.239 54.323,97.682 56.577,98.204C58.948,98.754 57.778,109.904 58.341,116.51C59.373,128.602 59.864,167.551 60.225,172.525C61.691,192.759 59.611,192.812 60.864,200.234Z" style="fill:rgb(15,123,63);"/>
        <path d="M149.566,250.657C180.223,247.483 308.372,230.91 484.499,228.37C678.706,225.57 821.428,242.617 838.527,244.208C875.365,247.637 875.287,248.357 878.501,248.496C882.546,248.671 882.455,248.934 886.501,249.34C890.076,249.698 890.008,249.913 893.531,250.438C895.537,250.738 897.267,250.209 897.264,251.5C897.26,253.677 892.872,252.393 892.501,252.285C887.212,250.738 833.478,246.472 828.512,246.205C777.856,243.479 777.882,243.156 773.474,242.987C684.504,239.587 684.564,239.45 595.496,238.85C351.51,237.207 159.747,251.251 156.457,251.846C155.849,251.955 149.154,253.165 148.74,252.15C148.638,251.9 149.324,251.75 149.222,251.5L149.566,250.657Z" style="fill:rgb(245,131,33);"/>
        <path d="M193.5,73.089C197.35,73.305 197.541,72.915 198.126,73.779C198.517,74.356 198.473,74.43 198.473,159.5C198.473,208.292 198.627,208.797 197.423,209.315C195.517,210.134 195.415,209.579 171.5,209.518C167.887,209.509 168.51,208.079 168.503,204.5C168.483,194.101 168.259,76.011 168.568,74.515C168.922,72.8 169.729,73.089 193.5,73.089Z" style="fill:rgb(0,125,61);"/>
        <path d="M504.902,194.5C504.9,207.803 505.579,209.735 502.512,209.778C500.427,209.807 477.905,210.122 476.453,209.617C475.116,209.153 475.333,208.566 475.328,174.5C475.322,130.497 475.504,130.533 475.371,86.5C475.365,84.303 474.667,80.808 476.598,81.034C477.799,81.175 477.209,82.011 487.069,91.93C497.981,102.908 501.982,111.393 502.889,113.318C505.773,119.435 504.712,119.781 504.902,194.5Z" style="fill:rgb(15,123,62);"/>
        <path d="M76.253,86.56C77.588,80.554 77.171,80.515 78.277,74.457C80.684,61.27 79.262,46.259 91.615,41.825C96.97,39.902 115.45,37.061 117.539,36.739C146.24,32.326 141.113,7.997 145.521,7.921C148.053,7.877 145.953,9.686 131.285,56.42C124.542,77.906 118.627,74.683 88.574,79.976C78.129,81.816 79.172,86.265 77.515,86.564C77.101,86.639 76.667,86.485 76.253,86.56Z" style="fill:rgb(16,123,63);"/>
        <path d="M77.998,90.78C85.399,81.649 87.028,83.771 107.427,80.078C117.846,78.192 130.387,76.689 136.216,58.379C137.331,54.877 137.854,51.467 139.495,51.518C141.851,51.591 139.502,53.075 127.46,91.487C123.537,104.003 121.512,117.412 102.525,119.677C80.81,122.267 75.305,122.895 72.22,129.15C70.7,132.231 70.729,128.827 70.822,128.473C71.171,127.143 72.445,122.293 73.714,111.525C75.486,96.494 75.519,96.483 77.998,90.78Z" style="fill:rgb(15,123,63);"/>
        <path d="M65.157,170.591C69.821,151.45 67.127,135.775 75.884,128.96C83.514,123.024 102.553,123.96 110.386,121.179C133.427,112.997 129.799,93.589 133.449,93.903C134.386,93.984 134.955,94.659 131.152,105.429C125.727,120.788 125.928,120.797 121.046,136.348C113.633,159.958 109.626,159.81 81.552,162.958C72.769,163.943 72.181,163.671 66.476,170.424L65.157,170.591Z" style="fill:rgb(15,123,63);"/>
        <path d="M690.966,125.551C697.739,92.345 741.525,98.722 742.185,128.506C742.352,136.01 742.485,138.943 740.46,139.14C740.159,139.169 692.829,139.169 692.541,139.14C689.995,138.883 690.871,131.768 690.966,125.551Z" style="fill:rgb(254,254,254);"/>
        <path d="M616.499,333.065C588.084,331.487 595.214,291.167 621.538,297.346C639.127,301.474 641.366,331.288 616.499,333.065Z" style="fill:rgb(1,125,62);"/>
        <path d="M366.048,315.518C367.352,290.01 397.506,292.795 402.079,309.623C408.956,334.924 368.276,343.639 366.048,315.518Z" style="fill:rgb(1,125,62);"/>
        <path d="M358.568,364.942C385.456,361.941 386.305,393.186 369.369,399.126C344.349,407.9 332.957,371.015 358.568,364.942Z" style="fill:rgb(1,125,62);"/>
        <path d="M891.432,364.953C915.839,370.871 906.875,404.415 883.582,400.061C863.441,396.297 863.394,361.753 891.432,364.953Z" style="fill:rgb(1,125,62);"/>
        <path d="M414.429,126.042C411.719,126.18 408.332,126.351 380.505,126.195C376.628,126.173 377.848,124.396 377.839,120.5C377.805,104.634 377.538,103.493 379.454,103.252C379.576,103.236 411.67,103.097 413.519,103.33C426.226,104.931 428.82,122.514 414.429,126.042Z" style="fill:rgb(254,254,254);"/>
        <path d="M763.5,399.895C760.157,399.689 758.619,400.836 758.574,397.497C758.541,395.02 758.19,368.751 758.643,366.532C758.912,365.215 759.329,364.95 771.504,365.115C773.415,365.141 787.764,365.335 789.811,380.453C790.956,388.905 785.206,394.403 784.291,395.278C778.475,400.839 771.081,399.896 763.5,399.895Z" style="fill:rgb(1,125,62);"/>
        <path d="M507.072,92.49C506.007,102.917 504.331,102.773 503.652,102.295C502.398,101.411 504.453,99.694 491.669,87.319C473.132,69.375 459.24,50.307 472.408,22.452C473.165,20.851 480.746,8.081 482.389,8.866C484.213,9.739 480.894,11.365 477.783,20.586C471.834,38.223 476.821,50.014 477.81,52.355C481.705,61.565 492.265,68.993 497.395,73.619C504.915,80.402 506.687,83.965 507.072,92.49Z" style="fill:rgb(115,191,69);"/>
        <path d="M613.589,301.915C632.302,300.366 632.108,317.933 626.173,324.192C616.176,334.734 598.618,323.103 604.476,309.489C607.269,302.999 613.414,301.976 613.589,301.915Z" style="fill:rgb(254,254,254);"/>
        <path d="M371.106,314.474C374.261,295.028 394.459,300.825 397.039,310.637C402.134,330.018 372.261,336.157 371.106,314.474Z" style="fill:rgb(254,254,254);"/>
        <path d="M366.629,370.077C384.005,376.157 373.543,401.174 357.388,394.759C343.981,389.436 347.675,365.399 366.629,370.077Z" style="fill:rgb(254,254,254);"/>
        <path d="M883.378,370.094C903.651,365.154 905.568,391.618 891.411,395.171C874.39,399.443 867.528,375.636 883.378,370.094Z" style="fill:rgb(254,254,254);"/>
        <path d="M570.101,314.5C570.101,299.62 569.953,298.29 570.64,297.651C570.982,297.334 588.434,294.275 589.835,305.451C590.916,314.072 583.806,314.515 585.903,317.167C590.858,323.432 590.352,323.748 594.91,330.289C597.215,333.597 591.732,334.355 588.998,330.172C586.91,326.978 587.18,326.883 585.128,323.729C578.712,313.868 575.189,317.693 575.126,319.467C574.742,330.253 576.992,332.789 572.497,332.727C569.484,332.686 570.101,331.123 570.101,314.5Z" style="fill:rgb(2,125,63);"/>
        <path d="M218.5,297.181C218.917,297.186 225.811,296.742 229.491,298.516C231.427,299.45 233.46,301.639 234.01,303.639C236.663,313.274 228.313,314.425 230.715,317.322C234.634,322.05 234.384,322.19 237.637,327.418C238.916,329.473 243.238,333.651 236.477,332.639C232.729,332.078 229.028,318.268 222.516,317.358C218.435,316.788 219.99,323.231 219.779,330.522C219.691,333.554 214.935,333.766 214.793,330.484C214.784,330.273 214.789,299.565 214.791,299.513C214.91,296.876 215.909,297.474 218.5,297.181Z" style="fill:rgb(2,125,62);"/>
        <path d="M883.224,323.675C885.359,327.129 885.28,327.115 887.597,330.445C889.43,333.08 884.597,334.463 882.034,330.828C879.902,327.805 873.002,314.545 868.561,317.595C866.632,318.92 869.311,331.794 866.535,332.609C861.942,333.96 862.774,331.264 862.77,326.5C862.769,324.341 862.75,300.854 862.774,299.512C862.778,299.284 862.813,297.318 864.452,297.208C866.759,297.054 883.889,295.197 882.364,308.484C881.63,314.877 876.145,314.386 878.637,317.382C881.153,320.405 881.211,320.303 883.224,323.675Z" style="fill:rgb(2,125,62);"/>
        <path d="M731.616,301.419C737.749,312.163 726.593,313.893 729.563,317.446C734.392,323.225 733.681,323.662 738.028,329.826C739.312,331.648 739.758,332.755 737.551,332.795C730.846,332.916 731.277,325.693 725.313,319.687C721.537,315.885 718.681,317.137 718.633,319.508C718.474,327.327 719.691,332.474 716.517,332.72C712.816,333.007 713.633,329.978 713.633,317.5C713.633,298.515 713.207,297.324 715.459,297.201C729.324,296.443 730.719,300.397 731.616,301.419Z" style="fill:rgb(2,125,62);"/>
        <path d="M409.083,374.509C408.447,381.215 406.747,380.485 404.802,382.746C403.768,383.949 405.922,384.799 410.16,391.71C414.736,399.171 415.152,399.552 414.297,400.005C413.099,400.639 410.706,399.896 410.409,399.804C407.336,398.849 401.504,383.005 395.577,384.932C393.94,385.464 394.167,385.819 394.153,387.49C394.09,395.053 394.846,399.414 392.584,399.916C387.942,400.946 389.188,398.254 389.187,393.5C389.183,366.278 388.979,365.654 390.4,365.224C390.862,365.085 399.7,364.937 401.519,365.415C408.857,367.34 408.809,373.063 409.083,374.509Z" style="fill:rgb(2,125,62);"/>
        <path d="M605.087,394.5C604.675,398.158 606.215,400.038 602.503,400.017C600.341,400.004 600.036,399.69 600.007,397.521C599.973,395.046 599.6,367.81 599.979,366.579C600.483,364.944 603.847,363.987 606.108,366.82C614.25,377.024 614.966,380.3 617.815,376.757C625.407,367.317 626.692,364.007 630.601,365.234C631.921,365.648 631.799,366.218 631.784,396.501C631.782,402.285 626.692,400.567 626.665,397.496C626.467,375.563 627.468,372.279 625.444,374.364C623.354,376.516 617.751,386.278 615.391,385.849C614.305,385.652 614.348,385.448 606.748,375.096C605.911,373.956 604.72,374.563 604.917,376.517C605.125,378.581 605.087,378.561 605.087,394.5Z" style="fill:rgb(2,125,62);"/>
        <path d="M715.918,390.5C715.917,396.121 716.815,399.932 713.503,399.95C711.375,399.961 711.067,399.65 711.041,397.518C711.011,395.027 710.685,367.85 711.125,366.375C711.57,364.891 711.947,365.128 713.486,365.111C714.746,365.096 730.52,362.944 730.849,374.49C731.058,381.795 724.026,381.503 727.52,385.482C728.136,386.183 728.008,386.27 733.96,395.203C736.224,398.601 736.657,398.583 736.28,399.394C735.981,400.038 731.971,400.784 730.451,398.538C729.41,397.001 720.893,381.041 716.416,385.422C715.63,386.191 716.035,386.355 715.918,390.5Z" style="fill:rgb(2,125,63);"/>
        <path d="M863.474,399.939C859.526,398.754 860.213,397.467 856.001,390.823C852.071,384.621 849.263,384.844 848.501,384.904C845.394,385.151 846.357,388.922 846.288,397.495C846.256,401.509 841.831,400.121 841.498,398.5C841.418,398.116 841.381,367.108 841.519,366.505C841.718,365.64 842.039,364.24 852.535,365.227C857.294,365.675 860.961,370.001 861.088,373.532C861.418,382.687 855.153,381.924 856.748,384.352C858.193,386.551 858.779,386.064 861.883,391.262C865.289,396.966 869.316,400.359 863.474,399.939Z" style="fill:rgb(2,125,62);"/>
        <path d="M138.638,323.218C140.974,321.865 139.836,321.225 139.78,318.501C139.361,298.18 139.768,297.477 141.455,297.204C145.398,296.568 144.707,298.513 144.706,302.5C144.704,331.496 144.936,332.111 143.527,332.573C139.872,333.771 139.24,330.842 124.857,314.198C121.585,310.413 119.523,306.915 118.509,306.921C117.542,306.927 117.882,307.515 117.862,326.5C117.858,331.096 118.964,333.687 114.462,332.674C112.752,332.289 113.027,331.504 113.028,305.5C113.029,302.888 111.741,295.862 116.535,297.391C118.487,298.013 137.378,321.842 138.638,323.218Z" style="fill:rgb(1,125,62);"/>
        <path d="M56.402,212.132C69.418,209.318 72.185,220.184 72.411,223.506C73.554,240.278 49.077,241.815 47.321,225.517C46.246,215.536 55.175,212.543 56.402,212.132Z" style="fill:rgb(15,123,63);"/>
        <path d="M443.068,322.5C443.067,327.738 444.062,332.921 440.493,332.707C438.565,332.591 438.032,332.559 423.984,315.093C420.794,311.127 420.806,311.202 417.662,307.23C417.069,306.481 416.885,306.572 416.182,307.194C415.509,307.789 417.041,330.935 415.394,332.353C415.112,332.595 411.45,333.71 411.356,330.511C411.343,330.087 411.344,299.704 411.352,299.491C411.418,297.719 413.478,294.983 417.395,299.588C418.83,301.275 431.845,316.578 435.164,320.805C436.794,322.881 436.643,324.478 438.07,323.125C438.712,322.516 437.408,298.991 438.7,297.706C439.48,296.931 442.566,296.895 442.884,298.342C443.108,299.364 443.068,301.196 443.068,322.5Z" style="fill:rgb(1,125,62);"/>
        <path d="M279.095,323.5C279.093,327.827 280.069,333.012 276.488,332.701C274.137,332.496 274.474,331.696 257.308,311.661C257.008,311.311 255.535,309.592 253.71,307.157C252.651,305.743 251.9,306.618 252.01,308.382C252.157,310.769 252.138,331.139 252.04,331.397C251.351,333.229 247.672,333.443 247.601,330.494C247.59,330.063 247.592,299.588 247.596,299.505C247.612,299.159 247.758,295.994 251.463,297.576C252.755,298.128 265.958,314.645 270.327,319.647C270.948,320.358 274.76,326.254 274.516,321.502C274.386,318.969 273.908,298.834 274.817,297.785C275.281,297.249 278.964,296.052 279.094,299.515C279.095,299.552 279.095,321.581 279.095,323.5Z" style="fill:rgb(1,125,62);"/>
        <path d="M90.058,390.5C90.048,393.639 90.707,399.459 88.596,399.901C85.415,400.566 84.364,397.986 75.427,387.561C66.196,376.793 63.311,372.059 63.128,375.333C63.029,377.103 63.504,377.095 63.241,397.494C63.196,400.965 58.835,401.041 58.811,397.493C58.795,395.019 58.616,367.664 58.856,366.566C59.102,365.442 61.576,363.775 64.213,366.748C65.798,368.536 77.321,381.525 83.327,389.701C84.426,391.198 85.56,391.388 85.58,389.52C85.825,367.027 84.397,365.315 87.47,365.115C91.592,364.846 89.551,367.499 90.058,390.5Z" style="fill:rgb(2,125,62);"/>
        <path d="M774.422,369.902C791.465,374.762 785.607,394.663 772.484,395.273C767.448,395.507 763.658,395.767 763.552,393.494C763.528,392.994 763.514,371.809 763.548,371.505C763.831,368.984 767.983,369.321 774.422,369.902Z" style="fill:rgb(254,254,254);"/>
        <path d="M642.952,328.5C643.191,310.727 642.902,304.999 643.024,299.464C643.082,296.82 644.806,297.012 654.512,297.191C661.236,297.315 664.881,302.516 664.678,307.507C664.206,319.098 649.994,317.224 649.462,317.364C646.162,318.23 650.181,331.943 646.535,332.682C643.118,333.373 643.197,332.009 642.952,328.5Z" style="fill:rgb(2,125,63);"/>
        <path d="M844.279,304.606C845.121,306.622 853.164,325.852 855.07,329.689C857.277,334.134 851.583,333.124 850.697,331.388C847.173,324.486 848.565,322.184 843.501,322.176C833.914,322.161 832.711,321.248 831.042,325.329C828.739,330.962 828.53,332.673 825.489,332.749C825.443,332.75 822.732,333.081 823.719,330.566C824.765,327.902 836.245,298.662 837.574,297.59C840.25,295.432 841.802,298.962 841.953,299.306C844.175,304.358 844.173,304.345 844.279,304.606Z" style="fill:rgb(3,125,63);"/>
        <path d="M451.842,325.65C462.2,300.885 461.889,300.784 462.916,298.69C463.549,297.397 466.453,295.257 468.246,299.601C481.108,330.75 483.35,332.288 480.56,332.752C476.989,333.347 475.928,330.034 473.689,324.42C472.774,322.125 472.177,322 460.489,322.182C455.694,322.257 456.575,331.995 452.523,332.688C447.457,333.554 450.474,328.962 451.842,325.65Z" style="fill:rgb(3,126,63);"/>
        <path d="M316.329,327.583C317.81,330.937 319.163,333.009 315.496,332.731C310.058,332.319 312.313,322.255 306.508,322.181C295.467,322.038 294.731,322.14 293.918,323.711C292.032,327.358 291.659,332.937 287.478,332.741C284.253,332.59 286.245,329.938 290.503,319.501C299.395,297.703 299.524,297.073 301.501,297.082C303.558,297.09 303.567,297.749 309.842,312.354C313.131,320.008 313.09,319.965 316.329,327.583Z" style="fill:rgb(3,126,63);"/>
        <path d="M919.07,393.5C919.067,393.983 919.042,398.985 918.516,399.517C918.081,399.958 914.645,400.645 914.156,398.59C913.617,396.326 914.087,396.292 914.097,369.5C914.098,366.41 913.368,365.138 916.48,365.09C924.758,364.964 934.447,363.646 935.505,374.5C936.284,382.5 928.498,384.27 927.499,384.497C927.265,384.55 926.106,384.813 924.517,384.854C921.056,384.943 920.77,384.161 919.48,385.484C918.889,386.09 919.07,391.699 919.07,393.5Z" style="fill:rgb(1,125,62);"/>
        <path d="M506.112,47.552C506.137,48.266 507.701,55.577 500.306,60.179C491.162,65.869 477.81,55.199 483.891,43.719C487.488,36.927 502.293,32.793 506.112,47.552Z" style="fill:rgb(245,130,31);"/>
        <path d="M674.513,399.948C674.202,399.901 671.22,400.648 672.462,397.486C673.47,394.922 684.22,367.557 685.78,365.731C686.154,365.292 688.897,363.876 690.279,366.603C690.3,366.645 701.797,393.372 703.227,396.61C704.55,399.609 703.49,400.873 700.399,399.786C697.748,398.854 697.038,390.082 693.472,389.851C692.525,389.789 683.563,389.207 681.619,389.945C680.158,390.499 679.307,393.2 678.395,395.459C677.103,398.658 677.329,399.114 674.513,399.948Z" style="fill:rgb(2,125,63);"/>
        <path d="M483.5,379.92C486.777,379.679 488.272,380.769 488.304,377.495C488.385,369.286 487.391,365.318 490.47,365.116C494.238,364.868 493.413,367.18 493.413,380.5C493.413,398.523 493.859,399.576 491.559,399.935C486.948,400.656 488.306,398.135 488.305,393.5C488.305,390.015 489.026,385.107 486.464,384.89C486.281,384.874 471.721,384.87 471.537,384.89C471.344,384.911 469.835,385.076 469.765,386.537C469.246,397.33 471.879,400.779 466.535,400.008C464.289,399.684 464.697,398.624 464.697,377.5C464.697,368.069 463.817,364.903 467.527,365.114C470.749,365.297 469.622,369.733 469.736,377.494C469.74,377.729 469.77,379.792 471.434,379.896C471.818,379.92 482.535,379.92 483.5,379.92Z" style="fill:rgb(1,125,62);"/>
        <path d="M933.09,315.5C933.09,298.936 932.736,297.667 934.434,297.246C940.075,295.849 937.404,299.877 938.048,310.576C938.158,312.412 939,312.452 954.497,312.353C957.899,312.331 957.11,310.897 957.115,307.5C957.123,301.805 956.174,297.259 959.49,297.181C962.756,297.104 962.107,298.831 962.107,314.5C962.107,331.084 962.774,332.806 959.493,332.725C956.026,332.639 957.62,330.745 957.111,319.518C956.978,316.578 953.855,317.248 952.5,317.248C940.921,317.247 938.117,316.555 937.962,319.52C937.368,330.858 938.876,332.736 935.5,332.729C932.468,332.722 933.09,331.134 933.09,315.5Z" style="fill:rgb(2,125,63);"/>
        <path d="M228.931,371.5C228.958,370.615 228.325,365.599 230.425,365.152C233.592,364.476 234.135,365.267 234.029,368.501C233.824,374.76 234.126,386.825 233.779,389.535C231.999,403.434 204.665,406.478 204.978,385.498C205.254,366.933 204.215,365.061 207.509,365.11C210.628,365.156 209.874,368.046 209.874,377.5C209.874,383.753 207.765,396.733 220.523,395.796C230.629,395.053 228.931,386.427 228.931,371.5Z" style="fill:rgb(1,125,62);"/>
        <path d="M745.962,321.5C746.312,310.938 745.463,298.606 746.598,297.617C747.909,296.476 762.182,297.132 763.537,297.194C765.653,297.292 765.479,299.438 765.479,299.5C765.469,303.322 763.354,301.441 753.511,301.809C751.866,301.87 750.63,302.057 751.127,310.557C751.277,313.115 756.253,312.305 762.503,312.353C762.831,312.355 765.781,312.378 764.986,315.617C764.138,319.071 752.042,315.274 751.194,318.403C751.062,318.893 751.07,326.151 751.185,326.593C751.661,328.426 752.446,327.585 763.488,327.933C767.125,328.047 765.761,331.842 765.28,332.244C764.249,333.106 764.107,332.872 748.494,332.688C745.08,332.647 745.962,328.736 745.962,321.5Z" style="fill:rgb(4,126,64);"/>
        <path d="M818.062,314.517C817.108,318.545 815.621,317.109 811.5,317.109C809.103,317.109 804.216,316.107 804.162,319.483C804.085,324.259 803.456,327.86 806.47,327.927C813.545,328.084 819.063,326.72 818.868,330.521C818.724,333.344 816.006,332.695 804.5,332.69C800.643,332.688 799.106,333.379 799.098,329.504C799.038,297.894 799.412,297.89 799.651,297.667C800.407,296.962 817.243,296.72 818.116,297.822C818.593,298.423 819.235,301.68 816.532,301.793C806.615,302.209 804.186,300.02 804.16,304.494C804.14,307.73 803.238,312.296 806.507,312.349C811.027,312.421 810.993,312.257 815.503,312.353C818.334,312.414 817.715,313.656 818.062,314.517Z" style="fill:rgb(2,125,63);"/>
        <path d="M192.072,307.5C192.296,310.815 191.205,312.318 194.504,312.352C201.378,312.421 205.735,311.442 205.929,314.465C206.049,316.341 205.342,317.058 203.492,317.109C193.512,317.383 192.661,316.468 192.152,318.391C192.033,318.839 192.04,326.191 192.144,326.605C192.955,329.836 206.004,325.951 206.914,329.391C207.775,332.644 204.833,332.683 204.507,332.687C188.205,332.9 187.773,332.876 187.319,331.575C187.28,331.464 186.607,298.763 187.693,297.696C188.47,296.931 205.248,296.73 206.094,297.833C206.563,298.444 207.157,301.673 204.534,301.791C203.733,301.827 203.763,301.691 194.507,301.808C190.727,301.855 192.336,303.721 192.072,307.5Z" style="fill:rgb(2,125,63);"/>
        <path d="M893.946,316.471C893.978,315.506 894.192,309.044 896.923,304.781C904.454,293.025 923.745,296.427 924.148,301.52C924.555,306.644 921.562,303.275 916.593,302.126C896.466,297.473 893.042,326.421 910.533,328.064C920.383,328.989 925.714,320.947 924.685,328.528C924.152,332.455 908.801,335.976 900.676,329.28C894.339,324.058 894.095,317.095 893.946,316.471Z" style="fill:rgb(1,125,62);"/>
        <path d="M550.492,333.06C520.666,332.639 525.98,290.257 556.403,297.882C561.168,299.076 560.998,300.828 561.091,302.485C561.413,308.255 553.731,297.659 542.486,303.475C529.199,310.349 537.304,336.997 559.465,325.415C562.433,323.865 562.504,329.655 559.307,331.064C556.142,332.459 551.211,332.984 550.492,333.06Z" style="fill:rgb(2,125,62);"/>
        <path d="M516.5,379.92C516.785,379.928 522.444,378.962 522.084,382.485C521.745,385.811 517.101,384.59 510.514,384.727C508.502,384.769 507.928,386.364 508.322,393.523C508.486,396.499 516.908,395.063 521.52,395.371C523.121,395.479 523.168,397.294 523.173,397.51C523.245,400.258 522.209,399.876 519.5,399.895C505.544,399.998 505.532,400.142 504.398,399.723C503.207,399.284 503.359,398.785 503.367,371.5C503.368,367.109 502.081,365.125 506.496,365.11C521.413,365.058 522.961,364.644 522.798,367.516C522.62,370.655 516.976,369.446 510.507,369.609C507.463,369.686 508.267,374.884 508.302,377.507C508.348,380.874 512.737,379.915 516.5,379.92Z" style="fill:rgb(1,125,62);"/>
        <path d="M286.5,379.92C287.788,379.92 293.584,379.616 294.36,380.606C294.798,381.164 294.791,382.954 294.599,383.537C293.769,386.063 282.232,383.67 281.338,385.376C280.605,386.774 280.982,393.379 281.018,393.584C281.552,396.607 282.965,395.086 293.51,395.347C296.622,395.424 296.801,399.816 293.529,399.891C276.729,400.271 276.26,399.811 275.989,398.429C275.543,396.148 275.988,369.948 276.03,367.472C276.083,364.357 277.391,365.11 280.5,365.109C292.254,365.106 295.282,364.402 295.181,367.488C295.084,370.459 290.525,369.548 283.502,369.602C280.199,369.627 280.807,373.134 280.928,377.491C281.032,381.214 282.773,379.881 286.5,379.92Z" style="fill:rgb(1,125,62);"/>
        <path d="M955.929,381.518C959.943,357.071 985.37,365.423 986.031,368.578C987.615,376.138 982.193,369.302 974.499,369.364C953.756,369.529 957.656,406.033 984.633,392.803C987.341,391.474 986.746,395.601 986.471,396.491C985.416,399.9 957.456,408.152 955.929,381.518Z" style="fill:rgb(2,125,62);"/>
        <path d="M583.5,379.92C586.619,379.92 591.491,378.949 591.342,382.493C591.174,386.505 589.015,384.431 579.521,384.734C577.43,384.801 577.306,387.451 577.58,393.491C577.782,397.944 592.22,392.552 592.413,397.503C592.53,400.508 589.773,399.941 578.5,399.895C574.699,399.88 572.901,401.278 572.85,397.49C572.848,397.348 572.848,367.564 572.85,367.511C572.961,364.281 574.288,365.11 577.5,365.109C588.97,365.107 592.085,364.372 591.923,367.525C591.757,370.765 590.029,369.216 579.512,369.617C576.798,369.721 577.534,375.196 577.562,377.498C577.608,381.441 579.571,379.731 583.5,379.92Z" style="fill:rgb(1,125,62);"/>
        <path d="M1005.492,396.08C1005.834,396.028 1008.763,395.584 1009.54,394.537C1013.721,388.897 1004.661,384.866 1001.801,383.034C992.659,377.181 993.975,364.739 1007.52,365.125C1016.648,365.386 1014.9,373.902 1012.369,371.817C1008.488,368.621 1002.741,369.503 1001.519,371.514C998.632,376.264 1005.949,379.595 1008.224,380.964C1023.387,390.083 1012.801,405.924 998.67,399.15C994.346,397.077 995.985,390.983 998.149,392.956C1000.849,395.417 1000.862,395.692 1005.492,396.08Z" style="fill:rgb(1,125,62);"/>
        <path d="M678.509,333.057C677.807,332.941 671.358,331.879 670.306,329.611C668.929,326.645 670.171,323.332 671.737,325.084C675.713,329.534 681.236,328.251 682.378,327.333C689.127,321.908 675.607,315.35 672.92,313.054C668.986,309.694 668.935,303.397 671.992,299.945C675.523,295.957 687.738,294.615 687.722,302.538C687.718,304.723 686.614,304.207 684.776,303.014C684.169,302.621 679.199,299.395 675.74,302.774C670.802,307.599 681.568,312.77 683.251,313.872C690.651,318.717 692.97,331.816 678.509,333.057Z" style="fill:rgb(1,125,62);"/>
        <path d="M781.495,333.059C773.15,332.224 772.424,330.64 772.073,326.437C771.708,322.076 775.212,326.723 777.453,327.608C785.058,330.612 790.5,323.254 782.248,317.874C779.829,316.298 769.388,311.788 772.656,302.558C775.315,295.051 789.554,295.029 790.045,301.505C790.432,306.621 787.501,302.696 784.42,301.784C780.293,300.562 770.183,304.351 782.698,312.176C784.559,313.34 791.714,316.56 791.115,324.452C790.845,328.01 788.745,330.003 788.366,330.362C786.376,332.25 782.078,332.963 781.495,333.059Z" style="fill:rgb(2,125,62);"/>
        <path d="M105.581,364.955C112.762,364.301 116.171,365.295 116.279,370.473C116.36,374.406 110.721,367.082 105.585,369.681C96.908,374.072 111.523,381.359 112.25,381.852C122.796,388.987 115.911,405.027 101.659,399.119C96.331,396.911 97.769,390.173 100.756,393.097C103.951,396.226 109.746,397.086 112.176,393.31C116.315,386.879 100.593,383.553 98.684,376.449C96.313,367.626 104.551,365.252 105.581,364.955Z" style="fill:rgb(1,125,62);"/>
        <path d="M558.422,364.952C561.222,365.67 563.598,365.846 563.551,370.51C563.513,374.206 556.595,366.03 551.546,370.554C544.711,376.677 562.493,379.678 564.447,388.511C567.571,402.637 546.698,402.903 545.865,395.483C545.834,395.206 545.231,389.84 547.54,392.434C554.449,400.197 566.013,393.064 556.29,385.791C555.093,384.896 541.197,378.719 546.982,368.808C549.696,364.157 557.461,364.864 558.422,364.952Z" style="fill:rgb(1,125,62);"/>
        <path d="M324.5,365.109C334.568,365.109 338.233,364.38 338.067,367.487C337.96,369.497 337.551,369.581 335.502,369.601C330.318,369.65 324.831,368.764 324.74,371.522C324.65,374.235 324.1,379.072 326.534,379.15C336.714,379.475 337.359,378.737 337.891,380.348C338.983,383.661 335.833,383.691 335.505,383.694C330.356,383.743 324.84,382.887 324.743,385.525C324.281,397.973 325.812,399.625 322.533,399.946C319.181,400.275 319.853,398.311 319.853,381.5C319.853,377.167 319.853,372.834 319.853,368.501C319.922,363.639 322.75,365.276 324.5,365.109Z" style="fill:rgb(1,125,62);"/>
        <path d="M162.963,312.5C162.963,305.432 163.856,301.772 160.494,301.739C156.88,301.703 151.582,302.682 151.531,299.5C151.481,296.358 155.653,297.172 161.5,297.172C178.157,297.173 180.355,296.579 180.099,299.496C179.819,302.697 175.501,301.684 170.509,301.74C167.361,301.775 168.1,304.694 168.1,314.5C168.1,331.023 168.762,332.737 165.5,332.727C162.383,332.718 162.963,331.112 162.963,312.5Z" style="fill:rgb(4,127,64);"/>
        <path d="M330.5,297.173C340.992,297.171 343.77,297.093 344.535,297.436C345.507,297.872 345.44,300.075 345.276,300.436C344.306,302.576 343.559,301.514 335.521,301.749C333.049,301.822 333.542,303.167 333.525,326.5C333.522,330.879 334.852,333.09 330.482,332.718C327.558,332.469 328.503,330.904 328.387,304.501C328.359,298.298 317.044,304.812 316.95,299.495C316.897,296.458 320.332,297.172 330.5,297.173Z" style="fill:rgb(1,125,62);"/>
        <path d="M819.5,365.088C831.214,365.086 834.253,364.364 834.138,367.485C834.027,370.516 827.694,369.449 824.502,369.534C821.179,369.623 822.496,373.841 822.293,397.495C822.258,401.505 817.9,399.694 817.63,399.388C816.699,398.333 817.402,374.943 817.178,371.525C816.894,367.198 805.744,371.805 805.86,367.484C805.944,364.36 808.519,365.086 819.5,365.088Z" style="fill:rgb(1,125,62);"/>
        <path d="M251.894,377.5C251.89,376.042 252.205,370.576 251.206,369.886C250.361,369.302 243.863,369.563 242.499,369.511C239.652,369.404 240.22,365.767 241.395,365.295C242.717,364.764 264.509,365.061 266.518,365.088C266.891,365.093 269.09,364.859 268.91,367.531C268.679,370.955 261.03,369.102 258.515,369.579C256.617,369.939 256.96,370.832 256.957,393.5C256.957,398.305 258.078,401.014 253.412,399.911C251.557,399.473 251.894,398.649 251.894,377.5Z" style="fill:rgb(1,125,62);"/>
        <path d="M139.104,378.5C139.104,398.64 139.449,399.469 137.589,399.911C132.888,401.026 134.062,398.296 134.061,393.5C134.058,370.832 134.407,369.922 132.487,369.574C130.139,369.149 122.529,370.886 122.275,367.515C122.097,365.161 124.203,365.101 124.464,365.094C126.475,365.037 147.238,364.445 149.613,365.225C150.978,365.673 151.746,369.437 148.501,369.519C146.9,369.56 140.627,369.309 139.791,369.885C138.8,370.568 139.109,375.865 139.104,378.5Z" style="fill:rgb(1,125,62);"/>
        <path d="M443.5,365.088C453.92,365.086 457.693,364.323 457.496,367.5C457.222,371.919 446.091,367.121 445.763,371.522C445.537,374.555 446.231,398.27 445.324,399.354C445.256,399.436 440.756,401.79 440.721,397.495C440.525,373.52 441.817,369.62 438.498,369.534C434.772,369.437 429.351,370.479 429.145,367.526C428.922,364.334 432.443,365.086 443.5,365.088Z" style="fill:rgb(1,125,62);"/>
        <path d="M184.5,365.088C194.889,365.086 198.517,364.319 198.346,367.492C198.107,371.92 187.085,367.128 186.768,371.522C186.547,374.593 187.238,398.281 186.331,399.359C186.125,399.602 181.816,401.543 181.787,397.493C181.608,372.681 182.85,369.604 179.498,369.531C174.907,369.433 170.406,370.49 170.014,367.542C169.589,364.343 173.331,365.086 184.5,365.088Z" style="fill:rgb(1,125,62);"/>
        <path d="M509.017,330.488C507.668,334.172 506.461,332.726 502.5,332.726C491.929,332.726 488.662,333.437 488.592,330.494C488.53,327.884 487.851,299.422 488.961,297.86C489.354,297.306 493.422,295.914 493.492,299.5C493.74,312.121 492.713,326.945 494.409,327.665C495.606,328.173 495.653,327.878 503.5,327.906C507.04,327.918 508.162,326.993 509.017,330.488Z" style="fill:rgb(2,125,62);"/>
        <path d="M46.48,400.014C42.285,399.365 43.576,397.753 43.575,393.5C43.572,366.21 43.428,365.809 44.424,365.365C48.59,363.51 48.649,367.114 48.655,367.493C48.695,369.975 49.121,396.152 48.599,398.521C48.294,399.908 47.828,399.481 46.48,400.014Z" style="fill:rgb(1,125,61);"/>
        <path d="M355.529,297.189C358.398,298.314 357.568,299.439 357.568,307.5C357.568,331.525 357.78,332.05 356.512,332.528C352.729,333.954 352.665,330.839 352.657,330.491C352.603,327.882 352.01,299.335 352.998,297.873C353.511,297.115 353.687,297.431 355.529,297.189Z" style="fill:rgb(1,125,61);"/>
        <path d="M157.898,383.5C157.898,366.789 157.239,365.035 160.513,365.11C163.492,365.179 162.886,366.697 162.886,382.5C162.886,398.439 163.498,399.95 160.492,400.017C157.198,400.091 157.898,397.825 157.898,383.5Z" style="fill:rgb(1,125,62);"/>
        <path d="M97.911,327.5C97.911,312.891 97.911,299.583 97.913,299.514C98.043,295.976 101.866,297.319 102.264,297.731C103.326,298.83 102.654,331.499 102.637,331.551C102.13,333.087 99.166,332.836 98.608,332.353C97.976,331.807 97.917,327.892 97.911,327.5Z" style="fill:rgb(1,125,61);"/>
        <path d="M643.522,400.013C642.249,399.474 641.769,399.899 641.475,398.505C640.963,396.074 641.38,369.977 641.419,367.497C641.425,367.125 641.484,363.47 645.564,365.396C646.481,365.829 646.352,366.193 646.348,393.5C646.348,397.722 647.667,399.305 643.522,400.013Z" style="fill:rgb(1,125,62);"/>
        <path d="M746.477,400.013C742.391,399.225 743.749,397.679 743.748,393.5C743.745,366.387 743.626,366.16 744.458,365.437C744.758,365.176 748.011,364.49 748.474,366.506C748.614,367.116 748.579,398.089 748.495,398.499C748.21,399.883 747.735,399.467 746.477,400.013Z" style="fill:rgb(1,125,62);"/>
        <path d="M947.097,383.5C947.097,397.466 947.797,400.205 944.516,400.015C941.795,399.858 942.324,398.479 942.324,380.5C942.324,367.274 941.712,365.28 944.471,365.115C947.761,364.918 947.097,366.75 947.097,383.5Z" style="fill:rgb(1,125,62);"/>
        <path d="M655.385,301.974C662.526,305.091 660.132,312.592 652.507,312.767C651.03,312.8 648.192,313.384 648.118,310.53C647.99,305.532 647.794,302.416 649.561,301.796C650.518,301.461 654.922,301.926 655.385,301.974Z" style="fill:rgb(254,254,254);"/>
        <path d="M919.07,375.5C919.263,371.245 917.906,370.086 920.516,369.581C920.779,369.53 923.075,369.507 924.494,369.589C933.569,370.114 932.304,381.989 920.555,380.163C918.228,379.802 919.352,378.77 919.07,375.5Z" style="fill:rgb(254,254,254);"/>
        <path d="M580.423,301.88C588.306,304.899 584.44,311.531 580.456,312.256C577.097,312.867 575.213,312.793 575.13,310.539C574.892,304.064 574.792,301.687 577.503,301.67C577.737,301.669 577.719,301.686 580.423,301.88Z" style="fill:rgb(254,254,254);"/>
        <path d="M398.548,379.96C398.503,379.964 395.46,380.546 394.515,379.489C394.251,379.195 393.189,369.835 395.436,369.276C396.396,369.037 400.868,369.658 402.181,370.866C403.378,371.967 406.978,378.704 398.548,379.96Z" style="fill:rgb(254,254,254);"/>
        <path d="M715.918,375.5C716.099,370.48 715.69,370.285 716.559,369.575C717.072,369.157 718.356,369.24 718.515,369.25C728.486,369.897 726.668,378.756 721.565,379.831C714.144,381.394 716.042,376.599 715.918,375.5Z" style="fill:rgb(254,254,254);"/>
        <path d="M850.548,379.965C844.523,380.464 846.137,377.501 846.293,371.488C846.416,366.757 857.85,369.523 855.672,376.557C854.803,379.364 851.036,379.896 850.548,379.965Z" style="fill:rgb(254,254,254);"/>
        <path d="M225.388,301.945C232.527,305.194 229.262,311.745 224.479,312.343C218.072,313.144 219.789,309.676 219.786,306.5C219.784,305.067 219.614,302.938 220.239,302.275C221.211,301.242 223.968,301.784 225.388,301.945Z" style="fill:rgb(254,254,254);"/>
        <path d="M724.628,302.132C731.497,305.526 727.89,313.202 720.493,312.586C719.347,312.491 718.2,312.382 718.646,303.515C718.802,300.395 724.394,302.099 724.628,302.132Z" style="fill:rgb(254,254,254);"/>
        <path d="M873.375,301.968C873.977,302.257 878.936,304.636 876.728,309.617C875.425,312.556 867.892,314.263 867.82,310.48C867.676,302.904 867.801,302.77 868.249,302.29C869.243,301.225 871.971,301.796 873.375,301.968Z" style="fill:rgb(254,254,254);"/>
        <path d="M835.802,313.633C838.556,306.598 838.442,305.668 839.585,306.27C840.165,306.575 840.028,306.706 843.019,313.711C845.084,318.547 841.723,317.662 836.501,317.49C833.885,317.404 834.967,316.139 835.802,313.633Z" style="fill:rgb(253,254,253);"/>
        <path d="M467.64,310.431C469.004,313.576 471.198,317.395 468.5,317.498C463.189,317.701 459.853,318.59 461.821,313.628C464.419,307.078 464.093,306.939 464.569,306.564C466.064,305.387 466.764,308.338 467.64,310.431Z" style="fill:rgb(253,254,253);"/>
        <path d="M298.813,311.636C299.815,308.881 299.808,308.899 299.895,308.661C299.977,308.436 301.467,304.366 302.619,307.418C305.717,315.627 306.379,315.57 305.946,316.733C305.45,318.063 297.919,317.467 297.639,317.273C296.604,316.56 297.301,316.27 298.813,311.636Z" style="fill:rgb(253,254,253);"/>
        <path d="M687.581,373.94C687.77,374.026 688.163,373.361 688.601,374.407C692.642,384.04 692.5,384.484 691.694,384.805C691.67,384.815 684.437,385.595 683.58,384.448C682.85,383.472 685.022,380.255 686.721,374.625C687.007,374.396 687.294,374.168 687.581,373.94Z" style="fill:rgb(251,253,252);"/>
        <path d="M662.5,391.054C660.548,391.05 655.512,391.777 654.867,389.452C653.962,386.182 657.156,386.16 657.492,386.158C662.197,386.127 666.534,385.752 666.869,387.365C667.617,390.97 666.177,390.912 662.5,391.054Z" style="fill:rgb(2,126,63);"/>
        <path d="M65.157,170.591L66.476,170.424C66.297,170.742 66.456,171.183 66.276,171.5C64.909,173.916 64.757,171.587 64.777,171.468C64.831,171.154 65.103,170.905 65.157,170.591Z" style="fill:rgb(186,217,199);"/>
    </g>
</svg>
