<?xml version="1.0" encoding="UTF-8" standalone="no"?>
<!DOCTYPE svg PUBLIC "-//W3C//DTD SVG 1.1//EN" "http://www.w3.org/Graphics/SVG/1.1/DTD/svg11.dtd">
<svg width="100%" height="100%" viewBox="0 0 2717 1213" version="1.1" xmlns="http://www.w3.org/2000/svg" xmlns:xlink="http://www.w3.org/1999/xlink" xml:space="preserve" xmlns:serif="http://www.serif.com/" style="fill-rule:evenodd;clip-rule:evenodd;stroke-linejoin:round;stroke-miterlimit:2;">
    <g id="Page-1" serif:id="Page 1" transform="matrix(4.166667,0,0,4.166667,0,0)">
        <rect x="0" y="0" width="652" height="291" style="fill:none;"/>
        <g id="layer">
            <g transform="matrix(1,0,0,1,297.3,162.1)">
                <path d="M0,-122.5C-0.1,-123 -2.5,-124 -1.5,-125.2C-0.8,-126.1 1.5,-127 1.9,-127.7C2.2,-128.4 2.4,-128.8 2.1,-129.4C1.6,-130.2 -0.1,-131.2 -0.3,-131.3C1.6,-132.2 3.3,-131.6 6.3,-133.6C6,-133.7 3.4,-134.4 2.9,-134.7C3.5,-134.8 7.7,-136.4 6.5,-136.9C5.7,-137.3 3.9,-136.7 3.7,-137.8C3.8,-138.9 5.4,-139.5 5.7,-139.9C3.9,-141.5 0.8,-140.1 -1.9,-140.1C-1.8,-140.4 -1.8,-140.8 -1.7,-141.1C-3.1,-141.4 -11.2,-138.4 -6.4,-141.7C-10.2,-141.6 -10.7,-141.6 -12.4,-142.3C-11.1,-142.2 -10.1,-143.8 -9.3,-144.3C-18.7,-146.4 -32.8,-143.5 -41.2,-142C-52,-140.1 -59.3,-139.4 -70.3,-137.8C-77.4,-136.8 -84,-136 -91,-134.8C-97.6,-133.6 -104.2,-132.8 -110.8,-132.1C-121.5,-131 -130.9,-129.1 -144,-128.6C-149.1,-128.4 -155.6,-127.7 -160.4,-127.1C-165.3,-126.5 -170.5,-126.6 -174.6,-124.7C-174,-124.6 -173.7,-124.3 -173.1,-124.1C-174.5,-121.9 -175.1,-120.7 -170.4,-120C-170.4,-119.8 -175.7,-118.6 -177.7,-118.2C-177.4,-116.9 -176.7,-115.4 -175.1,-114.8C-173.4,-114.2 -170.8,-114.4 -170,-114.1C-168.4,-113.5 -167,-112.8 -165.3,-112.4C-163.9,-112.1 -161,-111.4 -159.6,-111.6C-160.1,-111.2 -164.2,-110.4 -165.3,-110.2C-164.5,-109.9 -163.3,-108.6 -161.6,-108.6C-159.8,-108.5 -155.9,-108.7 -155.5,-108.2C-153.8,-105.8 -155.3,-102.4 -150.7,-102.8C-147.9,-103 -140.6,-102.5 -137.9,-102.8C-134.9,-103.2 -126.3,-105.7 -123.4,-105.8L-122.3,-102C-122,-97.1 -120.7,-94.2 -120.2,-90C-119.7,-85.6 -115.6,-61.4 -115,-57.1C-113.5,-46.6 -111.2,-36 -110.4,-30.9C-109.7,-26.1 -108.6,-17.5 -107.7,-9.7C-106.9,-2.3 -107.1,1.6 -106.7,9.3L-104.3,15.4C-102.5,12.7 -101.7,18.2 -100.9,14.2C-100.2,15.3 -99,18.7 -97.4,16.3C-96.2,18.6 -95,17 -93.8,18C-93.4,18 -91.8,20.8 -91.4,20.8C-91.3,20.3 -90.4,15.4 -90.3,15C-88.6,15.8 -89.3,22.6 -87.3,22.5C-87.1,22.2 -85.7,20.8 -85.6,20.7C-85.2,21.5 -84.8,22 -84.7,22.9C-84.5,22.5 -83.6,19 -83.4,18.6C-82.8,19.2 -81.5,23 -81.4,23.9C-77,20.8 -79.1,12.6 -73.4,18C-71.9,17.4 -72.2,10.9 -72.2,10.9C-75,3.1 -75.3,-4.2 -75.6,-12.2C-75.8,-17 -77.2,-26.4 -78,-32.2C-79.5,-42.8 -81.1,-52.2 -82.5,-60.6C-83.4,-66 -85.4,-75.4 -86.1,-80.5C-87.5,-91.5 -88.6,-101.1 -89.4,-104.8C-90.5,-109.6 -90.1,-108.5 -90.1,-108.5C-83.9,-110.1 -71.6,-111 -65.9,-111.9C-46.2,-114.9 0,-122.5 0,-122.5" style="fill:rgb(242,101,34);fill-rule:nonzero;"/>
            </g>
            <g transform="matrix(1,0,0,1,76.4,46.3)">
                <path d="M0,143.8C-1.2,145.4 -1.6,147.1 -1.6,149C-1.8,148.8 -3,146.5 -3.3,146.2C-6.9,147.8 -5.8,153.1 -8.9,154.5C-11.1,151.7 -10.4,148.6 -13.4,148.1C-12.8,151.1 -14.4,151.7 -14.2,153C-14.4,152.7 -15.3,150.8 -15.6,150.5C-15.8,151.1 -16.4,153.8 -16.5,154.2C-16.7,150.6 -19.2,149.1 -19.3,146C-19.9,146.8 -19.8,151.8 -20.1,152.7C-22.2,152.1 -26,149.7 -27.6,148.6C-27.1,153.1 -33.2,148.9 -34.4,147.6C-36.4,145.5 -36.4,141.4 -36.4,138.9C-36.4,135.7 -36.6,132.4 -36.6,129.1C-36.6,122.5 -36.8,115.9 -36.8,109.3C-36.7,99.8 -38.5,93.9 -39.6,84.3C-41.2,71.3 -42.3,62.8 -44,54C-45.8,44.8 -47.3,36.4 -49.1,27.3C-50,22.9 -51.5,18.5 -52.1,14.1C-52.8,9.4 -56.5,4.6 -53.2,0.2C-51.2,-2.5 -46.8,-9.6 -42.3,-9.7C-42.3,-9.7 -41.1,-9.7 -41.2,-9.5C-41.7,-8 -45,-3.2 -45.9,-2.4C-43.4,-2.8 -37.6,-10.7 -37.2,-6.6C-36.6,-6.6 -35.1,-6.9 -33.4,-7.9C-32.7,-8.3 -31.9,-7.7 -31.9,-7.7C-31.9,-7.7 -36.6,-3.6 -37.1,-2.2C-37.5,-0.8 -37.4,0.6 -37.4,0.8C-36.8,0.6 -36.4,-0.3 -34.3,-2.3C-32.5,-4.4 -30.4,-6.4 -28.6,-6.4C-27.7,-6.4 -29.9,-4.8 -32.2,-0.8C-28.9,-2.5 -22.8,-7.8 -19.6,-6.8C-20.2,-6.4 -22.6,-4.1 -23.4,-3.1C-24.2,-2.1 -25.2,-0.8 -24.5,-0C-23.8,0.8 -22.4,-1.3 -20.9,-2.7C-19.4,-3.8 -18.5,-3.9 -17.4,-4.1C-16.7,-2.8 -17.8,-2.5 -16.7,-1.2C-16.7,-1.2 -18.8,2.8 -18.5,5.4C-18.2,7.3 -16.5,16.5 -15.7,21.3C-13.7,32.7 -10.2,47.9 -7.3,66.1C-5.9,75 -3.2,98.4 -2.9,105C-2.6,111 -1.8,118.4 -1.7,124.4C-1.7,128.9 -1.1,133.3 -0.5,137.7C0,141 0,143.8 0,143.8" style="fill:rgb(242,101,34);fill-rule:nonzero;"/>
            </g>
            <g transform="matrix(1,0,0,1,135.2,38.1)">
                <path d="M0,154.9C-3.3,153.5 -4.3,159.6 -7.3,160.6C-7.4,159.7 -8.8,157.6 -9.5,157C-9.7,157.3 -10.3,159.3 -10.5,159.7C-10.7,158.8 -11.3,156.8 -11.8,156C-11.9,156.2 -12.3,158.1 -12.5,158.4C-14.9,158.5 -16.7,154.4 -18.7,153.6C-18.9,154 -19.4,156.7 -19.5,157.2C-20.5,155.2 -25,154.2 -25.4,152C-26.4,153.4 -28.1,154.7 -29,153.7C-31.2,153.8 -31.2,152.1 -33.3,152.2L-34.3,147.3C-34.8,139.6 -34.5,141.4 -35.5,134.1C-36.5,126.3 -37.7,100.6 -38.7,92.7C-41.2,72.1 -46,48.1 -46.5,43.7C-47,39.4 -51.5,21.7 -53.7,17.8C-56,13.7 -57.3,11.1 -57,6.6L-56.6,2C-53.8,1.4 -52.5,-0 -52.2,-1C-51.7,-3 -49.8,-4.6 -47.8,-5.7C-47.6,-5 -47.8,-0.8 -47.8,-0C-46.4,-2.9 -46.5,-3.9 -45.3,-4.4C-43.7,-5.1 -41.5,-5.2 -41.2,-5.2C-41.2,-4.4 -42,-2 -42.3,-1.2C-41.4,-1.6 -39.4,-3.1 -38.5,-3.4C-38.7,-2.6 -39,0.7 -38.6,1.5C-37.5,0.1 -35.4,-2.4 -34.5,-2.6C-33.6,-2.9 -32.4,-2.4 -31.8,-2.3C-31.8,-0.4 -33.6,1.3 -27.1,-0.8C-27.4,-0.4 -27.8,1.9 -28.1,2.2C-26.3,1.9 -24.5,-0.3 -23.6,-1.5C-23.1,-1.1 -22.9,-0.7 -22.7,-0.2L-21,4.4C-20.4,5.8 -19.6,9.4 -18.7,12.2C-17.3,16.7 -12.9,36.6 -5.7,74.4C-4.1,82.8 -0.8,113.9 0,122C0.7,129.9 1.9,139.9 1.5,148C1.3,147.8 1.7,154.3 0,154.9" style="fill:rgb(242,101,34);fill-rule:nonzero;"/>
            </g>
            <g transform="matrix(1,0,0,1,262,42.9)">
                <path d="M0,106.6C-1.7,109.4 -5.1,113 -5.5,116.7C-5.7,118.1 -4.5,119.1 -5.1,122.8C-5.3,124.1 -2.6,122.5 -2.5,123.9C-2.2,126.9 -2.9,128 -1.3,130.7C-0.8,130.4 1,129.8 1.6,129.5C2.1,131.6 2.4,136 3,138.1C5.4,136 5.8,134.6 8.3,135.7C11.2,136.9 12.5,137.9 14.7,135.5C19.4,130.6 24.8,118.2 26.2,115.8C28.5,111.8 31.5,107.4 33,103C34.3,99.2 41.5,85.8 43.6,82.9C43.6,82.9 46.2,82.3 50.1,81.8C52,81.6 55.4,80.6 57.3,80.3C62,79.5 66.1,79.3 70.9,78.6C77.2,77.6 79.6,77.4 87.9,75.6C97.6,73.5 105.6,71.4 114.6,69.7C119.1,75 120.9,80.8 125,86.8C129.7,93.8 134.7,100.9 139.5,107.6C142,111 144,113.5 146.6,116.8C147.7,118.2 151.9,123.2 151.9,123.2C152.5,124.1 156.6,129.7 158.9,131C160.3,131.8 167.4,134 163.2,128.7C164.7,129.1 169,131 170.6,130.8C170.4,129.8 169.2,126.9 169.2,126C169.9,127 171.1,129.3 172.2,129.2C172.6,130.2 173.7,131.4 174.4,132.4C174.3,132 174.3,131.1 174.2,130.5C174.6,130.7 175.1,130.8 175.4,131C175.3,130.5 174.9,127.4 174.4,126.6C176.6,126 177.2,128.7 179.9,130.4C181.3,128.1 178,124.4 179.6,121.7C179.9,121.9 181.8,122.6 182,122.8C181.1,121.1 180.9,118.4 181,116.5C181,116.5 176.2,111.2 174.8,109.1C174.8,109.1 170.9,103.5 168.7,100.5C167.5,98.9 160.7,91.1 159.7,89.5C157.8,86.6 149.4,73.8 147,70.7C145.9,69.2 141.3,62.5 141.3,62.5C142.2,62 146.6,61.1 147.2,60.5C147.8,59.9 146.5,58.8 146.2,58.8C149,57.8 148.1,56 150.5,54.9C150.2,54.6 148.2,52.9 147.9,52.7C153.7,50.1 147.1,50.7 147.2,49.6C147.7,49.3 153.3,47.4 153.6,47.1C153.4,46.9 153.7,45.9 152.4,45.9C151.1,45.9 148.5,46.5 148.5,46.1C148.5,45.6 150.3,45.1 151.3,44.6C152.7,43.9 156,43.2 156.6,42.7C157.2,42.2 155.9,41.5 155,41.4C152.4,42 150.5,42.3 149.1,42.4C157.2,38.9 154.9,38.9 150.3,39.8C145.7,40.7 143.5,42.2 142.7,40.8C142.6,40.4 149.8,38.4 150.6,38C151.4,37.6 147.3,37.6 146.9,37.6C141.3,37.3 128.4,41.2 128.4,41.2C128.4,41.2 126.1,37.9 125.3,35.9C124.1,32.8 119.1,24.8 117.6,21.8C114.6,15.6 109.3,7.9 104.9,-2.7C104,-4.9 102.8,-7.1 102.1,-9.4C101.4,-11.3 100.1,-14.2 99,-15.6C97.9,-19.4 93.2,-24.4 88.9,-25.6C86.3,-26.3 83.9,-25.5 81.3,-26.5C78.4,-27.6 74.1,-29.4 71.1,-30.1C66.5,-31.2 64,-31.5 60.7,-28.3C54.7,-22.6 50.9,-14.1 47.4,-7.1C45.5,-3.3 40.3,10.5 38.4,15.2C37.7,16.9 35.9,22.2 35.1,23.8C34,26 32.5,30.3 31.8,32.6C30.6,36.4 25.7,45.2 23.8,52.4C23,55.3 20.4,62.4 19.4,63.2C19,63.5 9.8,64.5 6.1,65.1C1.4,65.9 -4,65.7 -8.2,66.5C-10.2,66.9 -12.5,67.6 -15.3,67.6C-17.5,67.6 -19.8,67.3 -21.9,67.6C-25.2,68.1 -30,72.1 -22.6,74.5C-23.4,74.6 -31.7,75 -31.7,76.6C-31.7,77.8 -25.8,78.2 -24.7,78.7C-22.4,79.7 -24.7,81.1 -22.1,81.4C-20,81.7 -12.7,80.5 -10.4,82.1C-12,83.2 -17.7,83.9 -19,84C-17.7,84.8 -15.7,85 -14.2,85.4C-13.2,85.6 -11.1,87.3 -10.4,87.4C-7.8,87.9 -4.4,87.7 -1.7,87.6C0.8,87.5 3.4,87.3 5.7,87C6.8,86.9 11,86.5 11,86.5C11.4,86.6 5.8,95.7 3.9,99.3C1.7,103.6 0,106.6 0,106.6M87.9,50.1C86,50.5 84.8,50.7 83,50.8C80.8,51 78.7,51.6 76.5,52.1C72.2,53 66.9,54.4 62.6,55.2C59.7,55.7 53.1,57 53.1,57C55.5,49.3 59.5,38.4 63.8,29.5C68.1,20.6 71.3,11.3 74.6,2.3C74.9,1.5 75.3,2.2 75.6,1.4C78.6,4.1 79,7 80.1,10.2C81.8,14.8 84.2,21.2 85.3,23.2C89.4,30.6 91.4,34.8 96.6,42C97.3,42.9 99.4,46.3 99.7,47.3C97.6,47.7 91.6,49.3 87.9,50.1" style="fill:rgb(242,101,34);fill-rule:nonzero;"/>
            </g>
            <g transform="matrix(1,0,0,1,290.9,206.1)">
                <path d="M0,1.4C-132.6,8.1 -268,11.8 -268,11.8C-268,11.8 -128.7,3 -0.5,-3.3C77.3,-7.1 151,-10.4 187.1,-10.1C244.9,-9.7 256.1,-7.8 253.8,-4C252.6,-2 148.1,-6.1 0,1.4" style="fill:rgb(242,101,34);fill-rule:nonzero;"/>
            </g>
            <g transform="matrix(0.999521,-0.030941,-0.030941,-0.999521,306.753369,208.948899)">
                <path d="M-0.018,1.15C36.005,1.336 58.819,1.43 74.318,1.15" style="fill:rgb(242,101,34);fill-rule:nonzero;"/>
            </g>
            <g transform="matrix(1,0,0,1,454.4,203.5)">
                <path d="M0,0.2C7.9,0.2 32.7,0 41.4,0.2" style="fill:rgb(242,101,34);fill-rule:nonzero;"/>
            </g>
            <g transform="matrix(1,0,0,1,52.7,274.2)">
                <path d="M0,-36.6C-1.7,-36.1 -4.9,-35.8 -9.7,-35.5C-10.5,-34.2 -11.4,-32.4 -12.4,-30.2C-13.4,-28 -14.3,-25.7 -15.2,-23.3C-16.1,-20.9 -16.8,-18.7 -17.4,-16.5C-18,-14.4 -18.3,-12.7 -18.3,-11.4C-18.3,-10.5 -18.3,-9.9 -18.2,-9.4C-18.8,-8.8 -19.6,-8.3 -20.5,-8.1C-21.6,-8.4 -22.6,-8.8 -23.4,-9.4C-23.3,-10.5 -23,-12.1 -22.3,-14.2C-21.7,-16.3 -20.9,-18.7 -19.8,-21.4C-18.8,-24.1 -17.8,-26.6 -16.7,-29.1C-15.7,-31.6 -14.8,-33.6 -14,-35.1C-15.3,-35 -16.9,-34.9 -18.8,-34.7C-20.7,-34.5 -22.6,-34.3 -24.5,-34C-24.5,-34.4 -24.3,-34.8 -24,-35.3C-23.7,-35.8 -23.3,-36.2 -22.8,-36.5C-20.6,-37.1 -18.5,-37.5 -16.6,-37.8C-15.8,-37.9 -14.8,-38 -13.6,-38.1C-12.4,-38.2 -10.5,-38.3 -8.1,-38.4C-5.7,-38.5 -3.7,-38.6 -2.3,-38.6C-0.8,-38.7 0.4,-38.8 1.5,-38.9C1.4,-38 0.9,-37.2 0,-36.6M1.7,-23.1C-0.2,-20.9 -2.2,-18.1 -4.4,-14.5C-4.7,-14 -5.1,-13.2 -5.6,-12.3C-6.1,-11.4 -6.5,-10.5 -6.8,-9.7C-7,-9.5 -7.3,-9.4 -7.6,-9.2C-7.9,-9 -8.3,-8.9 -8.9,-8.7L-9.1,-8.6C-9.8,-8.6 -10.5,-8.9 -11.1,-9.4C-9.8,-12.3 -8.8,-15 -7.9,-17.6C-7.5,-18.9 -7.1,-20 -6.9,-21C-6.7,-22 -6.5,-22.8 -6.5,-23.3C-6.5,-24.9 -6.7,-26 -7.1,-26.8C-6.6,-27.6 -6,-28.1 -5.3,-28.5C-4.6,-28.9 -3.8,-29 -2.7,-29C-2.5,-28.6 -2.4,-28.2 -2.4,-27.9L-2.4,-26.5C-2.4,-25.1 -2.8,-23.2 -3.6,-20.7L-3.6,-20.6L-3.7,-20.5C-3.7,-20.3 -3.6,-20.3 -3.3,-20.3C-3.3,-20.3 -3.2,-20.3 -3.2,-20.4L-3.1,-20.4C-0.6,-23.6 1.6,-26.1 3.5,-28C5.4,-29.8 6.8,-30.8 7.7,-30.8C8.1,-30.7 8.6,-30.5 9.2,-30.2C9.7,-29.9 10.2,-29.6 10.5,-29.3C10.5,-28.9 10.4,-28.4 10.3,-27.9C10.2,-27.4 10.1,-26.9 9.9,-26.6C9.6,-26.4 9.2,-26.1 8.7,-25.9C8.2,-25.7 7.8,-25.6 7.5,-25.6C6.9,-25.8 6.3,-26.3 5.9,-26.8C4.9,-26.4 3.6,-25.2 1.7,-23.1M22.5,-28.9C22.9,-28.7 23.4,-28.4 23.9,-28.1C24.3,-28.3 25,-28.7 25.9,-29.2C26,-29.2 26.2,-29.1 26.3,-29C26.8,-28.8 27.2,-28.6 27.5,-28.3C26.9,-26.9 26.3,-25.6 25.8,-24.4C25.3,-23.2 24.7,-21.9 24.2,-20.6C23.7,-19.3 23.3,-18 23,-16.7C22.7,-15.4 22.5,-14.4 22.5,-13.5C22.5,-12.6 22.7,-12.2 23.2,-12.2C23.5,-12.2 23.9,-12.4 24.6,-12.7C25.2,-13.1 25.8,-13.5 26.4,-13.9C26.6,-13.5 26.8,-12.9 26.9,-12.2C26.5,-11.8 26,-11.4 25.3,-11C24.6,-10.6 24,-10.1 23.2,-9.6C22.5,-9.1 21.8,-8.8 21.1,-8.5C20.4,-8.2 19.9,-8.1 19.5,-8.1C19.2,-8.1 19,-8.3 18.7,-8.6C18.5,-8.9 18.3,-9.4 18.3,-10C18.3,-10.8 18.4,-11.8 18.7,-13C18.9,-14.3 19.2,-15.3 19.6,-16.3C19.6,-16.5 19.5,-16.5 19.3,-16.5C19.2,-16.5 19.1,-16.5 19.1,-16.4C17,-14.1 14.9,-12.2 13,-10.8C11,-9.4 9.3,-8.6 8,-8.6C7.6,-8.6 7.3,-8.8 7,-9.2C6.7,-9.6 6.6,-10.2 6.6,-10.9C6.6,-13.4 7.4,-16.1 9.1,-19C10.8,-21.9 13.2,-24.5 16.4,-26.8C17.3,-27.4 18.2,-27.9 19.1,-28.4C20,-28.9 20.8,-29.1 21.4,-29.1C21.8,-29.2 22.1,-29.1 22.5,-28.9M17.8,-25.4C16.8,-24.6 15.8,-23.5 14.8,-22.3C13.8,-21 12.9,-19.7 12.3,-18.2C11.6,-16.8 11.3,-15.4 11.3,-14.2C11.3,-13.5 11.5,-13.2 11.8,-13.2C12.9,-13.2 14.5,-14.3 16.5,-16.4C18.6,-18.5 20.5,-21.4 22.2,-24.9C22,-25.3 21.7,-25.7 21.2,-26.1C20.7,-26.5 20.4,-26.7 20.1,-26.7C19.6,-26.7 18.8,-26.3 17.8,-25.4M35,-28.4C35.7,-28.5 36.6,-28.5 37.7,-28.5L37.7,-28.3C37.8,-27.9 37.8,-27.6 37.8,-27.3C37.8,-26.4 37.6,-25 37.1,-23.2C36.7,-21.4 36,-19.5 35.2,-17.4C35.2,-17.2 35.3,-17.1 35.5,-17.1C35.6,-17.1 35.7,-17.1 35.8,-17.2C39.2,-20.9 42.1,-23.7 44.6,-25.7C47.1,-27.7 48.8,-28.7 49.8,-28.7C50.2,-28.7 50.6,-28.5 50.7,-28.1C50.9,-27.7 51,-27.1 51,-26.3C51,-25.6 50.9,-24.9 50.6,-24C50.3,-23.1 49.9,-21.9 49.3,-20.3C48.7,-18.8 48.3,-17.6 48,-16.6C47.7,-15.6 47.5,-14.8 47.5,-14.2C47.5,-13.6 47.6,-13.2 47.8,-12.9C48,-12.6 48.4,-12.3 49,-11.9C49,-11.3 48.7,-10.7 48.3,-10.1C47.8,-9.9 47.2,-9.6 46.4,-9.3C45.6,-9 45,-8.9 44.6,-8.9C43.8,-8.9 43.4,-9.6 43.4,-10.9C43.4,-11.8 43.6,-12.7 43.9,-13.9C44.2,-15 44.7,-16.5 45.3,-18.3C45.7,-19.5 46.1,-20.4 46.2,-21.1C46.4,-21.7 46.5,-22.2 46.5,-22.5C46.5,-22.9 46.5,-23.1 46.4,-23.2C46.3,-23.3 46.2,-23.4 46.1,-23.4C45.8,-23.4 45.3,-23.1 44.5,-22.6C43.7,-22.1 42.9,-21.4 41.9,-20.4C40.9,-19.5 39.8,-18.5 38.7,-17.3C37.6,-16.2 36.6,-15 35.6,-13.7C35.4,-13.5 35.2,-13.2 34.9,-12.7C34.6,-12.2 34.3,-11.7 34,-11.3L33.5,-10.5C33.1,-10.2 32.7,-10 32.2,-9.8C31.7,-9.6 31.2,-9.5 30.7,-9.5C30.4,-9.5 30,-9.6 29.5,-9.9C29.3,-10 29.1,-10 29,-10.1C29.5,-11.3 30.1,-12.6 30.6,-14C31.1,-15.4 31.6,-16.7 32,-17.9C32.4,-19.1 32.7,-20.3 32.9,-21.3C33.1,-22.3 33.2,-23.1 33.2,-23.7C33.2,-24.8 33,-25.7 32.6,-26.4C33.2,-27 33.9,-27.7 35,-28.4M67.9,-29.6C68.8,-29.4 69.4,-29.1 69.8,-28.9C69.9,-28.5 70,-28 70,-27.4C69.8,-27 69.4,-26.7 69,-26.4C68.6,-26.1 68.1,-25.8 67.5,-25.7C67.4,-25.7 67.3,-25.8 67.2,-25.9C66.6,-26.3 66.1,-26.6 65.6,-26.8C65.1,-27 64.7,-27.2 64.4,-27.2C64,-27.2 63.6,-27.1 63.1,-26.8C62.5,-26.4 62,-25.8 61.6,-25.1C61.2,-24.4 61,-23.8 61,-23.2C61,-22.7 61.2,-22.4 61.6,-22.2C62,-22 62.9,-21.8 64.2,-21.7C65.7,-21.5 66.9,-21.2 67.6,-20.8C68.3,-20.3 68.7,-19.6 68.7,-18.6C68.7,-17.5 68.3,-16.4 67.6,-15.3C66.9,-14.1 65.9,-13.1 64.6,-12.1C63.4,-11.1 62,-10.3 60.5,-9.7C59,-9.1 57.5,-8.8 56,-8.8C54.5,-8.8 53.5,-8.9 52.9,-9.2C52.3,-9.5 52,-9.9 52,-10.4C52,-11.2 52.1,-12 52.4,-12.8C52.6,-13.6 53.2,-14.7 54,-16.1L54.4,-16.1C54.6,-16.1 54.8,-16.2 55,-16.2C55.6,-16.2 56.1,-16.1 56.2,-16C56,-15.6 55.8,-15 55.6,-14.3C55.4,-13.6 55.3,-13.1 55.3,-12.7C55.3,-11.8 56.1,-11.3 57.6,-11.3C59.4,-11.3 60.9,-11.9 62.2,-13.1C63.5,-14.3 64.1,-15.6 64.1,-17.1C64.1,-17.6 63.9,-18 63.5,-18.2C63.1,-18.4 62.2,-18.6 60.8,-18.7C59.3,-18.8 58.3,-19.1 57.8,-19.4C57.2,-19.7 57,-20.3 57,-21.1C57,-21.8 57.3,-22.7 57.8,-23.7C58.4,-24.8 59.1,-25.8 60.1,-26.8C61,-27.8 62,-28.6 63,-29.3C64,-30 64.9,-30.3 65.7,-30.3C66.4,-29.9 67.1,-29.8 67.9,-29.6M83.2,-38.9C84.7,-41.8 86.3,-44.2 87.8,-46.2C88.5,-46.4 89.2,-46.6 89.8,-46.8C90.4,-46.9 91,-47 91.6,-47C92.2,-45.7 92.7,-44.3 93.1,-42.7C93.5,-41.1 93.8,-39.6 93.8,-38.1C93.6,-37.9 93.3,-37.6 92.9,-37.3C92.4,-37 92,-36.8 91.5,-36.8C91.2,-36.9 90.8,-37.1 90.4,-37.4C90.3,-37.5 90.2,-37.5 90.1,-37.6C90,-40.1 89.8,-41.8 89.6,-42.9C89.6,-43 89.5,-43.1 89.4,-43.1C89.2,-43.1 89,-43 88.9,-42.9C87.7,-41.2 86.3,-38.7 84.7,-35.4C84.2,-34.4 83.7,-33.1 83,-31.7C82.4,-30.2 81.8,-28.8 81.2,-27.3C82.5,-27.3 83.8,-27.4 84.9,-27.5C86,-27.6 87.1,-27.6 88.1,-27.7C88.1,-27.3 87.9,-26.7 87.5,-26C87.5,-26 87.5,-25.9 87.4,-25.9C86.9,-25.8 86,-25.6 84.7,-25.4C83.4,-25.2 81.8,-25 80.1,-24.7C77.1,-16.9 74.7,-10.2 73,-4.7C71.3,0.9 70.4,4.7 70.4,6.8C70.4,7.3 70.4,7.8 70.5,8.2L70.5,8.6C70.3,8.8 70,9.1 69.5,9.4C69,9.7 68.6,9.9 68.2,10.1C67.8,10.1 67.2,9.9 66.7,9.6C66.1,9.3 65.7,8.9 65.5,8.5C66.9,3.5 68.4,-1.6 70.2,-6.9C72,-12.2 74,-18 76.6,-24.5C75.4,-24.4 74.1,-24.3 72.6,-24.1C72.5,-24.5 72.4,-24.9 72.4,-25.4C72.6,-25.7 72.9,-26.1 73.1,-26.4C73.3,-26.7 73.6,-27 73.8,-27.1L74,-27.1C75.4,-27.2 76.7,-27.3 77.7,-27.3C79.8,-32.1 81.6,-36 83.2,-38.9M95.8,-27.6C96.3,-28.1 96.9,-28.6 97.6,-29C98.3,-29.4 98.8,-29.6 99.2,-29.6C99.8,-29.4 100.2,-29 100.6,-28.4C100.9,-27.8 101.1,-27 101.1,-26C101.1,-24.2 100.7,-22.3 99.8,-20.3C98.9,-18.2 97.8,-16.3 96.3,-14.5C94.9,-12.7 93.4,-11.3 91.8,-10.1C90.2,-9 88.8,-8.4 87.4,-8.4C86.3,-8.4 85.5,-8.8 84.9,-9.6C84.3,-10.4 84,-11.4 84,-12.8C84,-14.3 84.3,-15.9 85,-17.6C85.7,-19.3 86.6,-20.8 87.6,-22.3C88.7,-23.8 89.7,-25.1 90.8,-26.2C91.9,-27.3 92.8,-28.1 93.5,-28.5C94.3,-28.6 95.1,-28.3 95.8,-27.6M92.4,-24.7C91.5,-23.7 90.8,-22.7 90.1,-21.6C89.4,-20.5 88.9,-19.4 88.6,-18.2C88.2,-17.1 88.1,-16 88.1,-15C88.1,-13.9 88.3,-13.1 88.6,-12.7C89,-12.3 89.5,-12.1 90.2,-12.1C90.8,-12.1 91.5,-12.5 92.3,-13.2C93.1,-13.9 93.9,-14.9 94.6,-16.1C95.3,-17.3 96,-18.6 96.4,-19.9C96.9,-21.3 97.1,-22.5 97.1,-23.6C97.1,-25.4 96.4,-26.5 94.9,-26.9C94.1,-26.5 93.2,-25.7 92.4,-24.7M114,-23.1C112.1,-20.9 110.1,-18.1 107.9,-14.5C107.6,-14 107.2,-13.2 106.7,-12.3C106.2,-11.4 105.8,-10.5 105.5,-9.7C105.3,-9.5 105,-9.4 104.7,-9.2C104.4,-9 103.9,-8.9 103.4,-8.7L103.2,-8.6C102.5,-8.6 101.8,-8.9 101.2,-9.4C102.5,-12.3 103.5,-15 104.4,-17.6C104.8,-18.9 105.2,-20 105.4,-21C105.6,-22 105.8,-22.8 105.8,-23.3C105.8,-24.9 105.6,-26 105.2,-26.8C105.7,-27.6 106.3,-28.1 107,-28.5C107.6,-28.9 108.5,-29 109.6,-29C109.8,-28.6 109.9,-28.2 109.9,-27.9L109.9,-26.5C109.9,-25.1 109.5,-23.2 108.7,-20.7L108.7,-20.6L108.6,-20.5C108.6,-20.3 108.7,-20.3 109,-20.3C109,-20.3 109.1,-20.3 109.1,-20.4L109.2,-20.4C111.7,-23.6 113.9,-26.1 115.8,-28C117.7,-29.8 119.1,-30.8 120,-30.8C120.4,-30.7 120.9,-30.5 121.5,-30.2C122,-29.9 122.5,-29.6 122.8,-29.3C122.8,-28.9 122.7,-28.4 122.6,-27.9C122.5,-27.4 122.4,-26.9 122.2,-26.6C121.9,-26.4 121.5,-26.1 121,-25.9C120.5,-25.7 120.1,-25.6 119.8,-25.6C119.2,-25.8 118.6,-26.3 118.2,-26.8C117.2,-26.4 115.8,-25.2 114,-23.1M137.9,-16.5C138,-16.5 138.1,-16.5 138.2,-16.6C141.4,-20.7 144.2,-23.8 146.5,-25.8C148.8,-27.8 150.5,-28.9 151.5,-28.9C152.2,-28.9 152.5,-28.4 152.5,-27.5C152.5,-26.8 152.4,-26.1 152.2,-25.2C152,-24.3 151.6,-23.1 151.1,-21.5C150.6,-19.8 150.2,-18.4 149.9,-17.3C149.6,-16.2 149.5,-15.2 149.5,-14.3C149.5,-13.9 149.7,-13.5 150,-13.2C150.3,-12.9 150.7,-12.7 151.1,-12.5C151.1,-12.1 151,-11.6 150.8,-10.9C150.4,-10.5 149.7,-10.1 148.8,-9.7C147.8,-9.3 147.1,-9.2 146.5,-9.2C145.8,-9.2 145.5,-9.9 145.5,-11.3C145.5,-12.1 145.7,-13.2 146,-14.5C146.3,-15.8 146.8,-17.4 147.3,-19.2C147.8,-20.8 148,-21.7 148,-21.9C148,-22.4 147.9,-22.6 147.7,-22.6C147.1,-22.6 146.3,-22 145.1,-20.9C143.9,-19.7 142.2,-17.7 139.9,-14.9C139.5,-14.3 138.9,-13.6 138.3,-12.6C137.7,-11.7 137.2,-10.8 136.7,-10.1C136.4,-9.9 135.9,-9.6 135.4,-9.3C134.8,-9 134.3,-8.9 133.8,-8.8C133,-9 132.5,-9.4 132.1,-10C133.3,-13 134.3,-15.5 135,-17.6C135.7,-19.7 136.1,-21.2 136.1,-22C136.1,-22.3 135.9,-22.5 135.4,-22.5C134.9,-22.5 133.8,-21.7 132.3,-20.2C130.7,-18.7 129.1,-16.9 127.4,-14.8C126.9,-14.2 126.5,-13.5 126,-12.7C125.5,-11.9 125.1,-11.2 124.9,-10.6C124.7,-10.4 124.4,-10.1 123.7,-9.8C123.1,-9.5 122.5,-9.2 122,-9.1C121.4,-9.3 120.9,-9.6 120.4,-10.1C121.7,-13.1 122.8,-15.9 123.6,-18.4C124.4,-20.9 124.9,-22.9 124.9,-24.4C124.9,-24.8 124.8,-25.4 124.6,-25.9L124.5,-26C124.7,-26.4 124.9,-26.7 125.3,-27C125.7,-27.3 126.2,-27.6 126.9,-28L127,-28.1C128.1,-28.1 128.9,-28 129.6,-27.9C129.6,-26.9 129.5,-25.9 129.2,-24.9C129,-23.9 128.5,-22.4 128,-20.4C127.7,-19.4 127.5,-18.8 127.5,-18.7C127.5,-18.4 127.6,-18.3 127.9,-18.3C128,-18.3 128,-18.3 128.1,-18.4C130.9,-21.5 133.2,-23.8 135.1,-25.4C137,-27 138.5,-27.8 139.7,-27.8C140.5,-27.8 140.9,-27.3 140.9,-26.4C140.9,-25.7 140.7,-24.6 140.3,-23.1C139.9,-21.7 139.1,-19.4 138.1,-16.4C137.6,-16.6 137.7,-16.5 137.9,-16.5M169.1,-40.3C169.4,-39.8 169.6,-39.5 169.6,-39.3C169.6,-38.8 169.3,-38.2 168.7,-37.3C168.1,-36.5 167.3,-35.9 166.3,-35.4C165.7,-35.6 165.2,-36 164.8,-36.5C164.4,-37 164.3,-37.4 164.3,-37.8C164.3,-38.2 164.6,-38.8 165.3,-39.7C165.7,-40.1 166.1,-40.5 166.5,-40.8C166.9,-41.1 167.4,-41.3 168,-41.3C168.4,-41.2 168.7,-40.8 169.1,-40.3M155.7,-9.5C155.4,-9.9 155.3,-10.5 155.3,-11.5C155.3,-13.5 156.6,-17.9 159.2,-24.6C159.3,-25.1 159.4,-25.6 159.4,-26L159.4,-26.4C159.4,-26.6 159.3,-26.7 159.3,-26.8C159.7,-27.1 160.2,-27.5 160.9,-27.8C161.5,-28.1 162.1,-28.3 162.6,-28.4C162.8,-28.4 163.1,-28.2 163.4,-27.8C163.7,-27.5 163.9,-27.1 164,-26.7C162.3,-23.4 161,-20.7 160.3,-18.8C159.6,-16.8 159.3,-15.3 159.3,-14.2C159.3,-13.1 159.6,-12.6 160.1,-12.6C160.4,-12.6 161,-12.8 161.7,-13.2C162.5,-13.6 163.2,-14.1 163.8,-14.7C163.9,-14.5 164,-14.2 164.2,-13.9C164.3,-13.5 164.4,-13.2 164.4,-13C162.6,-11.7 161.1,-10.6 159.7,-10C158.4,-9.3 157.4,-9 156.8,-9C156.4,-8.9 156,-9.1 155.7,-9.5M172,-28.4C172.7,-28.5 173.6,-28.5 174.7,-28.5L174.7,-28.3C174.8,-27.9 174.8,-27.6 174.8,-27.3C174.8,-26.4 174.6,-25 174.1,-23.2C173.7,-21.4 173,-19.5 172.2,-17.4C172.2,-17.2 172.3,-17.1 172.5,-17.1C172.6,-17.1 172.7,-17.1 172.8,-17.2C176.2,-20.9 179.2,-23.7 181.6,-25.7C184.1,-27.7 185.8,-28.7 186.8,-28.7C187.2,-28.7 187.6,-28.5 187.7,-28.1C187.9,-27.7 188,-27.1 188,-26.3C188,-25.6 187.9,-24.9 187.6,-24C187.3,-23.1 186.9,-21.9 186.3,-20.3C185.7,-18.8 185.3,-17.6 185,-16.6C184.7,-15.6 184.5,-14.8 184.5,-14.2C184.5,-13.6 184.6,-13.2 184.8,-12.9C185,-12.6 185.4,-12.3 186.1,-11.9C186.1,-11.3 185.8,-10.7 185.4,-10.1C184.9,-9.9 184.3,-9.6 183.5,-9.3C182.7,-9 182.1,-8.9 181.6,-8.9C180.8,-8.9 180.4,-9.6 180.4,-10.9C180.4,-11.8 180.6,-12.7 180.9,-13.9C181.2,-15 181.7,-16.5 182.3,-18.3C182.7,-19.5 183.1,-20.4 183.2,-21.1C183.4,-21.7 183.5,-22.2 183.5,-22.5C183.5,-22.9 183.5,-23.1 183.4,-23.2C183.3,-23.3 183.2,-23.4 183.1,-23.4C182.8,-23.4 182.3,-23.1 181.5,-22.6C180.7,-22.1 179.9,-21.4 178.9,-20.4C177.9,-19.5 176.8,-18.5 175.7,-17.3C174.6,-16.2 173.6,-15 172.6,-13.7C172.4,-13.5 172.2,-13.2 171.9,-12.7C171.6,-12.2 171.3,-11.7 171,-11.3L170.5,-10.5C170.1,-10.2 169.7,-10 169.2,-9.8C168.7,-9.6 168.2,-9.5 167.7,-9.5C167.4,-9.5 167,-9.6 166.5,-9.9C166.3,-10 166.1,-10 166,-10.1C166.5,-11.3 167.1,-12.6 167.6,-14C168.1,-15.4 168.6,-16.7 169,-17.9C169.4,-19.1 169.7,-20.3 169.9,-21.3C170.1,-22.3 170.2,-23.1 170.2,-23.7C170.2,-24.8 170,-25.7 169.6,-26.4C170.1,-27 170.9,-27.7 172,-28.4M204.4,-28.6C205.1,-28.2 205.6,-27.8 206,-27.4C206.2,-27.6 206.6,-27.9 207,-28.2C207.4,-28.5 207.8,-28.7 208.3,-28.9L208.4,-28.8C209.1,-28.4 209.6,-27.9 209.9,-27.5C209.5,-26.9 209,-25.8 208.5,-24.2C208,-22.5 207.2,-20.1 206.3,-17C204.8,-12 203.6,-8.2 202.7,-5.6C202,-3.5 201,-1.6 199.9,0.3C198.8,2.1 197.5,3.8 196.1,5.3C194.7,6.8 193.2,7.9 191.7,8.8C190.2,9.7 188.7,10.2 187.3,10.4C186.5,10.4 185.6,10 184.4,9.4C183.3,8.8 182.2,8.1 181.3,7.5C181.3,7.2 181.4,6.9 181.5,6.5C181.6,6.1 181.7,5.8 181.8,5.6C182,5.4 182.4,5.2 182.9,4.9C183.4,4.7 183.9,4.5 184.5,4.4C184.7,4.7 185,5 185.4,5.4C185.8,5.8 186.2,6.1 186.6,6.5C187,6.8 187.5,7.2 188,7.4C188.5,7.7 188.9,7.8 189.2,7.8C190.1,7.4 191,6.9 191.8,6.3C192.6,5.7 193.3,4.9 194.1,4C194.9,3 195.7,1.8 196.4,0.2C197.2,-1.4 198,-3.3 198.9,-5.5C199.3,-6.5 199.6,-7.5 200,-8.6C200.3,-9.7 200.8,-11.2 201.5,-13.2C202.1,-15.2 202.6,-16.6 202.9,-17.6C202.9,-17.8 202.8,-18 202.7,-18C202.6,-18 202.5,-18 202.5,-17.9C201.6,-16.8 200.6,-15.8 199.6,-14.8C198.6,-13.8 197.7,-12.9 196.7,-12.1C195.7,-11.3 194.8,-10.7 193.9,-10.2C193,-9.7 192.2,-9.5 191.5,-9.5C191.2,-9.5 190.9,-9.7 190.6,-10.1C190.3,-10.5 190.2,-11.1 190.2,-11.9C190.2,-13.8 190.7,-15.7 191.6,-17.8C192.5,-19.8 193.7,-21.7 195.2,-23.5C196.6,-25.2 198.1,-26.6 199.5,-27.7C200.9,-28.8 202.1,-29.3 203.1,-29.3C203.2,-29.2 203.8,-29 204.4,-28.6M199.8,-25.4C199,-24.7 198.2,-23.8 197.3,-22.7C196.5,-21.6 195.8,-20.4 195.2,-19.1C194.7,-17.8 194.4,-16.6 194.4,-15.5C194.4,-14.6 194.6,-14.2 195.1,-14.2C195.5,-14.2 196.1,-14.6 197,-15.2C197.9,-15.9 198.8,-16.8 199.8,-17.8C200.8,-18.9 201.7,-20 202.6,-21.1C203.5,-22.3 204,-23.3 204.4,-24.3C204.2,-24.7 203.8,-25.2 203.2,-25.7C202.7,-26.2 202.2,-26.4 201.8,-26.4C201.3,-26.5 200.6,-26.1 199.8,-25.4M242.6,-7.8C242.3,-7.8 241.8,-8.1 241.2,-8.6C240.6,-9.1 240.2,-9.5 240,-9.9C239.8,-10.5 239.7,-11.7 239.6,-13.3C239.5,-14.9 239.4,-16.6 239.3,-18.1C237.6,-17.7 235.6,-17.3 233.5,-17C231.4,-16.7 229.4,-16.5 227.4,-16.4C226.4,-14.9 225.4,-13.4 224.5,-11.8C223.6,-10.2 222.8,-8.9 222.3,-7.8C222,-7.5 221.6,-7.3 221.1,-7.1C220.6,-6.9 220.1,-6.9 219.7,-6.9C219.5,-7.1 219.2,-7.5 219.1,-8C218.9,-8.5 218.8,-8.9 218.8,-9.3C219.4,-10.3 220.2,-11.4 221.1,-12.7C222,-14 222.8,-15.2 223.7,-16.3C223.6,-16.3 223.4,-16.3 223.1,-16.4C222.5,-16.4 222.1,-16.5 221.8,-16.5C221.5,-16.9 221.3,-17.2 221.3,-17.6C221.7,-18.1 222.3,-18.6 223.1,-19.1C224.2,-19.2 225,-19.2 225.7,-19.2C227.5,-21.6 229.4,-24 231.4,-26.4C233.4,-28.8 235.7,-31.5 238.5,-34.5C238.6,-34.7 239,-34.8 239.5,-34.9C239.5,-35.1 239.6,-35.6 239.7,-36.5C239.8,-37.5 239.9,-38.2 240,-38.6C240.1,-38.7 240.2,-38.8 240.3,-38.8C240.7,-39.2 241.2,-39.6 241.6,-40C242,-40.3 242.4,-40.6 242.8,-40.7C243.4,-40.5 243.9,-40.3 244.3,-40C243.8,-36.8 243.5,-32.5 243.3,-27.2C243.3,-22.9 243.4,-19.4 243.7,-16.5C244,-13.6 244.3,-11 244.7,-8.7C244.5,-8.6 243.7,-8.2 242.6,-7.8M239.2,-31.5L239.1,-31.5L239,-31.4C238.4,-30.9 237.7,-30.1 236.9,-29.2C236.1,-28.3 235.2,-27.2 234.3,-26.1C233.4,-24.9 232.5,-23.8 231.6,-22.6C230.7,-21.5 229.9,-20.4 229.2,-19.3C232.6,-19.4 234.6,-19.4 235.4,-19.5C236.2,-19.5 236.9,-19.6 237.7,-19.6C238.5,-19.6 239,-19.7 239.3,-19.7L239.3,-25.9C239.3,-27.6 239.4,-29.4 239.4,-31.3C239.4,-31.4 239.3,-31.5 239.2,-31.5M261.2,-38.9C262.7,-41.8 264.3,-44.2 265.8,-46.2C266.5,-46.4 267.2,-46.6 267.8,-46.8C268.4,-46.9 269,-47 269.6,-47C270.2,-45.7 270.7,-44.3 271.1,-42.7C271.5,-41.1 271.8,-39.6 271.8,-38.1C271.6,-37.9 271.3,-37.6 270.9,-37.3C270.4,-37 270,-36.8 269.5,-36.8C269.2,-36.9 268.8,-37.1 268.4,-37.4C268.3,-37.5 268.2,-37.5 268.1,-37.6C268,-40.1 267.8,-41.8 267.6,-42.9C267.6,-43 267.5,-43.1 267.4,-43.1C267.2,-43.1 267,-43 266.9,-42.9C265.7,-41.2 264.3,-38.7 262.7,-35.4C262.2,-34.4 261.7,-33.1 261,-31.7C260.4,-30.2 259.8,-28.8 259.2,-27.3C260.5,-27.3 261.8,-27.4 262.9,-27.5C264,-27.6 265.1,-27.6 266.1,-27.7C266.1,-27.3 265.9,-26.7 265.5,-26C265.5,-26 265.5,-25.9 265.4,-25.9C264.9,-25.8 264,-25.6 262.7,-25.4C261.4,-25.2 259.8,-25 258.1,-24.7C255.1,-16.9 252.7,-10.2 250.9,-4.7C249.2,0.9 248.3,4.7 248.3,6.8C248.3,7.3 248.3,7.8 248.4,8.2L248.4,8.6C248.2,8.8 247.9,9.1 247.4,9.4C246.9,9.7 246.5,9.9 246.1,10.1C245.7,10.1 245.1,9.9 244.6,9.6C244,9.3 243.6,8.9 243.4,8.5C244.8,3.5 246.3,-1.6 248.1,-6.9C249.8,-12.1 251.9,-18 254.5,-24.5C253.3,-24.4 252,-24.3 250.5,-24.1C250.4,-24.5 250.3,-24.9 250.3,-25.4C250.5,-25.7 250.8,-26.1 251,-26.4C251.2,-26.7 251.5,-27 251.7,-27.1L251.9,-27.1C253.3,-27.2 254.6,-27.3 255.6,-27.3C257.7,-32.1 259.6,-36 261.2,-38.9M274.2,-23.1C272.3,-20.9 270.3,-18.1 268.1,-14.5C267.8,-14 267.4,-13.2 266.9,-12.3C266.4,-11.4 266,-10.5 265.7,-9.7C265.5,-9.5 265.2,-9.4 264.9,-9.2C264.6,-9 264.1,-8.9 263.6,-8.7L263.4,-8.6C262.7,-8.6 262,-8.9 261.4,-9.4C262.7,-12.3 263.7,-15 264.6,-17.6C265,-18.9 265.4,-20 265.6,-21C265.8,-22 266,-22.8 266,-23.3C266,-24.9 265.8,-26 265.4,-26.8C265.9,-27.6 266.5,-28.1 267.2,-28.5C267.8,-28.9 268.7,-29 269.8,-29C270,-28.6 270.1,-28.2 270.1,-27.9L270.1,-26.5C270.1,-25.1 269.7,-23.2 268.9,-20.7L268.9,-20.6L268.8,-20.5C268.8,-20.3 268.9,-20.3 269.2,-20.3C269.2,-20.3 269.3,-20.3 269.3,-20.4L269.4,-20.4C271.9,-23.6 274.1,-26.1 276,-28C277.9,-29.8 279.3,-30.8 280.2,-30.8C280.6,-30.7 281.1,-30.5 281.7,-30.2C282.2,-29.9 282.7,-29.6 283,-29.3C283,-28.9 282.9,-28.4 282.8,-27.9C282.7,-27.4 282.6,-26.9 282.4,-26.6C282.1,-26.4 281.7,-26.1 281.2,-25.9C280.7,-25.7 280.3,-25.6 280,-25.6C279.4,-25.8 278.8,-26.3 278.4,-26.8C277.4,-26.4 276.1,-25.2 274.2,-23.1M294.7,-40.3C295,-39.8 295.2,-39.5 295.2,-39.3C295.2,-38.8 294.9,-38.2 294.4,-37.3C293.8,-36.5 293,-35.9 292,-35.4C291.4,-35.6 290.9,-36 290.5,-36.5C290.1,-37 290,-37.4 290,-37.8C290,-38.2 290.3,-38.8 291,-39.7C291.4,-40.1 291.8,-40.5 292.2,-40.8C292.6,-41.1 293.1,-41.3 293.7,-41.3C294,-41.2 294.3,-40.8 294.7,-40.3M281.3,-9.5C281,-9.9 280.9,-10.5 280.9,-11.5C280.9,-13.5 282.2,-17.9 284.8,-24.6C284.9,-25.1 285,-25.6 285,-26L285,-26.4C285,-26.6 284.9,-26.7 284.9,-26.8C285.3,-27.1 285.8,-27.5 286.5,-27.8C287.1,-28.1 287.7,-28.3 288.2,-28.4C288.4,-28.4 288.7,-28.2 289,-27.8C289.3,-27.5 289.5,-27.1 289.6,-26.7C287.9,-23.4 286.6,-20.7 286,-18.8C285.3,-16.8 285,-15.3 285,-14.2C285,-13.1 285.3,-12.6 285.8,-12.6C286.1,-12.6 286.7,-12.8 287.4,-13.2C288.2,-13.6 288.9,-14.1 289.5,-14.7C289.6,-14.5 289.7,-14.2 289.9,-13.9C290,-13.5 290.1,-13.2 290.1,-13C288.3,-11.7 286.8,-10.6 285.4,-10C284.1,-9.3 283.1,-9 282.5,-9C282,-8.9 281.6,-9.1 281.3,-9.5M300.7,-24.2C299.8,-23.1 299,-21.9 298.3,-20.9C297.6,-19.8 297,-18.6 296.6,-17.3C296.2,-16 296,-14.9 296,-14C296,-13.4 296.2,-12.9 296.6,-12.4C297,-12 297.5,-11.8 298.1,-11.8C299,-11.8 300.1,-12.3 301.4,-13.3C302.7,-14.3 304.3,-15.8 306.2,-17.9C306.7,-17.5 306.9,-16.9 306.9,-16.1C304.7,-13.6 302.6,-11.6 300.7,-10.2C298.7,-8.8 297,-8.1 295.3,-8.1C294.3,-8.1 293.5,-8.4 292.8,-9.1C292.1,-9.8 291.8,-10.8 291.8,-12.3C291.8,-13.7 292.2,-15.2 292.9,-16.9C293.6,-18.6 294.6,-20.3 295.9,-22C297.2,-23.7 298.6,-25.3 300.1,-26.7C301.6,-28.1 303.2,-29.2 304.7,-30C304.9,-30 305.3,-30 305.8,-29.9C306.3,-29.8 306.7,-29.8 306.9,-29.7C307.2,-29.3 307.5,-29 307.6,-28.8C307.8,-28.6 307.9,-28.3 308.1,-27.9C308,-27.2 307.8,-26.6 307.6,-26.3C307.2,-26.1 306.7,-25.8 306.2,-25.6C305.7,-25.4 305.3,-25.3 305,-25.3C304.8,-25.4 304.6,-25.6 304.3,-26C303.9,-26.6 303.5,-26.8 303.1,-26.8C302.5,-26.2 301.6,-25.4 300.7,-24.2M323.4,-28.9C323.8,-28.7 324.3,-28.4 324.8,-28.1C325.2,-28.3 325.9,-28.7 326.7,-29.2C326.8,-29.2 327,-29.1 327.1,-29C327.6,-28.8 328,-28.6 328.3,-28.3C327.7,-26.9 327.1,-25.6 326.6,-24.4C326.1,-23.2 325.5,-21.9 325,-20.6C324.5,-19.3 324.1,-18 323.8,-16.7C323.5,-15.4 323.3,-14.4 323.3,-13.5C323.3,-12.6 323.5,-12.2 324,-12.2C324.3,-12.2 324.7,-12.4 325.4,-12.7C326,-13.1 326.6,-13.5 327.2,-13.9C327.4,-13.5 327.6,-12.9 327.7,-12.2C327.3,-11.8 326.8,-11.4 326.1,-11C325.4,-10.6 324.8,-10.1 324,-9.6C323.3,-9.1 322.6,-8.8 321.9,-8.5C321.2,-8.2 320.7,-8.1 320.3,-8.1C320,-8.1 319.8,-8.3 319.5,-8.6C319.3,-8.9 319.1,-9.4 319.1,-10C319.1,-10.8 319.2,-11.8 319.5,-13C319.7,-14.3 320,-15.3 320.4,-16.3C320.4,-16.5 320.3,-16.5 320.1,-16.5C320,-16.5 319.9,-16.5 319.9,-16.4C317.8,-14.1 315.7,-12.2 313.8,-10.8C311.8,-9.4 310.2,-8.6 308.8,-8.6C308.4,-8.6 308.1,-8.8 307.8,-9.2C307.5,-9.6 307.4,-10.2 307.4,-10.9C307.4,-13.4 308.2,-16.1 309.9,-19C311.6,-21.9 314,-24.5 317.2,-26.8C318.1,-27.4 319,-27.9 319.9,-28.4C320.8,-28.9 321.6,-29.1 322.2,-29.1C322.7,-29.2 323,-29.1 323.4,-28.9M318.7,-25.4C317.7,-24.6 316.7,-23.5 315.7,-22.3C314.7,-21 313.8,-19.7 313.2,-18.2C312.5,-16.8 312.2,-15.4 312.2,-14.2C312.2,-13.5 312.4,-13.2 312.7,-13.2C313.8,-13.2 315.4,-14.3 317.4,-16.4C319.5,-18.5 321.4,-21.4 323.1,-24.9C322.9,-25.3 322.6,-25.7 322.1,-26.1C321.6,-26.5 321.2,-26.7 321,-26.7C320.5,-26.7 319.7,-26.3 318.7,-25.4M335.9,-28.4C336.5,-28.5 337.5,-28.5 338.6,-28.5L338.6,-28.3C338.7,-27.9 338.7,-27.6 338.7,-27.3C338.7,-26.4 338.5,-25 338,-23.2C337.6,-21.4 336.9,-19.5 336.1,-17.4C336.1,-17.2 336.2,-17.1 336.4,-17.1C336.5,-17.1 336.6,-17.1 336.7,-17.2C340.1,-20.9 343,-23.7 345.5,-25.7C348,-27.7 349.7,-28.7 350.7,-28.7C351.1,-28.7 351.5,-28.5 351.6,-28.1C351.8,-27.7 351.9,-27.1 351.9,-26.3C351.9,-25.6 351.8,-24.9 351.5,-24C351.2,-23.1 350.8,-21.9 350.2,-20.3C349.6,-18.8 349.2,-17.6 348.9,-16.6C348.6,-15.6 348.4,-14.8 348.4,-14.2C348.4,-13.6 348.5,-13.2 348.7,-12.9C348.9,-12.6 349.3,-12.3 350,-11.9C350,-11.3 349.7,-10.7 349.3,-10.1C348.8,-9.9 348.2,-9.6 347.4,-9.3C346.6,-9 346,-8.9 345.5,-8.9C344.7,-8.9 344.3,-9.6 344.3,-10.9C344.3,-11.8 344.5,-12.7 344.8,-13.9C345.1,-15 345.6,-16.5 346.2,-18.3C346.6,-19.5 347,-20.4 347.1,-21.1C347.3,-21.7 347.4,-22.2 347.4,-22.5C347.4,-22.9 347.4,-23.1 347.3,-23.2C347.2,-23.3 347.1,-23.4 347,-23.4C346.7,-23.4 346.2,-23.1 345.4,-22.6C344.6,-22.1 343.8,-21.4 342.8,-20.4C341.8,-19.5 340.7,-18.5 339.6,-17.3C338.5,-16.2 337.5,-15 336.5,-13.7C336.3,-13.5 336.1,-13.2 335.8,-12.7C335.5,-12.2 335.2,-11.7 334.9,-11.3L334.4,-10.5C334,-10.2 333.6,-10 333.1,-9.8C332.6,-9.6 332.1,-9.5 331.6,-9.5C331.3,-9.5 330.9,-9.6 330.4,-9.9C330.2,-10 330,-10 329.9,-10.1C330.4,-11.3 331,-12.6 331.5,-14C332,-15.4 332.5,-16.7 332.9,-17.9C333.3,-19.1 333.6,-20.3 333.8,-21.3C334,-22.3 334.1,-23.1 334.1,-23.7C334.1,-24.8 333.9,-25.7 333.5,-26.4C334.1,-27 334.8,-27.7 335.9,-28.4M386.9,-7.8C386.6,-7.8 386.1,-8.1 385.5,-8.6C384.9,-9.1 384.5,-9.5 384.3,-9.9C384.1,-10.5 384,-11.7 383.9,-13.3C383.8,-14.9 383.7,-16.6 383.6,-18.1C381.9,-17.7 379.9,-17.3 377.9,-17C375.8,-16.7 373.8,-16.5 371.8,-16.4C370.8,-14.9 369.8,-13.4 368.9,-11.8C368,-10.2 367.2,-8.9 366.7,-7.8C366.4,-7.5 366,-7.3 365.5,-7.1C365,-6.9 364.5,-6.9 364.1,-6.9C363.9,-7.1 363.6,-7.5 363.5,-8C363.3,-8.5 363.2,-8.9 363.2,-9.3C363.9,-10.3 364.6,-11.4 365.5,-12.7C366.4,-14 367.2,-15.2 368.1,-16.3C368,-16.3 367.8,-16.3 367.5,-16.4C366.9,-16.4 366.5,-16.5 366.2,-16.5C365.9,-16.9 365.7,-17.2 365.7,-17.6C366.1,-18.1 366.7,-18.6 367.5,-19.1C368.6,-19.2 369.4,-19.2 370.1,-19.2C371.9,-21.6 373.8,-24 375.8,-26.4C377.8,-28.8 380.1,-31.5 382.9,-34.5C383,-34.7 383.4,-34.8 383.9,-34.9C383.9,-35.1 384,-35.6 384.1,-36.5C384.2,-37.5 384.3,-38.2 384.4,-38.6C384.5,-38.7 384.6,-38.8 384.7,-38.8C385.1,-39.2 385.6,-39.6 386,-40C386.4,-40.3 386.8,-40.6 387.2,-40.7C387.8,-40.5 388.3,-40.3 388.7,-40C388.2,-36.8 387.9,-32.5 387.7,-27.2C387.7,-22.9 387.8,-19.4 388.1,-16.5C388.3,-13.6 388.7,-11 389.1,-8.7C388.7,-8.6 388,-8.2 386.9,-7.8M383.5,-31.5L383.3,-31.5L383.2,-31.4C382.6,-30.9 381.9,-30.1 381.1,-29.2C380.3,-28.3 379.4,-27.2 378.5,-26.1C377.6,-24.9 376.7,-23.8 375.8,-22.6C374.9,-21.5 374.1,-20.4 373.4,-19.3C376.8,-19.4 378.8,-19.4 379.6,-19.5C380.4,-19.5 381.1,-19.6 381.9,-19.6C382.6,-19.6 383.2,-19.7 383.5,-19.7L383.5,-25.9C383.5,-27.6 383.6,-29.4 383.6,-31.3C383.6,-31.4 383.6,-31.5 383.5,-31.5M407.3,-28.6C408,-28.2 408.5,-27.8 408.9,-27.4C409.1,-27.6 409.5,-27.9 409.9,-28.2C410.3,-28.5 410.7,-28.7 411.2,-28.9L411.3,-28.8C412,-28.4 412.5,-27.9 412.8,-27.5C412.4,-26.9 411.9,-25.8 411.4,-24.2C410.9,-22.5 410.1,-20.1 409.2,-17C407.7,-12 406.5,-8.2 405.6,-5.6C404.9,-3.5 403.9,-1.6 402.8,0.3C401.7,2.1 400.4,3.8 399,5.3C397.6,6.8 396.1,7.9 394.6,8.8C393.1,9.7 391.6,10.2 390.2,10.4C389.4,10.4 388.5,10 387.3,9.4C386.2,8.8 385.1,8.1 384.2,7.5C384.2,7.2 384.3,6.9 384.4,6.5C384.5,6.1 384.6,5.8 384.7,5.6C384.9,5.4 385.3,5.2 385.8,4.9C386.3,4.7 386.8,4.5 387.4,4.4C387.6,4.7 387.9,5 388.3,5.4C388.7,5.8 389.1,6.1 389.5,6.5C389.9,6.8 390.4,7.2 390.9,7.4C391.4,7.7 391.8,7.8 392.1,7.8C393,7.4 393.9,6.9 394.7,6.3C395.5,5.7 396.2,4.9 397,4C397.8,3 398.6,1.8 399.3,0.2C400.1,-1.4 400.9,-3.3 401.8,-5.5C402.2,-6.5 402.5,-7.5 402.9,-8.6C403.2,-9.7 403.7,-11.2 404.4,-13.2C405,-15.2 405.5,-16.6 405.8,-17.6C405.8,-17.8 405.7,-18 405.6,-18C405.5,-18 405.4,-18 405.4,-17.9C404.5,-16.8 403.5,-15.8 402.5,-14.8C401.5,-13.8 400.6,-12.9 399.6,-12.1C398.6,-11.3 397.7,-10.7 396.8,-10.2C395.9,-9.7 395.1,-9.5 394.4,-9.5C394.1,-9.5 393.8,-9.7 393.5,-10.1C393.2,-10.5 393.1,-11.1 393.1,-11.9C393.1,-13.8 393.6,-15.7 394.5,-17.8C395.4,-19.8 396.6,-21.7 398.1,-23.5C399.5,-25.2 401,-26.6 402.4,-27.7C403.8,-28.8 405,-29.3 406,-29.3C406.1,-29.2 406.6,-29 407.3,-28.6M402.7,-25.4C401.9,-24.7 401.1,-23.8 400.2,-22.7C399.4,-21.6 398.7,-20.4 398.1,-19.1C397.6,-17.8 397.3,-16.6 397.3,-15.5C397.3,-14.6 397.5,-14.2 398,-14.2C398.4,-14.2 399,-14.6 399.9,-15.2C400.8,-15.9 401.7,-16.8 402.7,-17.8C403.7,-18.9 404.6,-20 405.5,-21.1C406.3,-22.3 406.9,-23.3 407.3,-24.3C407.1,-24.7 406.7,-25.2 406.1,-25.7C405.6,-26.2 405.1,-26.4 404.7,-26.4C404.1,-26.5 403.5,-26.1 402.7,-25.4M425.4,-23.1C423.5,-20.9 421.5,-18.1 419.3,-14.5C419,-14 418.6,-13.2 418.1,-12.3C417.6,-11.4 417.2,-10.5 416.9,-9.7C416.7,-9.5 416.4,-9.4 416.1,-9.2C415.8,-9 415.3,-8.9 414.8,-8.7L414.6,-8.6C413.9,-8.6 413.2,-8.9 412.6,-9.4C413.9,-12.3 414.9,-15 415.8,-17.6C416.2,-18.9 416.6,-20 416.8,-21C417,-22 417.2,-22.8 417.2,-23.3C417.2,-24.9 417,-26 416.6,-26.8C417.1,-27.6 417.7,-28.1 418.4,-28.5C419,-28.9 419.9,-29 421,-29C421.2,-28.6 421.3,-28.2 421.3,-27.9L421.3,-26.5C421.3,-25.1 420.9,-23.2 420.1,-20.7L420.1,-20.6L420,-20.5C420,-20.3 420.1,-20.3 420.4,-20.3C420.4,-20.3 420.5,-20.3 420.5,-20.4L420.6,-20.4C423.1,-23.6 425.3,-26.1 427.2,-28C429.1,-29.8 430.5,-30.8 431.4,-30.8C431.8,-30.7 432.3,-30.5 432.9,-30.2C433.4,-29.9 433.9,-29.6 434.2,-29.3C434.2,-28.9 434.1,-28.4 434,-27.9C433.9,-27.4 433.8,-26.9 433.6,-26.6C433.3,-26.4 432.9,-26.1 432.4,-25.9C431.9,-25.7 431.5,-25.6 431.2,-25.6C430.6,-25.8 430,-26.3 429.6,-26.8C428.6,-26.4 427.3,-25.2 425.4,-23.1M445.9,-40.3C446.2,-39.8 446.4,-39.5 446.4,-39.3C446.4,-38.8 446.1,-38.2 445.6,-37.3C445,-36.5 444.2,-35.9 443.2,-35.4C442.6,-35.6 442.1,-36 441.7,-36.5C441.3,-37 441.2,-37.4 441.2,-37.8C441.2,-38.2 441.5,-38.8 442.2,-39.7C442.6,-40.1 443,-40.5 443.4,-40.8C443.8,-41.1 444.3,-41.3 444.9,-41.3C445.2,-41.2 445.5,-40.8 445.9,-40.3M432.5,-9.5C432.2,-9.9 432.1,-10.5 432.1,-11.5C432.1,-13.5 433.4,-17.9 436,-24.6C436.1,-25.1 436.2,-25.6 436.2,-26L436.2,-26.4C436.2,-26.6 436.1,-26.7 436.1,-26.8C436.5,-27.1 437,-27.5 437.7,-27.8C438.3,-28.1 438.9,-28.3 439.4,-28.4C439.6,-28.4 439.9,-28.2 440.2,-27.8C440.5,-27.5 440.7,-27.1 440.8,-26.7C439.1,-23.4 437.8,-20.7 437.2,-18.8C436.5,-16.8 436.2,-15.3 436.2,-14.2C436.2,-13.1 436.5,-12.6 437,-12.6C437.3,-12.6 437.9,-12.8 438.6,-13.2C439.4,-13.6 440.1,-14.1 440.7,-14.7C440.8,-14.5 440.9,-14.2 441.1,-13.9C441.2,-13.5 441.3,-13.2 441.3,-13C439.5,-11.7 438,-10.6 436.6,-10C435.3,-9.3 434.3,-9 433.7,-9C433.2,-8.9 432.8,-9.1 432.5,-9.5M451.9,-24.2C451,-23.1 450.2,-21.9 449.5,-20.9C448.8,-19.8 448.2,-18.6 447.8,-17.3C447.4,-16 447.2,-14.9 447.2,-14C447.2,-13.4 447.4,-12.9 447.8,-12.4C448.2,-12 448.7,-11.8 449.3,-11.8C450.2,-11.8 451.3,-12.3 452.6,-13.3C453.9,-14.3 455.5,-15.8 457.4,-17.9C457.9,-17.5 458.1,-16.9 458.1,-16.1C455.9,-13.6 453.8,-11.6 451.9,-10.2C449.9,-8.8 448.2,-8.1 446.5,-8.1C445.5,-8.1 444.7,-8.4 444,-9.1C443.3,-9.8 443,-10.8 443,-12.3C443,-13.7 443.4,-15.2 444.1,-16.9C444.8,-18.6 445.8,-20.3 447.1,-22C448.4,-23.7 449.8,-25.3 451.3,-26.7C452.8,-28.1 454.4,-29.2 455.9,-30C456.1,-30 456.5,-30 457,-29.9C457.5,-29.8 457.9,-29.8 458.1,-29.7C458.4,-29.3 458.7,-29 458.8,-28.8C459,-28.6 459.1,-28.3 459.3,-27.9C459.2,-27.2 459,-26.6 458.8,-26.3C458.4,-26.1 457.9,-25.8 457.4,-25.6C456.9,-25.4 456.5,-25.3 456.2,-25.3C456,-25.4 455.8,-25.6 455.5,-26C455.1,-26.6 454.8,-26.8 454.3,-26.8C453.7,-26.2 452.8,-25.4 451.9,-24.2M467.3,-27.7L467.5,-27.8C468,-27.4 468.3,-27 468.5,-26.6C467,-24 465.9,-21.7 465.2,-19.9C464.5,-18.1 464.2,-16.6 464.2,-15.3C464.2,-15 464.2,-14.7 464.3,-14.5C464.4,-14.3 464.5,-14.2 464.7,-14.2C465.5,-14.2 467,-15.3 469.2,-17.6C471.4,-19.9 473.7,-23 476.3,-26.9C476.8,-27.3 477.4,-27.6 478.1,-27.8C478.8,-28.1 479.3,-28.2 479.6,-28.2C479.8,-28.1 480.1,-28 480.4,-27.7C480.7,-27.5 480.9,-27.2 481,-27C479.8,-24.8 478.8,-22.4 478,-19.8C477.6,-18.6 477.3,-17.6 477.2,-16.6C477,-15.7 476.9,-14.9 476.9,-14.4C476.9,-13.7 477.1,-13.3 477.4,-13.3C478.2,-13.3 479.6,-14 481.5,-15.5C481.8,-15 481.9,-14.4 481.9,-13.7C481.4,-13.3 480.8,-12.8 480.2,-12.2C479.5,-11.7 478.8,-11.2 478.1,-10.7C477.3,-10.3 476.6,-9.9 475.9,-9.6C475.2,-9.3 474.6,-9.2 474.2,-9.2C473.8,-9.2 473.4,-9.4 473.2,-9.8C472.9,-10.2 472.8,-10.8 472.8,-11.5C472.8,-12.5 473,-13.7 473.3,-15.1C473.6,-16.5 474.1,-17.9 474.6,-19.3C474.6,-19.5 474.5,-19.6 474.3,-19.6C474.3,-19.6 474.2,-19.6 474.1,-19.5L474,-19.5C471.1,-16.1 468.6,-13.6 466.5,-11.8C464.4,-10.1 462.7,-9.2 461.6,-9.2C460.4,-9.2 459.8,-10 459.8,-11.5C459.8,-12.3 459.9,-13.4 460.2,-14.6C460.5,-15.8 460.9,-17.1 461.4,-18.5C461.9,-19.9 462.5,-21.2 463,-22.5C463.6,-23.8 464.2,-25.1 464.8,-26.4C465.4,-27.1 466.3,-27.4 467.3,-27.7M497.2,-46.4C497.8,-46.6 498.4,-46.7 499,-46.8L499.4,-46.9C499.5,-46.9 499.7,-46.7 499.9,-46.3C500.1,-45.9 500.3,-45.7 500.3,-45.6L499.3,-43.3C497.6,-39.5 496,-36.1 494.6,-33C493.2,-29.9 492,-26.8 490.9,-23.8C489.9,-21.2 489.3,-19.2 489,-17.7C488.7,-16.2 488.6,-14.8 488.6,-13.5C488.6,-12.5 488.7,-11.7 489,-11.1C488.9,-10.6 488.7,-10 488.5,-9.5C488.2,-9.3 487.8,-9 487.3,-8.9C486.8,-8.7 486.2,-8.5 485.6,-8.3C485.3,-8.2 485.1,-8.2 485,-8.1C484.4,-8.4 484.1,-9 484.1,-9.9C484.1,-12 484.5,-14.4 485.3,-17.2C486.1,-20 487.4,-23.7 489.3,-28.4C490.2,-30.6 490.7,-32 490.9,-32.5C492.5,-36.5 493.7,-39.4 494.4,-41.3C495.1,-43.2 495.5,-44.5 495.6,-45.3C496.1,-45.8 496.6,-46.2 497.2,-46.4M506.6,-39.9C507.3,-40.2 507.9,-40.5 508.5,-40.6C508.8,-40.4 509.1,-40.2 509.4,-39.9C509.7,-39.6 509.9,-39.4 509.9,-39.1C509.2,-37.9 508.3,-36.4 507.4,-34.5C506.5,-32.6 505.5,-30.6 504.6,-28.6C505.5,-28.6 506.7,-28.6 508,-28.7C509.4,-28.7 510.5,-28.8 511.6,-28.9C511.6,-28.7 511.5,-28.4 511.3,-28C511.1,-27.6 510.9,-27.3 510.7,-27.1C508.7,-26.6 506.3,-26.2 503.5,-25.9C502.1,-22.5 501.1,-19.9 500.5,-18C499.9,-16.2 499.6,-14.8 499.6,-13.9C499.6,-13 499.8,-12.6 500.2,-12.6C500.8,-12.6 501.6,-13 502.7,-13.6C503.8,-14.2 505.1,-15.1 506.6,-16.2C507,-15.6 507.1,-14.9 507.1,-14.1C504.9,-12.5 502.8,-11.2 501,-10.1C499.2,-9 497.8,-8.5 496.9,-8.5C496.5,-8.5 496.1,-8.7 495.7,-9.2C495.4,-9.7 495.2,-10.3 495.2,-11.1C495.2,-12.3 495.6,-14.1 496.4,-16.7C497.2,-19.3 498.3,-22.2 499.8,-25.5L497.5,-25.5C496.3,-25.5 495.6,-25.4 495.6,-25.4C495.6,-25.6 495.7,-26 495.9,-26.4C496.1,-26.8 496.3,-27.1 496.5,-27.2C497,-27.4 497.9,-27.5 499.1,-27.7C499.8,-27.8 500.5,-27.9 501,-28.1C501.4,-29 501.8,-30 502.3,-31.1C502.7,-32.1 503.2,-33.2 503.6,-34.3C504,-35.4 504.4,-36.3 504.6,-37.1C504.8,-37.9 505,-38.4 505,-38.7C505.4,-39.2 506,-39.5 506.6,-39.9M517.3,-27.7L517.5,-27.8C518,-27.4 518.3,-27 518.5,-26.6C517,-24 515.9,-21.7 515.2,-19.9C514.5,-18.1 514.2,-16.6 514.2,-15.3C514.2,-15 514.2,-14.7 514.3,-14.5C514.4,-14.3 514.5,-14.2 514.7,-14.2C515.5,-14.2 517,-15.3 519.2,-17.6C521.4,-19.9 523.7,-23 526.3,-26.9C526.8,-27.3 527.4,-27.6 528.1,-27.8C528.8,-28.1 529.3,-28.2 529.6,-28.2C529.8,-28.1 530.1,-28 530.4,-27.7C530.7,-27.5 530.9,-27.2 531,-27C529.8,-24.8 528.8,-22.4 528,-19.8C527.6,-18.6 527.3,-17.6 527.2,-16.6C527,-15.7 526.9,-14.9 526.9,-14.4C526.9,-13.7 527.1,-13.3 527.4,-13.3C528.3,-13.3 529.6,-14 531.5,-15.5C531.8,-15 531.9,-14.4 531.9,-13.7C531.4,-13.3 530.8,-12.8 530.2,-12.2C529.5,-11.7 528.8,-11.2 528.1,-10.7C527.3,-10.3 526.6,-9.9 525.9,-9.6C525.2,-9.3 524.6,-9.2 524.2,-9.2C523.8,-9.2 523.5,-9.4 523.2,-9.8C522.9,-10.2 522.8,-10.8 522.8,-11.5C522.8,-12.5 523,-13.7 523.3,-15.1C523.6,-16.5 524.1,-17.9 524.6,-19.3C524.6,-19.5 524.5,-19.6 524.3,-19.6C524.3,-19.6 524.2,-19.6 524.1,-19.5L524,-19.5C521.1,-16.1 518.6,-13.6 516.5,-11.8C514.4,-10.1 512.7,-9.2 511.6,-9.2C510.4,-9.2 509.8,-10 509.8,-11.5C509.8,-12.3 509.9,-13.4 510.2,-14.6C510.5,-15.8 510.9,-17.1 511.4,-18.5C511.9,-19.9 512.5,-21.2 513,-22.5C513.6,-23.8 514.2,-25.1 514.9,-26.4C515.3,-27.1 516.2,-27.4 517.3,-27.7M545.6,-23.1C543.7,-20.9 541.7,-18.1 539.5,-14.5C539.2,-14 538.8,-13.2 538.3,-12.3C537.8,-11.4 537.4,-10.5 537.1,-9.7C536.9,-9.5 536.6,-9.4 536.3,-9.2C536,-9 535.5,-8.9 535,-8.7L534.8,-8.6C534.1,-8.6 533.4,-8.9 532.8,-9.4C534.1,-12.3 535.1,-15 536,-17.6C536.4,-18.9 536.8,-20 537,-21C537.2,-22 537.4,-22.8 537.4,-23.3C537.4,-24.9 537.2,-26 536.8,-26.8C537.3,-27.6 537.9,-28.1 538.6,-28.5C539.3,-28.9 540.1,-29 541.2,-29C541.4,-28.6 541.4,-28.2 541.5,-27.9L541.5,-26.5C541.5,-25.1 541.1,-23.2 540.3,-20.7L540.3,-20.6L540.2,-20.5C540.2,-20.3 540.3,-20.3 540.6,-20.3C540.6,-20.3 540.7,-20.3 540.7,-20.4L540.8,-20.4C543.3,-23.6 545.5,-26.1 547.4,-28C549.3,-29.8 550.7,-30.8 551.6,-30.8C552,-30.7 552.5,-30.5 553.1,-30.2C553.6,-29.9 554.1,-29.6 554.4,-29.3C554.4,-28.9 554.3,-28.4 554.3,-27.9C554.2,-27.4 554.1,-26.9 553.9,-26.6C553.6,-26.4 553.2,-26.1 552.7,-25.9C552.2,-25.7 551.8,-25.6 551.5,-25.6C550.9,-25.8 550.3,-26.3 549.9,-26.8C548.8,-26.4 547.5,-25.2 545.6,-23.1M562.8,-29.9C563.3,-30 563.7,-30.1 564.1,-30.1C565.6,-30.1 566.8,-29.9 567.7,-29.5C568.6,-29.1 569.1,-28.4 569.2,-27.3C569.2,-26.4 568.9,-25.6 568.3,-24.8C567.7,-24 566.9,-23.3 565.8,-22.7C564.7,-22.1 563.5,-21.6 562.1,-21.2C560.7,-20.9 559.2,-20.7 557.6,-20.7C556.6,-18.4 556.1,-16.3 556.1,-14.5C556.1,-13.7 556.2,-13 556.4,-12.5C556.6,-12 557,-11.8 557.6,-11.8C558.2,-11.8 558.8,-11.9 559.5,-12.2C560.2,-12.5 561,-12.9 561.7,-13.4C562.5,-13.9 563.2,-14.4 563.9,-14.9C564.6,-15.4 565.2,-15.9 565.9,-16.5C566.3,-16.1 566.4,-15.3 566.4,-14.3C565.7,-13.7 564.9,-13.1 563.9,-12.4C562.9,-11.7 561.9,-11.1 560.9,-10.5C559.9,-9.9 558.8,-9.5 557.8,-9.1C556.8,-8.7 555.9,-8.6 555.2,-8.6C552.8,-8.6 551.7,-9.8 551.7,-12.1C551.7,-13.4 552,-14.9 552.5,-16.5C553,-18.1 553.7,-19.7 554.7,-21.4C555.6,-23 556.7,-24.6 557.9,-26.1C559.1,-27.6 560.3,-28.8 561.6,-29.8C561.8,-29.6 562.3,-29.8 562.8,-29.9M560.4,-25.6C559.7,-24.7 559.1,-23.7 558.5,-22.7C560.3,-22.7 561.9,-23 563.3,-23.6C564.7,-24.2 565.4,-25.1 565.4,-26.3C565.4,-27.4 564.4,-28 562.5,-28C561.8,-27.3 561.1,-26.5 560.4,-25.6" style="fill:rgb(242,101,34);fill-rule:nonzero;"/>
            </g>
        </g>
    </g>
</svg>
