<?xml version="1.0" encoding="UTF-8" standalone="no"?>
<!DOCTYPE svg PUBLIC "-//W3C//DTD SVG 1.1//EN" "http://www.w3.org/Graphics/SVG/1.1/DTD/svg11.dtd">
<svg width="100%" height="100%" viewBox="0 0 1680 584" version="1.1" xmlns="http://www.w3.org/2000/svg" xmlns:xlink="http://www.w3.org/1999/xlink" xml:space="preserve" xmlns:serif="http://www.serif.com/" style="fill-rule:evenodd;clip-rule:evenodd;stroke-linejoin:round;stroke-miterlimit:2;">
    <g id="Page-1" serif:id="Page 1" transform="matrix(4.166667,0,0,4.166667,0,0)">
        <rect x="0" y="0" width="403" height="140" style="fill:none;"/>
        <g id="Layer-1" serif:id="Layer 1">
            <g transform="matrix(1,0,0,1,0,0.3263)">
                <path d="M0,-0.017L0.017,-0.017C0.014,-0.014 0.006,-0.006 0,0L0,-0.017Z" style="fill:white;fill-rule:nonzero;"/>
            </g>
            <g transform="matrix(1,0,0,1,109.8701,92.9719)">
                <path d="M0,-45.601C-1.887,-44.973 -3.452,-43.587 -4.507,-41.927C-4.913,-40.836 -5.387,-39.726 -5.413,-38.545C-5.421,-33.432 -5.399,-28.32 -5.424,-23.207C-0.881,-23.193 3.663,-23.135 8.203,-23.25C10.713,-23.171 13.324,-23.99 15.225,-25.664C16.28,-26.581 16.529,-28.023 16.945,-29.282C17.665,-32.891 17.573,-36.731 16.277,-40.2C15.772,-41.453 14.827,-42.424 13.907,-43.377C11.543,-45.374 8.509,-46.658 5.387,-46.557C3.55,-46.599 1.736,-46.168 0,-45.601M-56.967,-43.938C-58.512,-42.592 -59.384,-40.575 -59.527,-38.548C-59.541,-33.424 -59.522,-28.295 -59.533,-23.168C-54.437,-23.165 -49.342,-23.129 -44.251,-23.306C-42.656,-23.611 -41.074,-24.122 -39.705,-25.022C-39.377,-25.353 -39.021,-25.653 -38.64,-25.917C-37.925,-26.82 -37.568,-27.925 -37.257,-29.015C-36.688,-31.2 -36.828,-33.48 -36.87,-35.715C-36.921,-37.544 -37.487,-39.305 -38.25,-40.954C-39.675,-43.262 -41.966,-44.92 -44.476,-45.884C-48.61,-47.174 -53.501,-46.65 -56.967,-43.938M32.237,-49.031C40.177,-49.05 48.119,-49.028 56.061,-49.042C56.055,-48.319 56.047,-47.595 56.033,-46.871C54.583,-46.835 53.088,-47.062 51.678,-46.641C50.626,-46.168 49.647,-45.503 49.041,-44.496C48.887,-44.081 48.719,-43.672 48.492,-43.293C48.346,-42.182 48.408,-41.061 48.399,-39.944L48.399,-13.28C48.45,-9.634 48.301,-5.98 48.481,-2.339C49.067,-0.696 50.432,0.782 52.208,1.082C53.478,1.231 54.763,1.132 56.041,1.141C56.044,1.89 56.047,2.636 56.058,3.387C45.542,3.359 35.025,3.449 24.511,3.342C23.642,2.122 22.433,1.211 21.432,0.112C18.986,-2.314 16.361,-4.547 13.84,-6.888C10.609,-9.645 7.429,-12.461 4.162,-15.173C1.419,-17.245 -1.873,-19.029 -5.413,-18.785C-5.413,-13.776 -5.407,-8.767 -5.415,-3.756C-5.432,-1.655 -3.963,0.428 -1.907,0.978C-0.552,1.292 0.855,1.104 2.235,1.146C2.252,1.892 2.258,2.638 2.266,3.384C-8.399,3.39 -19.062,3.393 -29.727,3.384C-30.367,2.689 -31.031,2.013 -31.71,1.357C-36.937,-3.599 -42.129,-8.605 -47.698,-13.182C-50.093,-15.139 -52.384,-17.453 -55.438,-18.342C-56.748,-18.816 -58.156,-18.816 -59.53,-18.782C-59.536,-13.765 -59.527,-8.748 -59.536,-3.728C-59.494,-1.731 -58.206,0.19 -56.333,0.914C-54.979,1.326 -53.548,1.102 -52.157,1.149C-52.143,1.895 -52.135,2.644 -52.135,3.393C-68.56,3.39 -84.983,3.373 -101.406,3.398C-101.409,2.65 -101.406,1.904 -101.384,1.155C-99.811,1.102 -98.173,1.346 -96.656,0.807C-95.424,0.288 -94.533,-0.814 -94.036,-2.025C-93.669,-3.602 -93.887,-5.234 -93.918,-6.832C-93.773,-10.944 -94,-15.058 -93.89,-19.175C-93.997,-23.479 -93.764,-27.782 -93.916,-32.089C-93.893,-35.642 -93.913,-39.196 -93.938,-42.749C-93.916,-44.033 -94.785,-45.105 -95.688,-45.926C-96.005,-46.097 -96.316,-46.271 -96.625,-46.456C-98.128,-47.135 -99.808,-46.813 -101.398,-46.88C-101.409,-47.592 -101.412,-48.305 -101.412,-49.017C-93.456,-48.994 -85.502,-49.025 -77.546,-49.003C-77.546,-48.352 -77.538,-47.704 -77.512,-47.054C-78.811,-46.684 -80.177,-47.037 -81.492,-46.787C-82.392,-46.524 -83.267,-46.092 -83.926,-45.413C-84.619,-44.678 -84.955,-43.7 -85.264,-42.76C-85.3,-30.314 -85.258,-17.871 -85.283,-5.424C-85.435,-3.604 -84.922,-1.77 -83.755,-0.351C-83.057,0.075 -82.342,0.473 -81.601,0.821C-79.369,1.334 -77.072,1.11 -74.806,1.155C-72.675,1.121 -70.243,0.583 -69.023,-1.336C-68.406,-2.093 -68.193,-3.074 -68.213,-4.033C-68.218,-16.471 -68.216,-28.909 -68.216,-41.347C-68.232,-42.258 -68.143,-43.186 -68.339,-44.084C-68.642,-44.805 -69.214,-45.354 -69.73,-45.918C-70.364,-46.212 -71.003,-46.518 -71.693,-46.664C-73.022,-47.031 -74.427,-46.712 -75.765,-47.026C-75.737,-47.69 -75.726,-48.352 -75.717,-49.017C-64.755,-48.986 -53.789,-49.036 -42.827,-48.992C-39.658,-48.689 -36.416,-48.229 -33.558,-46.731C-30.689,-45.321 -28.353,-42.861 -27.167,-39.883C-25.964,-36.787 -25.616,-33.416 -26.017,-30.132C-26.513,-27.84 -27.383,-25.602 -28.978,-23.847L-29.169,-23.735C-30.967,-21.844 -33.412,-20.852 -35.796,-19.94C-36.646,-19.764 -37.532,-19.727 -38.342,-19.393C-39.885,-19.2 -41.439,-19.088 -42.987,-18.933C-41.262,-18.171 -39.585,-17.256 -38.202,-15.958C-33.452,-11.448 -28.58,-7.068 -24.029,-2.356C-22.279,-0.66 -20.167,1.054 -17.598,1.054C-16.159,1.09 -15.051,0.005 -14.398,-1.17C-14.092,-1.908 -13.759,-2.665 -13.801,-3.481C-13.801,-16.193 -13.804,-28.906 -13.801,-41.619C-13.806,-42.185 -13.846,-42.752 -13.885,-43.315C-14.392,-44.516 -15.113,-45.719 -16.356,-46.266C-17.898,-47.11 -19.704,-46.843 -21.387,-46.877C-21.392,-47.589 -21.395,-48.296 -21.39,-49.006C-10.217,-49.008 0.954,-49.014 12.126,-49.003C15.405,-48.7 18.734,-48.01 21.608,-46.339C23.869,-45.049 25.955,-43.234 27.06,-40.836C27.868,-38.949 28.221,-36.896 28.345,-34.857C28.544,-33.85 28.46,-32.821 28.432,-31.8C28.075,-29.251 27.411,-26.679 25.804,-24.61C24.085,-22.33 21.519,-20.852 18.801,-20.086C16.434,-19.492 13.997,-19.116 11.577,-18.779C11.622,-18.673 11.709,-18.462 11.753,-18.356C14.58,-17.59 16.737,-15.49 18.809,-13.535C22.595,-9.85 26.272,-6.044 30.111,-2.407C32.285,-0.763 34.744,1.211 37.641,0.88C38.286,0.863 38.685,0.297 39.139,-0.079C39.484,-0.786 39.851,-1.515 39.781,-2.325C39.781,-15.795 39.792,-29.265 39.776,-42.738C39.607,-44.412 38.401,-45.952 36.8,-46.515C35.347,-47.157 33.726,-46.684 32.218,-47.014C32.234,-47.688 32.24,-48.358 32.237,-49.031" style="fill:white;fill-rule:nonzero;"/>
            </g>
            <g transform="matrix(1,0,0,1,142.1073,96.059)">
                <path d="M0,-52.118C0.003,-51.445 -0.003,-50.775 -0.02,-50.102C1.489,-49.771 3.11,-50.245 4.563,-49.602C6.164,-49.039 7.37,-47.499 7.538,-45.825C7.555,-32.352 7.544,-18.882 7.544,-5.413C7.614,-4.602 7.247,-3.873 6.902,-3.166C6.447,-2.79 6.049,-2.224 5.404,-2.207C2.507,-1.876 0.048,-3.851 -2.126,-5.494C-5.965,-9.131 -9.642,-12.937 -13.428,-16.622C-15.5,-18.577 -17.657,-20.677 -20.484,-21.443C-20.529,-21.549 -20.616,-21.76 -20.66,-21.866C-18.24,-22.203 -15.803,-22.579 -13.436,-23.173C-10.719,-23.939 -8.153,-25.417 -6.433,-27.697C-4.826,-29.766 -4.162,-32.338 -3.806,-34.887C-3.778,-35.908 -3.693,-36.937 -3.893,-37.944C-4.016,-39.983 -4.369,-42.036 -5.177,-43.923C-6.282,-46.321 -8.368,-48.136 -10.629,-49.426C-13.503,-51.097 -16.832,-51.787 -20.111,-52.09C-31.284,-52.101 -42.454,-52.096 -53.627,-52.093C-53.632,-51.383 -53.63,-50.677 -53.624,-49.964C-51.941,-49.931 -50.135,-50.197 -48.593,-49.353C-47.35,-48.806 -46.63,-47.603 -46.122,-46.403C-46.083,-45.839 -46.044,-45.272 -46.038,-44.706C-46.041,-31.993 -46.038,-19.281 -46.038,-6.568C-45.996,-5.752 -46.33,-4.995 -46.635,-4.257C-47.289,-3.082 -48.396,-1.997 -49.835,-2.033C-52.404,-2.033 -54.516,-3.747 -56.266,-5.443C-60.817,-10.155 -65.689,-14.536 -70.439,-19.045C-71.822,-20.344 -73.499,-21.258 -75.224,-22.021C-73.676,-22.175 -72.122,-22.287 -70.58,-22.481C-69.769,-22.814 -68.883,-22.851 -68.033,-23.027C-65.649,-23.939 -63.204,-24.932 -61.406,-26.822L-61.216,-26.934C-59.62,-28.69 -58.75,-30.928 -58.254,-33.219C-57.853,-36.503 -58.201,-39.874 -59.404,-42.97C-60.59,-45.948 -62.926,-48.408 -65.795,-49.818C-68.653,-51.316 -71.895,-51.776 -75.064,-52.079C-86.027,-52.124 -96.992,-52.073 -107.955,-52.104C-107.963,-51.439 -107.974,-50.777 -108.002,-50.113C-106.665,-49.799 -105.26,-50.118 -103.93,-49.751C-103.24,-49.605 -102.601,-49.3 -101.967,-49.005C-101.451,-48.441 -100.879,-47.892 -100.576,-47.171C-100.38,-46.274 -100.47,-45.345 -100.453,-44.434C-100.453,-31.996 -100.456,-19.558 -100.45,-7.121C-100.43,-6.161 -100.643,-5.18 -101.26,-4.423C-102.48,-2.504 -104.912,-1.966 -107.043,-1.932C-109.309,-1.977 -111.606,-1.753 -113.838,-2.266C-114.579,-2.614 -115.294,-3.012 -115.992,-3.438C-117.159,-4.857 -117.672,-6.691 -117.521,-8.512C-117.495,-20.958 -117.537,-33.401 -117.501,-45.847C-117.193,-46.787 -116.856,-47.765 -116.163,-48.5C-115.504,-49.179 -114.629,-49.611 -113.729,-49.874C-112.414,-50.124 -111.048,-49.771 -109.749,-50.141C-109.775,-50.791 -109.783,-51.439 -109.783,-52.09C-117.739,-52.112 -125.693,-52.082 -133.649,-52.104C-133.649,-51.392 -133.646,-50.679 -133.635,-49.967C-132.045,-49.9 -130.365,-50.222 -128.862,-49.544C-128.553,-49.358 -128.242,-49.185 -127.925,-49.013C-127.022,-48.192 -126.153,-47.12 -126.175,-45.836C-126.15,-42.283 -126.13,-38.73 -126.153,-35.176C-126.001,-30.869 -126.234,-26.567 -126.127,-22.262C-126.237,-18.145 -126.01,-14.031 -126.156,-9.919C-126.125,-8.321 -125.906,-6.689 -126.273,-5.113C-126.77,-3.901 -127.662,-2.799 -128.893,-2.28C-130.41,-1.742 -132.048,-1.986 -133.621,-1.932C-133.643,-1.184 -133.646,-0.438 -133.643,0.311C-117.221,0.286 -100.798,0.303 -84.372,0.306C-84.372,-0.443 -84.38,-1.192 -84.394,-1.938C-85.785,-1.986 -87.216,-1.761 -88.57,-2.173C-90.444,-2.897 -91.731,-4.818 -91.773,-6.815C-91.765,-11.835 -91.773,-16.852 -91.767,-21.869C-90.393,-21.903 -88.985,-21.903 -87.676,-21.429C-84.622,-20.54 -82.33,-18.226 -79.935,-16.269C-74.366,-11.692 -69.175,-6.686 -63.947,-1.73C-63.268,-1.074 -62.604,-0.398 -61.964,0.297C-51.299,0.306 -40.637,0.303 -29.971,0.297C-29.98,-0.449 -29.985,-1.195 -30.002,-1.941C-31.382,-1.983 -32.79,-1.795 -34.144,-2.109C-36.2,-2.659 -37.669,-4.742 -37.653,-6.843C-37.644,-11.854 -37.65,-16.863 -37.65,-21.872C-34.111,-22.116 -30.818,-20.332 -28.075,-18.26C-24.808,-15.548 -21.628,-12.732 -18.397,-9.975C-15.876,-7.634 -13.251,-5.401 -10.806,-2.976C-9.804,-1.876 -8.596,-0.965 -7.726,0.255C2.788,0.362 13.304,0.272 23.821,0.3C23.81,-0.452 23.807,-1.198 23.804,-1.946C22.525,-1.955 21.241,-1.857 19.971,-2.005C18.195,-2.305 16.83,-3.783 16.243,-5.427C16.064,-9.067 16.213,-12.721 16.162,-16.367L16.162,-43.032C16.17,-44.148 16.109,-45.27 16.255,-46.38C16.482,-46.759 16.65,-47.168 16.804,-47.583C17.41,-48.59 18.389,-49.255 19.44,-49.729C20.851,-50.149 22.346,-49.922 23.796,-49.959C23.81,-50.682 23.818,-51.406 23.824,-52.129C15.882,-52.115 7.939,-52.138 0,-52.118M-142.09,-95.75L32.826,-95.75C32.835,-49.288 32.818,-2.83 32.835,43.632L-142.107,43.632L-142.107,-95.733C-142.102,-95.738 -142.093,-95.747 -142.09,-95.75" style="fill:rgb(2,133,65);fill-rule:nonzero;"/>
            </g>
            <g transform="matrix(1,0,0,1,333.4131,61.9208)">
                <path d="M0,-17.991C1.593,-18.229 3.169,-18.569 4.709,-19.048C4.574,-13.894 4.627,-8.736 4.633,-3.579C4.725,-2.317 4.521,-1.007 4.972,0.204C5.586,0.249 6.209,0.294 6.832,0.333C6.837,0.513 6.848,0.872 6.854,1.051C4.613,0.953 2.367,0.922 0.126,1.057C0.135,0.872 0.151,0.504 0.16,0.322C0.827,0.297 1.526,0.308 2.148,0.019C2.49,-3.593 2.361,-7.222 2.381,-10.845C2.398,-12.954 2.241,-15.055 2.151,-17.161C1.441,-17.321 0.721,-17.385 0.003,-17.405C0,-17.554 0,-17.845 0,-17.991" style="fill:rgb(2,133,65);fill-rule:nonzero;"/>
            </g>
            <g transform="matrix(1,0,0,1,183.9301,62.9978)">
                <path d="M0,-19.068C2.622,-19.071 5.256,-18.956 7.881,-19.121C7.867,-18.838 7.855,-18.555 7.85,-18.269C7.048,-18.291 6.246,-18.215 5.486,-17.957C5.197,-16.903 5.242,-15.804 5.247,-14.721C5.219,-10.798 5.219,-6.871 5.253,-2.948C5.242,-2.348 5.371,-1.756 5.511,-1.173C6.274,-0.943 7.067,-0.895 7.858,-0.836C8.007,-0.573 7.993,0.053 7.566,-0.02C5.04,-0.144 2.513,-0.113 -0.014,-0.017C-0.025,-0.292 -0.031,-0.564 -0.036,-0.836C0.774,-0.876 1.582,-0.974 2.378,-1.15C2.577,-1.922 2.689,-2.712 2.67,-3.509C2.664,-7.626 2.681,-11.743 2.659,-15.86C2.667,-16.561 2.552,-17.254 2.426,-17.941C1.641,-18.269 0.782,-18.263 -0.048,-18.283C-0.036,-18.479 -0.014,-18.872 0,-19.068" style="fill:rgb(2,133,65);fill-rule:nonzero;"/>
            </g>
            <g transform="matrix(1,0,0,1,283.6228,46.888)">
                <path d="M0,-2.975C1.2,-3.382 2.367,-2.03 1.876,-0.894C1.54,0.023 0.266,0.407 -0.494,-0.235C-1.489,-0.933 -1.158,-2.652 0,-2.975" style="fill:rgb(2,133,65);fill-rule:nonzero;"/>
            </g>
            <g transform="matrix(1,0,0,1,369.7279,47.1827)">
                <path d="M0,-3.281C0.923,-3.528 1.958,-2.681 1.826,-1.711C1.941,-0.524 0.348,0.247 -0.55,-0.491C-1.627,-1.166 -1.251,-3.048 0,-3.281" style="fill:rgb(2,133,65);fill-rule:nonzero;"/>
            </g>
            <g transform="matrix(1,0,0,1,348.3384,62.9163)">
                <path d="M0,-19.023C2.894,-18.9 5.791,-18.911 8.685,-19.037C10.385,-19.045 12.258,-19.093 13.725,-18.098C15.34,-16.892 15.683,-14.505 14.732,-12.783C13.801,-10.913 11.742,-9.993 9.782,-9.642C11.361,-7.387 13.074,-5.231 14.712,-3.015C15.486,-2.014 16.243,-0.631 17.721,-0.746C17.713,-0.486 17.71,-0.222 17.713,0.042C16.454,-0.056 15.189,-0.04 13.933,0.056C11.372,-3.256 9.064,-6.768 6.282,-9.903C6.332,-9.99 6.431,-10.161 6.481,-10.245C7.948,-10.267 9.552,-10.192 10.808,-11.095C12.934,-12.421 13.178,-16.154 10.881,-17.433C9.207,-18.342 7.221,-18.112 5.438,-17.711C5.056,-14.275 5.292,-10.812 5.225,-7.362C5.289,-5.284 5.037,-3.172 5.488,-1.122C6.271,-0.845 7.101,-0.78 7.931,-0.769C7.92,-0.488 7.911,-0.211 7.909,0.07C5.275,-0.062 2.642,-0.04 0.011,0.061C0.011,-0.143 0.008,-0.556 0.006,-0.763C0.796,-0.786 1.587,-0.878 2.361,-1.069C2.757,-2.095 2.633,-3.206 2.653,-4.28C2.695,-8.195 2.667,-12.113 2.645,-16.031C2.65,-16.656 2.56,-17.276 2.417,-17.879C1.641,-18.117 0.83,-18.196 0.025,-18.193C0.02,-18.4 0.006,-18.815 0,-19.023" style="fill:rgb(2,133,65);fill-rule:nonzero;"/>
            </g>
            <g transform="matrix(1,0,0,1,211.2258,62.4162)">
                <path d="M0,-15.595C0.864,-15.906 1.669,-16.386 2.577,-16.563C2.42,-14.885 2.319,-13.203 2.274,-11.517C3.539,-11.52 4.807,-11.526 6.072,-11.52C5.988,-11.116 5.903,-10.712 5.822,-10.309C4.644,-10.264 3.469,-10.272 2.294,-10.286C2.35,-7.51 1.941,-4.722 2.319,-1.957C2.46,-0.959 3.643,-0.664 4.482,-0.928C4.986,-0.961 5.659,-1.458 5.968,-0.818C5.121,-0.218 4.42,0.766 3.301,0.825C2.112,0.968 0.662,0.604 0.163,-0.602C-0.337,-1.977 -0.048,-3.466 -0.011,-4.888C0.006,-6.626 -0.011,-8.362 -0.011,-10.101C-0.738,-10.23 -1.784,-9.767 -2.244,-10.522C-1.484,-10.875 -0.704,-11.186 0.062,-11.531C0.081,-12.886 0.07,-14.243 0,-15.595" style="fill:rgb(2,133,65);fill-rule:nonzero;"/>
            </g>
            <g transform="matrix(1,0,0,1,273.8773,62.3022)">
                <path d="M0,-15.481C0.844,-15.806 1.674,-16.174 2.518,-16.507C2.541,-14.805 2.333,-13.108 2.241,-11.412C3.528,-11.409 4.818,-11.401 6.108,-11.409C6.013,-11.002 5.92,-10.596 5.839,-10.189C4.639,-10.141 3.441,-10.167 2.244,-10.167C2.302,-7.623 2.126,-5.076 2.232,-2.533C2.215,-2.025 2.42,-1.554 2.6,-1.086C3.155,-0.903 3.727,-0.626 4.33,-0.774C4.888,-0.847 5.469,-1.159 6.021,-0.873C5.222,-0.101 4.423,0.962 3.2,0.945C2.201,1.026 1.052,0.796 0.432,-0.057C-0.157,-0.859 -0.062,-1.899 -0.056,-2.836C0.014,-5.219 -0.014,-7.606 -0.017,-9.99C-0.69,-9.995 -1.36,-10.001 -2.03,-10.001C-2.036,-10.13 -2.05,-10.391 -2.056,-10.52C-1.374,-10.842 -0.547,-10.983 0.017,-11.482C0.115,-12.814 0.017,-14.149 0,-15.481" style="fill:rgb(2,133,65);fill-rule:nonzero;"/>
            </g>
            <g transform="matrix(1,0,0,1,52.9032,66.6069)">
                <path d="M0,-17.573C3.466,-20.285 8.357,-20.809 12.491,-19.519C15.001,-18.555 17.292,-16.897 18.717,-14.589C19.48,-12.94 20.046,-11.179 20.097,-9.35C20.139,-7.115 20.279,-4.835 19.71,-2.651C19.398,-1.56 19.042,-0.455 18.327,0.448C17.946,0.712 17.59,1.012 17.261,1.343C15.893,2.243 14.311,2.754 12.715,3.059C7.625,3.236 2.53,3.2 -2.566,3.197C-2.555,-1.93 -2.574,-7.059 -2.56,-12.183C-2.417,-14.21 -1.545,-16.227 0,-17.573" style="fill:rgb(2,133,65);fill-rule:nonzero;"/>
            </g>
            <g transform="matrix(1,0,0,1,109.8701,68.7799)">
                <path d="M0,-21.409C1.736,-21.976 3.55,-22.407 5.387,-22.365C8.509,-22.466 11.543,-21.182 13.907,-19.185C14.827,-18.232 15.772,-17.261 16.277,-16.008C17.573,-12.539 17.665,-8.699 16.945,-5.09C16.529,-3.831 16.28,-2.389 15.225,-1.472C13.324,0.202 10.713,1.021 8.203,0.942C3.663,1.057 -0.881,0.999 -5.424,0.985C-5.399,-4.128 -5.421,-9.24 -5.413,-14.353C-5.387,-15.534 -4.913,-16.644 -4.507,-17.735C-3.452,-19.395 -1.887,-20.781 0,-21.409" style="fill:rgb(2,133,65);fill-rule:nonzero;"/>
            </g>
            <g transform="matrix(1,0,0,1,262.2557,55.9361)">
                <path d="M0,1.012C-1.321,1.637 -1.624,3.39 -1.147,4.649C-0.78,5.496 0.247,5.718 1.083,5.617C2.403,5.449 3.43,4.492 4.271,3.536C4.254,2.33 4.257,1.124 4.271,-0.079C2.813,0.112 1.343,0.401 0,1.012M-2.619,-4.308C-0.855,-5.55 1.374,-6.453 3.548,-5.867C5.185,-5.514 6.523,-4.039 6.534,-2.331C6.548,0.434 6.386,3.202 6.532,5.97C7.067,6.231 7.665,6.298 8.256,6.335C8.262,6.57 8.273,6.806 8.284,7.042C6.947,6.915 5.6,6.949 4.263,7.039C4.243,6.259 4.249,5.482 4.246,4.705C2.768,5.631 1.632,7.465 -0.309,7.325C-1.551,7.364 -2.947,6.789 -3.452,5.583C-3.994,4.246 -3.794,2.616 -2.947,1.447C-2.288,0.51 -1.127,0.173 -0.079,-0.124C1.366,-0.542 2.866,-0.721 4.333,-1.049C4.179,-2.059 4.1,-3.248 3.225,-3.924C1.96,-4.875 0.208,-4.765 -1.155,-4.089C-1.397,-3.523 -1.655,-2.965 -1.907,-2.404C-2.061,-2.415 -2.364,-2.437 -2.516,-2.452C-2.611,-3.066 -2.639,-3.688 -2.619,-4.308" style="fill:rgb(2,133,65);fill-rule:nonzero;"/>
            </g>
            <g transform="matrix(1,0,0,1,310.5203,61.9127)">
                <path d="M0,-11.6C2.274,-12.671 5.844,-11.659 6.234,-8.891C6.478,-5.966 6.209,-3.004 6.568,-0.085C6.969,0.521 7.844,0.218 8.458,0.347C8.464,0.526 8.478,0.883 8.486,1.062C6.972,0.953 5.455,0.964 3.943,1.068C4.089,-1.978 4.195,-5.043 3.982,-8.086C3.643,-10.33 0.712,-10.804 -0.956,-9.771C-1.632,-9.298 -2.476,-8.731 -2.51,-7.82C-2.796,-5.366 -2.49,-2.898 -2.426,-0.444C-2.353,0.549 -1.091,0.204 -0.407,0.341C-0.398,0.521 -0.384,0.883 -0.376,1.062C-2.597,0.947 -4.824,0.942 -7.045,1.071C-7.031,0.885 -7.006,0.518 -6.994,0.333C-6.355,0.221 -5.486,0.498 -5.048,-0.116C-4.765,-3.447 -4.686,-6.81 -4.998,-10.147C-5.704,-10.299 -6.425,-10.36 -7.143,-10.346C-7.14,-10.506 -7.14,-10.82 -7.14,-10.98C-5.55,-11.174 -3.999,-11.578 -2.457,-12.004C-2.488,-11.168 -2.51,-10.335 -2.502,-9.499C-1.638,-10.161 -0.906,-10.994 0,-11.6" style="fill:rgb(2,133,65);fill-rule:nonzero;"/>
            </g>
            <g transform="matrix(1,0,0,1,390.307,61.048)">
                <path d="M0,-8.932C-0.659,-7.976 -0.71,-6.781 -0.726,-5.659C1.45,-5.547 3.632,-5.527 5.811,-5.589C5.805,-6.837 5.746,-8.197 4.955,-9.229C3.744,-10.769 1.015,-10.615 0,-8.932M0.191,-10.39C2.201,-11.49 4.944,-11.459 6.703,-9.883C8.074,-8.71 8.34,-6.764 8.27,-5.059C5.326,-4.453 2.277,-4.767 -0.71,-4.709C-0.752,-3.458 -0.564,-2.154 0.16,-1.099C1.245,0.435 3.312,1.13 5.121,0.67C6.097,0.446 6.921,-0.168 7.88,-0.446C7.746,-0.042 7.597,0.359 7.454,0.757C5.64,1.994 3.34,2.558 1.183,2.011C-0.634,1.663 -2.188,0.337 -2.855,-1.38C-3.609,-3.41 -3.5,-5.71 -2.664,-7.698C-2.168,-8.968 -0.948,-9.745 0.191,-10.39" style="fill:rgb(2,133,65);fill-rule:nonzero;"/>
            </g>
            <g transform="matrix(1,0,0,1,192.6968,61.5943)">
                <path d="M0,-10.659C1.565,-10.886 3.099,-11.248 4.619,-11.677C4.611,-10.844 4.591,-10.014 4.605,-9.181C5.446,-9.832 6.161,-10.637 7.031,-11.248C8.742,-12.042 10.895,-11.753 12.331,-10.536C13.29,-9.705 13.388,-8.345 13.478,-7.167C13.517,-5.011 13.461,-2.851 13.546,-0.698C13.548,-0.257 13.708,0.158 13.851,0.57C14.412,0.601 14.967,0.632 15.531,0.657C15.545,0.836 15.568,1.195 15.582,1.375C14.067,1.282 12.55,1.274 11.038,1.383C11.136,-1.62 11.4,-4.635 11.078,-7.636C10.971,-8.951 9.703,-10.031 8.385,-9.938C6.846,-10.109 5.113,-9.189 4.599,-7.697C4.431,-5.465 4.58,-3.222 4.608,-0.984C4.594,-0.459 4.706,0.057 4.913,0.542C5.595,0.677 6.812,0.29 6.851,1.358C4.582,1.294 2.311,1.254 0.045,1.381C0.062,1.139 0.079,0.898 0.101,0.66C0.743,0.621 1.385,0.559 2.03,0.472C2.316,-2.952 2.462,-6.407 2.089,-9.832C1.388,-9.952 0.681,-10.028 -0.025,-10.062C-0.02,-10.21 -0.006,-10.51 0,-10.659" style="fill:rgb(2,133,65);fill-rule:nonzero;"/>
            </g>
            <g transform="matrix(1,0,0,1,222.0398,61.8979)">
                <path d="M0,-10.354C-1.06,-9.392 -1.203,-7.864 -1.256,-6.52C0.928,-6.383 3.121,-6.389 5.312,-6.442C5.342,-8.066 5.118,-10.169 3.405,-10.89C2.288,-11.235 0.883,-11.226 0,-10.354M-2.56,-9.546C-1.097,-11.094 1.015,-12.132 3.177,-11.997C4.661,-11.843 6.161,-11.139 6.983,-9.849C7.698,-8.666 7.822,-7.244 7.757,-5.892C4.801,-5.309 1.753,-5.634 -1.242,-5.539C-1.209,-4.588 -1.164,-3.606 -0.754,-2.729C-0.031,-1.012 1.865,0.084 3.71,-0.05C5.037,-0.078 6.17,-0.83 7.359,-1.315C7.235,-0.889 7.095,-0.465 6.949,-0.045C4.967,1.237 2.454,1.778 0.174,1.021C-1.977,0.438 -3.508,-1.624 -3.747,-3.797C-3.965,-5.755 -3.764,-7.917 -2.56,-9.546" style="fill:rgb(2,133,65);fill-rule:nonzero;"/>
            </g>
            <g transform="matrix(1,0,0,1,231.2861,61.8057)">
                <path d="M0,-10.876C1.587,-11.103 3.163,-11.406 4.678,-11.947C4.675,-10.929 4.644,-9.911 4.669,-8.896C5.508,-9.998 6.226,-11.451 7.69,-11.804C8.315,-12.048 8.966,-11.83 9.588,-11.684C9.538,-10.542 9.44,-9.404 9.417,-8.262C9.263,-8.268 8.955,-8.276 8.798,-8.282C8.436,-8.896 7.9,-9.561 7.101,-9.493C5.654,-9.583 4.647,-8.122 4.658,-6.787C4.616,-4.549 4.549,-2.292 4.782,-0.062C5.351,0.659 6.453,0.291 7.272,0.451C7.28,0.631 7.294,0.99 7.303,1.169C4.911,1.065 2.51,1.04 0.121,1.172C0.129,0.992 0.149,0.628 0.157,0.446C0.813,0.311 1.904,0.645 2.14,-0.194C2.375,-3.464 2.471,-6.745 2.171,-10.015C1.453,-10.195 0.718,-10.251 -0.017,-10.256C-0.011,-10.41 -0.003,-10.719 0,-10.876" style="fill:rgb(2,133,65);fill-rule:nonzero;"/>
            </g>
            <g transform="matrix(1,0,0,1,248.612,62.0635)">
                <path d="M0,-11.619C1.671,-12.539 3.839,-12.258 5.342,-11.123C6.178,-10.405 6.515,-9.263 6.54,-8.192C6.596,-5.455 6.506,-2.704 6.823,0.019C7.432,0.104 8.043,0.16 8.66,0.202C8.669,0.381 8.691,0.735 8.699,0.914C7.188,0.81 5.673,0.81 4.167,0.917C4.339,-1.927 4.336,-4.782 4.268,-7.631C4.313,-8.893 3.385,-10.158 2.115,-10.357C0.44,-10.803 -1.478,-9.894 -2.23,-8.36C-2.457,-6.565 -2.311,-4.737 -2.302,-2.931C-2.241,-1.916 -2.423,-0.83 -1.91,0.101C-1.357,0.12 -0.802,0.148 -0.247,0.174C-0.213,0.418 -0.179,0.665 -0.143,0.911C-2.367,0.813 -4.597,0.774 -6.818,0.92C-6.804,0.673 -6.787,0.426 -6.767,0.182C-6.209,0.151 -5.648,0.115 -5.082,0.09C-4.939,-0.146 -4.835,-0.393 -4.765,-0.656C-4.543,-3.87 -4.451,-7.098 -4.776,-10.309C-5.533,-10.438 -6.293,-10.5 -7.053,-10.553C-7.022,-11.336 -6.184,-11.212 -5.629,-11.35C-4.476,-11.493 -3.371,-11.871 -2.244,-12.146C-2.266,-11.319 -2.288,-10.489 -2.26,-9.659C-1.481,-10.281 -0.782,-10.999 0,-11.619" style="fill:rgb(2,133,65);fill-rule:nonzero;"/>
            </g>
            <g transform="matrix(1,0,0,1,280.7455,61.9715)">
                <path d="M0,-11.025C1.579,-11.235 3.121,-11.625 4.655,-12.051C4.599,-8.992 4.498,-5.929 4.608,-2.867C4.655,-1.857 4.571,-0.822 4.927,0.145C5.62,0.201 6.358,0.184 6.977,0.563C6.781,0.888 6.504,1.026 6.15,0.975C4.125,0.897 2.098,0.891 0.076,1.006C0.095,0.765 0.115,0.527 0.14,0.285C0.771,0.246 1.402,0.187 2.033,0.111C2.429,-3.307 2.434,-6.773 2.131,-10.2C1.45,-10.366 0.752,-10.394 0.059,-10.355C0.045,-10.523 0.014,-10.857 0,-11.025" style="fill:rgb(2,133,65);fill-rule:nonzero;"/>
            </g>
            <g transform="matrix(1,0,0,1,293.9993,62.3042)">
                <path d="M0,-11.31C-1.054,-10.898 -1.764,-9.885 -2.081,-8.834C-2.577,-6.772 -2.412,-4.548 -1.621,-2.58C-0.982,-1.096 0.482,0.211 2.185,0.11C3.438,0.118 4.568,-0.757 5.118,-1.848C5.732,-3.096 5.735,-4.534 5.676,-5.895C5.612,-7.49 5.135,-9.125 4.095,-10.362C3.116,-11.515 1.385,-11.837 0,-11.31M0.028,-12.177C1.655,-12.586 3.416,-12.465 4.95,-11.776C7.034,-10.777 8.422,-8.497 8.282,-6.178C8.416,-4.181 7.617,-2.137 6.089,-0.827C4.465,0.707 2.053,1.276 -0.109,0.797C-2.12,0.295 -3.828,-1.287 -4.49,-3.25C-5.157,-5.205 -4.997,-7.443 -3.988,-9.252C-3.113,-10.713 -1.618,-11.77 0.028,-12.177" style="fill:rgb(2,133,65);fill-rule:nonzero;"/>
            </g>
            <g transform="matrix(1,0,0,1,323.9565,56.1937)">
                <path d="M0,0.746C-1.343,1.346 -1.613,3.119 -1.175,4.378C-0.791,5.225 0.23,5.474 1.083,5.359C2.401,5.188 3.41,4.218 4.263,3.276C4.243,2.073 4.246,0.867 4.26,-0.337C2.807,-0.135 1.338,0.132 0,0.746M-2.538,-4.546C-0.861,-5.929 1.478,-6.675 3.626,-6.097C5.121,-5.741 6.358,-4.439 6.498,-2.886C6.638,0.031 6.231,2.978 6.621,5.884C7.283,6.049 8.441,5.73 8.318,6.77C6.952,6.675 5.584,6.677 4.223,6.773C4.226,5.988 4.235,5.208 4.246,4.425C3.239,5.191 2.302,6.055 1.251,6.756C-0.297,7.421 -2.488,7.087 -3.377,5.528C-3.999,4.282 -3.837,2.734 -3.197,1.528C-2.507,0.266 -1.032,-0.146 0.264,-0.48C1.593,-0.861 2.978,-0.973 4.319,-1.312C4.125,-2.311 4.103,-3.522 3.2,-4.179C1.941,-5.143 0.182,-5.014 -1.175,-4.341C-1.416,-3.758 -1.677,-3.186 -1.952,-2.619C-2.123,-2.667 -2.471,-2.765 -2.642,-2.816C-2.597,-3.385 -2.743,-4.008 -2.538,-4.546" style="fill:rgb(2,133,65);fill-rule:nonzero;"/>
            </g>
            <g transform="matrix(1,0,0,1,366.7889,61.9478)">
                <path d="M0,-10.976C1.562,-11.256 3.102,-11.627 4.644,-12.014C4.54,-8.738 4.333,-5.46 4.597,-2.187C4.734,-1.427 4.339,-0.361 5.042,0.16C5.572,0.261 6.122,0.275 6.672,0.304C6.686,0.483 6.719,0.845 6.733,1.027C4.512,0.923 2.286,0.898 0.067,1.038C0.076,0.85 0.095,0.477 0.107,0.292C0.791,0.275 1.498,0.273 2.106,-0.095C2.255,-3.454 2.322,-6.823 2.112,-10.177C1.374,-10.269 0.639,-10.342 -0.093,-10.407C-0.07,-10.55 -0.022,-10.833 0,-10.976" style="fill:rgb(2,133,65);fill-rule:nonzero;"/>
            </g>
            <g transform="matrix(1,0,0,1,379.552,62.3692)">
                <path d="M0,-11.734C1.918,-12.842 4.282,-12.575 6.279,-11.827C6.192,-10.587 6.007,-9.356 5.895,-8.119C5.643,-8.119 5.393,-8.119 5.152,-8.116C5.031,-8.924 5.253,-10.018 4.378,-10.458C2.717,-11.512 0.028,-11.563 -1.122,-9.746C-2.232,-7.769 -1.991,-5.275 -1.15,-3.245C-0.488,-1.604 1.214,-0.474 2.984,-0.513C4.069,-0.457 5.042,-0.996 6.052,-1.318C6.571,-1.069 6.01,-0.365 5.743,-0.087C4.019,0.956 1.848,1.108 -0.087,0.664C-2.345,0.134 -3.977,-2 -4.215,-4.257C-4.35,-5.884 -4.294,-7.611 -3.466,-9.067C-2.765,-10.427 -1.256,-11.008 0,-11.734" style="fill:rgb(2,133,65);fill-rule:nonzero;"/>
            </g>
            <g transform="matrix(1,0,0,1,276.6033,95.0485)">
                <path d="M0,-18.2C1.562,-18.309 3.088,-18.696 4.574,-19.182C4.484,-16.021 4.476,-12.86 4.498,-9.697C5.699,-10.3 6.397,-11.682 7.768,-11.96C9.319,-12.395 11.097,-12.019 12.314,-10.948C13.195,-10.168 13.355,-8.926 13.425,-7.818C13.478,-5.398 13.369,-2.972 13.562,-0.557C13.627,0.419 14.866,0.161 15.551,0.256C15.523,0.497 15.5,0.741 15.478,0.982C13.997,0.741 12.488,0.75 11.005,0.963C11.139,-1.962 11.31,-4.896 11.08,-7.818C11.066,-8.931 10.295,-9.946 9.241,-10.277C7.14,-11.029 4.167,-9.394 4.484,-6.968C4.496,-5.005 4.467,-3.042 4.577,-1.082C4.568,-0.658 4.745,-0.266 4.899,0.124C5.589,0.279 6.826,-0.156 6.781,0.949C4.554,0.772 2.288,0.685 0.073,0.982C0.034,0.738 0,0.497 -0.028,0.256C0.653,0.116 1.924,0.458 2.044,-0.51C2.417,-6.071 2.255,-11.654 2.047,-17.221C1.377,-17.505 0.648,-17.457 -0.056,-17.471C-0.042,-17.715 -0.022,-17.956 0,-18.2" style="fill:rgb(2,133,65);fill-rule:nonzero;"/>
            </g>
            <g transform="matrix(1,0,0,1,183.7618,95.9588)">
                <path d="M0,-19.043C2.403,-18.948 4.81,-18.906 7.216,-18.995C8.699,-19.046 10.194,-19.124 11.672,-18.92C12.729,-18.746 13.834,-18.328 14.465,-17.408C15.772,-15.756 15.439,-13.218 14.014,-11.74C12.943,-10.495 11.31,-10.001 9.768,-9.64C11.406,-7.517 13.01,-5.366 14.611,-3.217C15.467,-2.166 16.207,-0.724 17.761,-0.713C17.755,-0.548 17.749,-0.217 17.744,-0.051C16.538,-0.076 15.304,-0.231 14.12,0.081C13.369,-0.595 12.839,-1.467 12.233,-2.264C10.878,-4.157 9.53,-6.053 8.052,-7.853C7.418,-8.622 6.745,-9.359 6.206,-10.201C7.729,-10.335 9.387,-10.147 10.724,-11.045C13.013,-12.332 13.268,-16.415 10.716,-17.551C9.092,-18.283 7.045,-18.297 5.449,-17.576C5.166,-12.856 5.373,-8.114 5.32,-3.383C5.427,-2.623 5.11,-1.611 5.791,-1.066C6.492,-0.865 7.227,-0.82 7.956,-0.775C7.945,-0.497 7.934,-0.22 7.928,0.061C5.3,-0.186 2.656,-0.141 0.028,0.053C0.031,-0.155 0.039,-0.57 0.042,-0.778C0.771,-0.837 1.517,-0.859 2.227,-1.069C2.687,-1.403 2.603,-2.028 2.656,-2.525C2.698,-7.208 2.703,-11.894 2.647,-16.578C2.667,-17.102 2.513,-17.599 2.302,-18.067C1.562,-18.16 0.768,-18.078 0.07,-18.311C0.053,-18.493 0.017,-18.861 0,-19.043" style="fill:rgb(2,133,65);fill-rule:nonzero;"/>
            </g>
            <g transform="matrix(1,0,0,1,299.9924,96.0227)">
                <path d="M0,-19.121C2.625,-18.981 5.258,-18.995 7.886,-19.118C7.872,-18.838 7.864,-18.554 7.861,-18.274C7.098,-18.26 6.335,-18.207 5.584,-18.103C5.401,-17.534 5.247,-16.95 5.261,-16.347C5.25,-11.58 5.169,-6.809 5.303,-2.045C5.295,-0.685 6.977,-0.993 7.892,-0.828C7.886,-0.623 7.872,-0.211 7.866,-0.003C5.247,-0.225 2.614,-0.239 -0.003,0C-0.014,-0.281 -0.02,-0.558 -0.022,-0.833C0.78,-0.895 1.576,-1.007 2.373,-1.144C2.931,-3.172 2.577,-5.303 2.675,-7.379C2.583,-10.884 2.891,-14.412 2.468,-17.898C1.691,-18.299 0.788,-18.21 -0.045,-18.367C-0.034,-18.554 -0.011,-18.93 0,-19.121" style="fill:rgb(2,133,65);fill-rule:nonzero;"/>
            </g>
            <g transform="matrix(1,0,0,1,348.4225,79.9305)">
                <path d="M0,-2.953C0.998,-3.351 2.216,-2.487 2.073,-1.397C2.098,-0.376 0.855,0.398 -0.045,-0.073C-1.265,-0.513 -1.231,-2.544 0,-2.953" style="fill:rgb(2,133,65);fill-rule:nonzero;"/>
            </g>
            <g transform="matrix(1,0,0,1,338.8705,95.4806)">
                <path d="M0,-15.651C0.825,-15.993 1.624,-16.49 2.535,-16.546C2.3,-14.894 2.286,-13.225 2.216,-11.562C3.486,-11.542 4.756,-11.565 6.032,-11.537C5.934,-11.141 5.875,-10.732 5.727,-10.351C4.552,-10.266 3.377,-10.331 2.204,-10.317C2.333,-7.459 1.82,-4.579 2.305,-1.744C2.891,-0.487 4.577,-0.883 5.595,-1.32C5.637,-1.172 5.727,-0.877 5.769,-0.731C4.981,-0.173 4.336,0.713 3.295,0.777C2.19,0.895 0.819,0.64 0.227,-0.406C-0.325,-1.424 -0.149,-2.627 -0.143,-3.735C0.006,-5.863 -0.093,-8 -0.056,-10.132C-0.827,-10.151 -1.646,-10.039 -2.356,-10.404C-1.683,-10.99 -0.794,-11.206 0.008,-11.557C0.065,-12.922 -0.078,-14.288 0,-15.651" style="fill:rgb(2,133,65);fill-rule:nonzero;"/>
            </g>
            <g transform="matrix(1,0,0,1,355.7842,95.5797)">
                <path d="M0,-15.708C0.839,-16.059 1.663,-16.448 2.524,-16.748C2.518,-15.049 2.381,-13.352 2.238,-11.658C3.536,-11.644 4.832,-11.647 6.133,-11.653C6.018,-11.243 5.909,-10.831 5.808,-10.416C4.622,-10.41 3.435,-10.408 2.252,-10.402C2.316,-7.844 2.12,-5.284 2.244,-2.726C2.227,-2.12 2.46,-1.428 3.057,-1.164C3.94,-0.92 4.877,-1.097 5.729,-1.386C5.766,-1.273 5.836,-1.046 5.87,-0.934C4.95,0.118 3.635,1.04 2.165,0.631C0.754,0.572 -0.157,-0.847 -0.053,-2.168C-0.008,-4.858 0.008,-7.55 -0.006,-10.242C-0.673,-10.245 -1.341,-10.245 -2,-10.242C-2.014,-10.374 -2.039,-10.64 -2.053,-10.772C-1.36,-11.061 -0.662,-11.341 0.036,-11.622C0.059,-12.985 0.053,-14.348 0,-15.708" style="fill:rgb(2,133,65);fill-rule:nonzero;"/>
            </g>
            <g transform="matrix(1,0,0,1,381.2374,95.5484)">
                <path d="M0,-15.702C0.841,-16.036 1.652,-16.462 2.541,-16.678C2.513,-14.987 2.28,-13.31 2.269,-11.619C3.525,-11.624 4.782,-11.63 6.044,-11.616C5.968,-11.209 5.903,-10.805 5.842,-10.396C4.644,-10.371 3.449,-10.379 2.255,-10.376C2.308,-7.712 2.101,-5.045 2.269,-2.384C2.26,-1.767 2.681,-1.153 3.306,-1.035C4.215,-0.693 5.143,-1.483 6.032,-1.06C5.211,-0.37 4.484,0.64 3.323,0.707C1.845,0.976 0,0.115 -0.022,-1.559C-0.056,-4.437 0.011,-7.317 -0.006,-10.197C-0.676,-10.208 -1.341,-10.214 -2.002,-10.216C-2.008,-10.357 -2.016,-10.637 -2.022,-10.777C-1.326,-11.049 -0.631,-11.333 0.062,-11.624C0.07,-12.982 0.067,-14.345 0,-15.702" style="fill:rgb(2,133,65);fill-rule:nonzero;"/>
            </g>
            <g transform="matrix(1,0,0,1,205.9142,94.6067)">
                <path d="M0,-9.788C-0.83,-8.795 -0.998,-7.441 -1.018,-6.19C1.15,-6.061 3.323,-6.092 5.497,-6.083C5.522,-7.312 5.544,-8.652 4.782,-9.693C3.691,-11.215 1.169,-11.215 0,-9.788M-1.974,-9.597C-0.544,-10.871 1.327,-11.824 3.287,-11.687C4.93,-11.608 6.582,-10.747 7.387,-9.278C7.987,-8.131 8.038,-6.81 7.962,-5.545C4.992,-5.034 1.96,-5.278 -1.035,-5.22C-0.968,-4.078 -0.805,-2.897 -0.236,-1.885C0.746,-0.239 2.847,0.563 4.695,0.168C5.752,-0.026 6.638,-0.688 7.662,-0.985C7.463,0.445 6.021,0.976 4.821,1.374C2.46,2.036 -0.423,1.643 -2.095,-0.284C-3.539,-1.924 -3.808,-4.274 -3.469,-6.358C-3.219,-7.522 -2.891,-8.77 -1.974,-9.597" style="fill:rgb(2,133,65);fill-rule:nonzero;"/>
            </g>
            <g transform="matrix(1,0,0,1,217.6228,94.9257)">
                <path d="M0,-11.111C2.075,-12.474 4.686,-12.039 6.921,-11.358C6.972,-10.301 6.91,-9.243 6.896,-8.186C6.633,-8.22 6.369,-8.25 6.111,-8.284C6.299,-9.619 5.188,-10.69 3.943,-10.892C2.933,-11.041 1.742,-11.131 0.931,-10.393C0.006,-9.633 0,-7.99 1.071,-7.356C2.403,-6.722 3.901,-6.568 5.3,-6.125C6.33,-5.884 7.409,-5.292 7.721,-4.204C7.965,-2.995 7.852,-1.621 7.006,-0.653C5.943,0.693 4.223,1.358 2.538,1.363C1.043,1.344 -0.432,1.06 -1.89,0.766C-1.756,-0.493 -1.722,-1.761 -1.604,-3.02C-1.383,-3.017 -1.155,-3.012 -0.928,-3.009C-0.827,-2.311 -0.864,-1.57 -0.617,-0.906C0.631,0.334 2.723,0.679 4.339,0.031C5.6,-0.462 6.375,-2.229 5.446,-3.343C3.702,-4.776 1.111,-4.277 -0.662,-5.659C-2.305,-7.106 -1.831,-10.023 0,-11.111" style="fill:rgb(2,133,65);fill-rule:nonzero;"/>
            </g>
            <g transform="matrix(1,0,0,1,243.9538,88.879)">
                <path d="M0,1.386C-1.312,2.432 -1.332,5.307 0.595,5.649C2.258,5.991 3.707,4.821 4.72,3.641C4.683,2.404 4.711,1.164 4.686,-0.07C3.107,0.329 1.371,0.427 0,1.386M-2.117,-4.268C-0.796,-5.112 0.648,-5.922 2.26,-5.962C3.822,-6.06 5.567,-5.502 6.428,-4.111C6.969,-3.309 7.011,-2.307 6.994,-1.368C6.916,1.08 6.854,3.534 6.966,5.982C7.505,6.339 8.15,6.386 8.778,6.428C8.772,6.63 8.77,6.835 8.77,7.04C7.409,6.958 6.041,6.916 4.695,7.124C4.667,6.33 4.678,5.539 4.686,4.746C3.281,5.694 2.171,7.399 0.32,7.41C-0.925,7.446 -2.328,7.001 -2.917,5.814C-3.834,3.857 -3.034,1.002 -0.819,0.334C0.968,-0.35 2.877,-0.588 4.748,-0.939C4.644,-1.909 4.591,-3.028 3.82,-3.738C2.577,-4.789 0.726,-4.742 -0.673,-4.041C-0.923,-3.488 -1.164,-2.933 -1.38,-2.366C-1.627,-2.369 -1.868,-2.372 -2.106,-2.375C-2.123,-3.006 -2.126,-3.637 -2.117,-4.268" style="fill:rgb(2,133,65);fill-rule:nonzero;"/>
            </g>
            <g transform="matrix(1,0,0,1,308.5376,94.7462)">
                <path d="M0,-10.752C1.556,-11.08 3.152,-11.276 4.641,-11.868C4.678,-11.013 4.669,-10.155 4.65,-9.299C5.844,-10.141 6.736,-11.591 8.307,-11.753C9.855,-12.034 11.594,-11.565 12.671,-10.387C13.775,-9.036 13.501,-7.159 13.545,-5.536C13.641,-3.556 13.31,-1.506 13.89,0.421C14.454,0.469 15.026,0.514 15.601,0.55C15.604,0.727 15.615,1.074 15.618,1.251C14.12,1.041 12.595,1.063 11.1,1.265C11.375,-1.363 11.251,-4.01 11.271,-6.646C11.313,-7.712 11.049,-8.901 10.144,-9.56C8.329,-10.878 5.396,-9.857 4.653,-7.799C4.51,-5.126 4.543,-2.426 4.824,0.239C5.457,0.466 6.133,0.528 6.809,0.544C6.815,0.701 6.832,1.013 6.84,1.167C4.608,1.13 2.361,0.982 0.14,1.282C0.129,1.038 0.121,0.794 0.118,0.553C0.785,0.525 1.453,0.449 2.101,0.261C2.409,-1.938 2.336,-4.17 2.361,-6.385C2.274,-7.631 2.445,-8.926 2.03,-10.124C1.38,-10.121 0.732,-10.124 0.087,-10.129C0.064,-10.286 0.022,-10.598 0,-10.752" style="fill:rgb(2,133,65);fill-rule:nonzero;"/>
            </g>
            <g transform="matrix(1,0,0,1,345.6377,94.9522)">
                <path d="M0,-10.986C1.604,-11.222 3.177,-11.589 4.731,-12.054C4.501,-8.036 4.453,-4.003 4.798,0.013C5.438,0.246 6.119,0.322 6.801,0.358C6.778,0.594 6.759,0.829 6.745,1.068C4.616,0.798 2.448,0.854 0.32,1.045C0.093,0.891 0.109,0.585 0.025,0.358C0.738,0.209 1.913,0.552 2.182,-0.366C2.373,-3.184 2.325,-6.017 2.28,-8.838C2.199,-9.331 2.384,-9.988 1.873,-10.285C1.265,-10.352 0.656,-10.335 0.05,-10.341C0.039,-10.501 0.014,-10.826 0,-10.986" style="fill:rgb(2,133,65);fill-rule:nonzero;"/>
            </g>
            <g transform="matrix(1,0,0,1,371.2368,95.4526)">
                <path d="M0,-11.593C1.604,-11.615 3.116,-12.182 4.661,-12.538C4.431,-10.166 4.498,-7.776 4.496,-5.395C4.518,-3.682 4.417,-1.948 4.787,-0.26C5.421,-0.21 6.06,-0.176 6.703,-0.154C6.68,0.088 6.661,0.332 6.647,0.576C5.138,0.323 3.607,0.388 2.089,0.469C2.103,-0.347 2.123,-1.163 2.148,-1.977C1.15,-1.191 0.387,-0.078 -0.78,0.469C-2.042,0.965 -3.475,0.943 -4.748,0.511C-5.783,0.124 -6.47,-0.919 -6.529,-2.007C-6.773,-4.868 -6.366,-7.765 -6.829,-10.609C-7.421,-11.032 -8.245,-10.746 -8.924,-10.85C-8.848,-11.156 -8.924,-11.7 -8.419,-11.613C-7.006,-11.767 -5.629,-12.12 -4.277,-12.558C-4.322,-9.509 -4.397,-6.458 -4.316,-3.41C-4.308,-2.523 -3.94,-1.497 -3.046,-1.158C-1.018,-0.227 1.632,-1.559 2.154,-3.696C2.244,-5.956 2.328,-8.239 2.078,-10.491C1.57,-11.116 0.623,-10.729 -0.076,-10.85C-0.056,-11.097 -0.031,-11.346 0,-11.593" style="fill:rgb(2,133,65);fill-rule:nonzero;"/>
            </g>
            <g transform="matrix(1,0,0,1,230.6383,94.332)">
                <path d="M0,-9.502C-0.782,-8.579 -0.937,-7.317 -1.038,-6.159C-0.965,-6.103 -0.819,-5.991 -0.743,-5.935C1.357,-5.75 3.472,-5.811 5.581,-5.837C5.584,-7.073 5.497,-8.408 4.751,-9.449C3.66,-10.943 1.139,-10.941 0,-9.502M1.108,-11.131C3.169,-11.824 5.718,-11.297 7.073,-9.513C7.981,-8.299 8.035,-6.72 7.962,-5.264C5.056,-4.76 2.095,-5.023 -0.836,-4.934C-1.231,-4.448 -0.861,-3.798 -0.825,-3.245C-0.547,-1.397 0.976,0.165 2.832,0.451C4.532,0.849 6.136,-0.026 7.592,-0.783C7.603,0.036 7.081,0.74 6.324,1.026C3.954,2.299 0.805,2.322 -1.388,0.67C-4.041,-1.509 -4.131,-5.621 -2.642,-8.495C-1.772,-9.791 -0.339,-10.624 1.108,-11.131" style="fill:rgb(2,133,65);fill-rule:nonzero;"/>
            </g>
            <g transform="matrix(1,0,0,1,254.162,94.9676)">
                <path d="M0,-11.108C1.565,-11.189 3.074,-11.63 4.571,-12.053C4.54,-11.046 4.529,-10.04 4.532,-9.033C5.348,-10.126 6.08,-11.501 7.477,-11.921C8.167,-12.188 8.904,-12.005 9.574,-11.764C9.389,-10.648 9.314,-9.521 9.297,-8.391C9.154,-8.393 8.87,-8.399 8.727,-8.402C8.326,-9.024 7.777,-9.717 6.944,-9.619C5.586,-9.709 4.625,-8.374 4.549,-7.131C4.414,-5.174 4.501,-3.208 4.549,-1.25C4.588,-0.841 4.521,-0.375 4.779,-0.022C5.5,0.368 6.363,0.242 7.16,0.323C7.157,0.505 7.157,0.87 7.154,1.052C4.804,0.845 2.406,0.752 0.067,1.08C0.031,0.828 0.003,0.578 -0.022,0.326C0.667,0.303 1.363,0.239 2.011,-0.03C2.244,-3.415 2.398,-6.82 2.036,-10.202C1.341,-10.354 0.631,-10.373 -0.073,-10.382C-0.053,-10.623 -0.028,-10.867 0,-11.108" style="fill:rgb(2,133,65);fill-rule:nonzero;"/>
            </g>
            <g transform="matrix(1,0,0,1,267.5477,94.5359)">
                <path d="M0,-9.748C1.467,-10.62 2.99,-11.683 4.776,-11.624C5.982,-11.672 7.177,-11.4 8.29,-10.951C8.133,-9.698 7.965,-8.447 7.895,-7.185C7.718,-7.218 7.364,-7.283 7.191,-7.314C7.084,-7.976 7.005,-8.64 6.865,-9.294C5.508,-10.303 3.646,-10.657 2.067,-9.981C0.914,-9.47 0.373,-8.203 0.196,-7.025C-0.02,-5.227 0.244,-3.323 1.172,-1.747C2.159,-0.084 4.319,0.704 6.164,0.191C6.902,0.011 7.58,-0.387 8.352,-0.437C8.094,1.114 6.4,1.439 5.107,1.666C3.161,1.935 0.945,1.63 -0.496,0.177C-2.168,-1.436 -2.597,-3.965 -2.182,-6.178C-1.952,-7.586 -1.273,-9.005 0,-9.748" style="fill:rgb(2,133,65);fill-rule:nonzero;"/>
            </g>
            <g transform="matrix(1,0,0,1,326.9741,94.8622)">
                <path d="M0,-10.739C2.092,-12.441 5.098,-12.133 7.437,-11.146C7.376,-10.119 7.328,-9.093 7.241,-8.066C6.077,-8.007 6.663,-9.435 5.973,-9.965C4.925,-10.975 3.264,-11.16 1.927,-10.719C0.536,-10.243 0.132,-8.072 1.458,-7.292C3.205,-6.485 5.222,-6.443 6.949,-5.568C7.987,-5.015 8.408,-3.733 8.251,-2.617C7.987,-0.705 6.332,0.813 4.496,1.225C2.493,1.702 0.446,1.183 -1.528,0.832C-1.38,-0.43 -1.22,-1.692 -1.251,-2.962C-1.001,-2.954 -0.746,-2.94 -0.488,-2.929C-0.449,-2.233 -0.401,-1.538 -0.342,-0.842C1.094,0.383 3.292,0.857 5.006,-0.037C6.175,-0.654 6.787,-2.5 5.657,-3.431C3.98,-4.569 1.756,-4.339 0.034,-5.368C-1.772,-6.546 -1.666,-9.483 0,-10.739" style="fill:rgb(2,133,65);fill-rule:nonzero;"/>
            </g>
            <g transform="matrix(1,0,0,1,391.8523,94.3705)">
                <path d="M0,-9.591C-0.881,-8.609 -1.018,-7.224 -1.057,-5.965C1.116,-5.808 3.298,-5.855 5.474,-5.858C5.471,-7.07 5.516,-8.408 4.751,-9.428C3.691,-10.96 1.178,-10.985 0,-9.591M-2.154,-9.218C-0.519,-10.803 1.84,-11.863 4.139,-11.327C5.749,-11.007 7.241,-9.829 7.676,-8.208C8.004,-7.283 7.965,-6.287 7.937,-5.32C4.964,-4.77 1.927,-5.067 -1.074,-4.975C-0.984,-3.836 -0.878,-2.636 -0.264,-1.635C0.802,0.16 3.203,0.929 5.152,0.272C5.987,0.006 6.745,-0.446 7.547,-0.796C7.477,-0.028 7.101,0.673 6.349,0.951C3.977,2.269 0.833,2.272 -1.402,0.665C-3.464,-0.967 -3.968,-3.881 -3.461,-6.341C-3.206,-7.359 -2.922,-8.452 -2.154,-9.218" style="fill:rgb(2,133,65);fill-rule:nonzero;"/>
            </g>
        </g>
    </g>
</svg>
