<?xml version="1.0" encoding="UTF-8" standalone="no"?>
<!DOCTYPE svg PUBLIC "-//W3C//DTD SVG 1.1//EN" "http://www.w3.org/Graphics/SVG/1.1/DTD/svg11.dtd">
<svg width="100%" height="100%" viewBox="0 0 889 462" version="1.1" xmlns="http://www.w3.org/2000/svg" xmlns:xlink="http://www.w3.org/1999/xlink" xml:space="preserve" xmlns:serif="http://www.serif.com/" style="fill-rule:evenodd;clip-rule:evenodd;stroke-linejoin:round;stroke-miterlimit:2;">
    <g transform="matrix(1,0,0,1,-628.05,-1433.334167)">
        <g transform="matrix(4.166667,0,0,4.166667,0,0)">
            <g transform="matrix(1,0,0,1,234.1111,393.7163)">
                <path d="M0,-49.503C-0.052,-49.572 -0.169,-49.686 -0.369,-49.686L-9.194,-49.686C-9.801,-49.686 -10.334,-49.282 -10.497,-48.698L-18.304,-20.804L-18.972,-18.419L-19.639,-20.804L-27.628,-49.348C-27.684,-49.547 -27.868,-49.686 -28.075,-49.686L-38.094,-49.686C-38.701,-49.686 -39.234,-49.282 -39.398,-48.698L-43.211,-35.073L-47.252,-20.632L-47.92,-18.247L-48.588,-20.632L-54.253,-40.873L-56.611,-49.301C-56.667,-49.5 -56.85,-49.64 -57.054,-49.64C-57.069,-49.64 -57.084,-49.639 -57.099,-49.637C-58.694,-49.483 -62.774,-49.003 -66.216,-47.885C-66.454,-47.808 -66.587,-47.558 -66.519,-47.317L-53.398,-0.835C-53.234,-0.251 -52.702,0.153 -52.095,0.153L-43.636,0.153C-43.029,0.153 -42.496,-0.251 -42.333,-0.835L-34.089,-30.282L-33.422,-32.667L-32.754,-30.282L-24.504,-0.805C-24.341,-0.221 -23.808,0.183 -23.202,0.183L-14.743,0.183C-14.135,0.183 -13.603,-0.221 -13.439,-0.805L0.078,-49.098C0.131,-49.291 0.052,-49.435 0,-49.503" style="fill:rgb(34,88,128);fill-rule:nonzero;"/>
            </g>
            <g transform="matrix(1,0,0,1,160.8692,393.8993)">
                <path d="M0,-44.366C-0.016,-44.366 -0.031,-44.362 -0.046,-44.355L-0.285,-44.231C-6.361,-41.048 -10.137,-34.742 -10.137,-27.774L-10.137,-0.988C-10.137,-0.445 -9.692,0 -9.149,0L-0.89,0C-0.346,0 0.099,-0.445 0.099,-0.988L0.099,-44.267C0.099,-44.302 0.081,-44.334 0.052,-44.351C0.032,-44.364 0.013,-44.366 0,-44.366" style="fill:rgb(34,88,128);fill-rule:nonzero;"/>
            </g>
            <g transform="matrix(1,0,0,1,313.1418,388.3662)">
                <path d="M0,-44.366L-8.259,-44.366C-8.802,-44.366 -9.247,-43.921 -9.247,-43.377L-9.247,-0.098C-9.247,-0.064 -9.229,-0.032 -9.199,-0.014C-9.18,-0.002 -9.161,0 -9.149,0C-9.133,0 -9.117,-0.003 -9.103,-0.011L-8.864,-0.135C-2.788,-3.317 0.989,-9.624 0.989,-16.592L0.989,-43.377C0.989,-43.921 0.543,-44.366 0,-44.366" style="fill:rgb(34,88,128);fill-rule:nonzero;"/>
            </g>
            <g transform="matrix(1,0,0,1,284.1497,392.8515)">
                <path d="M0,-47.833C-0.164,-48.418 -0.696,-48.822 -1.303,-48.822L-9.762,-48.822C-10.369,-48.822 -10.902,-48.418 -11.065,-47.833L-19.308,-18.387L-19.976,-16.001L-20.643,-18.387L-28.893,-47.863C-29.057,-48.447 -29.589,-48.851 -30.196,-48.851L-38.655,-48.851C-39.262,-48.851 -39.795,-48.447 -39.958,-47.863L-53.475,0.43C-53.529,0.623 -53.45,0.767 -53.398,0.835C-53.346,0.903 -53.229,1.018 -53.029,1.018L-44.204,1.018C-43.596,1.018 -43.064,0.614 -42.9,0.03L-35.094,-27.865L-34.426,-30.25L-33.758,-27.865L-25.77,0.68C-25.714,0.879 -25.531,1.018 -25.324,1.018L-15.303,1.018C-14.697,1.018 -14.164,0.614 -14,0.03L-10.187,-13.595L-6.145,-28.037L-5.478,-30.422L-4.811,-28.037L0.855,-7.795L3.214,0.632C3.27,0.832 3.451,0.971 3.656,0.971C3.671,0.971 3.686,0.971 3.702,0.969C5.296,0.815 9.376,0.335 12.818,-0.783C13.055,-0.86 13.189,-1.11 13.121,-1.351L0,-47.833Z" style="fill:rgb(34,88,128);fill-rule:nonzero;"/>
            </g>
            <g transform="matrix(-1,0,0,1,303.71,-5.548)">
                <rect x="150.732" y="416.092" width="2.246" height="15.254" style="fill:rgb(34,88,128);"/>
            </g>
            <g transform="matrix(1,0,0,1,158.7642,423.2047)">
                <path d="M0,-7.065C0.611,-8.852 1.904,-9.659 3.613,-9.659C5.468,-9.659 7.029,-8.57 7.029,-5.954L7.029,2.594L4.833,2.594L4.833,-5.255C4.833,-6.729 4.199,-7.638 2.857,-7.638C1.49,-7.638 0.196,-6.859 0.196,-4.269L0.196,2.594L-2.001,2.594L-2.001,-9.372L-0.267,-9.372L0,-7.065Z" style="fill:rgb(34,88,128);fill-rule:nonzero;"/>
            </g>
            <g transform="matrix(1,0,0,1,175.2957,411.7099)">
                <path d="M0,13.699C-0.733,14.165 -1.684,14.398 -2.735,14.398C-4.76,14.398 -5.981,13.26 -5.981,11.033L-5.981,3.986L-7.615,3.986L-7.615,2.123L-5.981,2.123L-5.981,-0.413L-3.76,-0.699L-3.76,2.123L-0.416,2.123L-0.416,3.986L-3.785,3.986L-3.785,10.567C-3.785,11.862 -3.223,12.404 -2.295,12.404C-1.562,12.404 -1.051,12.198 -0.416,11.759L0,13.699Z" style="fill:rgb(34,88,128);fill-rule:nonzero;"/>
            </g>
            <g transform="matrix(1,0,0,1,184.0112,421.029)">
                <path d="M0,-2.403C0.025,-2.586 0.025,-2.743 0.025,-2.895C0.025,-4.424 -0.903,-5.642 -2.416,-5.642C-4.027,-5.642 -5.053,-4.477 -5.273,-2.403L0,-2.403ZM0.172,1.298L2.099,1.844C1.635,4.25 -0.267,5.079 -2.416,5.079C-5.417,5.079 -7.444,2.879 -7.444,-1.108C-7.444,-5.122 -5.442,-7.482 -2.294,-7.482C0.611,-7.482 2.173,-5.355 2.173,-2.38C2.173,-1.704 2.074,-1.085 1.953,-0.723L-5.32,-0.723C-5.222,1.611 -4.197,3.242 -2.294,3.242C-1.051,3.242 -0.22,2.723 0.172,1.298" style="fill:rgb(34,88,128);fill-rule:nonzero;"/>
            </g>
            <g transform="matrix(1,0,0,1,195.2951,423.0523)">
                <path d="M0,-6.863C-0.269,-6.912 -0.636,-6.966 -1,-6.966C-2.588,-6.966 -4.125,-5.645 -4.125,-3.315L-4.125,2.746L-6.322,2.746L-6.322,-9.22L-4.466,-9.22L-4.199,-5.981C-3.76,-8.131 -2.343,-9.609 0.17,-9.479L0,-6.863Z" style="fill:rgb(34,88,128);fill-rule:nonzero;"/>
            </g>
            <g transform="matrix(1,0,0,1,199.6662,423.2047)">
                <path d="M0,-7.065C0.611,-8.852 1.904,-9.659 3.613,-9.659C5.467,-9.659 7.029,-8.57 7.029,-5.954L7.029,2.594L4.833,2.594L4.833,-5.255C4.833,-6.729 4.199,-7.638 2.857,-7.638C1.49,-7.638 0.196,-6.859 0.196,-4.269L0.196,2.594L-2.001,2.594L-2.001,-9.372L-0.267,-9.372L0,-7.065Z" style="fill:rgb(34,88,128);fill-rule:nonzero;"/>
            </g>
            <g transform="matrix(1,0,0,1,215.7794,419.191)">
                <path d="M0,1.272C-3.027,1.196 -4.345,1.922 -4.345,3.423C-4.345,4.407 -3.733,5.156 -2.538,5.156C-1.365,5.156 0,4.407 0,3.006L0,1.272ZM2.221,3.785C2.221,4.69 2.613,4.896 3.051,4.896C3.321,4.896 3.516,4.847 3.685,4.771L3.685,6.581C3.369,6.711 2.979,6.787 2.49,6.787C1.197,6.787 0.367,6.218 0.172,4.873C-0.414,6.374 -1.732,6.917 -3.172,6.917C-5.15,6.917 -6.54,5.725 -6.54,3.682C-6.54,1.039 -4.612,-0.489 0,-0.255L0,-1.733C0,-3.208 -0.829,-3.777 -2.026,-3.777C-3.246,-3.777 -3.978,-3.105 -4.075,-1.86L-6.174,-2.2C-6.004,-4.736 -3.905,-5.645 -1.829,-5.645C0.367,-5.645 2.221,-4.709 2.221,-1.967L2.221,3.785Z" style="fill:rgb(34,88,128);fill-rule:nonzero;"/>
            </g>
            <g transform="matrix(1,0,0,1,227.8921,411.7099)">
                <path d="M0,13.699C-0.733,14.165 -1.684,14.398 -2.735,14.398C-4.76,14.398 -5.981,13.26 -5.981,11.033L-5.981,3.986L-7.616,3.986L-7.616,2.123L-5.981,2.123L-5.981,-0.413L-3.76,-0.699L-3.76,2.123L-0.416,2.123L-0.416,3.986L-3.785,3.986L-3.785,10.567C-3.785,11.862 -3.223,12.404 -2.295,12.404C-1.562,12.404 -1.051,12.198 -0.416,11.759L0,13.699Z" style="fill:rgb(34,88,128);fill-rule:nonzero;"/>
            </g>
            <g transform="matrix(1,0,0,1,0,-7.644)">
                <path d="M232.217,433.442L230.019,433.442L230.019,421.476L232.217,421.476L232.217,433.442ZM231.094,416.092C231.948,416.092 232.632,416.71 232.632,417.642C232.632,418.524 231.948,419.197 231.094,419.197C230.313,419.197 229.63,418.524 229.63,417.642C229.63,416.71 230.313,416.092 231.094,416.092" style="fill:rgb(34,88,128);fill-rule:nonzero;"/>
            </g>
            <g transform="matrix(1,0,0,1,237.1729,419.8901)">
                <path d="M0,-0.126C0,2.879 1,4.38 2.955,4.38C4.931,4.38 5.931,2.879 5.931,-0.126C5.931,-3.052 4.906,-4.453 2.955,-4.453C1.025,-4.453 0,-3.052 0,-0.126M-2.171,-0.153C-2.171,-4.217 -0.145,-6.344 2.955,-6.344C6.078,-6.344 8.105,-4.217 8.105,-0.153C8.105,3.942 6.078,6.218 2.955,6.218C-0.145,6.218 -2.171,3.942 -2.171,-0.153" style="fill:rgb(34,88,128);fill-rule:nonzero;"/>
            </g>
            <g transform="matrix(1,0,0,1,250.0647,423.2047)">
                <path d="M0,-7.065C0.611,-8.852 1.904,-9.659 3.613,-9.659C5.468,-9.659 7.029,-8.57 7.029,-5.954L7.029,2.594L4.833,2.594L4.833,-5.255C4.833,-6.729 4.199,-7.638 2.857,-7.638C1.49,-7.638 0.196,-6.859 0.196,-4.269L0.196,2.594L-2.001,2.594L-2.001,-9.372L-0.267,-9.372L0,-7.065Z" style="fill:rgb(34,88,128);fill-rule:nonzero;"/>
            </g>
            <g transform="matrix(1,0,0,1,266.1798,419.191)">
                <path d="M0,1.272C-3.027,1.196 -4.345,1.922 -4.345,3.423C-4.345,4.407 -3.733,5.156 -2.538,5.156C-1.365,5.156 0,4.407 0,3.006L0,1.272ZM2.221,3.785C2.221,4.69 2.613,4.896 3.051,4.896C3.321,4.896 3.516,4.847 3.685,4.771L3.685,6.581C3.369,6.711 2.979,6.787 2.49,6.787C1.197,6.787 0.367,6.218 0.172,4.873C-0.414,6.374 -1.732,6.917 -3.172,6.917C-5.15,6.917 -6.54,5.725 -6.54,3.682C-6.54,1.039 -4.612,-0.489 0,-0.255L0,-1.733C0,-3.208 -0.829,-3.777 -2.026,-3.777C-3.246,-3.777 -3.978,-3.105 -4.075,-1.86L-6.174,-2.2C-6.004,-4.736 -3.905,-5.645 -1.829,-5.645C0.367,-5.645 2.221,-4.709 2.221,-1.967L2.221,3.785Z" style="fill:rgb(34,88,128);fill-rule:nonzero;"/>
            </g>
            <g transform="matrix(1,0,0,1,275.9971,408.7035)">
                <path d="M0,17.095C-0.586,17.252 -0.976,17.301 -1.367,17.301C-2.783,17.301 -3.953,16.499 -3.953,14.712L-3.953,-0.206L-1.757,-0.206L-1.757,14.22C-1.757,14.972 -1.342,15.281 -0.756,15.281C-0.439,15.281 -0.219,15.231 0.025,15.151L0,17.095Z" style="fill:rgb(34,88,128);fill-rule:nonzero;"/>
            </g>
            <g transform="matrix(1,0,0,1,295.9183,416.2432)">
                <path d="M0,3.857C0.561,6.24 0.781,7.974 0.781,7.974L0.879,7.974C0.879,7.974 1.073,6.214 1.612,3.884L3.88,-5.699L6.151,-5.699L2.416,9.556L-0.781,9.556L-2.977,0.569C-3.564,-1.788 -3.588,-3.526 -3.588,-3.526L-3.685,-3.526C-3.685,-3.526 -3.783,-1.814 -4.345,0.569L-6.517,9.556L-9.714,9.556L-13.425,-5.699L-11.032,-5.699L-8.786,3.808C-8.249,6.164 -8.03,7.974 -8.03,7.974L-7.933,7.974C-7.933,7.974 -7.761,6.187 -7.177,3.83L-4.856,-5.699L-2.246,-5.699L0,3.857Z" style="fill:rgb(34,88,128);fill-rule:nonzero;"/>
            </g>
            <g transform="matrix(1,0,0,1,309.5949,419.191)">
                <path d="M0,1.272C-3.027,1.196 -4.345,1.922 -4.345,3.423C-4.345,4.407 -3.733,5.156 -2.538,5.156C-1.365,5.156 0,4.407 0,3.006L0,1.272ZM2.221,3.785C2.221,4.69 2.613,4.896 3.051,4.896C3.321,4.896 3.516,4.847 3.685,4.771L3.685,6.581C3.369,6.711 2.979,6.787 2.49,6.787C1.197,6.787 0.367,6.218 0.172,4.873C-0.414,6.374 -1.732,6.917 -3.172,6.917C-5.15,6.917 -6.54,5.725 -6.54,3.682C-6.54,1.039 -4.612,-0.489 0,-0.255L0,-1.733C0,-3.208 -0.829,-3.777 -2.026,-3.777C-3.246,-3.777 -3.978,-3.105 -4.075,-1.86L-6.174,-2.2C-6.004,-4.736 -3.905,-5.645 -1.829,-5.645C0.367,-5.645 2.221,-4.709 2.221,-1.967L2.221,3.785Z" style="fill:rgb(34,88,128);fill-rule:nonzero;"/>
            </g>
            <g transform="matrix(1,0,0,1,321.7075,411.7099)">
                <path d="M0,13.699C-0.733,14.165 -1.684,14.398 -2.734,14.398C-4.76,14.398 -5.981,13.26 -5.981,11.033L-5.981,3.986L-7.615,3.986L-7.615,2.123L-5.981,2.123L-5.981,-0.413L-3.76,-0.699L-3.76,2.123L-0.416,2.123L-0.416,3.986L-3.785,3.986L-3.785,10.567C-3.785,11.862 -3.223,12.404 -2.295,12.404C-1.562,12.404 -1.051,12.198 -0.416,11.759L0,13.699Z" style="fill:rgb(34,88,128);fill-rule:nonzero;"/>
            </g>
            <g transform="matrix(1,0,0,1,330.4249,421.029)">
                <path d="M0,-2.403C0.025,-2.586 0.025,-2.743 0.025,-2.895C0.025,-4.424 -0.903,-5.642 -2.416,-5.642C-4.027,-5.642 -5.053,-4.477 -5.273,-2.403L0,-2.403ZM0.172,1.298L2.099,1.844C1.634,4.25 -0.267,5.079 -2.416,5.079C-5.417,5.079 -7.444,2.879 -7.444,-1.108C-7.444,-5.122 -5.442,-7.482 -2.294,-7.482C0.611,-7.482 2.173,-5.355 2.173,-2.38C2.173,-1.704 2.074,-1.085 1.953,-0.723L-5.32,-0.723C-5.222,1.611 -4.197,3.242 -2.294,3.242C-1.051,3.242 -0.219,2.723 0.172,1.298" style="fill:rgb(34,88,128);fill-rule:nonzero;"/>
            </g>
            <g transform="matrix(1,0,0,1,341.7069,423.0523)">
                <path d="M0,-6.863C-0.27,-6.912 -0.636,-6.966 -1,-6.966C-2.588,-6.966 -4.125,-5.645 -4.125,-3.315L-4.125,2.746L-6.322,2.746L-6.322,-9.22L-4.466,-9.22L-4.199,-5.981C-3.76,-8.131 -2.343,-9.609 0.17,-9.479L0,-6.863Z" style="fill:rgb(34,88,128);fill-rule:nonzero;"/>
            </g>
            <g transform="matrix(1,0,0,1,156.7362,437.7938)">
                <path d="M0,7.798L-2.709,2.512C-3.538,0.855 -3.783,-0.104 -3.783,-0.104L-3.88,-0.104C-3.88,-0.104 -3.758,0.828 -3.758,2.642L-3.758,11.526L-6.004,11.526L-6.004,-3.728L-3.393,-3.728L0.025,3.315C0.586,4.483 0.756,5.182 0.756,5.182L0.853,5.182C0.853,5.182 1,4.483 1.587,3.315L4.978,-3.728L7.493,-3.728L7.493,11.526L5.222,11.526L5.222,2.642C5.222,0.828 5.37,-0.104 5.37,-0.104L5.273,-0.104C5.273,-0.104 5.028,0.855 4.174,2.512L1.49,7.798L0,7.798Z" style="fill:rgb(34,88,128);fill-rule:nonzero;"/>
            </g>
            <g transform="matrix(1,0,0,1,173.7069,442.7121)">
                <path d="M0,1.272C-3.027,1.195 -4.345,1.921 -4.345,3.423C-4.345,4.407 -3.733,5.156 -2.538,5.156C-1.366,5.156 0,4.407 0,3.006L0,1.272ZM2.221,3.785C2.221,4.69 2.612,4.896 3.051,4.896C3.321,4.896 3.516,4.847 3.685,4.771L3.685,6.581C3.369,6.711 2.979,6.787 2.49,6.787C1.197,6.787 0.367,6.218 0.172,4.873C-0.414,6.374 -1.732,6.917 -3.172,6.917C-5.15,6.917 -6.54,5.725 -6.54,3.682C-6.54,1.039 -4.612,-0.489 0,-0.255L0,-1.733C0,-3.208 -0.829,-3.777 -2.026,-3.777C-3.246,-3.777 -3.978,-3.105 -4.075,-1.86L-6.174,-2.2C-6.004,-4.736 -3.905,-5.645 -1.829,-5.645C0.367,-5.645 2.221,-4.709 2.221,-1.967L2.221,3.785Z" style="fill:rgb(34,88,128);fill-rule:nonzero;"/>
            </g>
            <g transform="matrix(1,0,0,1,181.7177,446.7257)">
                <path d="M0,-7.065C0.611,-8.852 1.904,-9.659 3.613,-9.659C5.468,-9.659 7.029,-8.57 7.029,-5.954L7.029,2.594L4.833,2.594L4.833,-5.255C4.833,-6.729 4.199,-7.638 2.857,-7.638C1.49,-7.638 0.196,-6.859 0.196,-4.269L0.196,2.594L-2.001,2.594L-2.001,-9.372L-0.267,-9.372L0,-7.065Z" style="fill:rgb(34,88,128);fill-rule:nonzero;"/>
            </g>
            <g transform="matrix(1,0,0,1,197.833,442.7121)">
                <path d="M0,1.272C-3.027,1.195 -4.345,1.921 -4.345,3.423C-4.345,4.407 -3.733,5.156 -2.538,5.156C-1.365,5.156 0,4.407 0,3.006L0,1.272ZM2.221,3.785C2.221,4.69 2.613,4.896 3.051,4.896C3.321,4.896 3.516,4.847 3.685,4.771L3.685,6.581C3.369,6.711 2.979,6.787 2.49,6.787C1.197,6.787 0.367,6.218 0.172,4.873C-0.414,6.374 -1.732,6.917 -3.172,6.917C-5.15,6.917 -6.54,5.725 -6.54,3.682C-6.54,1.039 -4.612,-0.489 0,-0.255L0,-1.733C0,-3.208 -0.829,-3.777 -2.026,-3.777C-3.246,-3.777 -3.978,-3.105 -4.075,-1.86L-6.174,-2.2C-6.004,-4.736 -3.905,-5.645 -1.829,-5.645C0.367,-5.645 2.221,-4.709 2.221,-1.967L2.221,3.785Z" style="fill:rgb(34,88,128);fill-rule:nonzero;"/>
            </g>
            <g transform="matrix(1,0,0,1,207.6751,447.1955)">
                <path d="M0,-3.391C1.49,-3.391 2.465,-4.22 2.465,-5.904C2.465,-7.588 1.49,-8.444 0,-8.417C-1.49,-8.417 -2.368,-7.512 -2.368,-5.904C-2.368,-4.403 -1.514,-3.391 0,-3.391M-0.219,5.932C2.074,5.932 3.564,5.466 3.564,3.961C3.564,3.056 3.099,2.384 1.66,2.384L-0.781,2.384C-2.393,2.384 -3.296,2.953 -3.296,4.194C-3.296,5.466 -2.001,5.932 -0.219,5.932M3.271,-9.169C3.808,-9.479 3.978,-10.101 4.125,-10.98L6.029,-10.281C5.857,-9.143 5.076,-8.364 4.15,-8.131C4.492,-7.512 4.661,-6.76 4.661,-5.877C4.661,-3.108 2.563,-1.734 0.025,-1.734C-0.537,-1.734 -1.123,-1.813 -1.44,-1.943C-2.001,-1.63 -2.196,-1.218 -2.196,-0.699C-2.196,-0.026 -1.781,0.287 -1,0.287L1.757,0.287C4.32,0.287 5.687,1.475 5.687,3.625C5.687,6.761 2.513,7.589 -0.439,7.589C-2.929,7.589 -5.37,6.917 -5.37,4.454C-5.37,2.899 -4.32,1.864 -2.465,1.711C-3.49,1.582 -4.027,0.802 -4.027,-0.156C-4.027,-1.115 -3.564,-1.917 -2.368,-2.253C-3.735,-2.902 -4.564,-4.117 -4.564,-5.877C-4.564,-8.574 -2.709,-10.128 0,-10.128C1.342,-10.128 2.441,-9.815 3.271,-9.169" style="fill:rgb(34,88,128);fill-rule:nonzero;"/>
            </g>
            <g transform="matrix(1,0,0,1,221.9093,444.55)">
                <path d="M0,-2.403C0.025,-2.586 0.025,-2.743 0.025,-2.895C0.025,-4.424 -0.903,-5.642 -2.416,-5.642C-4.027,-5.642 -5.053,-4.477 -5.273,-2.403L0,-2.403ZM0.172,1.298L2.099,1.844C1.635,4.25 -0.267,5.079 -2.416,5.079C-5.417,5.079 -7.444,2.879 -7.444,-1.108C-7.444,-5.122 -5.442,-7.482 -2.294,-7.482C0.611,-7.482 2.173,-5.355 2.173,-2.38C2.173,-1.704 2.074,-1.085 1.953,-0.723L-5.32,-0.723C-5.222,1.611 -4.197,3.242 -2.294,3.242C-1.051,3.242 -0.219,2.723 0.172,1.298" style="fill:rgb(34,88,128);fill-rule:nonzero;"/>
            </g>
            <g transform="matrix(1,0,0,1,239.0003,449.3194)">
                <path d="M0,-12.252C1.902,-12.252 3.344,-11.164 3.344,-8.651L3.344,0L1.146,0L1.146,-7.875C1.146,-9.349 0.537,-10.231 -0.733,-10.231C-2.026,-10.231 -3.296,-9.273 -3.296,-6.863L-3.296,0L-5.492,0L-5.492,-7.875C-5.492,-9.349 -6.103,-10.231 -7.371,-10.231C-8.641,-10.231 -9.934,-9.247 -9.934,-6.863L-9.934,0L-12.132,0L-12.132,-11.966L-10.398,-11.966L-10.13,-9.658C-9.544,-11.5 -8.152,-12.252 -6.615,-12.252C-5.005,-12.252 -3.832,-11.5 -3.541,-9.609C-2.979,-11.526 -1.514,-12.252 0,-12.252" style="fill:rgb(34,88,128);fill-rule:nonzero;"/>
            </g>
            <g transform="matrix(1,0,0,1,252.4573,444.55)">
                <path d="M0,-2.403C0.025,-2.586 0.025,-2.743 0.025,-2.895C0.025,-4.424 -0.903,-5.642 -2.416,-5.642C-4.027,-5.642 -5.053,-4.477 -5.273,-2.403L0,-2.403ZM0.172,1.298L2.099,1.844C1.635,4.25 -0.269,5.079 -2.416,5.079C-5.417,5.079 -7.444,2.879 -7.444,-1.108C-7.444,-5.122 -5.442,-7.482 -2.294,-7.482C0.611,-7.482 2.173,-5.355 2.173,-2.38C2.173,-1.704 2.076,-1.085 1.953,-0.723L-5.32,-0.723C-5.222,1.611 -4.197,3.242 -2.294,3.242C-1.048,3.242 -0.219,2.723 0.172,1.298" style="fill:rgb(34,88,128);fill-rule:nonzero;"/>
            </g>
            <g transform="matrix(1,0,0,1,259.4179,446.7257)">
                <path d="M0,-7.065C0.611,-8.852 1.904,-9.659 3.613,-9.659C5.468,-9.659 7.029,-8.57 7.029,-5.954L7.029,2.594L4.833,2.594L4.833,-5.255C4.833,-6.729 4.199,-7.638 2.857,-7.638C1.49,-7.638 0.196,-6.859 0.196,-4.269L0.196,2.594L-2.001,2.594L-2.001,-9.372L-0.267,-9.372L0,-7.065Z" style="fill:rgb(34,88,128);fill-rule:nonzero;"/>
            </g>
            <g transform="matrix(1,0,0,1,275.9494,435.2309)">
                <path d="M0,13.699C-0.733,14.165 -1.684,14.398 -2.734,14.398C-4.761,14.398 -5.981,13.26 -5.981,11.033L-5.981,3.986L-7.616,3.986L-7.616,2.123L-5.981,2.123L-5.981,-0.417L-3.76,-0.699L-3.76,2.123L-0.416,2.123L-0.416,3.986L-3.785,3.986L-3.785,10.567C-3.785,11.862 -3.223,12.404 -2.295,12.404C-1.562,12.404 -1.051,12.198 -0.416,11.759L0,13.699Z" style="fill:rgb(34,88,128);fill-rule:nonzero;"/>
            </g>
            <g transform="matrix(-1,0,0,1,569.726,41.494)">
                <rect x="283.74" y="392.571" width="2.246" height="15.254" style="fill:rgb(34,88,128);"/>
            </g>
            <g transform="matrix(1,0,0,1,291.7725,446.7257)">
                <path d="M0,-7.065C0.611,-8.852 1.904,-9.659 3.613,-9.659C5.468,-9.659 7.029,-8.57 7.029,-5.954L7.029,2.594L4.833,2.594L4.833,-5.255C4.833,-6.729 4.199,-7.638 2.857,-7.638C1.49,-7.638 0.196,-6.859 0.196,-4.269L0.196,2.594L-2.001,2.594L-2.001,-9.372L-0.267,-9.372L0,-7.065Z" style="fill:rgb(34,88,128);fill-rule:nonzero;"/>
            </g>
            <g transform="matrix(1,0,0,1,303.0564,440.6914)">
                <path d="M0,5.313C0.17,6.684 1.098,7.28 2.441,7.28C3.733,7.28 4.686,6.764 4.686,5.675C4.686,4.691 4.27,4.148 2.927,3.786L1.268,3.369C-0.781,2.853 -1.562,1.738 -1.562,-0.022C-1.562,-2.715 0.537,-3.624 2.685,-3.624C5.051,-3.624 6.516,-2.715 6.735,-0.386L4.587,-0.126C4.514,-1.317 3.831,-1.859 2.538,-1.859C1.293,-1.859 0.561,-1.263 0.561,-0.256C0.561,0.6 0.878,1.143 2.099,1.429L3.661,1.818C5.662,2.334 6.785,3.32 6.785,5.416C6.785,7.979 4.881,8.937 2.416,8.937C-0.147,8.937 -1.637,8.109 -1.953,5.935L0,5.313Z" style="fill:rgb(34,88,128);fill-rule:nonzero;"/>
            </g>
            <g transform="matrix(1,0,0,1,318.5338,435.2309)">
                <path d="M0,13.699C-0.733,14.165 -1.684,14.398 -2.734,14.398C-4.761,14.398 -5.981,13.26 -5.981,11.033L-5.981,3.986L-7.616,3.986L-7.616,2.123L-5.981,2.123L-5.981,-0.417L-3.76,-0.699L-3.76,2.123L-0.416,2.123L-0.416,3.986L-3.785,3.986L-3.785,10.567C-3.785,11.862 -3.223,12.404 -2.295,12.404C-1.562,12.404 -1.051,12.198 -0.416,11.759L0,13.699Z" style="fill:rgb(34,88,128);fill-rule:nonzero;"/>
            </g>
            <g transform="matrix(1,0,0,1,0,39.398)">
                <path d="M322.859,409.921L320.661,409.921L320.661,397.955L322.859,397.955L322.859,409.921ZM321.737,392.571C322.59,392.571 323.274,393.189 323.274,394.121C323.274,395.003 322.59,395.676 321.737,395.676C320.955,395.676 320.272,395.003 320.272,394.121C320.272,393.189 320.955,392.571 321.737,392.571" style="fill:rgb(34,88,128);fill-rule:nonzero;"/>
            </g>
            <g transform="matrix(1,0,0,1,332.4777,435.2309)">
                <path d="M0,13.699C-0.733,14.165 -1.684,14.398 -2.735,14.398C-4.76,14.398 -5.981,13.26 -5.981,11.033L-5.981,3.986L-7.615,3.986L-7.615,2.123L-5.981,2.123L-5.981,-0.417L-3.76,-0.699L-3.76,2.123L-0.416,2.123L-0.416,3.986L-3.785,3.986L-3.785,10.567C-3.785,11.862 -3.223,12.404 -2.295,12.404C-1.562,12.404 -1.051,12.198 -0.416,11.759L0,13.699Z" style="fill:rgb(34,88,128);fill-rule:nonzero;"/>
            </g>
            <g transform="matrix(1,0,0,1,341.3403,439.8395)">
                <path d="M0,7.303C-0.537,9.067 -1.684,9.789 -3.466,9.789C-5.517,9.789 -6.882,8.678 -6.882,5.829L-6.882,-2.486L-4.686,-2.486L-4.686,5.466C-4.686,7.227 -4.052,8.055 -2.66,8.055C-1.44,8.055 -0.049,6.89 -0.049,4.584L-0.049,-2.486L2.148,-2.486L2.148,9.48L0.267,9.48L0,7.303Z" style="fill:rgb(34,88,128);fill-rule:nonzero;"/>
            </g>
            <g transform="matrix(1,0,0,1,353.1111,435.2309)">
                <path d="M0,13.699C-0.733,14.165 -1.684,14.398 -2.735,14.398C-4.76,14.398 -5.981,13.26 -5.981,11.033L-5.981,3.986L-7.615,3.986L-7.615,2.123L-5.981,2.123L-5.981,-0.417L-3.76,-0.699L-3.76,2.123L-0.416,2.123L-0.416,3.986L-3.785,3.986L-3.785,10.567C-3.785,11.862 -3.223,12.404 -2.295,12.404C-1.562,12.404 -1.051,12.198 -0.416,11.759L0,13.699Z" style="fill:rgb(34,88,128);fill-rule:nonzero;"/>
            </g>
            <g transform="matrix(1,0,0,1,361.8266,444.55)">
                <path d="M0,-2.403C0.025,-2.586 0.025,-2.743 0.025,-2.895C0.025,-4.424 -0.903,-5.642 -2.416,-5.642C-4.027,-5.642 -5.053,-4.477 -5.273,-2.403L0,-2.403ZM0.172,1.298L2.099,1.844C1.634,4.25 -0.267,5.079 -2.416,5.079C-5.417,5.079 -7.444,2.879 -7.444,-1.108C-7.444,-5.122 -5.442,-7.482 -2.294,-7.482C0.611,-7.482 2.173,-5.355 2.173,-2.38C2.173,-1.704 2.074,-1.085 1.953,-0.723L-5.32,-0.723C-5.222,1.611 -4.197,3.242 -2.294,3.242C-1.051,3.242 -0.219,2.723 0.172,1.298" style="fill:rgb(34,88,128);fill-rule:nonzero;"/>
            </g>
        </g>
    </g>
</svg>
