<?xml version="1.0" encoding="UTF-8" standalone="no"?>
<!DOCTYPE svg PUBLIC "-//W3C//DTD SVG 1.1//EN" "http://www.w3.org/Graphics/SVG/1.1/DTD/svg11.dtd">
<svg width="100%" height="100%" viewBox="0 0 978 444" version="1.1" xmlns="http://www.w3.org/2000/svg" xmlns:xlink="http://www.w3.org/1999/xlink" xml:space="preserve" xmlns:serif="http://www.serif.com/" style="fill-rule:evenodd;clip-rule:evenodd;stroke-linejoin:round;stroke-miterlimit:2;">
    <g id="Page-1" serif:id="Page 1" transform="matrix(4.166667,0,0,4.166667,0,0)">
        <rect x="0" y="0" width="234.484" height="106.559" style="fill:none;"/>
        <clipPath id="_clip1">
            <rect x="0" y="0" width="234.484" height="106.559"/>
        </clipPath>
        <g clip-path="url(#_clip1)">
            <g id="Layer-1" serif:id="Layer 1">
                <g transform="matrix(1,0,0,1,193.425,77.981)">
                    <path d="M0,28.12L8.67,28.12L8.67,18.338C8.67,16.485 8.996,15.201 9.649,14.486C10.299,13.767 11.234,13.373 12.203,13.409C13.019,13.361 13.819,13.65 14.416,14.209C15.019,14.978 15.302,15.95 15.206,16.923L15.206,28.123L23.914,28.123L23.914,15.175C23.914,12.508 23.237,10.528 21.883,9.233C20.355,7.878 18.354,7.181 16.315,7.293C14.905,7.263 13.501,7.504 12.182,8.004C10.877,8.568 9.687,9.366 8.669,10.358L8.669,-0.003L-0.001,-0.003L0,28.12Z" style="fill:rgb(26,73,133);fill-rule:nonzero;"/>
                </g>
                <g transform="matrix(1,0,0,1,171.026,86.8771)">
                    <path d="M0,18.091C1.753,19.151 4.694,19.681 8.823,19.682C11.172,19.768 13.518,19.435 15.751,18.698C17.225,18.198 18.519,17.275 19.472,16.044C20.22,15.055 20.634,13.855 20.656,12.615C20.658,11.452 20.264,10.324 19.538,9.415C18.699,8.377 17.581,7.599 16.315,7.175C14.227,6.514 12.069,6.102 9.885,5.947C8.627,5.877 7.384,5.646 6.185,5.26C5.69,5.104 5.348,4.652 5.333,4.133C5.346,3.663 5.6,3.232 6.005,2.992C6.658,2.63 7.402,2.467 8.146,2.523C9.011,2.497 9.866,2.712 10.615,3.145C11.133,3.481 11.511,3.994 11.678,4.588L19.895,3.858C19.416,2.66 18.686,1.578 17.754,0.685C16.83,-0.133 15.729,-0.725 14.538,-1.047C12.579,-1.489 10.57,-1.677 8.563,-1.605C6.503,-1.667 4.445,-1.424 2.456,-0.885C1.088,-0.499 -0.149,0.253 -1.122,1.29C-1.979,2.238 -2.444,3.477 -2.422,4.755C-2.432,5.956 -2.005,7.12 -1.222,8.031C-0.444,8.973 0.581,9.678 1.738,10.069C3.792,10.667 5.888,11.107 8.009,11.385C9.272,11.53 10.519,11.798 11.73,12.185C12.293,12.374 12.681,12.891 12.704,13.485C12.694,14.002 12.411,14.475 11.96,14.729C11.149,15.221 10.207,15.454 9.26,15.397C8.372,15.44 7.489,15.235 6.71,14.806C6.01,14.333 5.486,13.641 5.219,12.839L-3.381,13.564C-2.918,15.469 -1.698,17.103 -0.002,18.087" style="fill:rgb(26,73,133);fill-rule:nonzero;"/>
                </g>
                <g transform="matrix(1,0,0,1,0,85.281)">
                    <rect x="156.394" y="0.457" width="8.674" height="20.364" style="fill:rgb(26,73,133);"/>
                </g>
                <g transform="matrix(1,0,0,1,0,54.713)">
                    <rect x="156.394" y="23.268" width="8.674" height="5.31" style="fill:rgb(26,73,133);"/>
                </g>
                <g transform="matrix(1,0,0,1,129.838,74.4279)">
                    <path d="M0,31.677L9.744,31.677L9.744,18.721L21.931,18.721L21.931,12.339L9.744,12.339L9.744,6.8L23.996,6.8L23.996,0L-0.004,0L0,31.677Z" style="fill:rgb(26,73,133);fill-rule:nonzero;"/>
                </g>
                <g transform="matrix(1,0,0,1,118.5311,106.717)">
                    <path d="M0,-28.737L0,-18.979C-0.839,-19.791 -1.838,-20.42 -2.933,-20.824C-4.112,-21.248 -5.358,-21.458 -6.611,-21.442C-9.167,-21.526 -11.645,-20.556 -13.465,-18.759C-15.265,-16.969 -16.165,-14.387 -16.165,-11.013C-16.246,-8.248 -15.385,-5.537 -13.724,-3.324C-12.023,-1.181 -9.385,0 -6.654,-0.16C-5.213,-0.142 -3.786,-0.445 -2.476,-1.045C-1.281,-1.704 -0.224,-2.587 0.637,-3.645L0.637,-0.623L8.744,-0.623L8.744,-28.736L0,-28.737ZM-1.046,-7.056C-1.762,-6.289 -2.771,-5.865 -3.82,-5.891C-4.819,-5.872 -5.775,-6.295 -6.433,-7.047C-7.225,-8.087 -7.602,-9.384 -7.491,-10.686C-7.617,-12.029 -7.253,-13.372 -6.465,-14.467C-5.826,-15.199 -4.897,-15.612 -3.926,-15.597C-2.849,-15.628 -1.809,-15.199 -1.067,-14.418C-0.241,-13.424 0.165,-12.146 0.063,-10.857C0.187,-9.496 -0.209,-8.138 -1.045,-7.057" style="fill:rgb(26,73,133);fill-rule:nonzero;"/>
                </g>
                <g transform="matrix(1,0,0,1,0,77.524)">
                    <rect x="91.095" y="0.457" width="8.712" height="28.121" style="fill:rgb(26,73,133);"/>
                </g>
                <g transform="matrix(1,0,0,1,70.731,85.2431)">
                    <path d="M-0.001,20.861L8.712,20.861L8.712,14.043C8.712,10.788 9.159,8.566 10.052,7.379C10.665,6.542 11.655,6.067 12.691,6.113C13.527,6.167 14.348,6.361 15.12,6.687L17.807,1.111C16.503,0.449 15.069,0.082 13.607,0.036C12.523,0 11.452,0.285 10.53,0.855C9.497,1.643 8.667,2.667 8.111,3.842L8.111,0.497L-0.001,0.497L-0.001,20.861Z" style="fill:rgb(26,73,133);fill-rule:nonzero;"/>
                </g>
                <g transform="matrix(1,0,0,1,65.323,103.1571)">
                    <path d="M0,-14.333C-2.314,-16.697 -5.735,-17.88 -10.263,-17.882C-14.228,-17.882 -17.373,-16.875 -19.698,-14.862C-23.913,-11.219 -24.377,-4.85 -20.734,-0.635C-20.237,-0.059 -19.675,0.459 -19.061,0.909C-16.47,2.674 -13.375,3.549 -10.243,3.402C-6.168,3.402 -2.978,2.402 -0.672,0.402C3.576,-3.358 3.971,-9.85 0.211,-14.098C0.142,-14.176 0.071,-14.253 0,-14.329M-7.121,-3.153C-8.782,-1.463 -11.499,-1.439 -13.189,-3.1C-13.213,-3.123 -13.236,-3.146 -13.259,-3.17C-14.889,-5.593 -14.885,-8.763 -13.249,-11.182C-12.446,-12.049 -11.307,-12.527 -10.126,-12.493C-8.988,-12.514 -7.897,-12.042 -7.132,-11.199C-6.242,-10.091 -5.808,-8.684 -5.921,-7.267C-5.79,-5.794 -6.218,-4.325 -7.121,-3.153" style="fill:rgb(26,73,133);fill-rule:nonzero;"/>
                </g>
                <g transform="matrix(1,0,0,1,6.99,74.2789)">
                    <path d="M0,31.675L9.51,31.675L14.998,11.73L20.51,31.675L30.026,31.675L36.95,0L27.78,0L24.43,17.643L19.557,0L10.42,0L5.565,17.648L2.22,0L-6.99,0L0,31.675Z" style="fill:rgb(26,73,133);fill-rule:nonzero;"/>
                </g>
                <g transform="matrix(1,0,0,1,174.8051,49.935)">
                    <path d="M0,18.328C0,18.328 21.588,-1.244 34.632,-4.916C45.165,-7.878 51.461,-3.681 52.964,3.995C55.204,15.443 47.211,26.206 47.211,26.206C47.211,26.206 55.076,7.791 45.086,2.962C37.948,-0.489 27.671,3.606 23.167,5.462C18.567,7.352 0.001,18.331 0.001,18.331" style="fill:rgb(88,171,71);fill-rule:nonzero;"/>
                </g>
                <g transform="matrix(1,0,0,1,186.42,68.6869)">
                    <path d="M0,-53.608C0,-53.608 10.723,-39.275 0.993,-28.841C-7.387,-19.856 -27.79,-22.232 -27.79,-22.232C-27.79,-22.232 -27.59,-52.732 6.535,-55.852C15.078,-56.634 34.3,-56.228 42.613,-34.204C50.413,-13.535 35.59,7.136 35.59,7.136C35.59,7.136 41.599,-8.209 34.226,-13.24C20.809,-22.407 -12.774,1.871 -12.774,1.871C-12.774,1.871 17.597,-14.229 29.736,-7.586C38.415,-2.839 31.686,13.572 31.686,13.572C31.686,13.572 55.259,-7.74 45.843,-38.009C42.529,-48.671 29.943,-67.18 4.776,-61.897C-33.324,-53.897 -29.741,-20.749 -29.741,-20.749C-29.741,-20.749 -11.311,-15.389 -1.141,-22.115C7.159,-27.604 8.495,-32.277 7.603,-38.848C6.143,-49.613 -0.002,-53.609 -0.002,-53.609" style="fill:rgb(26,73,133);fill-rule:nonzero;"/>
                </g>
                <g transform="matrix(0.903741,-0.428079,-0.428079,-0.903741,209.056331,37.099192)">
                    <path d="M-3.653,-0.821C-1.063,-0.82 1.035,3.001 1.037,7.715C1.039,12.429 -1.062,16.247 -3.652,16.243C-6.243,16.24 -8.34,12.421 -8.344,7.708C-8.348,2.995 -6.243,-0.825 -3.653,-0.821" style="fill:rgb(88,171,71);fill-rule:nonzero;"/>
                </g>
                <g transform="matrix(1,0,0,1,158.054,3.918)">
                    <path d="M0,45.86C0,45.86 10.29,48.918 24.182,46.113C34.321,44.065 46.491,39.389 53.882,32.56C68.02,19.495 64.255,-2.44 64.255,-2.44C64.255,-2.44 63.965,-5.151 65.719,-3.222C67.047,-1.762 72.182,13.186 63.166,28.563C57.332,38.512 43.839,44.81 30.482,47.577C13.931,51.011 1.213,47.833 0.003,47.422C-1.265,46.996 -2.045,45.532 0.003,45.862" style="fill:rgb(88,171,71);fill-rule:nonzero;"/>
                </g>
                <g transform="matrix(1,0,0,1,172.349,27.976)">
                    <path d="M0,6.554C1.81,6.555 3.277,5.088 3.278,3.278C3.279,1.468 1.812,0.001 0.002,0C-1.808,-0.001 -3.275,1.466 -3.276,3.276L-3.276,3.278C-3.275,5.087 -1.809,6.553 0,6.554" style="fill:rgb(26,73,133);fill-rule:nonzero;"/>
                </g>
            </g>
        </g>
    </g>
</svg>
