<svg preserveAspectRatio="none" width="100%" height="100%" overflow="visible" style="display: block;" viewBox="0 0 8.39648 7.30378" fill="none" xmlns="http://www.w3.org/2000/svg">
<path id="Vector" d="M4.74316 6.22614e-05C4.84841 -0.00178814 4.95033 0.0376742 5.02734 0.109437L8.27246 3.35455C8.27419 3.35622 8.27662 3.35774 8.27832 3.35944C8.29714 3.3783 8.31353 3.39913 8.32812 3.42096C8.34299 3.44322 8.35604 3.46665 8.36621 3.49127C8.38637 3.54002 8.39647 3.59277 8.39648 3.64655C8.39648 3.7003 8.38634 3.75309 8.36621 3.80182C8.34608 3.8506 8.31628 3.89555 8.27832 3.93366L5.02734 7.18463C4.98988 7.22251 4.94472 7.2521 4.89551 7.27252C4.84627 7.29294 4.79354 7.30402 4.74023 7.30377C4.68694 7.30402 4.63419 7.29292 4.58496 7.27252C4.53578 7.25211 4.49058 7.22248 4.45312 7.18463C4.37704 7.10845 4.33398 7.00422 4.33398 6.89655C4.33411 6.78905 4.37715 6.6855 4.45312 6.60944L7.00977 4.0528H0.40625C0.298511 4.05278 0.195325 4.00984 0.119141 3.93366C0.0429859 3.85747 0 3.75427 0 3.64655C2.17816e-05 3.53882 0.042964 3.43561 0.119141 3.35944C0.195323 3.28326 0.298518 3.24031 0.40625 3.2403H7.00977L4.45312 0.683656C4.38142 0.606705 4.34197 0.504634 4.34375 0.399476C4.34561 0.294277 4.38853 0.193631 4.46289 0.119203C4.53733 0.0447617 4.6379 0.00191944 4.74316 6.22614e-05Z" fill="var(--fill-0, #065F4A)"/>
</svg>
