<svg preserveAspectRatio="none" width="100%" height="100%" overflow="visible" style="display: block;" viewBox="0 0 9.54247 6.80076" fill="none" xmlns="http://www.w3.org/2000/svg">
<path id="Vector" d="M4.45483 0.120084C4.74239 0.12204 5.02698 0.181648 5.29174 0.293912C5.55646 0.406212 5.79651 0.569995 5.99779 0.775358C6.41983 1.22044 6.64885 1.81452 6.63354 2.4277C6.6182 3.04102 6.35968 3.62337 5.91576 4.04684L5.22924 4.73337C5.19191 4.77342 5.14641 4.80575 5.09643 4.82809C5.04638 4.85039 4.99203 4.86321 4.93725 4.86422C4.88233 4.86519 4.82704 4.85452 4.77612 4.83395C4.72535 4.81338 4.67911 4.78284 4.64037 4.74411C4.60163 4.70534 4.57108 4.65917 4.55053 4.60837C4.53001 4.55758 4.51935 4.50298 4.52026 4.44821C4.52122 4.3934 4.53412 4.33912 4.55639 4.28903C4.57873 4.23889 4.61096 4.19365 4.65112 4.15622L5.31615 3.44723C5.60219 3.1788 5.77052 2.80798 5.7849 2.41598C5.7992 2.02386 5.65813 1.64115 5.39233 1.35251C5.10189 1.09936 4.72554 0.967305 4.34057 0.982389C3.95531 0.997596 3.58977 1.15902 3.32006 1.43454L1.28588 3.49606C1.00529 3.76392 0.840204 4.1309 0.824943 4.51852C0.809762 4.90614 0.946094 5.28417 1.20483 5.57321C1.34708 5.71379 1.5183 5.82173 1.70678 5.88864C1.89509 5.95548 2.09579 5.98023 2.29467 5.9609C2.3477 5.95565 2.4019 5.96098 2.45287 5.97653C2.50377 5.99209 2.55151 6.0178 2.59252 6.05172C2.63332 6.08556 2.66739 6.12691 2.69213 6.1738C2.71697 6.22095 2.73227 6.27306 2.73705 6.32614C2.74769 6.43382 2.7147 6.54117 2.64623 6.62497C2.57782 6.70867 2.47935 6.76232 2.37182 6.7734L2.16967 6.80075C1.59185 6.80264 1.03698 6.57482 0.626701 6.16794C0.210257 5.72551 -0.0144837 5.13666 0.000724476 4.52926C0.0160404 3.92173 0.270429 3.34477 0.708732 2.9238L2.75854 0.856412C3.20419 0.396429 3.81446 0.131483 4.45483 0.120084ZM7.16967 0.0116857C7.4871 -0.021217 7.8086 0.0155004 8.1101 0.120084C8.41154 0.224672 8.68596 0.394797 8.91479 0.617154C9.33128 1.05966 9.55704 1.64834 9.54174 2.25583C9.52643 2.86324 9.27188 3.44034 8.83373 3.8613L6.78295 5.9277C6.33729 6.38775 5.72708 6.65263 5.08666 6.66403C4.79913 6.66206 4.51447 6.60343 4.24975 6.49118C3.98501 6.37888 3.74499 6.2151 3.54369 6.00973C3.12165 5.56472 2.8937 4.97051 2.90893 4.35739C2.92426 3.74412 3.18186 3.16171 3.62572 2.73825L4.31322 2.05075C4.35053 2.01081 4.39516 1.97831 4.44506 1.95602C4.49523 1.93367 4.5503 1.92183 4.60522 1.92087C4.65997 1.91996 4.7146 1.92965 4.76537 1.95016C4.81626 1.97073 4.8623 2.00217 4.90112 2.04098C4.93986 2.07978 4.97043 2.12589 4.99096 2.17672C5.0115 2.22761 5.02219 2.28202 5.02123 2.33688C5.02026 2.39179 5.00745 2.44589 4.9851 2.49606C4.96275 2.54621 4.93054 2.59144 4.89037 2.62887L4.22533 3.33786C3.93927 3.60637 3.77088 3.97703 3.75658 4.36911C3.74229 4.76119 3.88341 5.14298 4.14916 5.43161C4.43975 5.68501 4.81664 5.81791 5.2019 5.8027C5.587 5.78739 5.95182 5.62499 6.22143 5.34958L8.27709 3.28903C8.55481 3.01825 8.71609 2.6494 8.72729 2.26169C8.73837 1.87412 8.5982 1.49715 8.33666 1.2109C8.19447 1.07048 8.02304 0.963308 7.83471 0.896451C7.64635 0.829593 7.44575 0.804831 7.24682 0.824186C7.19378 0.829442 7.13959 0.824114 7.08862 0.808561C7.03783 0.793036 6.99089 0.767174 6.94994 0.733365C6.90888 0.699397 6.87419 0.657473 6.84936 0.610318C6.82464 0.56331 6.80923 0.511844 6.80444 0.458951C6.79377 0.351244 6.82677 0.24296 6.89526 0.159147C6.96363 0.0756647 7.06233 0.0227914 7.16967 0.0116857Z" fill="var(--fill-0, #065F4A)"/>
</svg>
