<svg width="15" height="12" viewBox="0 0 15 12" fill="none" xmlns="http://www.w3.org/2000/svg">
<path d="M12.9541 0C13.3351 0.00221037 13.7003 0.154412 13.9697 0.423828C14.2391 0.693276 14.3914 1.05845 14.3936 1.43945V9.66406C14.3914 10.0451 14.2391 10.4102 13.9697 10.6797C13.7003 10.9491 13.3351 11.1013 12.9541 11.1035H1.43945C1.05843 11.1014 0.693281 10.9491 0.423828 10.6797C0.154365 10.4102 0.0021591 10.0451 0 9.66406V1.43945C0.0021591 1.05838 0.154365 0.693291 0.423828 0.423828C0.693281 0.154427 1.05843 0.00215884 1.43945 0H12.9541ZM1.43945 1.2334C1.38497 1.2334 1.3325 1.25545 1.29395 1.29395C1.25538 1.33251 1.2334 1.38492 1.2334 1.43945V9.66406C1.2334 9.7186 1.25538 9.77101 1.29395 9.80957C1.3325 9.84807 1.38497 9.87012 1.43945 9.87012H12.9541C13.0086 9.87007 13.0611 9.84809 13.0996 9.80957C13.1381 9.77102 13.1592 9.71852 13.1592 9.66406V1.43945C13.1592 1.38499 13.1381 1.33249 13.0996 1.29395C13.0611 1.25543 13.0086 1.23345 12.9541 1.2334H1.43945ZM4.72852 5.75781C5.49342 5.75781 7.81342 5.75778 7.81348 8.01953C7.81135 8.18245 7.74508 8.3379 7.62988 8.45312C7.51466 8.56835 7.35923 8.63459 7.19629 8.63672C7.03335 8.63459 6.87792 8.56835 6.7627 8.45312C6.64749 8.3379 6.58123 8.18245 6.5791 8.01953C6.57909 7.46028 6.4392 6.99121 4.72852 6.99121C3.01814 6.99127 2.87794 7.46031 2.87793 8.01953C2.87793 8.18313 2.81295 8.34037 2.69727 8.45605C2.58169 8.57148 2.42507 8.63663 2.26172 8.63672C2.09818 8.63672 1.94087 8.57166 1.8252 8.45605C1.70951 8.34037 1.64453 8.18313 1.64453 8.01953C1.64458 5.7581 3.96328 5.75781 4.72852 5.75781ZM10.4863 5.75781C10.6499 5.75783 10.8072 5.82281 10.9229 5.93848C11.0384 6.05414 11.1035 6.2115 11.1035 6.375C11.1034 6.53831 11.0382 6.69498 10.9229 6.81055C10.8072 6.92621 10.6499 6.99119 10.4863 6.99121H8.84082C8.67739 6.99109 8.52085 6.92612 8.40527 6.81055C8.28971 6.69495 8.2247 6.53845 8.22461 6.375C8.22461 6.2114 8.28959 6.05416 8.40527 5.93848C8.52084 5.82295 8.67742 5.75794 8.84082 5.75781H10.4863ZM4.4082 2.08789C4.72723 2.02443 5.05787 2.0572 5.3584 2.18164C5.65887 2.3061 5.91594 2.51673 6.09668 2.78711C6.27742 3.0576 6.37401 3.37585 6.37402 3.70117C6.37402 4.13735 6.20095 4.55579 5.89258 4.86426C5.58416 5.17268 5.16565 5.3466 4.72949 5.34668C4.40425 5.34668 4.08589 5.24998 3.81543 5.06934C3.54495 4.88861 3.33349 4.63159 3.20898 4.33105C3.08448 4.03048 3.05274 3.69897 3.11621 3.37988C3.17975 3.06099 3.33647 2.76802 3.56641 2.53809C3.79641 2.30815 4.08922 2.15135 4.4082 2.08789ZM11.3086 3.28906C11.4721 3.28906 11.6294 3.35411 11.7451 3.46973C11.8608 3.58539 11.9258 3.74267 11.9258 3.90625C11.9258 4.06985 11.8608 4.22709 11.7451 4.34277C11.6294 4.45843 11.4722 4.52344 11.3086 4.52344H8.84082C8.67749 4.52331 8.52083 4.45821 8.40527 4.34277C8.28959 4.22709 8.22461 4.06985 8.22461 3.90625C8.22463 3.74267 8.28961 3.58539 8.40527 3.46973C8.52082 3.35433 8.67752 3.28919 8.84082 3.28906H11.3086ZM4.72949 3.29004C4.64822 3.29004 4.56857 3.31425 4.50098 3.35938C4.43337 3.40455 4.38074 3.46883 4.34961 3.54395C4.3185 3.61904 4.31035 3.70153 4.32617 3.78125C4.34204 3.86102 4.38096 3.93467 4.43848 3.99219C4.49597 4.04964 4.56969 4.08863 4.64941 4.10449C4.72906 4.12025 4.81171 4.11213 4.88672 4.08105C4.96179 4.04992 5.02614 3.99726 5.07129 3.92969C5.11643 3.86208 5.14062 3.78247 5.14062 3.70117C5.14061 3.59213 5.09664 3.48726 5.01953 3.41016C4.94252 3.33334 4.83827 3.29012 4.72949 3.29004Z" fill="#1689CA"/>
</svg>
