<svg width="12" height="14" viewBox="0 0 12 14" fill="none" xmlns="http://www.w3.org/2000/svg">
<path d="M10.5135 0H1.33809C0.60405 0 0 0.60405 0 1.33809V12.0428C0 12.7768 0.60405 13.3809 1.33809 13.3809H10.5135C11.2476 13.3809 11.8516 12.7768 11.8516 12.0428V1.33809C11.8516 0.60405 11.2476 0 10.5135 0ZM10.7047 12.0428C10.7047 12.1498 10.6206 12.2339 10.5135 12.2339H1.33809C1.23104 12.2339 1.14693 12.1498 1.14693 12.0428V1.33809C1.14693 1.23104 1.23104 1.14693 1.33809 1.14693H10.5135C10.6206 1.14693 10.7047 1.23104 10.7047 1.33809V12.0428ZM6.69043 9.74891C6.69043 10.1695 6.34635 10.5135 5.92581 10.5135C5.50527 10.5135 5.16119 10.1695 5.16119 9.74891C5.16119 9.32837 5.50527 8.98429 5.92581 8.98429C6.34635 8.98429 6.69043 9.32837 6.69043 9.74891Z" fill="#1689CA"/>
</svg>
