<svg width="12" height="15" viewBox="0 0 12 15" fill="none" xmlns="http://www.w3.org/2000/svg">
<path d="M5.8623 0C7.41702 0 8.90839 0.617549 10.0078 1.7168C11.1072 2.81618 11.7255 4.30756 11.7256 5.8623C11.7256 10.212 6.43005 13.7908 6.17285 13.9346C6.08262 13.9995 5.97346 14.0333 5.8623 14.0322C5.75134 14.0333 5.64284 13.9993 5.55273 13.9346C5.32579 13.7908 0 10.212 0 5.8623C8.88956e-05 4.30756 0.617418 2.81618 1.7168 1.7168C2.81618 0.617418 4.30756 8.88957e-05 5.8623 0ZM5.8623 1.17285C4.6139 1.16892 3.41467 1.6599 2.52832 2.53906C1.64196 3.41834 1.14086 4.61382 1.13477 5.8623C1.13477 9.04698 4.75778 11.96 5.8623 12.7695C6.96675 11.9601 10.5908 9.04704 10.5908 5.8623C10.5847 4.61382 10.0836 3.41834 9.19727 2.53906C8.31082 1.65972 7.11091 1.16883 5.8623 1.17285ZM5.45703 3.48145C5.86047 3.40126 6.27915 3.44317 6.65918 3.60059C7.03909 3.75806 7.36429 4.02425 7.59277 4.36621C7.82135 4.70831 7.94336 5.11103 7.94336 5.52246C7.9433 6.07401 7.72393 6.60311 7.33398 6.99316C6.94385 7.38329 6.41403 7.60254 5.8623 7.60254C5.45102 7.60247 5.04902 7.48043 4.70703 7.25195C4.36493 7.02337 4.09788 6.69848 3.94043 6.31836C3.783 5.93825 3.742 5.51973 3.82227 5.11621C3.90255 4.71273 4.1007 4.34168 4.3916 4.05078C4.68251 3.75996 5.05359 3.5617 5.45703 3.48145ZM5.8623 4.57617C5.6754 4.57624 5.49232 4.63249 5.33691 4.73633C5.18169 4.84016 5.06078 4.98764 4.98926 5.16016C4.91769 5.33294 4.89906 5.52361 4.93555 5.70703C4.97208 5.89029 5.06221 6.05829 5.19434 6.19043C5.32646 6.32255 5.4945 6.41267 5.67773 6.44922C5.86116 6.4857 6.05183 6.46708 6.22461 6.39551C6.39716 6.32399 6.54459 6.2031 6.64844 6.04785C6.7523 5.89242 6.80855 5.7094 6.80859 5.52246C6.80859 5.27168 6.70858 5.03085 6.53125 4.85352C6.35392 4.67621 6.11307 4.57617 5.8623 4.57617Z" fill="#1689CA"/>
</svg>
