<svg width="12" height="15" viewBox="0 0 12 15" fill="none" xmlns="http://www.w3.org/2000/svg">
<path d="M8.31543 0C8.46926 0 8.61679 0.0611766 8.72559 0.169922C8.83437 0.278703 8.89548 0.426242 8.89551 0.580078V1.54688H9.8623C10.4265 1.54688 10.9682 1.77099 11.3672 2.16992C11.7661 2.56888 11.9902 3.1106 11.9902 3.6748V12.1836C11.9902 12.7478 11.7661 13.2895 11.3672 13.6885C10.9682 14.0874 10.4265 14.3115 9.8623 14.3115H2.12695C1.56293 14.3115 1.02196 14.0872 0.623047 13.6885C0.224094 13.2895 0 12.7478 0 12.1836V3.6748C0 3.1106 0.224094 2.56888 0.623047 2.16992C1.02197 1.77119 1.56292 1.54688 2.12695 1.54688H3.09375V0.580078C3.09378 0.42627 3.15493 0.278697 3.26367 0.169922C3.37242 0.0611694 3.52004 5.94421e-05 3.67383 0C3.82762 0 3.97519 0.0612194 4.08398 0.169922C4.19277 0.278703 4.25388 0.426242 4.25391 0.580078V1.54688H7.73535V0.580078C7.73538 0.426242 7.79649 0.278703 7.90527 0.169922C8.01406 0.0611424 8.16159 2.32248e-05 8.31543 0ZM1.16016 6.96191V12.1836C1.16016 12.44 1.26208 12.6859 1.44336 12.8672C1.6247 13.0485 1.8705 13.1504 2.12695 13.1504H9.8623C10.1188 13.1504 10.3655 13.0485 10.5469 12.8672C10.7279 12.6859 10.8301 12.4398 10.8301 12.1836V6.96191H1.16016ZM7.54199 9.70898C7.69583 9.70898 7.84335 9.77015 7.95215 9.87891C8.06095 9.98771 8.12207 10.1352 8.12207 10.2891C8.12203 10.4429 8.06092 10.5905 7.95215 10.6992C7.84337 10.8079 7.69575 10.8691 7.54199 10.8691H4.44824C4.29446 10.8691 4.14687 10.8079 4.03809 10.6992C3.92932 10.5905 3.86821 10.4429 3.86816 10.2891C3.86816 10.1352 3.92928 9.98771 4.03809 9.87891C4.14689 9.77013 4.29439 9.70898 4.44824 9.70898H7.54199ZM2.12695 2.70801C1.8705 2.70801 1.6247 2.80987 1.44336 2.99121C1.2621 3.17254 1.16016 3.41841 1.16016 3.6748V5.80176H10.8301V3.6748C10.8301 3.41856 10.7279 3.17251 10.5469 2.99121C10.3655 2.80987 10.1188 2.70801 9.8623 2.70801H8.89551V3.6748C8.89543 3.82857 8.83432 3.97623 8.72559 4.08496C8.6168 4.19364 8.46921 4.25488 8.31543 4.25488C8.16164 4.25486 8.01405 4.19368 7.90527 4.08496C7.79654 3.97623 7.73543 3.82857 7.73535 3.6748V2.70801H4.25391V3.6748C4.25382 3.82857 4.19272 3.97623 4.08398 4.08496C3.9752 4.1936 3.82758 4.25488 3.67383 4.25488C3.52006 4.25482 3.37242 4.19369 3.26367 4.08496C3.15494 3.97623 3.09383 3.82857 3.09375 3.6748V2.70801H2.12695Z" fill="#1689CA"/>
</svg>
