<svg width="13" height="13" viewBox="0 0 13 13" fill="none" xmlns="http://www.w3.org/2000/svg">
<path d="M6.17031 0C4.94994 0 3.75697 0.361882 2.74227 1.03988C1.72757 1.71789 0.936705 2.68156 0.469689 3.80903C0.00267347 4.93651 -0.119519 6.17715 0.118563 7.37407C0.356646 8.571 0.944311 9.67044 1.80724 10.5334C2.67018 11.3963 3.76962 11.984 4.96654 12.2221C6.16347 12.4601 7.40411 12.3379 8.53158 11.8709C9.65906 11.4039 10.6227 10.613 11.3007 9.59834C11.9787 8.58364 12.3406 7.39068 12.3406 6.17031C12.3406 4.53384 11.6905 2.9644 10.5334 1.80724C9.37622 0.650084 7.80678 0 6.17031 0ZM11.2848 5.65611H9.39258C9.15309 4.00454 8.45471 2.45337 7.37695 1.17921C8.41065 1.43102 9.34114 1.99647 10.0408 2.79799C10.7404 3.59952 11.175 4.59787 11.2848 5.65611ZM3.98328 6.6845H8.35734C8.04067 8.30853 7.28416 9.81444 6.17031 11.038C5.05646 9.81444 4.29995 8.30853 3.98328 6.6845ZM3.98328 5.65611C4.29995 4.03208 5.05646 2.52618 6.17031 1.30262C7.28416 2.52618 8.04067 4.03208 8.35734 5.65611H3.98328ZM4.96367 1.17921C3.88591 2.45337 3.18753 4.00454 2.94804 5.65611H1.05581C1.16565 4.59787 1.60019 3.59952 2.29984 2.79799C2.99948 1.99647 3.92997 1.43102 4.96367 1.17921ZM1.05581 6.66393H2.94804C3.18753 8.31551 3.88591 9.86667 4.96367 11.1408C3.933 10.8902 3.00469 10.3279 2.30535 9.53036C1.606 8.73287 1.16966 7.73907 1.05581 6.6845V6.66393ZM7.37695 11.1408C8.45471 9.86667 9.15309 8.31551 9.39258 6.66393H11.2848C11.179 7.72585 10.7463 8.72876 10.0463 9.53432C9.34637 10.3399 8.41369 10.9084 7.37695 11.1614V11.1408Z" fill="#1689CA"/>
</svg>
