<svg width="13" height="16" viewBox="0 0 13 16" fill="none" xmlns="http://www.w3.org/2000/svg">
<path d="M8.85742 0C9.02109 7.94381e-05 9.17815 0.064988 9.29395 0.180664C9.40983 0.296548 9.47461 0.45428 9.47461 0.618164V1.64746H10.5049C11.1058 1.64746 11.6825 1.88662 12.1074 2.31152C12.5321 2.7363 12.7704 3.31245 12.7705 3.91309V12.9766C12.7705 13.5772 12.532 14.1533 12.1074 14.5781C11.6825 15.003 11.1058 15.2422 10.5049 15.2422H2.26562C1.66482 15.2421 1.0889 15.003 0.664062 14.5781C0.239238 14.1533 3.47315e-05 13.5774 0 12.9766V3.91309C0.000116743 3.31234 0.23926 2.73633 0.664062 2.31152C1.08889 1.88673 1.66486 1.64754 2.26562 1.64746H3.2959V0.618164C3.2959 0.45428 3.36068 0.296548 3.47656 0.180664C3.59244 0.064813 3.7502 0 3.91406 0C4.07773 9.07229e-05 4.2348 0.0649847 4.35059 0.180664C4.46647 0.296548 4.53125 0.45428 4.53125 0.618164V1.64746H8.23926V0.618164C8.23926 0.45428 8.30404 0.296548 8.41992 0.180664C8.5358 0.0647997 8.69355 0 8.85742 0ZM1.23633 7.41504V12.9766C1.23636 13.2497 1.34498 13.512 1.53809 13.7051C1.73112 13.8979 1.99278 14.0058 2.26562 14.0059H10.5049C10.778 14.0059 11.0403 13.8982 11.2334 13.7051C11.4265 13.512 11.5351 13.2497 11.5352 12.9766V7.41504H1.23633ZM6.38574 8.65137C6.54952 8.65137 6.7064 8.71629 6.82227 8.83203C6.93805 8.94781 7.00379 9.10483 7.00391 9.26855V10.2988H8.0332C8.19705 10.2988 8.35483 10.3637 8.4707 10.4795C8.58659 10.5954 8.65137 10.7531 8.65137 10.917C8.65131 11.0807 8.58641 11.2377 8.4707 11.3535C8.35482 11.4694 8.19709 11.5352 8.0332 11.5352H7.00391V12.5645C7.00391 12.7283 6.93815 12.8861 6.82227 13.002C6.70642 13.1176 6.54942 13.1826 6.38574 13.1826C6.22206 13.1826 6.06506 13.1176 5.94922 13.002C5.83334 12.8861 5.76758 12.7283 5.76758 12.5645V11.5352H4.73828C4.5744 11.5352 4.41666 11.4694 4.30078 11.3535C4.18509 11.2377 4.12017 11.0807 4.12012 10.917C4.12012 10.7531 4.1849 10.5954 4.30078 10.4795C4.41666 10.3636 4.57442 10.2988 4.73828 10.2988H5.76758V9.26855C5.76769 9.10483 5.83344 8.94781 5.94922 8.83203C6.06508 8.71628 6.22196 8.65137 6.38574 8.65137ZM2.26562 2.88379C1.99263 2.88387 1.73115 2.99252 1.53809 3.18555C1.34505 3.37858 1.23644 3.64011 1.23633 3.91309V6.17969H11.5352V3.91309C11.535 3.64022 11.4263 3.37856 11.2334 3.18555C11.0403 2.99241 10.778 2.88379 10.5049 2.88379H9.47461V3.91309C9.47461 4.07697 9.40983 4.2347 9.29395 4.35059C9.17814 4.46633 9.02114 4.53117 8.85742 4.53125C8.69354 4.53125 8.53581 4.46647 8.41992 4.35059C8.30408 4.23471 8.23926 4.07694 8.23926 3.91309V2.88379H4.53125V3.91309C4.53125 4.07697 4.46647 4.2347 4.35059 4.35059C4.23479 4.46633 4.07778 4.53116 3.91406 4.53125C3.75018 4.53125 3.59245 4.46647 3.47656 4.35059C3.36071 4.23471 3.2959 4.07695 3.2959 3.91309V2.88379H2.26562Z" fill="#1689CA"/>
</svg>
