<svg width="11" height="14" viewBox="0 0 11 14" fill="none" xmlns="http://www.w3.org/2000/svg">
<path d="M8.98633 0C9.13453 0.00203922 9.27604 0.0621774 9.38086 0.166992C9.48565 0.271862 9.54589 0.413279 9.54785 0.561523V11.9814H9.92188C10.0708 11.9814 10.214 12.0402 10.3193 12.1455C10.4247 12.2508 10.4834 12.394 10.4834 12.543C10.4834 12.6919 10.4246 12.8351 10.3193 12.9404C10.214 13.0457 10.0708 13.1045 9.92188 13.1045H0.561523C0.412607 13.1045 0.269364 13.0457 0.164062 12.9404C0.0587612 12.8351 2.59093e-05 12.6919 0 12.543C0 12.3941 0.0587993 12.2508 0.164062 12.1455C0.269364 12.0402 0.412607 11.9815 0.561523 11.9814H0.935547V0.561523C0.937508 0.413323 0.997805 0.271853 1.10254 0.166992C1.20745 0.0620853 1.3497 0.00193944 1.49805 0H8.98633ZM2.05957 1.12305V11.9814H2.99512V10.2959C2.99525 10.1968 3.03442 10.1013 3.10449 10.0312C3.17471 9.96103 3.27082 9.92188 3.37012 9.92188H4.11816C4.21746 9.92188 4.31357 9.96103 4.38379 10.0312C4.45386 10.1013 4.49304 10.1968 4.49316 10.2959V11.9814H8.42383V1.12305H2.05957ZM4.11816 7.30078C4.32495 7.30078 4.49316 7.469 4.49316 7.67578V8.42383C4.49316 8.63061 4.32495 8.79883 4.11816 8.79883H3.37012C3.16333 8.79883 2.99512 8.63061 2.99512 8.42383V7.67578C2.99512 7.469 3.16333 7.30078 3.37012 7.30078H4.11816ZM7.11426 7.30078C7.32094 7.3009 7.48828 7.46907 7.48828 7.67578V8.42383C7.48828 8.63054 7.32094 8.79871 7.11426 8.79883H6.36523C6.15845 8.79883 5.99121 8.63061 5.99121 8.42383V7.67578C5.99121 7.469 6.15845 7.30078 6.36523 7.30078H7.11426ZM4.11816 4.68066C4.32495 4.68066 4.49316 4.8479 4.49316 5.05469V5.80371C4.49301 6.01036 4.32485 6.17773 4.11816 6.17773H3.37012C3.16343 6.17773 2.99528 6.01036 2.99512 5.80371V5.05469C2.99512 4.8479 3.16333 4.68066 3.37012 4.68066H4.11816ZM7.11426 4.68066C7.32094 4.68078 7.48828 4.84798 7.48828 5.05469V5.80371C7.48812 6.01029 7.32084 6.17762 7.11426 6.17773H6.36523C6.15855 6.17773 5.99137 6.01036 5.99121 5.80371V5.05469C5.99121 4.8479 6.15845 4.68066 6.36523 4.68066H7.11426ZM4.11816 2.05957C4.32485 2.05957 4.49301 2.22694 4.49316 2.43359V3.18262C4.49316 3.3894 4.32495 3.55664 4.11816 3.55664H3.37012C3.16333 3.55664 2.99512 3.3894 2.99512 3.18262V2.43359C2.99527 2.22694 3.16343 2.05957 3.37012 2.05957H4.11816ZM7.11426 2.05957C7.32085 2.05969 7.48813 2.22701 7.48828 2.43359V3.18262C7.48828 3.38933 7.32094 3.55652 7.11426 3.55664H6.36523C6.15845 3.55664 5.99121 3.3894 5.99121 3.18262V2.43359C5.99136 2.22694 6.15855 2.05957 6.36523 2.05957H7.11426Z" fill="#1689CA"/>
</svg>
