<svg width="13" height="13" viewBox="0 0 13 13" fill="none" xmlns="http://www.w3.org/2000/svg">
<path d="M10.8047 7.85742C11.1688 7.85948 11.5179 8.00525 11.7754 8.2627C12.0326 8.52005 12.1776 8.86857 12.1797 9.23242V10.8047C12.1775 11.1685 12.0326 11.5171 11.7754 11.7744C11.5179 12.0319 11.1688 12.1776 10.8047 12.1797H1.375C1.01103 12.1776 0.662673 12.0318 0.405273 11.7744C0.147912 11.5171 0.00215786 11.1686 0 10.8047V9.23242C0.0021375 8.86845 0.147894 8.52007 0.405273 8.2627C0.662676 8.00532 1.01101 7.85953 1.375 7.85742H10.8047ZM1.375 9.03613C1.32299 9.03618 1.27313 9.05698 1.23633 9.09375C1.19955 9.13052 1.17879 9.18042 1.17871 9.23242V10.8047C1.17881 10.8567 1.19957 10.9066 1.23633 10.9434C1.27312 10.9801 1.323 11.0009 1.375 11.001H10.8047C10.8567 11.001 10.9065 10.98 10.9434 10.9434C10.9801 10.9066 11.0009 10.8567 11.001 10.8047V9.23242C11.0009 9.18042 10.9801 9.13052 10.9434 9.09375C10.9065 9.05705 10.8567 9.03613 10.8047 9.03613H1.375ZM6.08984 0C6.24599 0 6.39634 0.0615522 6.50684 0.171875L12.0068 5.67285C12.0891 5.75525 12.1453 5.86039 12.168 5.97461C12.1907 6.08886 12.1793 6.2078 12.1348 6.31543C12.0902 6.42282 12.0146 6.51442 11.918 6.5791C11.8212 6.64384 11.7073 6.67858 11.5908 6.67871H0.589844C0.473444 6.67861 0.359471 6.64377 0.262695 6.5791C0.165947 6.51439 0.0894994 6.42295 0.0449219 6.31543C0.000357667 6.2078 -0.0109788 6.08886 0.0117188 5.97461C0.0344191 5.86036 0.0905385 5.75527 0.172852 5.67285L5.67383 0.171875C5.78425 0.0617902 5.93391 4.55177e-05 6.08984 0ZM2.01172 5.5H10.168L6.08984 1.42188L2.01172 5.5Z" fill="#1689CA"/>
</svg>
