<svg width="13" height="13" viewBox="0 0 13 13" fill="none" xmlns="http://www.w3.org/2000/svg">
<path d="M5.61969 0.0355621C6.45237 -0.0540077 7.29472 0.0259284 8.09527 0.27189C8.16672 0.286166 8.23492 0.315871 8.29449 0.357828C8.35387 0.399735 8.40356 0.453723 8.44098 0.516031C8.47847 0.578477 8.50322 0.647858 8.51227 0.720132C8.5213 0.792433 8.51469 0.866176 8.49371 0.935953C8.47273 1.0056 8.43752 1.07016 8.3902 1.12541C8.34278 1.18073 8.28406 1.22582 8.21832 1.25724C8.15265 1.28859 8.0811 1.30588 8.00836 1.30802C7.93557 1.31017 7.86291 1.29741 7.79547 1.26994C7.11811 1.06627 6.40702 0.999846 5.70367 1.07462C5.00849 1.14581 4.33469 1.35648 3.7232 1.69474C3.13409 2.01975 2.6131 2.4556 2.18902 2.97794C1.75247 3.51003 1.42644 4.12398 1.23004 4.78361C1.03366 5.44341 0.970918 6.13636 1.04547 6.82072C1.11669 7.51589 1.32729 8.18972 1.66559 8.80119C1.99062 9.39032 2.4264 9.91129 2.94879 10.3354C3.48089 10.7719 4.0948 11.098 4.75445 11.2944C5.41425 11.4907 6.10721 11.5535 6.79156 11.4789C7.48676 11.4077 8.16054 11.1961 8.77203 10.8578C9.36109 10.5328 9.88219 10.097 10.3062 9.57463C10.7427 9.0425 11.0689 8.42862 11.2652 7.76896C11.4615 7.10928 11.5243 6.41706 11.4498 5.73283C11.4429 5.66094 11.4501 5.58801 11.4713 5.51896C11.4924 5.45008 11.527 5.38607 11.5728 5.33048C11.6188 5.27479 11.676 5.2286 11.7398 5.19474C11.8035 5.16097 11.8731 5.14008 11.9449 5.13322C12.0168 5.12635 12.0897 5.13354 12.1588 5.1547C12.2276 5.17588 12.2917 5.21039 12.3472 5.25627C12.4029 5.30221 12.4491 5.35854 12.483 5.42228C12.5168 5.48607 12.5376 5.55645 12.5445 5.62834C12.6714 6.85479 12.4345 8.0915 11.8629 9.184C11.2911 10.2766 10.4098 11.1769 9.32965 11.7719C8.58965 12.1999 7.76698 12.4663 6.91656 12.5531C6.70047 12.5531 6.47724 12.5531 6.26813 12.5531C5.14648 12.5513 4.04578 12.2486 3.08063 11.6772C2.11541 11.1056 1.32077 10.2858 0.779845 9.30314C0.368704 8.57094 0.11464 7.76104 0.0337509 6.92521C-0.0938651 5.69945 0.142142 4.463 0.712462 3.37052C1.2829 2.278 2.16294 1.3776 3.24176 0.781656C3.97397 0.370498 4.78384 0.116452 5.61969 0.0355621ZM11.4644 1.35099C11.5709 1.36934 11.6693 1.42109 11.7457 1.49748C11.8219 1.5739 11.8729 1.67229 11.8912 1.77873C11.9094 1.88523 11.8938 1.99469 11.8472 2.0922L5.57086 8.36857C5.48191 8.46996 5.35672 8.53309 5.22223 8.54338C5.08776 8.53303 4.96251 8.46998 4.87359 8.36857L2.7818 6.27677C2.73519 6.17917 2.71956 6.06892 2.73785 5.96232C2.75617 5.85589 2.80702 5.75746 2.88336 5.68107C2.95984 5.60459 3.05899 5.55385 3.16559 5.53556C3.27208 5.51737 3.38157 5.53295 3.47906 5.57951L5.20172 7.30119L11.15 1.39494C11.2476 1.34832 11.3578 1.3327 11.4644 1.35099Z" fill="#1689CA"/>
</svg>
