<svg width="11" height="14" viewBox="0 0 11 14" fill="none" xmlns="http://www.w3.org/2000/svg">
<path d="M10.2597 4.44227L5.98741 0.169965C5.87885 0.0612706 5.73157 0.00013524 5.57795 0H2.12457C1.5611 0 1.0207 0.223837 0.622271 0.622271C0.223837 1.0207 0 1.5611 0 2.12457V11.3954C0 11.9589 0.223837 12.4993 0.622271 12.8977C1.0207 13.2961 1.5611 13.52 2.12457 13.52H8.30512C8.86859 13.52 9.40898 13.2961 9.80742 12.8977C10.2058 12.4993 10.4297 11.9589 10.4297 11.3954V4.82856C10.4236 4.68301 10.3629 4.54509 10.2597 4.44227ZM6.18056 1.97778L8.45191 4.24913H6.18056V1.97778ZM8.30512 12.3611H2.12457C1.86844 12.3611 1.62281 12.2594 1.4417 12.0783C1.2606 11.8972 1.15885 11.6515 1.15885 11.3954V2.12457C1.15885 1.86844 1.2606 1.62281 1.4417 1.4417C1.62281 1.2606 1.86844 1.15885 2.12457 1.15885H5.0217V4.82856C5.0237 4.98161 5.08539 5.12783 5.19362 5.23606C5.30186 5.3443 5.44808 5.40599 5.60113 5.40799H9.27083V11.3954C9.27083 11.6515 9.16909 11.8972 8.98798 12.0783C8.80688 12.2594 8.56124 12.3611 8.30512 12.3611Z" fill="#1689CA"/>
</svg>
