<svg width="13" height="13" viewBox="0 0 13 13" fill="none" xmlns="http://www.w3.org/2000/svg">
<path d="M5.09038 0.121633C6.31714 -0.122383 7.58908 0.0024209 8.74468 0.481008C9.90037 0.959711 10.8886 1.77099 11.5835 2.81109C12.2784 3.85112 12.649 5.07397 12.649 6.32476C12.6489 8.00211 11.9825 9.61037 10.7964 10.7964C9.61037 11.9825 8.00211 12.6489 6.32476 12.649C5.07397 12.649 3.85112 12.2784 2.81109 11.5835C1.77099 10.8886 0.959711 9.90037 0.481008 8.74468C0.0024209 7.58908 -0.122383 6.31714 0.121633 5.09038C0.365718 3.86364 0.967659 2.73655 1.8521 1.8521C2.73655 0.967659 3.86364 0.365718 5.09038 0.121633ZM6.32476 1.05425C5.28233 1.05425 4.26279 1.36281 3.39605 1.94195C2.52951 2.52098 1.85455 3.34437 1.45562 4.30718C1.0567 5.27025 0.95147 6.33068 1.15484 7.35308C1.35822 8.37541 1.86113 9.31425 2.5982 10.0513C3.33527 10.7883 4.27412 11.2904 5.29644 11.4937C6.31877 11.697 7.37834 11.5928 8.34136 11.1939C9.30443 10.795 10.1275 10.1192 10.7066 9.25249C11.2857 8.38581 11.5952 7.36711 11.5953 6.32476C11.5953 4.92699 11.0396 3.58661 10.0513 2.5982C9.06293 1.60981 7.72254 1.0543 6.32476 1.05425ZM6.32476 2.28374C6.46433 2.28384 6.59809 2.33939 6.69683 2.43804C6.79567 2.53688 6.85113 2.6713 6.85113 2.81109V5.79741H8.43218C8.57191 5.79741 8.7064 5.85294 8.80523 5.95171C8.90407 6.05055 8.95952 6.18497 8.95952 6.32476C8.95947 6.46439 8.90392 6.59805 8.80523 6.69683C8.70638 6.79567 8.57197 6.85113 8.43218 6.85113H6.32476C6.18554 6.84931 6.05212 6.79333 5.95366 6.69488C5.85538 6.59649 5.79929 6.46381 5.79741 6.32476V2.81109C5.79741 2.6713 5.85287 2.53688 5.95171 2.43804C6.05055 2.33923 6.185 2.28374 6.32476 2.28374Z" fill="#1689CA"/>
</svg>
