<svg width="13" height="13" viewBox="0 0 13 13" fill="none" xmlns="http://www.w3.org/2000/svg">
<path d="M12.1758 9.23067C12.1758 9.23067 12.1758 9.18196 12.1758 9.15413V3.01755C12.1755 2.9377 12.1564 2.85904 12.1201 2.78795C12.0689 2.67746 11.9801 2.58871 11.8696 2.53747L6.30357 0.046661C6.23582 0.0159093 6.16228 0 6.08788 0C6.01348 0 5.93994 0.0159093 5.8722 0.046661L0.306134 2.53747C0.216614 2.58252 0.140918 2.65091 0.0870358 2.7354C0.0331533 2.8199 0.00308333 2.91738 0 3.01755V9.15413C0.00520161 9.25378 0.0361363 9.35038 0.0897879 9.43452C0.14344 9.51865 0.217977 9.58745 0.306134 9.6342L5.8722 12.125C5.93956 12.1572 6.01325 12.1738 6.08788 12.1738C6.16251 12.1738 6.2362 12.1572 6.30357 12.125L11.8696 9.6342C11.95 9.59741 12.02 9.54131 12.0734 9.4709C12.1268 9.40049 12.162 9.31796 12.1758 9.23067ZM1.04364 3.81767L5.56606 5.84928V10.8448L1.04364 8.82017V3.81767ZM6.6097 5.84928L11.1321 3.81767V8.82017L6.6097 10.8448V5.84928ZM6.1018 1.0903L10.3946 3.01755L6.1018 4.93784L1.80897 3.01755L6.1018 1.0903Z" fill="#1689CA"/>
</svg>
