<svg width="13" height="13" viewBox="0 0 13 13" fill="none" xmlns="http://www.w3.org/2000/svg">
<path d="M6.5 7.5487C8.4458 7.5487 13 7.54825 13 11.5321C12.9978 11.6982 12.9309 11.857 12.8135 11.9745C12.696 12.0919 12.5372 12.1588 12.3711 12.161C12.205 12.1588 12.0462 12.0919 11.9287 11.9745C11.8112 11.857 11.7444 11.6982 11.7422 11.5321C11.7422 9.89663 10.8529 8.80651 6.5 8.80651C2.14712 8.80651 1.25782 9.89663 1.25781 11.5321C1.25781 11.6989 1.19219 11.8594 1.07422 11.9774C0.956257 12.0953 0.795714 12.161 0.628906 12.161C0.462315 12.161 0.302468 12.0951 0.18457 11.9774C0.0666039 11.8594 0 11.6989 0 11.5321C2.38822e-05 7.54825 4.5542 7.5487 6.5 7.5487ZM5.88672 0.0604139C6.49657 -0.0608371 7.12863 0.00126863 7.70312 0.239125C8.27776 0.477147 8.76965 0.880195 9.11523 1.39733C9.46083 1.91455 9.64551 2.52332 9.64551 3.14537C9.64542 3.9794 9.31338 4.77926 8.72363 5.36901C8.13382 5.95873 7.33407 6.28991 6.5 6.28991C5.87811 6.28991 5.27006 6.10602 4.75293 5.76061C4.23573 5.41503 3.83278 4.92318 3.59473 4.3485C3.35668 3.7738 3.29368 3.14122 3.41504 2.53112C3.53643 1.92112 3.83657 1.36056 4.27637 0.920765C4.71618 0.481079 5.27676 0.181742 5.88672 0.0604139ZM6.5 1.25768C6.12677 1.25768 5.7615 1.36868 5.45117 1.57604C5.14106 1.78334 4.89963 2.07811 4.75684 2.42272C4.61401 2.76754 4.5766 3.14748 4.64941 3.51354C4.72228 3.87945 4.90219 4.21554 5.16602 4.47936C5.4299 4.74318 5.76585 4.92316 6.13184 4.99596C6.49774 5.06874 6.87698 5.03122 7.22168 4.88854C7.5665 4.74571 7.86198 4.50356 8.06934 4.19323C8.27651 3.88305 8.38665 3.51838 8.38672 3.14537C8.38672 2.64489 8.18788 2.16431 7.83398 1.81041C7.48012 1.45671 7.00034 1.25768 6.5 1.25768Z" fill="#1689CA"/>
</svg>
